<svg xmlns="http://www.w3.org/2000/svg" width="342.199" height="213.243" viewBox="0 0 342.199 213.243"><g transform="translate(-20.98 -33.47)"><g transform="translate(24.484 33.47)"><rect width="36.86" height="116.823" transform="translate(257.355 15.064)" fill="#f5f5f5"/><rect width="18.432" height="116.504" transform="translate(275.787 15.064)" fill="#ebebeb"/><rect width="13.015" height="11.468" transform="translate(261.564 3.596)" fill="#f5f5f5"/><rect width="3.103" height="11.468" transform="translate(271.481 3.596)" fill="#ebebeb"/><path d="M554.39,63.927V63.26h41.016v.667" transform="translate(-300.109 -48.863)" fill="#e0e0e0"/><rect width="3.122" height="6.577" transform="translate(264.633 20.066)" fill="#fafafa"/><path d="M579.182,93.866c0,.068-4.127.126-9.216.126s-9.216-.058-9.216-.126,4.127-.126,9.216-.126S579.182,93.774,579.182,93.866Z" transform="translate(-303.395 -64.613)" fill="#e0e0e0"/><rect width="3.122" height="6.577" transform="translate(283.225 20.066)" fill="#e0e0e0"/><path d="M617.652,93.866c0,.068-4.127.126-9.216.126s-9.216-.058-9.216-.126,4.127-.126,9.216-.126S617.652,93.774,617.652,93.866Z" transform="translate(-323.273 -64.613)" fill="#e0e0e0"/><rect width="3.122" height="6.577" transform="translate(283.225 33.129)" fill="#e0e0e0"/><path d="M617.652,120.866c0,.068-4.127.126-9.216.126s-9.216-.058-9.216-.126,4.127-.126,9.216-.126S617.652,120.784,617.652,120.866Z" transform="translate(-323.273 -78.564)" fill="#e0e0e0"/><rect width="3.122" height="6.577" transform="translate(283.225 46.583)" fill="#e0e0e0"/><path d="M617.652,148.686c0,.072-4.127.126-9.216.126s-9.216-.053-9.216-.126,4.127-.126,9.216-.126S617.652,148.618,617.652,148.686Z" transform="translate(-323.273 -92.94)" fill="#e0e0e0"/><rect width="3.122" height="6.577" transform="translate(283.225 60.042)" fill="#e0e0e0"/><path d="M617.652,176.536c0,.068-4.127.126-9.216.126s-9.216-.058-9.216-.126,4.127-.126,9.216-.126S617.652,176.463,617.652,176.536Z" transform="translate(-323.273 -107.33)" fill="#e0e0e0"/><rect width="3.122" height="6.577" transform="translate(283.225 73.115)" fill="#e0e0e0"/><path d="M617.652,203.576c0,.072-4.127.126-9.216.126s-9.216-.053-9.216-.126,4.127-.126,9.216-.126S617.652,203.508,617.652,203.576Z" transform="translate(-323.273 -121.302)" fill="#e0e0e0"/><rect width="3.122" height="6.577" transform="translate(283.225 86.236)" fill="#e0e0e0"/><rect width="3.122" height="6.577" transform="translate(283.225 99.536)" fill="#e0e0e0"/><path d="M617.652,230.736c0,.068-4.127.126-9.216.126s-9.216-.058-9.216-.126,4.127-.126,9.216-.126S617.652,230.668,617.652,230.736Z" transform="translate(-323.273 -135.337)" fill="#e0e0e0"/><rect width="3.122" height="6.577" transform="translate(264.633 33.327)" fill="#fafafa"/><path d="M579.182,121.256c0,.068-4.127.126-9.216.126s-9.216-.058-9.216-.126,4.127-.126,9.216-.126S579.182,121.188,579.182,121.256Z" transform="translate(-303.395 -78.766)" fill="#e0e0e0"/><rect width="3.122" height="6.577" transform="translate(264.633 46.588)" fill="#fafafa"/><path d="M579.182,148.7c0,.068-4.127.126-9.216.126s-9.216-.058-9.216-.126,4.127-.126,9.216-.126S579.182,148.628,579.182,148.7Z" transform="translate(-303.395 -92.945)" fill="#e0e0e0"/><rect width="3.122" height="6.577" transform="translate(264.633 59.854)" fill="#fafafa"/><path d="M579.182,176.136c0,.072-4.127.126-9.216.126s-9.216-.053-9.216-.126,4.127-.126,9.216-.126S579.182,176.068,579.182,176.136Z" transform="translate(-303.395 -107.124)" fill="#e0e0e0"/><rect width="3.122" height="6.577" transform="translate(264.633 73.115)" fill="#fafafa"/><path d="M579.182,203.576c0,.072-4.127.126-9.216.126s-9.216-.053-9.216-.126,4.127-.126,9.216-.126S579.182,203.508,579.182,203.576Z" transform="translate(-303.395 -121.302)" fill="#e0e0e0"/><rect width="3.122" height="6.577" transform="translate(264.633 86.376)" fill="#fafafa"/><path d="M579.182,231.016c0,.072-4.127.126-9.216.126s-9.216-.053-9.216-.126,4.127-.126,9.216-.126S579.182,230.943,579.182,231.016Z" transform="translate(-303.395 -135.481)" fill="#e0e0e0"/><rect width="3.122" height="6.577" transform="translate(264.633 99.637)" fill="#fafafa"/><rect width="43.563" height="138.058" transform="translate(293.524 65.252)" fill="#f5f5f5"/><rect width="21.781" height="136.25" transform="translate(315.305 67.064)" fill="#ebebeb"/><rect width="15.383" height="13.556" transform="translate(298.496 53.508)" fill="#f5f5f5"/><rect width="3.668" height="13.556" transform="translate(310.211 53.508)" fill="#ebebeb"/><path d="M628.07,171.393V170.6h48.468v.793" transform="translate(-338.181 -104.328)" fill="#e0e0e0"/><rect width="3.687" height="7.776" transform="translate(302.121 72.975)" fill="#fafafa"/><path d="M657.371,206.71c0,.082-4.881.15-10.893.15s-10.888-.068-10.888-.15,4.871-.15,10.888-.15S657.371,206.628,657.371,206.71Z" transform="translate(-342.066 -122.909)" fill="#e0e0e0"/><rect width="3.687" height="7.776" transform="translate(324.091 72.975)" fill="#e0e0e0"/><path d="M702.831,206.71c0,.082-4.876.15-10.893.15s-10.888-.068-10.888-.15,4.876-.15,10.888-.15S702.831,206.628,702.831,206.71Z" transform="translate(-365.557 -122.909)" fill="#e0e0e0"/><rect width="3.687" height="7.776" transform="translate(324.091 88.411)" fill="#e0e0e0"/><path d="M702.831,238.65c0,.082-4.876.15-10.893.15s-10.888-.068-10.888-.15,4.876-.15,10.888-.15S702.831,238.568,702.831,238.65Z" transform="translate(-365.557 -139.414)" fill="#e0e0e0"/><rect width="3.687" height="7.776" transform="translate(324.091 104.311)" fill="#e0e0e0"/><path d="M702.831,271.56c0,.082-4.876.145-10.893.145s-10.888-.063-10.888-.145,4.876-.15,10.888-.15S702.831,271.478,702.831,271.56Z" transform="translate(-365.557 -156.419)" fill="#e0e0e0"/><rect width="3.687" height="7.776" transform="translate(324.091 120.215)" fill="#e0e0e0"/><path d="M702.831,304.46c0,.082-4.876.15-10.893.15s-10.888-.068-10.888-.15,4.876-.15,10.888-.15S702.831,304.378,702.831,304.46Z" transform="translate(-365.557 -173.419)" fill="#e0e0e0"/><rect width="3.687" height="7.776" transform="translate(324.091 135.661)" fill="#e0e0e0"/><path d="M702.831,336.425c0,.082-4.876.15-10.893.15s-10.888-.068-10.888-.15,4.876-.145,10.888-.145S702.831,336.348,702.831,336.425Z" transform="translate(-365.557 -189.939)" fill="#e0e0e0"/><rect width="3.687" height="7.776" transform="translate(324.091 151.174)" fill="#e0e0e0"/><rect width="3.687" height="7.776" transform="translate(324.091 166.885)" fill="#e0e0e0"/><path d="M702.831,368.52c0,.082-4.876.15-10.893.15s-10.888-.068-10.888-.15,4.876-.15,10.888-.15S702.831,368.438,702.831,368.52Z" transform="translate(-365.557 -206.52)" fill="#e0e0e0"/><rect width="3.687" height="7.776" transform="translate(302.121 88.648)" fill="#fafafa"/><path d="M657.371,239.14c0,.082-4.881.15-10.893.15s-10.888-.068-10.888-.15,4.871-.15,10.888-.15S657.371,239.058,657.371,239.14Z" transform="translate(-342.066 -139.667)" fill="#e0e0e0"/><rect width="3.687" height="7.776" transform="translate(302.121 104.32)" fill="#fafafa"/><path d="M657.371,271.57c0,.082-4.881.145-10.893.145s-10.888-.063-10.888-.145,4.871-.15,10.888-.15S657.371,271.488,657.371,271.57Z" transform="translate(-342.066 -156.424)" fill="#e0e0e0"/><rect width="3.687" height="7.776" transform="translate(302.121 119.988)" fill="#fafafa"/><path d="M657.371,304c0,.082-4.881.145-10.893.145s-10.888-.063-10.888-.145,4.871-.15,10.888-.15S657.371,303.922,657.371,304Z" transform="translate(-342.066 -173.181)" fill="#e0e0e0"/><rect width="3.687" height="7.776" transform="translate(302.121 135.661)" fill="#fafafa"/><path d="M657.371,336.425c0,.082-4.881.15-10.893.15s-10.888-.068-10.888-.15,4.871-.145,10.888-.145S657.371,336.348,657.371,336.425Z" transform="translate(-342.066 -189.939)" fill="#e0e0e0"/><rect width="3.687" height="7.776" transform="translate(302.121 151.334)" fill="#fafafa"/><path d="M657.371,368.845c0,.082-4.881.15-10.893.15s-10.888-.068-10.888-.15,4.871-.145,10.888-.145S657.371,368.768,657.371,368.845Z" transform="translate(-342.066 -206.691)" fill="#e0e0e0"/><rect width="3.687" height="7.776" transform="translate(302.121 167.006)" fill="#fafafa"/><path d="M597.095,358.349H540.4l-.246-89.609h56.7Z" transform="translate(-292.751 -155.039)" fill="#f5f5f5"/><rect width="28.349" height="89.609" transform="translate(275.749 113.701)" fill="#ebebeb"/><rect width="20.022" height="17.64" transform="translate(253.875 96.061)" fill="#f5f5f5"/><rect width="4.77" height="17.64" transform="translate(269.123 96.061)" fill="#ebebeb"/><rect width="63.082" height="1.029" transform="translate(242.673 112.671)" fill="#e0e0e0"/><rect width="4.799" height="10.12" transform="translate(258.592 121.395)" fill="#fff"/><path d="M568.5,313.613c0,.106-6.345.193-14.175.193s-14.175-.087-14.175-.193,6.345-.193,14.175-.193S568.5,313.507,568.5,313.613Z" transform="translate(-292.75 -178.126)" fill="#e0e0e0"/><rect width="4.799" height="10.12" transform="translate(287.188 121.395)" fill="#f5f5f5"/><path d="M627.689,313.613c0,.106-6.345.193-14.175.193s-14.174-.087-14.174-.193,6.345-.193,14.174-.193S627.689,313.507,627.689,313.613Z" transform="translate(-323.335 -178.126)" fill="#e0e0e0"/><rect width="4.799" height="10.12" transform="translate(287.188 141.489)" fill="#f5f5f5"/><path d="M627.689,355.188c0,.111-6.345.193-14.175.193s-14.174-.082-14.174-.193,6.345-.188,14.174-.188S627.689,355.082,627.689,355.188Z" transform="translate(-323.335 -199.612)" fill="#e0e0e0"/><rect width="4.799" height="10.12" transform="translate(287.188 162.188)" fill="#f5f5f5"/><path d="M627.689,398.013c0,.106-6.345.193-14.175.193s-14.174-.087-14.174-.193,6.345-.193,14.174-.193S627.689,397.907,627.689,398.013Z" transform="translate(-323.335 -221.738)" fill="#e0e0e0"/><rect width="4.799" height="10.12" transform="translate(287.188 182.882)" fill="#f5f5f5"/><path d="M627.689,440.843c0,.106-6.345.193-14.175.193s-14.174-.087-14.174-.193,6.345-.193,14.174-.193S627.689,440.737,627.689,440.843Z" transform="translate(-323.335 -243.869)" fill="#e0e0e0"/><rect width="4.799" height="10.12" transform="translate(258.592 141.794)" fill="#fff"/><path d="M568.5,355.793c0,.106-6.345.193-14.175.193s-14.175-.087-14.175-.193,6.345-.193,14.175-.193S568.5,355.7,568.5,355.793Z" transform="translate(-292.75 -199.922)" fill="#e0e0e0"/><rect width="4.799" height="10.12" transform="translate(258.592 162.193)" fill="#fff"/><path d="M568.5,398.033c0,.106-6.345.193-14.175.193s-14.175-.087-14.175-.193,6.345-.193,14.175-.193S568.5,397.917,568.5,398.033Z" transform="translate(-292.75 -221.748)" fill="#e0e0e0"/><rect width="4.799" height="10.12" transform="translate(258.592 182.592)" fill="#fff"/><path d="M568.5,440.243c0,.106-6.345.193-14.175.193s-14.175-.087-14.175-.193,6.345-.193,14.175-.193S568.5,440.137,568.5,440.243Z" transform="translate(-292.75 -243.559)" fill="#e0e0e0"/><rect width="42.659" height="135.192" transform="translate(48.579 13.271)" fill="#f5f5f5"/><rect width="21.327" height="134.82" transform="translate(69.906 13.271)" fill="#ebebeb"/><rect width="15.064" height="13.271" transform="translate(53.451)" fill="#f5f5f5"/><rect width="3.591" height="13.271" transform="translate(64.924)" fill="#ebebeb"/><path d="M121.39,60.1V59.33h47.463V60.1" transform="translate(-76.368 -46.832)" fill="#e0e0e0"/><rect width="3.61" height="7.612" transform="translate(56.998 19.06)" fill="#fafafa"/><path d="M150.077,94.695c0,.077-4.775.145-10.661.145s-10.666-.068-10.666-.145,4.775-.145,10.666-.145S150.077,94.613,150.077,94.695Z" transform="translate(-80.171 -65.031)" fill="#e0e0e0"/><rect width="3.61" height="7.612" transform="translate(78.513 19.06)" fill="#e0e0e0"/><path d="M194.6,94.695c0,.077-4.775.145-10.666.145s-10.661-.068-10.661-.145,4.77-.145,10.661-.145S194.6,94.613,194.6,94.695Z" transform="translate(-103.175 -65.031)" fill="#e0e0e0"/><rect width="3.61" height="7.612" transform="translate(78.513 34.177)" fill="#e0e0e0"/><path d="M194.6,125.975c0,.077-4.775.145-10.666.145s-10.661-.068-10.661-.145,4.77-.145,10.661-.145S194.6,125.912,194.6,125.975Z" transform="translate(-103.175 -81.194)" fill="#e0e0e0"/><rect width="3.61" height="7.612" transform="translate(78.513 49.749)" fill="#e0e0e0"/><path d="M194.6,158.195c0,.077-4.775.145-10.666.145s-10.661-.068-10.661-.145,4.77-.145,10.661-.145S194.6,158.113,194.6,158.195Z" transform="translate(-103.175 -97.843)" fill="#e0e0e0"/><rect width="3.61" height="7.612" transform="translate(78.513 65.32)" fill="#e0e0e0"/><path d="M194.6,190.415c0,.082-4.775.145-10.666.145s-10.661-.063-10.661-.145,4.77-.145,10.661-.145S194.6,190.333,194.6,190.415Z" transform="translate(-103.175 -114.492)" fill="#e0e0e0"/><rect width="3.61" height="7.612" transform="translate(78.513 80.446)" fill="#e0e0e0"/><path d="M194.6,221.715c0,.082-4.775.145-10.666.145s-10.661-.063-10.661-.145,4.77-.145,10.661-.145S194.6,221.633,194.6,221.715Z" transform="translate(-103.175 -130.665)" fill="#e0e0e0"/><rect width="3.61" height="7.612" transform="translate(78.513 95.636)" fill="#e0e0e0"/><rect width="3.61" height="7.612" transform="translate(78.513 111.023)" fill="#e0e0e0"/><path d="M194.6,253.145c0,.077-4.775.145-10.666.145s-10.661-.068-10.661-.145,4.77-.145,10.661-.145S194.6,253.063,194.6,253.145Z" transform="translate(-103.175 -146.906)" fill="#e0e0e0"/><rect width="3.61" height="7.612" transform="translate(56.998 34.409)" fill="#fafafa"/><path d="M150.077,126.445c0,.082-4.775.145-10.661.145s-10.666-.063-10.666-.145,4.775-.145,10.666-.145S150.077,126.368,150.077,126.445Z" transform="translate(-80.171 -81.437)" fill="#e0e0e0"/><rect width="3.61" height="7.612" transform="translate(56.998 49.753)" fill="#fafafa"/><path d="M150.077,158.2c0,.077-4.775.145-10.661.145s-10.666-.068-10.666-.145,4.775-.145,10.666-.145S150.077,158.123,150.077,158.2Z" transform="translate(-80.171 -97.848)" fill="#e0e0e0"/><rect width="3.61" height="7.612" transform="translate(56.998 65.102)" fill="#fafafa"/><path d="M150.077,189.955c0,.082-4.775.145-10.661.145s-10.666-.063-10.666-.145,4.775-.145,10.666-.145S150.077,189.9,150.077,189.955Z" transform="translate(-80.171 -114.254)" fill="#e0e0e0"/><rect width="3.61" height="7.612" transform="translate(56.998 80.446)" fill="#fafafa"/><path d="M150.077,221.715c0,.082-4.775.145-10.661.145s-10.666-.063-10.666-.145,4.775-.145,10.666-.145S150.077,221.633,150.077,221.715Z" transform="translate(-80.171 -130.665)" fill="#e0e0e0"/><rect width="3.61" height="7.612" transform="translate(56.998 95.795)" fill="#fafafa"/><path d="M150.077,253.465c0,.082-4.775.15-10.661.15s-10.666-.068-10.666-.15,4.775-.145,10.666-.145S150.077,253.388,150.077,253.465Z" transform="translate(-80.171 -147.071)" fill="#e0e0e0"/><rect width="3.61" height="7.612" transform="translate(56.998 111.139)" fill="#fafafa"/><rect width="38.822" height="123.028" transform="translate(95.191 24.154)" fill="#f5f5f5"/><rect width="19.408" height="122.69" transform="translate(114.604 24.154)" fill="#ebebeb"/><rect width="41.398" height="0.706" transform="translate(93.751 23.449)" fill="#e0e0e0"/><rect width="3.286" height="6.93" transform="translate(102.856 29.422)" fill="#fafafa"/><path d="M244.613,114.17c0,.072-4.349.135-9.7.135s-9.709-.063-9.709-.135,4.35-.13,9.709-.13S244.613,114.1,244.613,114.17Z" transform="translate(-130.009 -75.102)" fill="#e0e0e0"/><rect width="3.286" height="6.93" transform="translate(122.434 29.422)" fill="#e0e0e0"/><path d="M285.128,114.17c0,.072-4.349.135-9.7.135s-9.7-.063-9.7-.135,4.349-.13,9.7-.13S285.128,114.1,285.128,114.17Z" transform="translate(-150.946 -75.102)" fill="#e0e0e0"/><rect width="3.286" height="6.93" transform="translate(122.434 43.176)" fill="#e0e0e0"/><path d="M285.128,142.635c0,.072-4.349.131-9.7.131s-9.7-.058-9.7-.131,4.349-.135,9.7-.135S285.128,142.558,285.128,142.635Z" transform="translate(-150.946 -89.808)" fill="#e0e0e0"/><rect width="3.286" height="6.93" transform="translate(122.434 57.351)" fill="#e0e0e0"/><path d="M285.128,171.96c0,.073-4.349.13-9.7.13s-9.7-.058-9.7-.13,4.349-.13,9.7-.13S285.128,171.912,285.128,171.96Z" transform="translate(-150.946 -104.964)" fill="#e0e0e0"/><rect width="3.286" height="6.93" transform="translate(122.434 71.52)" fill="#e0e0e0"/><path d="M285.128,201.28c0,.072-4.349.135-9.7.135s-9.7-.063-9.7-.135,4.349-.13,9.7-.13S285.128,201.208,285.128,201.28Z" transform="translate(-150.946 -120.114)" fill="#e0e0e0"/><rect width="3.286" height="6.93" transform="translate(122.434 85.284)" fill="#e0e0e0"/><path d="M285.128,229.765c0,.072-4.349.13-9.7.13s-9.7-.058-9.7-.13,4.349-.135,9.7-.135S285.128,229.693,285.128,229.765Z" transform="translate(-150.946 -134.83)" fill="#e0e0e0"/><rect width="3.286" height="6.93" transform="translate(122.434 99.106)" fill="#e0e0e0"/><rect width="3.286" height="6.93" transform="translate(122.434 113.111)" fill="#e0e0e0"/><path d="M285.128,258.365c0,.073-4.349.13-9.7.13s-9.7-.058-9.7-.13,4.349-.135,9.7-.135S285.128,258.288,285.128,258.365Z" transform="translate(-150.946 -149.609)" fill="#e0e0e0"/><rect width="3.286" height="6.93" transform="translate(102.856 43.389)" fill="#fafafa"/><path d="M244.613,143.07c0,.072-4.349.13-9.7.13s-9.709-.058-9.709-.13,4.35-.13,9.709-.13S244.613,143,244.613,143.07Z" transform="translate(-130.009 -90.036)" fill="#e0e0e0"/><rect width="3.286" height="6.93" transform="translate(102.856 57.355)" fill="#fafafa"/><path d="M244.613,171.97c0,.072-4.349.13-9.7.13s-9.709-.058-9.709-.13,4.35-.13,9.709-.13S244.613,171.917,244.613,171.97Z" transform="translate(-130.009 -104.969)" fill="#e0e0e0"/><rect width="3.286" height="6.93" transform="translate(102.856 71.317)" fill="#fafafa"/><path d="M244.613,200.855c0,.072-4.349.13-9.7.13s-9.709-.058-9.709-.13,4.35-.135,9.709-.135S244.613,200.788,244.613,200.855Z" transform="translate(-130.009 -119.892)" fill="#e0e0e0"/><rect width="3.286" height="6.93" transform="translate(102.856 85.284)" fill="#fafafa"/><path d="M244.613,229.765c0,.072-4.349.13-9.7.13s-9.709-.058-9.709-.13,4.35-.135,9.709-.135S244.613,229.693,244.613,229.765Z" transform="translate(-130.009 -134.83)" fill="#e0e0e0"/><rect width="3.286" height="6.93" transform="translate(102.856 99.251)" fill="#fafafa"/><path d="M244.613,258.66c0,.077-4.349.135-9.7.135s-9.709-.058-9.709-.135,4.35-.13,9.709-.13S244.613,258.588,244.613,258.66Z" transform="translate(-130.009 -149.764)" fill="#e0e0e0"/><rect width="3.286" height="6.93" transform="translate(102.856 113.217)" fill="#fafafa"/><rect width="42.659" height="135.192" transform="translate(3.557 68.031)" fill="#f5f5f5"/><rect width="21.327" height="134.82" transform="translate(24.884 68.031)" fill="#ebebeb"/><rect width="15.064" height="13.271" transform="translate(8.428 54.76)" fill="#f5f5f5"/><rect width="3.591" height="13.271" transform="translate(19.901 54.76)" fill="#ebebeb"/><path d="M28.23,173.413v-.773H75.693v.773" transform="translate(-28.23 -105.382)" fill="#e0e0e0"/><rect width="3.61" height="7.612" transform="translate(11.976 73.821)" fill="#fafafa"/><path d="M56.917,207.995c0,.082-4.775.145-10.661.145s-10.666-.063-10.666-.145,4.775-.145,10.666-.145S56.917,207.922,56.917,207.995Z" transform="translate(-32.033 -123.576)" fill="#e0e0e0"/><rect width="3.61" height="7.612" transform="translate(33.491 73.821)" fill="#e0e0e0"/><path d="M101.432,207.995c0,.082-4.775.145-10.666.145s-10.666-.063-10.666-.145,4.775-.145,10.666-.145S101.432,207.922,101.432,207.995Z" transform="translate(-55.032 -123.576)" fill="#e0e0e0"/><rect width="3.61" height="7.612" transform="translate(33.491 88.933)" fill="#e0e0e0"/><path d="M101.432,239.275c0,.082-4.775.145-10.666.145s-10.666-.063-10.666-.145,4.775-.145,10.666-.145S101.432,239.193,101.432,239.275Z" transform="translate(-55.032 -139.739)" fill="#e0e0e0"/><rect width="3.61" height="7.612" transform="translate(33.491 104.509)" fill="#e0e0e0"/><path d="M101.432,271.495c0,.082-4.775.145-10.666.145s-10.666-.063-10.666-.145,4.775-.145,10.666-.145S101.432,271.418,101.432,271.495Z" transform="translate(-55.032 -156.388)" fill="#e0e0e0"/><rect width="3.61" height="7.612" transform="translate(33.491 120.08)" fill="#e0e0e0"/><path d="M101.432,303.715c0,.082-4.775.145-10.666.145S80.1,303.8,80.1,303.715s4.775-.145,10.666-.145S101.432,303.638,101.432,303.715Z" transform="translate(-55.032 -173.037)" fill="#e0e0e0"/><rect width="3.61" height="7.612" transform="translate(33.491 135.207)" fill="#e0e0e0"/><path d="M101.432,335.015c0,.082-4.775.145-10.666.145S80.1,335.1,80.1,335.015s4.775-.145,10.666-.145S101.432,334.933,101.432,335.015Z" transform="translate(-55.032 -189.21)" fill="#e0e0e0"/><rect width="3.61" height="7.612" transform="translate(33.491 150.391)" fill="#e0e0e0"/><rect width="3.61" height="7.612" transform="translate(33.491 165.779)" fill="#e0e0e0"/><path d="M101.432,366.445c0,.082-4.775.145-10.666.145s-10.666-.063-10.666-.145,4.775-.145,10.666-.145S101.432,366.363,101.432,366.445Z" transform="translate(-55.032 -205.451)" fill="#e0e0e0"/><rect width="3.61" height="7.612" transform="translate(11.976 89.165)" fill="#fafafa"/><path d="M56.917,239.755c0,.077-4.775.145-10.661.145s-10.666-.068-10.666-.145,4.775-.145,10.666-.145S56.917,239.673,56.917,239.755Z" transform="translate(-32.033 -139.987)" fill="#e0e0e0"/><rect width="3.61" height="7.612" transform="translate(11.976 104.514)" fill="#fafafa"/><path d="M56.917,271.505c0,.082-4.775.145-10.661.145s-10.666-.063-10.666-.145,4.775-.145,10.666-.145S56.917,271.428,56.917,271.505Z" transform="translate(-32.033 -156.393)" fill="#e0e0e0"/><rect width="3.61" height="7.612" transform="translate(11.976 119.858)" fill="#fafafa"/><path d="M56.917,303.265c0,.077-4.775.145-10.661.145s-10.666-.068-10.666-.145,4.775-.145,10.666-.145S56.917,303.183,56.917,303.265Z" transform="translate(-32.033 -172.804)" fill="#e0e0e0"/><rect width="3.61" height="7.612" transform="translate(11.976 135.207)" fill="#fafafa"/><path d="M56.917,335.015c0,.082-4.775.145-10.661.145s-10.666-.063-10.666-.145,4.775-.145,10.666-.145S56.917,334.933,56.917,335.015Z" transform="translate(-32.033 -189.21)" fill="#e0e0e0"/><rect width="3.61" height="7.612" transform="translate(11.976 150.551)" fill="#fafafa"/><path d="M56.917,366.775c0,.082-4.775.145-10.661.145s-10.666-.063-10.666-.145,4.775-.145,10.666-.145S56.917,366.693,56.917,366.775Z" transform="translate(-32.033 -205.621)" fill="#e0e0e0"/><rect width="3.61" height="7.612" transform="translate(11.976 165.9)" fill="#fafafa"/><path d="M161.745,360.029H106.222l-.242-87.749H161.5Z" transform="translate(-68.405 -156.868)" fill="#f5f5f5"/><rect width="27.759" height="87.749" transform="translate(65.334 115.412)" fill="#ebebeb"/><rect width="19.607" height="17.277" transform="translate(43.915 98.134)" fill="#f5f5f5"/><rect width="4.673" height="17.277" transform="translate(58.849 98.134)" fill="#ebebeb"/><rect width="61.773" height="1.005" transform="translate(32.95 114.401)" fill="#e0e0e0"/><rect width="4.697" height="9.912" transform="translate(48.536 122.946)" fill="#fff"/><path d="M133.739,316.219c0,.106-6.215.188-13.88.188s-13.88-.082-13.88-.188,6.215-.188,13.88-.188S133.739,316.117,133.739,316.219Z" transform="translate(-68.405 -179.475)" fill="#e0e0e0"/><rect width="4.697" height="9.912" transform="translate(76.537 122.946)" fill="#f5f5f5"/><path d="M191.684,316.219c0,.106-6.215.188-13.88.188s-13.885-.082-13.885-.188,6.215-.188,13.885-.188S191.684,316.117,191.684,316.219Z" transform="translate(-98.344 -179.475)" fill="#e0e0e0"/><rect width="4.697" height="9.912" transform="translate(76.537 142.62)" fill="#f5f5f5"/><path d="M191.684,356.928c0,.106-6.215.188-13.88.188s-13.885-.082-13.885-.188,6.215-.188,13.885-.188S191.684,356.827,191.684,356.928Z" transform="translate(-98.344 -200.511)" fill="#e0e0e0"/><rect width="4.697" height="9.912" transform="translate(76.537 162.889)" fill="#f5f5f5"/><path d="M191.684,398.868c0,.106-6.215.188-13.88.188s-13.885-.082-13.885-.188,6.215-.189,13.885-.189S191.684,398.767,191.684,398.868Z" transform="translate(-98.344 -222.182)" fill="#e0e0e0"/><rect width="4.697" height="9.912" transform="translate(76.537 183.157)" fill="#f5f5f5"/><path d="M191.684,440.8c0,.106-6.215.189-13.88.189s-13.885-.082-13.885-.189,6.215-.188,13.885-.188S191.684,440.7,191.684,440.8Z" transform="translate(-98.344 -243.848)" fill="#e0e0e0"/><rect width="4.697" height="9.912" transform="translate(48.536 142.92)" fill="#fff"/><path d="M133.75,357.548c0,.106-6.215.193-13.88.193s-13.87-.072-13.87-.193,6.215-.188,13.88-.188S133.75,357.447,133.75,357.548Z" transform="translate(-68.415 -200.831)" fill="#e0e0e0"/><rect width="4.697" height="9.912" transform="translate(48.536 162.894)" fill="#fff"/><path d="M133.75,398.883c0,.1-6.215.188-13.88.188s-13.87-.087-13.87-.188,6.215-.193,13.88-.193S133.75,398.777,133.75,398.883Z" transform="translate(-68.415 -222.187)" fill="#e0e0e0"/><rect width="4.697" height="9.912" transform="translate(48.536 182.872)" fill="#fff"/><path d="M133.739,440.218c0,.1-6.215.189-13.88.189s-13.88-.087-13.88-.189,6.215-.188,13.88-.188S133.739,440.112,133.739,440.218Z" transform="translate(-68.405 -243.549)" fill="#e0e0e0"/><path d="M261.489,382.777H219.464l-.184-66.417h42.026Z" transform="translate(-126.95 -179.646)" fill="#f5f5f5"/><rect width="21.013" height="66.417" transform="translate(113.343 136.714)" fill="#ebebeb"/><rect width="14.841" height="13.073" transform="translate(97.129 123.642)" fill="#f5f5f5"/><rect width="3.538" height="13.073" transform="translate(108.433 123.642)" fill="#ebebeb"/><rect width="46.757" height="0.764" transform="translate(88.831 135.951)" fill="#e0e0e0"/><rect width="3.557" height="7.5" transform="translate(100.628 142.417)" fill="#fff"/><path d="M240.293,349.62c0,.082-4.7.145-10.506.145s-10.506-.063-10.506-.145,4.7-.14,10.506-.14S240.293,349.543,240.293,349.62Z" transform="translate(-126.95 -196.759)" fill="#e0e0e0"/><rect width="3.557" height="7.5" transform="translate(121.82 142.417)" fill="#f5f5f5"/><path d="M284.153,349.62c0,.082-4.707.145-10.506.145s-10.506-.063-10.506-.145,4.7-.14,10.506-.14S284.153,349.543,284.153,349.62Z" transform="translate(-149.613 -196.759)" fill="#e0e0e0"/><rect width="3.557" height="7.5" transform="translate(121.82 157.307)" fill="#f5f5f5"/><path d="M284.153,380.435c0,.077-4.707.14-10.506.14s-10.506-.063-10.506-.14,4.7-.145,10.506-.145S284.153,380.353,284.153,380.435Z" transform="translate(-149.613 -212.68)" fill="#e0e0e0"/><rect width="3.557" height="7.5" transform="translate(121.82 172.651)" fill="#f5f5f5"/><path d="M284.153,412.175c0,.077-4.707.14-10.506.14s-10.506-.063-10.506-.14,4.7-.145,10.506-.145S284.153,412.093,284.153,412.175Z" transform="translate(-149.613 -229.08)" fill="#e0e0e0"/><rect width="3.557" height="7.5" transform="translate(121.82 187.99)" fill="#f5f5f5"/><path d="M284.153,443.915c0,.077-4.707.145-10.506.145s-10.506-.068-10.506-.145,4.7-.145,10.506-.145S284.153,443.838,284.153,443.915Z" transform="translate(-149.613 -245.481)" fill="#e0e0e0"/><rect width="3.557" height="7.5" transform="translate(100.628 157.534)" fill="#fff"/><path d="M240.293,380.9c0,.077-4.7.14-10.506.14s-10.506-.063-10.506-.14,4.7-.145,10.506-.145S240.293,380.823,240.293,380.9Z" transform="translate(-126.95 -212.923)" fill="#e0e0e0"/><rect width="3.557" height="7.5" transform="translate(100.628 172.656)" fill="#fff"/><path d="M240.293,412.164c0,.077-4.7.145-10.506.145s-10.506-.068-10.506-.145,4.7-.164,10.5-.164S240.293,412.087,240.293,412.164Z" transform="translate(-126.95 -229.065)" fill="#e0e0e0"/><rect width="3.557" height="7.5" transform="translate(100.628 187.773)" fill="#fff"/><path d="M240.293,443.47c0,.082-4.7.145-10.506.145s-10.506-.063-10.506-.145,4.7-.14,10.506-.14S240.293,443.393,240.293,443.47Z" transform="translate(-126.95 -245.254)" fill="#e0e0e0"/><path d="M403.6,101.543c.367-2.677-3.407-4.881-6.249-5.108a16.257,16.257,0,0,1-4.04-.348c-2.779-.967-3.866-4.557-6.6-5.7-2.025-.855-4.35-.092-6.321.894s-3.91,2.233-6.1,2.378c-1.933.121-3.982-.59-5.654.343-1.242.7-1.894,2.131-3.045,2.977a7.144,7.144,0,0,1-3.977,1.078,11.155,11.155,0,0,0-4.1.672,3.25,3.25,0,0,0-2.054,3.291Z" transform="translate(-197.294 -62.687)" fill="#f5f5f5"/><path d="M292.339,48.547c.242-1.774-2.257-3.233-4.137-3.383a10.71,10.71,0,0,1-2.677-.232c-1.841-.643-2.576-3.02-4.349-3.774a5.144,5.144,0,0,0-4.19.59,10.962,10.962,0,0,1-4.04,1.575c-1.261.077-2.639-.391-3.741.227-.826.483-1.257,1.411-2.02,1.972a4.833,4.833,0,0,1-2.634.715,7.336,7.336,0,0,0-2.716.445,2.145,2.145,0,0,0-1.363,2.18Z" transform="translate(-148.22 -37.316)" fill="#f5f5f5"/><path d="M499.8,56.427c.242-1.774-2.257-3.228-4.137-3.383a10.488,10.488,0,0,1-2.677-.232c-1.841-.638-2.576-3.016-4.349-3.774a5.128,5.128,0,0,0-4.19.594A10.787,10.787,0,0,1,480.4,51.2c-1.266.082-2.639-.387-3.745.232-.822.483-1.257,1.411-2.015,1.967a4.765,4.765,0,0,1-2.634.715,7.544,7.544,0,0,0-2.716.445,2.153,2.153,0,0,0-1.363,2.18Z" transform="translate(-255.42 -41.388)" fill="#f5f5f5"/><path d="M687.269,101.557c.242-1.774-2.257-3.233-4.137-3.383a10.71,10.71,0,0,1-2.677-.232c-1.841-.638-2.576-3.016-4.349-3.774a5.128,5.128,0,0,0-4.19.594,10.787,10.787,0,0,1-4.04,1.571c-1.266.082-2.639-.387-3.745.227-.822.483-1.256,1.411-2.015,1.972a4.765,4.765,0,0,1-2.634.715,7.336,7.336,0,0,0-2.716.445,2.149,2.149,0,0,0-1.363,2.18Z" transform="translate(-352.29 -64.707)" fill="#f5f5f5"/><path d="M69.864,87.887c.246-1.774-2.257-3.233-4.137-3.383a10.73,10.73,0,0,1-2.677-.232c-1.836-.643-2.576-3.02-4.349-3.774a5.144,5.144,0,0,0-4.19.59,11.516,11.516,0,0,1-4.084,1.575c-1.261.077-2.634-.391-3.741.227-.826.483-1.257,1.411-2.015,1.972a4.867,4.867,0,0,1-2.639.715,7.336,7.336,0,0,0-2.716.445,2.128,2.128,0,0,0-1.348,2.18Z" transform="translate(-33.247 -57.643)" fill="#f5f5f5"/></g><g transform="translate(20.98 236.654)"><path d="M363.179,454.026c0,.073-76.614.126-171.08.126S20.98,454.1,20.98,454.026s76.6-.126,171.119-.126S363.179,453.948,363.179,454.026Z" transform="translate(-20.98 -453.9)" fill="#263238"/></g><g transform="translate(232.061 55.603)"><path d="M626.293,100.48s-1.45-1.542-2.126-1.174a4.357,4.357,0,0,0-1.45,1.933.71.71,0,0,0,.633,1.034,4.784,4.784,0,0,0,.913-.855l1.315,1.068.044,1.8-.073.527-1.15-.3-.242-1.358a.643.643,0,0,0-1.054-.387.967.967,0,0,0-.266.667c-.077,1.17,0,3.2,1.348,3.832a32.432,32.432,0,0,0,3.7,1.329l1.087,1.121,4.514-.923-.88-1.933-.416-6.017s1.387-2.5,1.29-3.335-.657-3.344-.657-3.344a.6.6,0,0,0-.846.483,15.158,15.158,0,0,0,.077,2.842L630.874,99.5l-1.2-6.587a.561.561,0,0,0-1.029-.188,1.846,1.846,0,0,0-.184.967c.039,1.677.677,5.683.483,5.737s-.739-.217-.967-1.029-1.377-3.958-1.851-5.253a.43.43,0,0,0-.749-.121,2.394,2.394,0,0,0-.184,2.064c.333,1.329,1.034,3.982,1.1,4.3A6.034,6.034,0,0,1,626.293,100.48Z" transform="translate(-542.951 -86.082)" fill="#ffbf9d"/><path d="M632.761,118.949a4.832,4.832,0,0,1-.411-.406,3.344,3.344,0,0,0-2.455-.918c-.348,0-.565.072-.575.034s.188-.14.556-.2a2.851,2.851,0,0,1,2.6.967C632.708,118.717,632.785,118.934,632.761,118.949Z" transform="translate(-546.404 -98.984)" fill="#ff9a6c"/><path d="M612,403.36l7.409,11.463,3.248,10.758a1.4,1.4,0,0,0,1.832.9h0a1.343,1.343,0,0,0,.86-.967c.585-2.721,2.61-15.257,2.223-15.837-.638-.967-6.466-10.661-6.466-10.661Z" transform="translate(-537.454 -244.491)" fill="#263238"/><path d="M637.85,437.007l2.6-17.577.3.483a2.112,2.112,0,0,1,.29,1.426c-.208,1.319-.855,7.65-2.3,14.687a1.334,1.334,0,0,1-.894.967Z" transform="translate(-550.812 -255.037)" fill="#455a64"/><g transform="translate(85.433 163.588)" opacity="0.6"><path d="M634.592,418.236a.841.841,0,0,0,.382,1.063.807.807,0,0,0,1.054-.367.889.889,0,0,0-.411-1.121.841.841,0,0,0-1.054.483" transform="translate(-634.528 -417.766)" fill="#fff"/></g><path d="M633.6,441.279a4.229,4.229,0,0,0-1.576-.28,4.3,4.3,0,0,0-1.493.565c-.029,0,.063-.2.309-.406a2.228,2.228,0,0,1,2.378-.227C633.507,441.091,633.627,441.25,633.6,441.279Z" transform="translate(-547.029 -266.022)" fill="#fff"/><path d="M634.413,445.934a12.951,12.951,0,0,0-1.339.135,10.2,10.2,0,0,0-1.223.551c-.072-.039.338-.633,1.145-.841S634.456,445.847,634.413,445.934Z" transform="translate(-547.708 -268.613)" fill="#fff"/><path d="M633.218,435.461a14.3,14.3,0,0,0-2.078.068,18.863,18.863,0,0,0-1.972.657,3.065,3.065,0,0,1,1.933-.967,3.141,3.141,0,0,1,2.117.242Z" transform="translate(-546.325 -263.153)" fill="#fff"/><path d="M630.167,428.2c0,.092-.8.217-1.653.7s-1.392,1.092-1.45,1.034a2.654,2.654,0,0,1,1.315-1.3A2.76,2.76,0,0,1,630.167,428.2Z" transform="translate(-545.236 -259.56)" fill="#fff"/><path d="M627.366,423.1a7.03,7.03,0,0,0-1.735.681,7.868,7.868,0,0,0-1.3,1.339c-.082-.039,0-.237.179-.556a2.943,2.943,0,0,1,.967-1.029,2.987,2.987,0,0,1,1.319-.483C627.148,423.021,627.37,423.064,627.366,423.1Z" transform="translate(-543.807 -256.903)" fill="#fff"/><path d="M552.2,253.922c0,.459,3.383,42.794,4.7,45.559s26.981,34.385,26.981,34.385l10.714-7.384-22.753-32.969-.638-30.9L565.93,250.5Z" transform="translate(-506.554 -167.747)" fill="#263238"/><path d="M598.491,240.05c.266.643,3.8,10.734,4.069,15.015s-7.645,80.33-7.645,80.33l-13.049-1.044L585.25,260.6l-5.65-15.5Z" transform="translate(-520.712 -162.348)" fill="#263238"/><path d="M574.669,274a.575.575,0,0,0,0,.15v.435q.034.585.1,1.7l.416,6.432,1.542,22.965v.053l18.3,26.551,4.446,6.442.034-.179-10.714,7.389.169.024L569.526,321.8l-5.611-6.95-1.479-1.87c-.169-.208-.295-.362-.391-.483a1.407,1.407,0,0,0-.135-.155l.121.169.377.483,1.45,1.87,5.563,7,19.331,24.232.073.087.092-.063,10.772-7.355.106-.072-.072-.106-4.422-6.461-18.365-26.527v.053c-.677-9.492-1.242-17.4-1.638-22.956-.2-2.764-.367-4.939-.483-6.428q-.087-1.111-.13-1.7a3.8,3.8,0,0,0-.039-.435C574.635,274.024,574.669,274,574.669,274Z" transform="translate(-511.572 -179.89)" fill="#455a64"/><path d="M579.414,422l.271,9.917s-9.989,3.605-10.115,5.442l19.244.169.213-15.465Z" transform="translate(-515.53 -256.365)" fill="#263238"/><path d="M601.833,440.917a.788.788,0,0,1,.536.9.754.754,0,0,1-.889.536.826.826,0,0,1-.561-.967.788.788,0,0,1,.967-.459" transform="translate(-531.719 -266.129)" fill="#e0e0e0"/><path d="M588.807,452.5l-.039-1.561-18.437.425s-.86.362-.768.967Z" transform="translate(-515.522 -271.319)" fill="#455a64"/><path d="M589.859,442.24c0,.1.483.14.933.449s.7.7.788.667-.048-.58-.614-.967S589.84,442.153,589.859,442.24Z" transform="translate(-526.014 -266.771)" fill="#fff"/><path d="M585.67,443.97c0,.092.382.256.7.657s.406.822.483.817.159-.532-.242-1.025S585.67,443.9,585.67,443.97Z" transform="translate(-523.849 -267.704)" fill="#fff"/><path d="M582.481,447.257c.087.024.222-.445,0-.967s-.677-.725-.715-.648.227.353.416.783S582.389,447.257,582.481,447.257Z" transform="translate(-521.83 -268.574)" fill="#fff"/><path d="M590.247,437.31c.039.087.483-.039,1,0s.967.213,1,.135-.348-.42-.966-.459S590.2,437.238,590.247,437.31Z" transform="translate(-526.213 -264.107)" fill="#fff"/><path d="M561.708,88.732a2.16,2.16,0,0,0-.1-4.3,2.247,2.247,0,0,0-2.8-3.219,2.687,2.687,0,0,0-4.456-1.189,3.025,3.025,0,0,0-3.634.807,2.146,2.146,0,0,0-.966,3.987" transform="translate(-504.749 -79.268)" fill="#263238"/><path d="M561.936,103.783c-.532-2.32-2.006-7-3.383-11.217A9.182,9.182,0,0,0,547.7,86.52l-.459.1c-4.9,1.488-6.374,6.481-4.751,11.343l4.992,17.263,11.8-1.3-.846-3.46S563.028,108.572,561.936,103.783Z" transform="translate(-501.212 -82.885)" fill="#ffbf9d"/><path d="M569.053,135.964a11.932,11.932,0,0,1-6.7-.324s2.3,3.083,6.964,1.508Z" transform="translate(-511.799 -108.397)" fill="#ff9a6c"/><path d="M572.791,108.429a.706.706,0,0,1-.483.851.672.672,0,0,1-.851-.449.7.7,0,0,1,.483-.846.672.672,0,0,1,.851.445Z" transform="translate(-516.493 -94.09)" fill="#263238"/><path d="M572.509,104.174c-.063.106-.672-.15-1.406.029s-1.184.677-1.286.6,0-.213.193-.44a1.933,1.933,0,0,1,1-.594,1.841,1.841,0,0,1,1.145.087C572.427,103.981,572.543,104.121,572.509,104.174Z" transform="translate(-515.637 -91.903)" fill="#263238"/><path d="M559.376,111.808a.705.705,0,0,1-.483.851.677.677,0,0,1-.855-.449.706.706,0,0,1,.483-.846.672.672,0,0,1,.855.445Z" transform="translate(-509.56 -95.835)" fill="#263238"/><path d="M557.878,108.173c-.053.116-.681-.092-1.4.14s-1.126.768-1.232.706,0-.213.159-.454a1.933,1.933,0,0,1,2.117-.662C557.781,107.99,557.907,108.125,557.878,108.173Z" transform="translate(-508.105 -94.017)" fill="#263238"/><path d="M566.853,112.046a5.011,5.011,0,0,1,1.14-.483c.184-.063.353-.145.353-.28a.966.966,0,0,0-.256-.527c-.29-.411-.585-.841-.9-1.3a24.921,24.921,0,0,1-2.146-3.431,25.382,25.382,0,0,1,2.416,3.252l.875,1.31a1.083,1.083,0,0,1,.275.71.483.483,0,0,1-.242.348,1.1,1.1,0,0,1-.309.121,4.934,4.934,0,0,1-1.208.275Z" transform="translate(-513.19 -93.095)" fill="#263238"/><path d="M556.016,103.321c0,.213-.657.362-1.368.739s-1.223.836-1.387.7c-.072-.068-.039-.285.135-.565a2.446,2.446,0,0,1,.913-.822,2.349,2.349,0,0,1,1.184-.275C555.794,103.118,555.987,103.219,556.016,103.321Z" transform="translate(-507.084 -91.581)" fill="#263238"/><path d="M571.3,99.846c-.111.193-.706.116-1.382.227s-1.223.333-1.387.179c-.073-.077,0-.261.208-.483a2.194,2.194,0,0,1,2.233-.329C571.242,99.595,571.348,99.754,571.3,99.846Z" transform="translate(-514.979 -89.605)" fill="#263238"/><path d="M556.1,89.62s-1.986-2.692-3.6-3.04c-1.933-.425-2.242,1.672-4.016,1.609s-3.644-.483-5.036,1.223c-1.522,1.861-.411,2.639,0,4.784,1.6,8.7.623,11.521-.8,7.578-.155-.43-1.45-.483-2.1-2.32-.826-2.373-1.629-5.316-1.5-7.157a6.943,6.943,0,0,1,1.933-4.234c1.933-2.31,5.137-3.127,7.38-3.436S555.4,85.827,556.1,89.62Z" transform="translate(-499.751 -82.017)" fill="#263238"/><path d="M543.76,118.683a1.334,1.334,0,0,0-1.7-.913c-.87.3-1.74,1.044-1.237,2.9.889,3.238,3.963,1.677,3.939,1.58S544.147,120.036,543.76,118.683Z" transform="translate(-500.599 -99.128)" fill="#ffbf9d"/><path d="M545.029,122.357a1.057,1.057,0,0,1-.13.126.585.585,0,0,1-.416.126,1.439,1.439,0,0,1-1-1.078,1.992,1.992,0,0,1-.063-.851.672.672,0,0,1,.3-.551.3.3,0,0,1,.377.063c.068.077.068.15.087.15s.053-.072,0-.2a.372.372,0,0,0-.184-.169.44.44,0,0,0-.333,0,.826.826,0,0,0-.454.667,1.977,1.977,0,0,0,.053.967c.2.648.7,1.17,1.208,1.174a.633.633,0,0,0,.483-.227A.379.379,0,0,0,545.029,122.357Z" transform="translate(-501.896 -100.285)" fill="#ff9a6c"/><path d="M539.97,94.269a3.194,3.194,0,0,0,1.542.3,1.1,1.1,0,0,0,1-1.034c0-.237-.135-.483-.029-.7s.483-.271.754-.3a2.146,2.146,0,0,0,1.8-2.02.9.9,0,0,0,1.2-.169,4.617,4.617,0,0,0,.657-1.17,1.387,1.387,0,0,1,.967-.831,3.185,3.185,0,0,0,.744,0c.42-.14.512-.691.483-1.136s-.106-.967.2-1.266a1.725,1.725,0,0,1,1.16-.314c.411-.039.9-.256.909-.667a.822.822,0,0,0-.29-.556,2.175,2.175,0,0,0-2.692-.2,2.948,2.948,0,0,0-5.4.715,2.991,2.991,0,0,0-4.4,2.18,2.17,2.17,0,0,0-1.638,3.644,2.068,2.068,0,0,0-.72,1.861,1.182,1.182,0,0,0,1.585.86,1.2,1.2,0,0,0,2.3.677" transform="translate(-498.288 -81.06)" fill="#263238"/><path d="M549.362,87.63v.058a1.166,1.166,0,0,1,0,.179,2.067,2.067,0,0,1-.082.686,2.367,2.367,0,0,1-.541.967,2.209,2.209,0,0,1-1.213.706l.039-.087a1.232,1.232,0,0,1,.155.918,3.5,3.5,0,0,1-.367.938,2.339,2.339,0,0,1-.276.483,1.159,1.159,0,0,1-.483.319,1.232,1.232,0,0,1-1.145-.126l.116-.063a2.527,2.527,0,0,1-.633,1.933,1.846,1.846,0,0,1-.966.609,3.344,3.344,0,0,1-1.116,0l.077-.063a2.667,2.667,0,0,1-.527,1.2,1.411,1.411,0,0,1-1.063.58,1.841,1.841,0,0,1-1.725-1.073h.082a1.764,1.764,0,0,1-1.083.435,1.841,1.841,0,0,1-.87-.164,1.55,1.55,0,0,1-.483-.309.927.927,0,0,1-.126-.15,2.021,2.021,0,0,0,.609.411,1.9,1.9,0,0,0,.841.13,1.662,1.662,0,0,0,1.015-.43l.053-.048.029.068a1.754,1.754,0,0,0,1.629.967,1.281,1.281,0,0,0,.967-.541,2.493,2.493,0,0,0,.483-1.131v-.068h.111a3.147,3.147,0,0,0,1.063,0,1.726,1.726,0,0,0,.913-.565,2.388,2.388,0,0,0,.594-1.836V92.4l.13.1a1.1,1.1,0,0,0,1.01.106,1.029,1.029,0,0,0,.416-.275,2.42,2.42,0,0,0,.261-.435,3.468,3.468,0,0,0,.362-.9,1.112,1.112,0,0,0-.126-.831l-.048-.072h.087a2.17,2.17,0,0,0,1.2-.652,2.415,2.415,0,0,0,.541-.9A2.585,2.585,0,0,0,549.362,87.63Z" transform="translate(-498.767 -83.589)" fill="#455a64"/><path d="M564.784,121.571a11.478,11.478,0,0,1,2.789.184h0a2.3,2.3,0,0,1-.416,1.8,1.339,1.339,0,0,1-1.315.314,1.493,1.493,0,0,1-.967-.87A3.127,3.127,0,0,1,564.784,121.571Z" transform="translate(-513.034 -101.117)" fill="#ff9a6c"/><path d="M566.516,123.734a1.484,1.484,0,0,1-.889-.029,1.349,1.349,0,0,1-.7-.628,2.156,2.156,0,0,1-.222-1.15.774.774,0,0,1,.034-.295h.145l.6.029,1.025.039a3.653,3.653,0,0,0,.966-.029,3.865,3.865,0,0,0-.938-.14l-1.025-.087-.6-.043h-.169a.256.256,0,0,0-.232.164,1.75,1.75,0,0,0-.043.362,2.286,2.286,0,0,0,.266,1.276,1.5,1.5,0,0,0,.831.677,1.165,1.165,0,0,0,.72,0C566.453,123.812,566.521,123.744,566.516,123.734Z" transform="translate(-512.891 -101.039)" fill="#263238"/><path d="M495.141,154.535l-18.292,5.384-6.026-7.9c.043.933-7.442-.242-7.442-.242,5.316,12.812,8.25,17.089,9.042,17.461,2.01.938,17.234.8,18.437.512s12.188-1.856,12.188-1.856l-2.015-15.383-4.567,1.45a6.99,6.99,0,0,0-1.324.57Z" transform="translate(-460.659 -116.737)" fill="#455a64"/><path d="M575.022,183.141c-1.054-3.987-3.383-13.078-3.383-13.078l-4.8-28.228-10.763.087-.9-1.89a.967.967,0,0,0-1.063-.551l-11.405,2.035a.967.967,0,0,0-.817,1.107l.213,1.527-8.7,3.223-.967,12.643,7.037,28.794.425,4.06a3.489,3.489,0,0,0,1.392,2.416l1.247.938,31.529-7.278.778-2.136a6.133,6.133,0,0,0,.174-3.668Z" transform="translate(-496.344 -110.373)" fill="#455a64"/><path d="M552.2,245.816l.295,4.263,33.709-7.858L585,236.75Z" transform="translate(-506.554 -160.642)" fill="#455a64"/><path d="M613.6,242.28a5.723,5.723,0,0,0,.058,1.735,5.96,5.96,0,0,0,.319,1.711A11.528,11.528,0,0,0,613.6,242.28Z" transform="translate(-538.259 -163.5)" fill="#263238"/><path d="M602.545,244.85a5.881,5.881,0,0,0,.193,1.745,6,6,0,0,0,.449,1.7,5.9,5.9,0,0,0-.193-1.749A6.123,6.123,0,0,0,602.545,244.85Z" transform="translate(-532.566 -164.828)" fill="#263238"/><path d="M590.911,248.28a5.481,5.481,0,0,0,.164,1.667,5.364,5.364,0,0,0,.425,1.614,5.553,5.553,0,0,0-.169-1.662,5.4,5.4,0,0,0-.42-1.619Z" transform="translate(-526.553 -166.6)" fill="#263238"/><path d="M576.4,251.67a6.851,6.851,0,0,0,.213,1.88,7.109,7.109,0,0,0,.483,1.836,6.89,6.89,0,0,0-.213-1.885A7.2,7.2,0,0,0,576.4,251.67Z" transform="translate(-519.057 -168.352)" fill="#263238"/><path d="M562.81,254.78a6.426,6.426,0,0,0,.353,1.754,6.066,6.066,0,0,0,.609,1.687,6.333,6.333,0,0,0-.358-1.754,6.151,6.151,0,0,0-.6-1.687Z" transform="translate(-512.037 -169.959)" fill="#263238"/><path d="M601.336,133.968h1.218a8.7,8.7,0,0,1,4.2,1.179l10.632,6.205-2.581-15.4,8.39-1.716s4.929,20.022,4.915,23.2c-.029,6.394-4.949,8.6-9.873,7.09-1.45-.449-19.041-8.448-19.041-8.448Z" transform="translate(-530.84 -102.506)" fill="#455a64"/><path d="M609.062,177.989c.073,0-.706-6.012-1.74-13.4s-1.933-13.377-2-13.363.706,6.007,1.74,13.4S608.989,178,609.062,177.989Z" transform="translate(-534.004 -116.452)" fill="#263238"/><path d="M581.407,200.75a1.716,1.716,0,0,0-.159.2l-.42.6c-.377.561-.884,1.315-1.508,2.233-1.276,1.88-3.069,4.456-5.137,7.249s-4.016,5.248-5.447,7.012l-1.7,2.088-.459.575a.877.877,0,0,0-.145.213,1.184,1.184,0,0,0,.188-.179l.483-.541c.425-.483,1.029-1.17,1.764-2.035,1.45-1.74,3.446-4.19,5.519-6.979s3.866-5.389,5.079-7.3c.619-.967,1.111-1.735,1.45-2.281l.377-.628A1.215,1.215,0,0,0,581.407,200.75Z" transform="translate(-513.907 -142.04)" fill="#263238"/><path d="M579.481,186.58a4.161,4.161,0,0,0-.387.6l-.967,1.7c-.831,1.45-2,3.383-3.33,5.548s-2.586,4.06-3.5,5.437l-1.087,1.638a4.161,4.161,0,0,0-.372.614,3.491,3.491,0,0,0,.483-.556c.28-.372.672-.913,1.15-1.59.967-1.353,2.238-3.257,3.571-5.408s2.474-4.137,3.267-5.592c.4-.73.706-1.324.913-1.74a3.571,3.571,0,0,0,.256-.652Z" transform="translate(-515.669 -134.719)" fill="#263238"/><path d="M566.431,144.577c0-.039-.715.309-1.88.749a24.335,24.335,0,0,1-4.688,1.266,24.754,24.754,0,0,1-4.833.285c-1.247-.053-2.01-.16-2.02-.116a2.02,2.02,0,0,0,.532.121,13.741,13.741,0,0,0,1.479.179A20.883,20.883,0,0,0,564.6,145.5a13.725,13.725,0,0,0,1.343-.638A2,2,0,0,0,566.431,144.577Z" transform="translate(-506.973 -113.013)" fill="#263238"/><g transform="translate(54.596 61.575)" opacity="0.3"><path d="M581.864,206.68A19.524,19.524,0,0,1,570.72,221.6Z" transform="translate(-570.72 -206.68)"/></g><path d="M530.346,170.32c-.068,0,.788,3.765,1.909,8.366s2.093,8.322,2.165,8.308-.783-3.765-1.909-8.37S530.419,170.3,530.346,170.32Z" transform="translate(-495.26 -126.317)" fill="#263238"/><path d="M465.811,140.419a1.484,1.484,0,0,1,1.551.677,9.575,9.575,0,0,1,.967,3.939s1.479.256,1.527.86-.3,1.194-1.725,1.174c0,0-.938,1.788-1.856,1.155a1.2,1.2,0,0,1-.633-1.373s-.836,1.392-2.141-.4a1.575,1.575,0,0,1-1.218.29,1.45,1.45,0,0,1-.884-.594s-.8.44-1.271-.13a22.191,22.191,0,0,1-2.267-3.712,1.977,1.977,0,0,1,.633-2.2,2.422,2.422,0,0,1,1.745-.029,1.778,1.778,0,0,1,2.276-.217,2.117,2.117,0,0,1,3.3.556Z" transform="translate(-457.75 -110.291)" fill="#ffbf9d"/><path d="M462.3,145.34a8.326,8.326,0,0,0,.667,1.977,13.467,13.467,0,0,1,.483,1.363c.092.353.169.58.208.575s.044-.242-.029-.619a8.4,8.4,0,0,0-.44-1.416A8.791,8.791,0,0,0,462.3,145.34Z" transform="translate(-460.101 -113.409)" fill="#ff9a6c"/><path d="M466.53,144.32a11.891,11.891,0,0,0,.58,2.416,8.894,8.894,0,0,0,.913,2.31,16.859,16.859,0,0,0-.667-2.387A12.043,12.043,0,0,0,466.53,144.32Z" transform="translate(-462.287 -112.882)" fill="#ff9a6c"/><path d="M472.1,144.38c-.072.024.338,1.141.667,2.566a13.3,13.3,0,0,1,.319,1.827,3.2,3.2,0,0,1-.072.739.979.979,0,0,0,.28-.744,7.856,7.856,0,0,0-.251-1.89,7.67,7.67,0,0,0-.942-2.5Z" transform="translate(-465.161 -112.913)" fill="#ff9a6c"/><path d="M478.445,145.05c-.087,0,.266,1.165.406,2.6a11.834,11.834,0,0,1,0,1.841,3.383,3.383,0,0,1-.193.725.978.978,0,0,0,.377-.7,7.524,7.524,0,0,0,.063-1.894A6.892,6.892,0,0,0,478.445,145.05Z" transform="translate(-468.437 -113.259)" fill="#ff9a6c"/></g><g transform="translate(57.233 85.23)"><path d="M129.494,294.8s-3.059-3.088-3.934,15.591c-.831,17.63-2.044,43.05,2.194,53.953A5.8,5.8,0,0,0,130.1,367.2a9.738,9.738,0,0,0,3.673,1.324c3.683.575,18.253.251,18.253.251s8.274,0,8.4-6.8c.1-5.606,0-17.789,0-17.789Z" transform="translate(-110.847 -220.164)" fill="#263238"/><g transform="translate(13.891 74.441)" opacity="0.3"><path d="M129.494,294.8s-3.059-3.088-3.934,15.591c-.831,17.63-2.044,43.05,2.194,53.953A5.8,5.8,0,0,0,130.1,367.2a9.738,9.738,0,0,0,3.673,1.324c3.683.575,18.253.251,18.253.251s8.274,0,8.4-6.8c.1-5.606,0-17.789,0-17.789Z" transform="translate(-124.738 -294.605)"/></g><path d="M477.778,294.8s-3.059-3.088-3.934,15.591c-.826,17.63-2.039,43.05,2.194,53.953a5.828,5.828,0,0,0,2.349,2.856,9.738,9.738,0,0,0,3.673,1.324c3.687.575,18.258.251,18.258.251s8.269,0,8.395-6.8c.1-5.606,0-17.789,0-17.789Z" transform="translate(-290.815 -220.164)" fill="#263238"/><g transform="translate(182.21 74.441)" opacity="0.3"><path d="M477.778,294.8s-3.059-3.088-3.934,15.591c-.826,17.63-2.039,43.05,2.194,53.953a5.828,5.828,0,0,0,2.349,2.856,9.738,9.738,0,0,0,3.673,1.324c3.687.575,18.258.251,18.258.251s8.269,0,8.395-6.8c.1-5.606,0-17.789,0-17.789Z" transform="translate(-473.025 -294.605)"/></g><path d="M548.061,222.988s-.928,3.156-2.837,3.484-16.953.793-16.953.793l-1.45,3.025h-2.832l-2.059-12.13,1.754.362a1.87,1.87,0,0,1,1.343,1.092h0a1.875,1.875,0,0,0,1.522,1.126Z" transform="translate(-316.085 -180.663)" fill="#263238"/><path d="M551.529,214.142a1.933,1.933,0,0,0,1.774-2.209c-.483-3.465-2.31-10.2-9-11.2a45.872,45.872,0,0,0-12.5-.319,2.141,2.141,0,0,0-1.682,2.117c-.57,4.765-.106,10.676,1.266,11.4S546.643,214.529,551.529,214.142Z" transform="translate(-320.196 -171.349)" fill="#4da9e4"/><path d="M556.11,201.44a2.757,2.757,0,0,1,.382.483c.237.314.556.788.933,1.382a35.916,35.916,0,0,1,4.349,10.052c.174.681.3,1.237.372,1.624a3.022,3.022,0,0,1,.087.6,2.581,2.581,0,0,1-.184-.585c-.1-.377-.251-.923-.445-1.595a45.259,45.259,0,0,0-1.851-5.142,44.451,44.451,0,0,0-2.479-4.867c-.353-.6-.648-1.087-.86-1.421a3.66,3.66,0,0,1-.3-.536Z" transform="translate(-333.747 -172.023)" fill="#263238"/><path d="M535.876,320.986s3.054-3.088,3.934,15.591c.826,17.63,2.039,43.05-2.2,53.953a5.8,5.8,0,0,1-2.349,2.856,9.757,9.757,0,0,1-3.668,1.329c-3.687.57-18.258.247-18.258.247s-8.269,0-8.395-6.8c-.1-5.606,0-17.785,0-17.785Z" transform="translate(-307.284 -233.697)" fill="#263238"/><path d="M535.78,320.976l-.14.242c-.1.164-.247.4-.43.706-.387.619-.967,1.532-1.682,2.716-1.479,2.378-3.634,5.843-6.355,10.207-5.456,8.738-13.174,21.085-22.231,35.574V387a13.226,13.226,0,0,0,.087,2.151,6.047,6.047,0,0,0,.681,2.025,6.544,6.544,0,0,0,3.257,2.755c2.731,1.218,5.848.86,8.878.967,3.2.029,6.365.039,9.477-.048a32.135,32.135,0,0,0,4.606-.358,9.717,9.717,0,0,0,2.151-.691,6.7,6.7,0,0,0,1.87-1.2,5.762,5.762,0,0,0,1.281-1.779,9.484,9.484,0,0,0,.377-1.039l.348-1.054a9.138,9.138,0,0,0,.3-1.063l.261-1.068c.188-.706.309-1.426.435-2.136.29-1.421.445-2.851.633-4.258.087-.7.14-1.406.213-2.1s.14-1.392.174-2.083c.391-5.534.445-10.806.411-15.74s-.184-9.525-.343-13.72-.333-7.984-.483-11.314a83.523,83.523,0,0,0-.817-8.5,15.373,15.373,0,0,0-1.484-5.152,2.06,2.06,0,0,0-.507-.6.817.817,0,0,0-.536-.179.759.759,0,0,0-.43.174.354.354,0,0,1,.092-.077.711.711,0,0,1,.338-.121.817.817,0,0,1,.561.169,2.127,2.127,0,0,1,.546.609,15.229,15.229,0,0,1,1.537,5.166,82.284,82.284,0,0,1,.86,8.51c.174,3.33.358,7.119.531,11.314s.324,8.786.372,13.725,0,10.212-.387,15.755c-.034.7-.111,1.387-.174,2.088s-.121,1.406-.208,2.112c-.188,1.411-.348,2.842-.633,4.272-.126.715-.247,1.45-.435,2.151-.087.358-.179.715-.266,1.073a8.41,8.41,0,0,1-.3,1.073l-.348,1.063a11.218,11.218,0,0,1-.387,1.063,6.015,6.015,0,0,1-1.334,1.856,7.013,7.013,0,0,1-1.933,1.252,10.207,10.207,0,0,1-2.2.71,32.353,32.353,0,0,1-4.644.362c-3.122.087-6.283.077-9.492.048l-4.548-.068a12.209,12.209,0,0,1-4.422-.928,6.766,6.766,0,0,1-3.383-2.861,6.355,6.355,0,0,1-.71-2.107A13.843,13.843,0,0,1,504.72,387c0-5.766,0-11.333,0-16.644V370.3l22.313-35.535c2.745-4.349,4.92-7.8,6.408-10.149.749-1.174,1.319-2.083,1.711-2.7l.445-.691A1.2,1.2,0,0,1,535.78,320.976Z" transform="translate(-307.187 -233.687)" fill="#455a64"/><path d="M101.064,320.986s-3.054-3.088-3.939,15.591c-.826,17.63-2.039,43.05,2.2,53.953a5.8,5.8,0,0,0,2.349,2.856,9.758,9.758,0,0,0,3.668,1.329c3.687.57,18.258.246,18.258.246s8.269,0,8.395-6.8c.1-5.606,0-17.785,0-17.785Z" transform="translate(-96.156 -233.697)" fill="#263238"/><path d="M327.4,211.767l-6.766-4.451c-1.542-6.916-14.092-21.264-14.092-21.264S293.494,154.537,282.2,147.1s-66.349-6.5-66.349-6.5l-2.9.043s-58.351-.967-69.626,6.452-24.343,38.947-24.343,38.947-12.565,14.349-14.088,21.264l-6.766,4.451A4.688,4.688,0,0,0,96,215.851c.416,11.671,2.658,57.993,6.573,63.208,3.75,4.978,39.184,2.339,48.811,2.325,13.817,0,56.838-.585,56.838-.585l63.227-.159c7.172-.768,46.612,4.06,51.484-1.58,4.253-4.925,6.162-51.537,6.573-63.208a4.688,4.688,0,0,0-2.1-4.084Z" transform="translate(-95.995 -140.571)" fill="#4da9e4"/><path d="M314.921,154.641a1.667,1.667,0,0,0-1.377-.836l-64.02-2.745h-.507v.039l-65.547,2.706a1.667,1.667,0,0,0-1.377.836L165.4,183.768a1.493,1.493,0,0,0,1.252,2.242c1.836.053,4.552.082,7.732-.048,5.132-.213,45.969-.116,67.524-.044v.044l6.616-.024,6.616.024v-.044c21.554-.072,62.386-.169,67.519.044,3.325.135,6.157.1,7.989.043a1.339,1.339,0,0,0,1.116-2Z" transform="translate(-131.756 -145.991)" fill="#455a64"/><path d="M99.12,222.988s.928,3.156,2.837,3.484,16.944.793,16.944.793l1.45,3.025h2.875l2.059-12.13-1.754.362a1.87,1.87,0,0,0-1.344,1.092h0a1.875,1.875,0,0,1-1.522,1.126Z" transform="translate(-97.61 -180.663)" fill="#263238"/><path d="M176.92,211.49l153.972-.42,1.247,3.059-74.4.488-82.273-.536Z" transform="translate(-137.061 -177)" fill="#4da9e4"/><g transform="translate(38.409 34.07)" opacity="0.5"><path d="M176.92,211.49l153.533-.42,1.687,3.059-74.4.488-82.273-.536Z" transform="translate(-175.47 -211.07)"/></g><path d="M279.454,203.707c0-1.677-.648-6.432-2.209-7.7-1.2-.967-4.05-1.266-5.456-1.348h-.13c-.744,0-5.722.145-7.211,1.353-1.561,1.266-2.209,6.022-2.209,7.7v.053a1.894,1.894,0,0,0,1.894,1.89H277.56a1.894,1.894,0,0,0,1.894-1.89Z" transform="translate(-181.897 -168.52)" fill="#263238"/><g transform="translate(80.343 26.14)" opacity="0.3"><path d="M279.454,203.707c0-1.677-.648-6.432-2.209-7.7-1.2-.967-4.05-1.266-5.456-1.348h-.13c-.744,0-5.722.145-7.211,1.353-1.561,1.266-2.209,6.022-2.209,7.7v.053a1.894,1.894,0,0,0,1.894,1.89H277.56a1.894,1.894,0,0,0,1.894-1.89Z" transform="translate(-262.24 -194.66)"/></g><path d="M253.705,194.982c0-2.75-1.063-10.526-3.61-12.6-1.972-1.6-6.631-2.078-8.931-2.213h-.217c-1.223,0-9.366.232-11.806,2.218-2.552,2.073-3.615,9.849-3.61,12.6v.082a3.1,3.1,0,0,0,3.1,3.1h21.979a3.1,3.1,0,0,0,3.1-3.1Z" transform="translate(-162.929 -161.033)" fill="#263238"/><g transform="translate(7.518 107.591)" opacity="0.3"><path d="M167.886,369.965s-49.294-6.481-51.3-6.722c-3.049-.367-4.683,1.6-4.683,3.958,0,1.653-.222,7.969-.353,11.56a5.8,5.8,0,0,0,2.818,5.2,19.258,19.258,0,0,0,4.35,1.812c4.147,1.218,29.132,2.373,34.313,2.6a2.329,2.329,0,0,0,1.653-.585c1.865-1.643,6.858-6.128,8.428-8.346,5.147-7.278,4.784-9.477,4.784-9.477ZM142.3,383.439l-23.835-3.866.938-13.049,32.38,2.938Z" transform="translate(-111.551 -363.198)"/></g><g transform="translate(8.483 67.813)" opacity="0.3"><path d="M113.684,293.924s-2.416,7.414,13.073,10.864c15.707,3.494,38.947,9.825,38.947,9.825l-12.483-8.9s-35.9-5.993-36.8-11.483a50.949,50.949,0,0,1,0-13.343Z" transform="translate(-113.547 -280.89)"/></g><path d="M172.031,366.043a.658.658,0,0,1-.169-.034l-.483-.116-1.885-.483c-1.643-.4-4.011-.991-6.954-1.638-5.886-1.324-14.068-2.934-23.154-4.412-4.543-.739-8.878-1.421-12.836-1.933l-5.611-.768a30.868,30.868,0,0,0-4.9-.449,6.679,6.679,0,0,0-3.808,1.092,7.669,7.669,0,0,0-2.1,2.189,6.5,6.5,0,0,0-.938,2.416,3.311,3.311,0,0,1,.1-.672,5.949,5.949,0,0,1,.754-1.793,7.67,7.67,0,0,1,2.1-2.252,6.809,6.809,0,0,1,3.866-1.15,30.284,30.284,0,0,1,4.929.416l5.616.749c3.958.483,8.3,1.174,12.841,1.933,9.09,1.484,17.272,3.122,23.154,4.49,2.943.672,5.316,1.29,6.94,1.716l1.87.522.483.14A.667.667,0,0,1,172.031,366.043Z" transform="translate(-102.818 -251.908)" fill="#263238"/><path d="M109.739,308.206a.967.967,0,0,1,0-.275v-3.692c.029-2.46.159-5.857.483-9.6s.8-7.109,1.2-9.535c.2-1.213.382-2.189.517-2.866l.164-.773a.938.938,0,0,1,.072-.266,1.078,1.078,0,0,1,0,.276q-.043.3-.116.783c-.106.71-.256,1.687-.435,2.875-.362,2.416-.8,5.8-1.131,9.53s-.483,7.119-.565,9.574c-.034,1.2-.058,2.189-.077,2.9v.793A1.255,1.255,0,0,1,109.739,308.206Z" transform="translate(-103.092 -213.237)" fill="#263238"/><path d="M132.053,252.576a2.867,2.867,0,0,1,0-.594,5.565,5.565,0,0,1,.044-.7c.034-.271.048-.58.111-.918a36.124,36.124,0,0,1,1.261-5.186c.623-1.986,1.3-3.75,1.8-5.016.256-.633.483-1.141.633-1.488a2.1,2.1,0,0,1,.271-.527,3.326,3.326,0,0,1-.179.565c-.15.406-.338.913-.556,1.513-.483,1.281-1.107,3.049-1.73,5.031a45.261,45.261,0,0,0-1.353,5.128C132.111,251.725,132.1,252.576,132.053,252.576Z" transform="translate(-114.619 -190.992)" fill="#263238"/><path d="M127.638,274.259s-8.085-2.948-9.119,3.32-.928,12.507.43,14.7,13.841,5.176,13.841,5.176l21.588,4.746s1.556.324.619-1.45c-1.049-1.972-6.766-14.58-10.072-17.644C138.826,277.459,127.638,274.259,127.638,274.259Z" transform="translate(-107.275 -209.293)" fill="#f5f5f5"/><g transform="translate(13.476 64.119)" opacity="0.3"><path d="M138.736,297.906s.034-14.774-1.049-16.431-13.807-7.529-13.807-7.529a4.629,4.629,0,0,1,3.779-.57,41.432,41.432,0,0,1,10.279,3.431c3.513,1.8,9.134,4.383,11.231,7.37.913,1.3,2.827,4.4,4.644,7.761,2.368,4.374,4.61,9.047,4.61,9.308,0,.536.126,1.025-1.972.58C151.591,300.805,138.736,297.906,138.736,297.906Z" transform="translate(-123.88 -273.248)"/></g><circle cx="5.239" cy="5.239" r="5.239" transform="translate(30.125 76.966)" fill="#f5f5f5"/><path d="M168.663,304.936a10.957,10.957,0,0,0-.213-1.266,5.22,5.22,0,0,0-1.909-2.827,5.127,5.127,0,1,0-2.165,9.134,5.089,5.089,0,0,0,2.165-.967,5.22,5.22,0,0,0,1.909-2.827,10.956,10.956,0,0,0,.213-1.266,4.138,4.138,0,0,1-.116,1.29,5.284,5.284,0,0,1-6.945,3.736,5.383,5.383,0,0,1-2.494-1.856,5.316,5.316,0,0,1,0-6.341,5.384,5.384,0,0,1,2.494-1.856,5.28,5.28,0,0,1,5.045.793,5.2,5.2,0,0,1,1.9,2.943A4.135,4.135,0,0,1,168.663,304.936Z" transform="translate(-128.065 -222.732)" fill="#263238"/><path d="M163.726,304.95a5.1,5.1,0,0,1,4.465,2.639,5.094,5.094,0,1,0-8.926,0,5.094,5.094,0,0,1,4.461-2.639Z" transform="translate(-128.362 -222.972)" fill="#e0e0e0"/><path d="M169.014,307.9a2.257,2.257,0,1,1-2.257-2.257A2.257,2.257,0,0,1,169.014,307.9Z" transform="translate(-131.393 -225.866)" fill="#fff"/><path d="M168.862,307.784a4.248,4.248,0,0,0-.116-.536,2.238,2.238,0,0,0-.826-1.184,2.146,2.146,0,1,0,0,3.446,2.238,2.238,0,0,0,.826-1.184c.1-.338.092-.541.116-.541s0,.053,0,.145a1.881,1.881,0,0,1-.039.42,2.257,2.257,0,0,1-.817,1.3,2.334,2.334,0,0,1-2.228.367,2.368,2.368,0,0,1,0-4.461,2.334,2.334,0,0,1,2.228.367,2.257,2.257,0,0,1,.817,1.3,1.868,1.868,0,0,1,.039.416C168.877,307.735,168.872,307.784,168.862,307.784Z" transform="translate(-131.241 -225.753)" fill="#263238"/><path d="M166.125,301.785c-.092.159-.565,0-1.281-.024a4.5,4.5,0,0,0-4.465,2.378c-.362.619-.512,1.087-.7,1.078s-.338-.536-.135-1.4a4.238,4.238,0,0,1,5.485-2.934C165.869,301.191,166.217,301.645,166.125,301.785Z" transform="translate(-128.784 -223.287)" fill="#fff"/><path d="M175.347,303.965c-.29.2-.551.314-.6.266s.063-.309.251-.6.483-.435.628-.295S175.623,303.766,175.347,303.965Z" transform="translate(-136.682 -224.645)" fill="#fff"/><path d="M256.273,276.4a1.11,1.11,0,0,1-.208,0h-.6l-2.339.024-8.583.029h-28.33l-15.6-.029h-9.888a3.866,3.866,0,0,0-2.619.759l-3.731,3.146-1.542,1.29a4.123,4.123,0,0,1-1.532.735,4.172,4.172,0,0,1-1.348.1l-.967-.048-.6-.039h.6l.967.029a4.2,4.2,0,0,0,1.324-.121,4.016,4.016,0,0,0,1.484-.735l1.522-1.3,3.726-3.18a4.011,4.011,0,0,1,2.726-.812h25.478l28.33.068,8.583.053h2.943Z" transform="translate(-138.457 -210.673)" fill="#263238"/><path d="M326.374,396.924c-.261-.546-.812-.938-1.9-.817-3.02.343-34.685,1.049-39.049,0s-18.9-17.543-25.053-18.669c-5.161-.942-30.258-1.45-38.218-1.218-7.96-.227-33.051.275-38.213,1.218-6.152,1.126-20.472,19.234-24.836,20.3s-36.246-1.271-39.266-1.614c-1.092-.121-1.643.271-1.9.817a1.774,1.774,0,0,0,1.59,2.484c6.766.188,32.786.483,37.657.4l66.156-1.208c13.208.082,58.336.372,63.116.44,5.635.077,31.577.556,38.319.367a1.778,1.778,0,0,0,1.595-2.5Z" transform="translate(-107.258 -262.308)" fill="#263238"/><path d="M315.37,154.223c.261,0,1.044,4.548,4.712,4.461s12.623,0,12.623,0V153Z" transform="translate(-209.351 -146.993)" fill="#263238"/><path d="M98.512,214.142a1.933,1.933,0,0,1-1.774-2.209c.483-3.465,2.31-10.2,9-11.2a45.873,45.873,0,0,1,12.5-.319,2.141,2.141,0,0,1,1.682,2.117c.57,4.765.106,10.676-1.266,11.4S103.4,214.529,98.512,214.142Z" transform="translate(-96.368 -171.349)" fill="#4da9e4"/><path d="M168.522,153a.43.43,0,0,1-.048.116l-.164.319-.652,1.223c-.585,1.078-1.416,2.6-2.416,4.48l-8.129,14.725L150.2,186.269h0l-5.538,4.258-1.537,1.165-.411.295a.648.648,0,0,1-.145.1,1.374,1.374,0,0,1,.13-.121l.387-.319,1.5-1.2,5.49-4.35-.029.034,6.872-12.43L165.139,159l2.508-4.436.7-1.2.184-.309A.517.517,0,0,1,168.522,153Z" transform="translate(-120.061 -146.993)" fill="#263238"/><path d="M207.434,147.37a8.52,8.52,0,0,1-1.194.483,11.319,11.319,0,0,0-2.711,1.426,11.5,11.5,0,0,0-2.126,2.2,8.989,8.989,0,0,1-.783,1.02,5.287,5.287,0,0,1,.638-1.121,8.631,8.631,0,0,1,4.92-3.7A5.022,5.022,0,0,1,207.434,147.37Z" transform="translate(-150.057 -144.084)" fill="#263238"/><g transform="translate(29.582 39.261)" opacity="0.3"><path d="M157.691,221.81l-.483.319c-.188-.232,11.164,23.565,16.509,29.842l3.509-2.982C169.671,241.653,164.007,230.253,157.691,221.81Z" transform="translate(-157.205 -221.81)"/></g><path d="M204.81,392.324a1.837,1.837,0,0,0,.266-.121,7.243,7.243,0,0,0,.71-.507q.906-.725,2.537-2.2c2.155-1.967,5.21-4.886,8.883-8.593q1.377-1.392,2.851-2.938a39.4,39.4,0,0,1,3.141-3.156,14.605,14.605,0,0,1,4.156-2.334,18.505,18.505,0,0,1,4.954-1.029c.865-.063,1.745-.068,2.624-.077l2.682-.024,5.529-.053,11.623-.111,40.793-.333,12.362-.077h3.359l-3.359.058-12.362.15-40.793.411-11.623.106-5.529.048h-2.682c-.884,0-1.749,0-2.61.072a18.216,18.216,0,0,0-4.891,1.005,14.382,14.382,0,0,0-4.1,2.291,39.028,39.028,0,0,0-3.132,3.127c-.967,1.029-1.933,2-2.866,2.929-3.687,3.692-6.766,6.6-8.941,8.54-1.092.967-1.957,1.706-2.576,2.165a5.73,5.73,0,0,1-.725.483A.629.629,0,0,1,204.81,392.324Z" transform="translate(-152.222 -259.52)" fill="#263238"/><g transform="translate(13.718 98.133)" opacity="0.3"><path d="M137.211,349.481a28.7,28.7,0,0,0-4.775-4.089c-1.774-1.126-4.321-2.416-5.93-1.392a10.448,10.448,0,0,0-1.933,3.025,1.45,1.45,0,0,0-.116,1.189c.227.459.812.58,1.319.643l11.091,1.392c.217.029.483.029.59-.159S137.381,349.646,137.211,349.481Z" transform="translate(-124.381 -343.628)" fill="#fff"/></g><g transform="translate(69.788 94.688)" opacity="0.3"><path d="M240.4,338.781c28.32,7.534,58.22,5.645,87.319,2.31,4.494-.517,9.38-1.266,12.449-4.591" transform="translate(-240.4 -336.5)"/></g><path d="M330.712,284.724c-11.057-1.566-34.313-2.339-57.38-2.325s-46.327.759-57.384,2.325a5.741,5.741,0,0,0-4.731,7.288.173.173,0,0,0,.034.121c1.208,3.968,5.978,16.644,13.575,18.543,3.523.884,23.376,1.73,44.558,1.9v.034h7.892v-.034c21.182-.169,41.04-1.015,44.563-1.9,7.592-1.9,12.362-14.576,13.57-18.543a.5.5,0,0,1,.034-.121,5.741,5.741,0,0,0-4.731-7.288Z" transform="translate(-155.415 -213.857)" fill="#263238"/><path d="M331.087,334.36l-.29.159-.87.445-1.411.72c-.285.14-.58.3-.909.454l-1.054.483a80.643,80.643,0,0,1-13.01,4.582,123.088,123.088,0,0,1-20.182,3.359c-7.679.71-16.161.865-25.048.831a201.079,201.079,0,0,1-25.024-1.45,107.018,107.018,0,0,1-19.964-4.446,78.29,78.29,0,0,1-12.676-5.437c-.72-.377-1.344-.749-1.89-1.063s-1-.585-1.358-.817l-.826-.517-.275-.184s.1.048.29.159l.836.483c.367.222.822.483,1.373.8s1.174.672,1.9,1.039a80.134,80.134,0,0,0,12.686,5.355,107.919,107.919,0,0,0,19.94,4.383,205.02,205.02,0,0,0,24.99,1.45c8.887.053,17.359-.111,25.029-.812a124.286,124.286,0,0,0,20.153-3.3,82.384,82.384,0,0,0,13.019-4.5l1.054-.454c.333-.15.628-.3.913-.445l1.426-.7.875-.425Z" transform="translate(-152.992 -239.218)" fill="#263238"/><path d="M335.483,299.866c0,.072-27.6.126-61.652.126s-61.661-.053-61.661-.126,27.6-.126,61.661-.126S335.483,299.788,335.483,299.866Z" transform="translate(-156.025 -222.817)" fill="#455a64"/><path d="M335.483,292.076c0,.068-27.6.126-61.652.126s-61.661-.058-61.661-.126,27.6-.126,61.661-.126S335.483,292.008,335.483,292.076Z" transform="translate(-156.025 -218.792)" fill="#455a64"/><path d="M336.846,284.306c0,.068-19.761.126-44.128.126s-44.138-.058-44.138-.126,19.756-.126,44.138-.126S336.846,284.233,336.846,284.306Z" transform="translate(-174.839 -214.777)" fill="#455a64"/><path d="M335.483,307.726c0,.068-27.6.126-61.652.126s-61.661-.058-61.661-.126,27.6-.126,61.661-.126S335.483,307.658,335.483,307.726Z" transform="translate(-156.025 -226.879)" fill="#455a64"/><path d="M335.058,315.606c0,.068-26.508.126-59.2.126s-59.206-.058-59.206-.126,26.5-.126,59.206-.126S335.058,315.538,335.058,315.606Z" transform="translate(-158.34 -230.951)" fill="#455a64"/><path d="M336,323.486c0,.068-25.793.126-57.6.126s-57.607-.058-57.607-.126,25.788-.126,57.607-.126S336,323.413,336,323.486Z" transform="translate(-160.479 -235.022)" fill="#455a64"/><path d="M336.221,331.366c0,.068-24.464.126-54.61.126s-54.61-.058-54.61-.126,24.459-.126,54.635-.126S336.221,331.293,336.221,331.366Z" transform="translate(-163.688 -239.094)" fill="#455a64"/><path d="M337.117,339.236c0,.072-22.661.126-50.614.126s-50.623-.053-50.623-.126,22.661-.126,50.623-.126S337.117,339.168,337.117,339.236Z" transform="translate(-168.277 -243.161)" fill="#455a64"/><path d="M133.792,419.349v.034a1.339,1.339,0,0,1-1.237,1.716l-8.032-.135a1.411,1.411,0,0,1-1.232-1.257l-.053-.449a1.363,1.363,0,0,1,1.45-1.45l7.96.575A1.329,1.329,0,0,1,133.792,419.349Z" transform="translate(-110.07 -283.824)" fill="#fff"/><path d="M331.471,411.206c0,.068-25.9.126-57.848.126s-57.853-.058-57.853-.126,25.9-.126,57.853-.126S331.471,411.133,331.471,411.206Z" transform="translate(-157.885 -280.349)" fill="#455a64"/><path d="M264.659,415.554h-3.393l-.237-4.214h3.886Z" transform="translate(-181.272 -280.484)" fill="#455a64"/><path d="M330.324,415.554h-3.393l-.242-4.214h3.89Z" transform="translate(-215.2 -280.484)" fill="#455a64"/><path d="M395.994,415.554H392.6l-.242-4.214h3.89Z" transform="translate(-249.133 -280.484)" fill="#455a64"/><path d="M331.42,391.637c-6.138-5.287-14.4-13.421-18.659-14.2-5.161-.942-30.258-1.45-38.213-1.218-7.96-.227-33.056.275-38.218,1.218-3.958.725-11.3,8.482-17.19,14.2Z" transform="translate(-159.627 -262.308)" fill="#455a64"/><path d="M113.51,398.848a1.935,1.935,0,0,1,.271-.242l.8-.667,3.03-2.46h.063l16.688,2.049,9.115,1.155h.024l8.172,4.5,2.315,1.3.609.353a1,1,0,0,1,.2.13,1.252,1.252,0,0,1-.222-.1l-.623-.319L151.6,403.3l-8.216-4.417h.039l-9.119-1.136-16.678-2.136h.063l-3.074,2.416-.807.6a2.9,2.9,0,0,1-.3.217Z" transform="translate(-105.045 -272.288)" fill="#263238"/><path d="M156.659,374.6s1.643-2.774,0-3.475c-1.885-.807-33.346-4.581-34.637-4.693-2.552-.227-3.475.928-4.074,3.924s-1.933,10.429.6,12.589,6.476,3.117,14.266,3.6,11.893.744,15.731-1.416S156.659,374.6,156.659,374.6Z" transform="translate(-106.879 -257.263)" fill="#263238"/><path d="M153.184,301.257a11.37,11.37,0,0,1-1.286-2.267c-.764-1.488-1.846-3.639-3.252-6.258-.715-1.3-1.493-2.735-2.416-4.224a44.805,44.805,0,0,0-3.088-4.577,14.444,14.444,0,0,0-2.02-2.088,16.878,16.878,0,0,0-2.513-1.735c-.9-.527-1.88-1.025-2.856-1.547s-1.972-1.034-2.982-1.532a43.443,43.443,0,0,0-6.031-2.479,30.837,30.837,0,0,0-3-.788,11.526,11.526,0,0,0-2.861-.333,3.866,3.866,0,0,0-3.813,2.653,14.521,14.521,0,0,0-.681,2.334c-.169.788-.343,1.566-.517,2.286l-1.658,6.867a11.371,11.371,0,0,1-.7,2.508,8.8,8.8,0,0,1,.217-2.6c.246-1.658.672-4.04,1.252-6.964.14-.735.285-1.5.435-2.3a14.746,14.746,0,0,1,.667-2.537,5.287,5.287,0,0,1,1.72-2.416,5.456,5.456,0,0,1,3.011-1,12.531,12.531,0,0,1,3.151.314,31.417,31.417,0,0,1,3.122.788,43.014,43.014,0,0,1,6.239,2.552c1.029.483,2.03,1.034,3.011,1.556s1.933,1.029,2.9,1.585a18.478,18.478,0,0,1,2.668,1.88,15.462,15.462,0,0,1,2.151,2.3A42.485,42.485,0,0,1,147.144,288c.875,1.537,1.614,3,2.286,4.349,1.315,2.692,2.276,4.91,2.9,6.461A10.673,10.673,0,0,1,153.184,301.257Z" transform="translate(-105.028 -208.618)" fill="#263238"/><path d="M129.945,292.822a6.486,6.486,0,0,1,5.683,3.383,6.486,6.486,0,1,0-11.367,0A6.486,6.486,0,0,1,129.945,292.822Z" transform="translate(-110.186 -216.025)" fill="#e0e0e0"/><circle cx="2.793" cy="2.793" r="2.793" transform="translate(16.966 74.033)" fill="#fff"/><path d="M136.553,296.467a2.555,2.555,0,0,0-.13-.672,2.812,2.812,0,0,0-1.025-1.479,2.687,2.687,0,1,0,0,4.3,2.813,2.813,0,0,0,1.025-1.479c.116-.42.106-.672.13-.672s0,.063,0,.179a2.132,2.132,0,0,1-.058.517,2.75,2.75,0,0,1-1.01,1.595,2.88,2.88,0,1,1,0-4.581,2.75,2.75,0,0,1,1.01,1.595,2.155,2.155,0,0,1,.058.517C136.568,296.4,136.563,296.467,136.553,296.467Z" transform="translate(-114.001 -219.641)" fill="#263238"/><path d="M136.292,292.936a11.32,11.32,0,0,0-.251-1.571,6.476,6.476,0,0,0-2.363-3.513,6.345,6.345,0,0,0-2.692-1.184,6.481,6.481,0,0,0-3.349.285,6.133,6.133,0,0,0-1.609.87,5.951,5.951,0,0,0-1.343,1.353,6.331,6.331,0,0,0,0,7.52,5.857,5.857,0,0,0,1.344,1.353,5.992,5.992,0,0,0,1.609.87,6.379,6.379,0,0,0,6.041-.9,6.456,6.456,0,0,0,2.363-3.513,11.2,11.2,0,0,0,.251-1.571,2.493,2.493,0,0,1,0,.416,2.9,2.9,0,0,1-.039.483,4.692,4.692,0,0,1-.121.677,6.54,6.54,0,0,1-8.578,4.606,6.592,6.592,0,0,1-3.074-10.105,6.323,6.323,0,0,1,1.4-1.4,6.22,6.22,0,0,1,1.672-.894,6.611,6.611,0,0,1,3.465-.271,6.534,6.534,0,0,1,5.128,4.886,4.7,4.7,0,0,1,.121.677,2.9,2.9,0,0,1,.039.483,2.455,2.455,0,0,1-.015.445Z" transform="translate(-110.047 -215.887)" fill="#263238"/><path d="M133.237,289.1c-.1.159-.667-.048-1.566-.135a5.48,5.48,0,0,0-5.654,3.011c-.43.8-.575,1.387-.759,1.372s-.343-.657-.072-1.7a5.239,5.239,0,0,1,6.679-3.557C132.855,288.453,133.3,288.975,133.237,289.1Z" transform="translate(-111.004 -216.667)" fill="#fff"/><path d="M144.6,291.791c-.29.193-.565.29-.638.222s0-.348.208-.638.483-.425.672-.261S144.884,291.593,144.6,291.791Z" transform="translate(-120.766 -218.324)" fill="#fff"/><path d="M180.4,340.247c-.082.338-8.757-1.561-19.37-4.243s-19.147-5.128-19.036-5.466,8.752,1.566,19.37,4.243S180.492,339.924,180.4,340.247Z" transform="translate(-119.766 -238.711)" fill="#263238"/><path d="M115.676,272a.7.7,0,0,1,0-.15,3.319,3.319,0,0,1,.073-.435,6.157,6.157,0,0,1,.594-1.585,5.205,5.205,0,0,1,1.851-1.933,7.906,7.906,0,0,1,.73-.367c.266-.077.536-.2.831-.256a6.605,6.605,0,0,1,.909-.145,5.888,5.888,0,0,1,.967,0,24.377,24.377,0,0,1,4.214.822c1.493.4,3.064.894,4.7,1.45,3.272,1.141,6.829,2.508,10.463,4.19.449.217.9.435,1.334.672a8.484,8.484,0,0,1,1.232.836,13.263,13.263,0,0,1,2.059,2.039c1.121,1.537,2.112,3.045,3.078,4.485,1.933,2.9,3.571,5.529,4.91,7.781s2.358,4.113,3.049,5.4c.348.643.609,1.15.783,1.493l.2.391a.076.076,0,1,1-.024.014l-.217-.382-.826-1.45c-.715-1.276-1.764-3.117-3.117-5.36s-3.02-4.871-4.949-7.732c-.967-1.45-1.977-2.958-3.078-4.461a13.188,13.188,0,0,0-2.02-2,8.387,8.387,0,0,0-1.2-.807c-.43-.232-.875-.449-1.324-.667-3.615-1.677-7.167-3.049-10.429-4.195-1.633-.57-3.194-1.073-4.678-1.479a24.389,24.389,0,0,0-4.176-.841,6.172,6.172,0,0,0-.942,0,5.794,5.794,0,0,0-.884.135,8.321,8.321,0,0,0-.812.237c-.246.121-.483.213-.715.348a5.157,5.157,0,0,0-1.832,1.851,6.482,6.482,0,0,0-.6,1.5c-.048.188-.077.329-.1.425a.856.856,0,0,1-.058.169Z" transform="translate(-106.162 -205.956)" fill="#263238"/><path d="M112.438,201.44a3.151,3.151,0,0,1-.3.532c-.208.333-.507.817-.86,1.421a43.5,43.5,0,0,0-4.35,10.009c-.193.672-.343,1.218-.445,1.595a2.58,2.58,0,0,1-.184.585,3.025,3.025,0,0,1,.087-.6c.072-.387.2-.942.372-1.624a35.762,35.762,0,0,1,4.35-10.052c.372-.594.691-1.068.928-1.382a2.754,2.754,0,0,1,.4-.478Z" transform="translate(-101.32 -172.023)" fill="#263238"/><g transform="translate(0.748 68.779)" opacity="0.3"><path d="M104.3,282.89c-.483.159-3.1,1.793-4.214,2.416a4.833,4.833,0,0,0-2.416,2.837,7.211,7.211,0,0,0,.382,3.741c1.145,3.987,2.474,11.154,3.62,15.141.9-7.249,1.875-19.544,2.619-24.135" transform="translate(-97.542 -282.89)" fill="#fff"/></g><path d="M150.346,396.62c0,.073-7.481-.909-16.688-2.18S117,392.077,117,391.995s7.481.909,16.692,2.184S150.346,396.552,150.346,396.62Z" transform="translate(-106.849 -270.485)" fill="#455a64"/><path d="M148.268,401.221a1.282,1.282,0,0,1-.314,0l-.894-.1-3.291-.4-10.854-1.3c-4.238-.483-8.076-.967-10.85-1.368-1.387-.193-2.508-.353-3.277-.483l-.894-.145a1.211,1.211,0,0,1-.3-.068,2.194,2.194,0,0,1,.314,0l.894.1,3.291.4,10.854,1.3c4.238.483,8.076.967,10.85,1.373,1.387.188,2.5.353,3.277.483l.889.145A1.7,1.7,0,0,1,148.268,401.221Z" transform="translate(-107.154 -273.259)" fill="#455a64"/><path d="M146.93,405.5a23.678,23.678,0,0,1-3.2-.237c-1.977-.2-4.7-.483-7.732-.855s-5.736-.686-7.7-.942l-2.334-.319a6.611,6.611,0,0,1-.851-.15,4.966,4.966,0,0,1,.86.053l2.344.237,7.732.875,7.708.928,2.329.295C146.63,405.453,146.954,405.5,146.93,405.5Z" transform="translate(-111.039 -276.172)" fill="#455a64"/><path d="M152.081,392.349c0,.068-7.873-.909-17.562-2.184s-17.538-2.363-17.528-2.416,7.873.909,17.562,2.18S152.09,392.276,152.081,392.349Z" transform="translate(-106.843 -268.292)" fill="#455a64"/><path d="M153.573,388.156c0,.068-8.153-.942-18.181-2.262s-18.162-2.445-18.152-2.518,8.148.967,18.181,2.267S153.582,388.088,153.573,388.156Z" transform="translate(-106.973 -266.032)" fill="#455a64"/><path d="M155.653,383.291c0,.068-8.375-.967-18.693-2.334s-18.669-2.508-18.659-2.581,8.375.967,18.693,2.334S155.662,383.223,155.653,383.291Z" transform="translate(-107.52 -263.449)" fill="#455a64"/><path d="M157.349,378.379c0,.068-8.53-1-19.027-2.378s-19-2.557-18.993-2.624,8.525,1,19.027,2.378S157.374,378.311,157.349,378.379Z" transform="translate(-108.053 -260.866)" fill="#455a64"/><path d="M159.5,373.5c0,.068-8.593-1.005-19.176-2.416s-19.157-2.576-19.147-2.644,8.593,1.005,19.181,2.416S159.514,373.429,159.5,373.5Z" transform="translate(-109.009 -258.313)" fill="#455a64"/><path d="M138.878,367.92c.068,0-.768,4.2-1.861,9.347s-2.039,9.308-2.112,9.293.768-4.2,1.865-9.347S138.815,367.905,138.878,367.92Z" transform="translate(-116.099 -258.047)" fill="#455a64"/><path d="M132.334,366.82c.068,0-.764,4.2-1.861,9.347s-2.039,9.313-2.107,9.3.764-4.2,1.861-9.351S132.266,366.805,132.334,366.82Z" transform="translate(-112.72 -257.479)" fill="#455a64"/><path d="M125.986,365.73c.072,0-.715,3.973-1.754,8.844s-1.933,8.805-2,8.791.715-3.973,1.754-8.844S125.933,365.715,125.986,365.73Z" transform="translate(-109.552 -256.916)" fill="#455a64"/><path d="M120.175,367.22a2.281,2.281,0,0,1-.063.532c-.073.392-.155.87-.256,1.45-.227,1.271-.522,2.9-.851,4.731s-.657,3.523-.923,4.726c-.135.6-.251,1.087-.338,1.421a2.233,2.233,0,0,1-.155.512,1.972,1.972,0,0,1,.063-.532c.068-.4.155-.875.256-1.45.227-1.271.522-2.9.851-4.736s.652-3.523.923-4.722c.135-.6.246-1.087.333-1.421A2.064,2.064,0,0,1,120.175,367.22Z" transform="translate(-107.153 -257.686)" fill="#455a64"/><path d="M146.593,369.27c.068,0-.735,4.05-1.793,9.018s-1.967,8.984-2.035,8.97.735-4.05,1.788-9.023S146.526,369.255,146.593,369.27Z" transform="translate(-120.16 -258.745)" fill="#455a64"/><path d="M154.108,370.79c.068,0-.739,4.064-1.8,9.042s-1.977,9.008-2.044,8.994.739-4.064,1.8-9.042S154.04,370.775,154.108,370.79Z" transform="translate(-124.036 -259.53)" fill="#455a64"/><path d="M161.929,371.2c.068,0-.73,4.031-1.778,8.965s-1.957,8.926-2.025,8.912.73-4.026,1.778-8.965S161.852,371.185,161.929,371.2Z" transform="translate(-128.097 -259.742)" fill="#455a64"/><path d="M169.568,372.2c.068,0-.725,4.006-1.769,8.917s-1.933,8.878-2.015,8.863.725-4.006,1.769-8.916S169.5,372.185,169.568,372.2Z" transform="translate(-132.053 -260.259)" fill="#455a64"/><path d="M177.368,373.7c.068,0-.672,3.745-1.648,8.337s-1.827,8.308-1.894,8.293.667-3.75,1.648-8.341S177.29,373.685,177.368,373.7Z" transform="translate(-136.209 -261.034)" fill="#455a64"/><path d="M185.326,374.33c.068,0-.619,3.5-1.532,7.8s-1.711,7.761-1.778,7.732.619-3.5,1.532-7.8S185.258,374.315,185.326,374.33Z" transform="translate(-140.441 -261.36)" fill="#455a64"/><path d="M194.372,375.57a89.3,89.3,0,0,1-1.952,9.173,85.989,85.989,0,0,1,1.952-9.173Z" transform="translate(-145.82 -262)" fill="#455a64"/><path d="M331.008,404.1c0,.072-24.014.126-53.644.126s-53.644-.053-53.644-.126,24.009-.126,53.644-.126S331.008,404.028,331.008,404.1Z" transform="translate(-161.993 -276.675)" fill="#263238"/><path d="M331.634,399.076c0,.068-22.985.126-51.329.126s-51.3-.058-51.3-.126,22.975-.126,51.329-.126S331.634,399,331.634,399.076Z" transform="translate(-164.722 -274.081)" fill="#263238"/><path d="M330.94,393.936c0,.068-21.748.126-48.545.126s-48.555-.058-48.555-.126,21.747-.126,48.555-.126S330.94,393.863,330.94,393.936Z" transform="translate(-167.223 -271.425)" fill="#263238"/><path d="M331.465,388.8c0,.068-20.7.126-46.24.126s-46.245-.058-46.245-.126,20.7-.126,46.245-.126S331.465,388.723,331.465,388.8Z" transform="translate(-169.878 -268.769)" fill="#263238"/><path d="M331.323,383.866c0,.073-19.2.126-42.872.126s-42.872-.053-42.872-.126,19.191-.126,42.872-.126S331.323,383.813,331.323,383.866Z" transform="translate(-173.289 -266.222)" fill="#263238"/><path d="M331.865,379.006c0,.068-17.34.126-38.73.126s-38.735-.058-38.735-.126,17.34-.126,38.735-.126S331.865,378.938,331.865,379.006Z" transform="translate(-177.846 -263.711)" fill="#263238"/><g transform="translate(33.523 39.836)" opacity="0.3"><path d="M255.192,223.135h0L165.36,223a14.266,14.266,0,0,0,10.564,4.407c6.244-.039,67.011,0,77.672,0h1.595c9.849,0,62.135-.034,67.538,0a11.009,11.009,0,0,0,8.9-4.267Z" transform="translate(-165.36 -223)"/></g><path d="M331.569,184.01l-17-29.48a1.556,1.556,0,0,0-1.276-.778l-58.477-2.5h0l-5.606-.242c-.672-.029-1.348-.029-2.02,0l-5.606.242h0l-58.477,2.5a1.561,1.561,0,0,0-1.276.778l-17,29.48a1.551,1.551,0,0,0,1.116,2.31c.242.039.483.072.773.1,1.479.164,60.8.058,81.481,0,20.679.043,80,.15,81.481,0,.275-.029.532-.063.773-.1a1.556,1.556,0,0,0,1.107-2.315Zm-7.824-1.237-75.546.507-75.546-.507a1.551,1.551,0,0,1-1.334-2.329c3.252-5.635,11.439-19.742,12.749-21.371,2.373-2.953,39.145-3.339,58.718-3.339a1.489,1.489,0,0,0,.362.043c1.145,0,2.876-.024,5.05-.029s3.9,0,5.05.029a1.488,1.488,0,0,0,.362-.044c19.563,0,56.345.387,58.718,3.339,1.31,1.629,9.5,15.736,12.749,21.371a1.551,1.551,0,0,1-1.334,2.329Z" transform="translate(-131.46 -145.952)" fill="#263238"/><path d="M377.24,203.707c0-1.677.648-6.432,2.209-7.7,1.2-.967,4.05-1.266,5.456-1.348h.13c.744,0,5.722.145,7.211,1.353s2.209,6.022,2.209,7.7v.053a1.9,1.9,0,0,1-1.894,1.89H379.134a1.894,1.894,0,0,1-1.894-1.89Z" transform="translate(-241.32 -168.52)" fill="#263238"/><g transform="translate(135.92 26.14)" opacity="0.3"><path d="M377.24,203.707c0-1.677.648-6.432,2.209-7.7,1.2-.967,4.05-1.266,5.456-1.348h.13c.744,0,5.722.145,7.211,1.353s2.209,6.022,2.209,7.7v.053a1.9,1.9,0,0,1-1.894,1.89H379.134a1.894,1.894,0,0,1-1.894-1.89Z" transform="translate(-377.24 -194.66)"/></g><path d="M391.27,194.982c0-2.75,1.063-10.526,3.61-12.6,1.972-1.6,6.631-2.078,8.931-2.213h.217c1.223,0,9.366.232,11.806,2.218,2.552,2.073,3.615,9.849,3.61,12.6v.082a3.1,3.1,0,0,1-3.1,3.1H394.368a3.1,3.1,0,0,1-3.1-3.1Z" transform="translate(-248.57 -161.033)" fill="#263238"/><g transform="translate(169.627 107.586)" opacity="0.3"><path d="M446.994,369.96h0s-.362,2.2,4.784,9.477c1.571,2.218,6.563,6.7,8.428,8.346a2.329,2.329,0,0,0,1.653.585c5.176-.227,30.161-1.382,34.313-2.6a19.258,19.258,0,0,0,4.35-1.812,5.8,5.8,0,0,0,2.818-5.2c-.13-3.591-.353-9.907-.353-11.56a3.835,3.835,0,0,0-4.678-3.958C496.288,363.479,446.994,369.96,446.994,369.96Zm16.112-.483,32.38-2.938.938,13.049-23.83,3.866Z" transform="translate(-446.989 -363.188)"/></g><g transform="translate(172.861 67.813)" opacity="0.3"><path d="M505.676,293.924s2.441,7.414-13.048,10.864c-15.706,3.494-38.947,9.825-38.947,9.825l12.483-8.9s35.908-5.993,36.8-11.483a50.947,50.947,0,0,0,0-13.343Z" transform="translate(-453.68 -280.89)"/></g><path d="M435.89,366.023a.667.667,0,0,1,.159-.058l.483-.14,1.87-.522c1.633-.425,4-1.044,6.94-1.716,5.881-1.368,14.063-3.006,23.154-4.49,4.548-.735,8.883-1.411,12.841-1.933l5.621-.749a30.221,30.221,0,0,1,4.925-.416,6.809,6.809,0,0,1,3.866,1.15,7.67,7.67,0,0,1,2.1,2.252,5.949,5.949,0,0,1,.754,1.793,3.309,3.309,0,0,1,.1.672,6.5,6.5,0,0,0-.938-2.416,7.731,7.731,0,0,0-2.093-2.189,6.708,6.708,0,0,0-3.813-1.092,30.929,30.929,0,0,0-4.9.449l-5.592.8c-3.958.512-8.293,1.194-12.836,1.933-9.086,1.479-17.268,3.088-23.154,4.412-2.943.648-5.316,1.237-6.954,1.638l-1.88.483-.483.116a.658.658,0,0,1-.174.024Z" transform="translate(-271.626 -251.888)" fill="#263238"/><path d="M562.812,308.205a1.253,1.253,0,0,1-.024-.275v-.793c0-.72-.044-1.706-.077-2.9-.073-2.455-.232-5.843-.565-9.574s-.768-7.1-1.131-9.53c-.179-1.189-.329-2.165-.435-2.875q-.073-.483-.116-.783a1.074,1.074,0,0,1-.024-.275.937.937,0,0,1,.073.266l.164.773c.135.677.314,1.653.517,2.866.406,2.416.87,5.8,1.2,9.535s.483,7.138.483,9.6v2.9a7.483,7.483,0,0,1-.024.793A.967.967,0,0,1,562.812,308.205Z" transform="translate(-335.983 -213.237)" fill="#263238"/><path d="M538.587,252.586c-.048,0-.058-.841-.309-2.18a45.261,45.261,0,0,0-1.353-5.128c-.619-1.981-1.261-3.75-1.73-5.031-.217-.6-.406-1.107-.551-1.513a3.145,3.145,0,0,1-.184-.565,2.1,2.1,0,0,1,.271.527c.16.348.377.855.633,1.489.483,1.266,1.179,3.03,1.8,5.016a36.115,36.115,0,0,1,1.286,5.176c.063.338.077.648.111.918a5.551,5.551,0,0,1,.043.7A2.86,2.86,0,0,1,538.587,252.586Z" transform="translate(-322.56 -191.003)" fill="#263238"/><path d="M507.412,274.259s8.085-2.948,9.119,3.32.928,12.507-.43,14.7-13.856,5.176-13.856,5.176L480.657,302.2s-1.556.324-.619-1.45c1.049-1.972,6.766-14.58,10.072-17.644C496.209,277.459,507.412,274.259,507.412,274.259Z" transform="translate(-294.284 -209.293)" fill="#f5f5f5"/><g transform="translate(185.454 64.119)" opacity="0.3"><path d="M499.427,297.906s-.034-14.774,1.054-16.431,13.8-7.529,13.8-7.529a4.629,4.629,0,0,0-3.779-.57,41.431,41.431,0,0,0-10.279,3.431c-3.513,1.8-9.134,4.383-11.231,7.37a89.041,89.041,0,0,0-4.644,7.8c-2.368,4.374-4.61,9.047-4.61,9.308,0,.536-.126,1.025,1.972.58C486.572,300.805,499.427,297.906,499.427,297.906Z" transform="translate(-479.737 -273.248)"/></g><circle cx="5.239" cy="5.239" r="5.239" transform="translate(192.874 76.966)" fill="#f5f5f5"/><path d="M495.08,304.956a4.137,4.137,0,0,1,.116-1.29,5.2,5.2,0,0,1,1.9-2.943,5.282,5.282,0,0,1,5.045-.793,5.384,5.384,0,0,1,2.494,1.856,5.316,5.316,0,0,1,0,6.341,5.382,5.382,0,0,1-2.494,1.856,5.28,5.28,0,0,1-5.045-.793,5.2,5.2,0,0,1-1.9-2.943,4.137,4.137,0,0,1-.116-1.29,10.942,10.942,0,0,0,.213,1.266,5.219,5.219,0,0,0,1.933,2.827,5.084,5.084,0,0,0,2.17.967,5.146,5.146,0,0,0,2.692-.232,4.73,4.73,0,0,0,1.29-.7A4.832,4.832,0,0,0,504.46,308a5.1,5.1,0,0,0,0-6.041,4.939,4.939,0,0,0-1.083-1.092,4.832,4.832,0,0,0-1.29-.7,5.147,5.147,0,0,0-4.862.715,5.219,5.219,0,0,0-1.933,2.827,10.955,10.955,0,0,0-.213,1.247Z" transform="translate(-302.206 -222.751)" fill="#263238"/><path d="M500.481,304.95a5.1,5.1,0,0,0-4.465,2.639,5.094,5.094,0,1,1,8.926,0A5.089,5.089,0,0,0,500.481,304.95Z" transform="translate(-302.368 -222.972)" fill="#e0e0e0"/><path d="M501.26,307.9a2.257,2.257,0,1,0,2.257-2.257A2.257,2.257,0,0,0,501.26,307.9Z" transform="translate(-305.404 -225.866)" fill="#fff"/><path d="M501.26,307.784v-.145a1.866,1.866,0,0,1,.039-.416,2.256,2.256,0,0,1,.817-1.3,2.339,2.339,0,0,1,2.228-.367,2.368,2.368,0,0,1,0,4.461,2.334,2.334,0,0,1-2.228-.367,2.257,2.257,0,0,1-.817-1.3,1.881,1.881,0,0,1-.039-.42v-.145a1.859,1.859,0,0,0,.116.541,2.267,2.267,0,0,0,.826,1.184,2.151,2.151,0,1,0,0-3.446,2.267,2.267,0,0,0-.826,1.184C501.279,307.586,501.284,307.789,501.26,307.784Z" transform="translate(-305.404 -225.754)" fill="#263238"/><path d="M501.826,301.793c-.087-.13.256-.585,1.087-.894a4.238,4.238,0,0,1,5.49,2.924c.2.865,0,1.4-.135,1.4s-.333-.459-.7-1.078a4.5,4.5,0,0,0-4.466-2.378C502.387,301.793,501.9,301.943,501.826,301.793Z" transform="translate(-305.69 -223.295)" fill="#fff"/><path d="M498.758,303.96c-.285-.2-.425-.483-.28-.633s.44,0,.628.295.295.561.251.6S499.048,304.158,498.758,303.96Z" transform="translate(-303.937 -224.64)" fill="#fff"/><path d="M335.32,276.439h3.151l8.583-.053,28.33-.068h25.507a4.011,4.011,0,0,1,2.726.812l3.726,3.18,1.522,1.3a4.016,4.016,0,0,0,1.484.735,4.2,4.2,0,0,0,1.324.121l.967-.029h.614l-.609.039-.967.048a4.172,4.172,0,0,1-1.348-.1,4.123,4.123,0,0,1-1.532-.735l-1.542-1.29-3.741-3.146a3.866,3.866,0,0,0-2.615-.759h-9.893l-15.6.029H347.054l-8.583-.029-2.339-.024h-.6Z" transform="translate(-219.66 -210.709)" fill="#263238"/><path d="M125.547,396.924c.261-.546.812-.938,1.9-.817,3.02.343,34.68,1.049,39.044,0s18.9-17.543,25.053-18.669c5.161-.942,30.258-1.45,38.218-1.218,7.96-.227,33.051.275,38.213,1.218,6.152,1.126,20.472,19.234,24.836,20.3s36.246-1.271,39.266-1.614c1.092-.121,1.643.271,1.9.817a1.774,1.774,0,0,1-1.59,2.484c-6.766.188-32.786.483-37.657.4l-66.156-1.208c-13.208.082-58.336.372-63.116.44-5.635.077-31.577.556-38.319.367a1.778,1.778,0,0,1-1.595-2.5Z" transform="translate(-111.186 -262.308)" fill="#263238"/><path d="M341.2,154.223c-.261,0-.048,4.548-3.716,4.461s-10.584,0-10.584,0L323.86,153Z" transform="translate(-213.738 -146.993)" fill="#263238"/><path d="M332.682,168a1.6,1.6,0,0,1,1.29.657c.875,1.189,2.619,3.663,2.668,4.437a1.759,1.759,0,0,1-1.576,2c-1.01.126-20.365,0-22.366,0a1.557,1.557,0,0,1-.367-.043c-.532-.13-1.9-.565-1.8-1.5.092-.851,1.585-3.451,2.363-4.765a1.6,1.6,0,0,1,1.377-.778Z" transform="translate(-206.849 -154.744)" fill="#263238"/><path d="M478.83,153a.517.517,0,0,1,.072.1l.184.309.7,1.2,2.508,4.437,8.192,14.692c2.586,4.673,4.973,8.989,6.872,12.43l-.029-.034,5.49,4.35,1.5,1.2.391.319a1.69,1.69,0,0,1,.126.121.647.647,0,0,1-.145-.1l-.411-.295-1.537-1.165-5.538-4.258h0l-6.911-12.406-8.158-14.774c-1.025-1.875-1.856-3.383-2.441-4.48l-.652-1.223-.164-.319A.428.428,0,0,1,478.83,153Z" transform="translate(-293.814 -146.993)" fill="#263238"/><path d="M460.38,147.37a5.022,5.022,0,0,1,1.257.3,8.631,8.631,0,0,1,4.92,3.692,5.289,5.289,0,0,1,.638,1.121,8.989,8.989,0,0,1-.783-1.02,9.665,9.665,0,0,0-4.833-3.625,8.524,8.524,0,0,1-1.2-.469Z" transform="translate(-284.281 -144.084)" fill="#263238"/><g transform="translate(183.875 39.261)" opacity="0.3"><path d="M496,221.81l.483.319c.189-.232-11.164,23.565-16.509,29.842l-3.509-2.982C484.024,241.653,489.688,230.253,496,221.81Z" transform="translate(-476.47 -221.81)"/></g><path d="M355.169,392.381a.627.627,0,0,1-.28-.1,5.726,5.726,0,0,1-.725-.483c-.619-.459-1.484-1.194-2.576-2.165-2.18-1.933-5.248-4.833-8.941-8.54-.923-.928-1.88-1.9-2.866-2.929a39.03,39.03,0,0,0-3.132-3.127,14.382,14.382,0,0,0-4.1-2.291,18.215,18.215,0,0,0-4.891-1.005c-.86-.063-1.725-.063-2.61-.072h-2.682l-5.529-.048-11.623-.106L264.42,371.1l-12.362-.164-3.383-.058h3.359l12.362.077,40.793.333,11.628.111,5.524.053,2.726-.034c.88,0,1.759,0,2.624.077a18.506,18.506,0,0,1,4.954,1.029,14.6,14.6,0,0,1,4.156,2.334,39.412,39.412,0,0,1,3.141,3.156c.967,1.029,1.933,2.01,2.851,2.938,3.673,3.707,6.727,6.626,8.883,8.593,1.078.967,1.933,1.725,2.537,2.2a7.242,7.242,0,0,0,.71.507A1.828,1.828,0,0,0,355.169,392.381Z" transform="translate(-174.281 -259.577)" fill="#263238"/><g transform="translate(206.628 98.133)" opacity="0.3"><path d="M523.85,349.481a28.7,28.7,0,0,1,4.775-4.089c1.774-1.126,4.32-2.416,5.93-1.392a10.447,10.447,0,0,1,1.933,3.025,1.449,1.449,0,0,1,.116,1.189c-.227.459-.812.58-1.319.643l-11.115,1.392c-.217.029-.483.029-.59-.159S523.68,349.646,523.85,349.481Z" transform="translate(-523.55 -343.628)" fill="#fff"/></g><path d="M529.942,419.349v.034a1.339,1.339,0,0,0,1.237,1.716l8.032-.135a1.411,1.411,0,0,0,1.232-1.257l.053-.449a1.363,1.363,0,0,0-1.45-1.45l-7.95.575A1.329,1.329,0,0,0,529.942,419.349Z" transform="translate(-320.197 -283.824)" fill="#fff"/><path d="M219.92,411.206c0-.072,25.9-.126,57.848-.126s57.853.053,57.853.126-25.9.126-57.853.126S219.92,411.273,219.92,411.206Z" transform="translate(-160.03 -280.349)" fill="#455a64"/><path d="M406.286,415.554h3.393l.237-4.214H406.03Z" transform="translate(-256.197 -280.484)" fill="#455a64"/><path d="M340.616,415.554h3.393l.237-4.214H340.36Z" transform="translate(-222.264 -280.484)" fill="#455a64"/><path d="M274.946,415.554h3.393l.242-4.214h-3.89Z" transform="translate(-188.331 -280.484)" fill="#455a64"/><path d="M223.63,391.637c6.138-5.287,14.4-13.421,18.659-14.2,5.161-.942,30.258-1.45,38.218-1.218,7.955-.227,33.051.275,38.213,1.218,3.958.725,11.3,8.482,17.19,14.2Z" transform="translate(-161.947 -262.308)" fill="#455a64"/><path d="M517.436,398.833a2.618,2.618,0,0,1-.285-.217l-.831-.633-3.074-2.416h.063L496.631,397.7l-9.119,1.136h.039l-8.216,4.417-2.349,1.237-.623.319a1.252,1.252,0,0,1-.222.1,1.123,1.123,0,0,1,.2-.135l.609-.348,2.315-1.3,8.172-4.5h0l9.115-1.155,16.731-2.03h.063l3.03,2.46.773.706a1.931,1.931,0,0,1,.285.217Z" transform="translate(-292.424 -272.273)" fill="#263238"/><path d="M475.339,374.6s-1.643-2.774,0-3.475c1.885-.807,33.346-4.581,34.637-4.693,2.552-.227,3.475.928,4.074,3.924s1.933,10.429-.6,12.589-6.476,3.117-14.266,3.6-11.893.744-15.731-1.416S475.339,374.6,475.339,374.6Z" transform="translate(-291.633 -257.263)" fill="#263238"/><path d="M479.447,301.231a9.841,9.841,0,0,1,.841-2.47c.628-1.551,1.59-3.77,2.9-6.461.672-1.344,1.411-2.808,2.291-4.35a41.743,41.743,0,0,1,3.078-4.765,15.256,15.256,0,0,1,2.155-2.3,18.167,18.167,0,0,1,2.663-1.88c.967-.556,1.933-1.058,2.9-1.585s1.981-1.049,3.011-1.556a43.219,43.219,0,0,1,6.239-2.552,31.415,31.415,0,0,1,3.122-.788,12.567,12.567,0,0,1,3.156-.314,5.452,5.452,0,0,1,3.006,1,5.317,5.317,0,0,1,1.725,2.416,15.162,15.162,0,0,1,.662,2.537c.15.8.295,1.566.435,2.3.58,2.924,1.015,5.316,1.257,6.964a9.311,9.311,0,0,1,.213,2.6,12.092,12.092,0,0,1-.7-2.508l-1.643-6.872c-.174-.72-.343-1.5-.517-2.286a14.512,14.512,0,0,0-.681-2.354,3.866,3.866,0,0,0-3.813-2.653,11.527,11.527,0,0,0-2.861.333,30.844,30.844,0,0,0-3,.788,43.446,43.446,0,0,0-6.051,2.5c-1.01.483-2.006,1.015-2.982,1.532s-1.933,1.02-2.856,1.546a17.129,17.129,0,0,0-2.513,1.735,14.153,14.153,0,0,0-2.015,2.088,44.1,44.1,0,0,0-3.093,4.577c-.9,1.488-1.682,2.9-2.416,4.224-1.406,2.619-2.489,4.775-3.252,6.258A13.279,13.279,0,0,1,479.447,301.231Z" transform="translate(-294.127 -208.592)" fill="#263238"/><path d="M531.285,292.822A6.485,6.485,0,0,0,525.6,296.2a6.486,6.486,0,1,1,11.367,0A6.486,6.486,0,0,0,531.285,292.822Z" transform="translate(-317.568 -216.025)" fill="#e0e0e0"/><path d="M532.44,296.553a2.793,2.793,0,1,0,2.793-2.793,2.793,2.793,0,0,0-2.793,2.793Z" transform="translate(-321.516 -219.727)" fill="#fff"/><path d="M532.44,296.468v-.179a2.157,2.157,0,0,1,.058-.517,2.75,2.75,0,0,1,1.01-1.595,2.9,2.9,0,0,1,4.093,4.016,2.827,2.827,0,0,1-1.358,1.01,2.861,2.861,0,0,1-2.735-.445,2.75,2.75,0,0,1-1.01-1.595,2.129,2.129,0,0,1-.058-.517v-.179a2.441,2.441,0,0,0,.135.672,2.769,2.769,0,0,0,1.02,1.479,2.687,2.687,0,1,0,0-4.3,2.769,2.769,0,0,0-1.02,1.479C532.454,296.207,532.464,296.468,532.44,296.468Z" transform="translate(-321.516 -219.641)" fill="#263238"/><path d="M524.791,292.977a2.461,2.461,0,0,1,0-.416,2.906,2.906,0,0,1,.039-.483,5.478,5.478,0,0,1,.121-.677,6.534,6.534,0,0,1,5.113-4.876,6.611,6.611,0,0,1,3.465.271,6.148,6.148,0,0,1,1.672.894,6.321,6.321,0,0,1,1.4,1.4,6.584,6.584,0,0,1-9.3,9.139,6.452,6.452,0,0,1-2.354-3.629,5.466,5.466,0,0,1-.121-.677,2.9,2.9,0,0,1-.039-.483,2.5,2.5,0,0,1,0-.416,12.216,12.216,0,0,0,.251,1.571,6.456,6.456,0,0,0,2.363,3.513,6.379,6.379,0,0,0,6.041.9,5.992,5.992,0,0,0,1.609-.87,5.857,5.857,0,0,0,1.344-1.353,6.331,6.331,0,0,0,0-7.52,5.948,5.948,0,0,0-1.344-1.353,6.132,6.132,0,0,0-1.609-.87,6.481,6.481,0,0,0-3.349-.285,6.345,6.345,0,0,0-2.692,1.184,6.477,6.477,0,0,0-2.363,3.513A12.358,12.358,0,0,0,524.791,292.977Z" transform="translate(-317.559 -215.929)" fill="#263238"/><path d="M533.148,289.1c-.087-.13.353-.652,1.368-1.005a5.239,5.239,0,0,1,6.679,3.557c.271,1.039.087,1.7-.073,1.7s-.329-.575-.759-1.372a5.48,5.48,0,0,0-5.654-3.011C533.811,289.057,533.24,289.264,533.148,289.1Z" transform="translate(-321.876 -216.667)" fill="#fff"/><path d="M529.452,291.792c-.285-.2-.406-.517-.242-.677s.483-.034.672.261.276.57.208.638S529.742,291.99,529.452,291.792Z" transform="translate(-319.809 -218.325)" fill="#fff"/><path d="M453.629,340.247c-.087-.338,8.448-2.784,19.06-5.466s19.288-4.581,19.375-4.243S483.612,333.322,473,336,453.716,340.586,453.629,340.247Z" transform="translate(-280.792 -238.711)" fill="#263238"/><path d="M514.465,271.974a.851.851,0,0,1-.034-.15,2.3,2.3,0,0,0-.1-.425,6.48,6.48,0,0,0-.633-1.546A5.156,5.156,0,0,0,511.87,268c-.217-.135-.483-.227-.715-.348a8.339,8.339,0,0,0-.812-.237,5.79,5.79,0,0,0-.884-.135,6.175,6.175,0,0,0-.942,0,24.388,24.388,0,0,0-4.176.841c-1.484.406-3.045.909-4.678,1.479-3.262,1.145-6.814,2.518-10.429,4.195-.449.217-.894.435-1.324.667a8.392,8.392,0,0,0-1.2.807,13.188,13.188,0,0,0-2.02,2c-1.1,1.5-2.112,3.03-3.078,4.461-1.933,2.871-3.6,5.5-4.949,7.732s-2.416,4.084-3.117,5.36l-.826,1.45-.217.382a.69.69,0,0,1-.082.126.6.6,0,0,1,.063-.14c.048-.1.111-.232.193-.391.174-.343.435-.851.783-1.493.691-1.29,1.716-3.146,3.049-5.4s2.991-4.9,4.91-7.781c.967-1.45,1.933-2.948,3.078-4.485a13.259,13.259,0,0,1,2.059-2.039,8.487,8.487,0,0,1,1.232-.836c.435-.237.884-.454,1.334-.672,3.634-1.682,7.191-3.049,10.463-4.19,1.638-.561,3.209-1.058,4.7-1.45a24.373,24.373,0,0,1,4.214-.822,5.887,5.887,0,0,1,.966,0,6.8,6.8,0,0,1,.913.145c.29.058.561.179.826.256a7.333,7.333,0,0,1,.73.367,5.2,5.2,0,0,1,1.851,1.933,6.159,6.159,0,0,1,.594,1.585,3.327,3.327,0,0,1,.072.435.439.439,0,0,1,.01.174Z" transform="translate(-290.502 -205.93)" fill="#263238"/><g transform="translate(225.973 68.779)" opacity="0.3"><path d="M563.58,282.89c.483.159,3.1,1.793,4.214,2.416a4.833,4.833,0,0,1,2.416,2.837,7.211,7.211,0,0,1-.382,3.741c-1.145,3.987-2.474,11.154-3.62,15.141-.894-7.249-1.87-19.544-2.619-24.135" transform="translate(-563.58 -282.89)" fill="#fff"/></g><path d="M489.11,396.647c0-.068,7.447-1.155,16.654-2.416s16.683-2.252,16.692-2.184-7.447,1.16-16.659,2.416S489.12,396.72,489.11,396.647Z" transform="translate(-299.126 -270.512)" fill="#455a64"/><path d="M494,401.221a1.7,1.7,0,0,1,.309-.068l.889-.145c.773-.121,1.894-.285,3.277-.483,2.774-.387,6.611-.87,10.85-1.373l10.854-1.3,3.291-.4.894-.1a2.193,2.193,0,0,1,.314,0,1.136,1.136,0,0,1-.3.068l-.889.145c-.773.126-1.894.285-3.281.483-2.774.382-6.606.865-10.85,1.368l-10.854,1.3-3.291.4-.894.1A1.293,1.293,0,0,1,494,401.221Z" transform="translate(-301.653 -273.259)" fill="#455a64"/><path d="M504.848,405.5c-.029,0,.295-.048.841-.116l2.334-.295,7.7-.928,7.732-.875,2.344-.237a4.961,4.961,0,0,1,.865-.053,6.631,6.631,0,0,1-.851.15l-2.329.319c-1.972.256-4.7.59-7.732.942s-5.736.657-7.732.855A23.682,23.682,0,0,1,504.848,405.5Z" transform="translate(-307.258 -276.172)" fill="#455a64"/><path d="M485.5,392.352c0-.072,7.839-1.16,17.529-2.416s17.557-2.252,17.567-2.18-7.839,1.155-17.533,2.416S485.51,392.42,485.5,392.352Z" transform="translate(-297.261 -268.295)" fill="#455a64"/><path d="M482.69,388.156c0-.068,8.114-1.194,18.147-2.513s18.176-2.334,18.186-2.267-8.119,1.194-18.152,2.518S482.695,388.224,482.69,388.156Z" transform="translate(-295.809 -266.033)" fill="#455a64"/><path d="M479.51,383.29c0-.068,8.346-1.228,18.659-2.581s18.688-2.416,18.7-2.334-8.346,1.228-18.664,2.581S479.52,383.358,479.51,383.29Z" transform="translate(-294.166 -263.448)" fill="#455a64"/><path d="M477.08,378.379c0-.072,8.5-1.247,18.993-2.624s19.017-2.445,19.027-2.378-8.5,1.247-18.993,2.624S477.09,378.446,477.08,378.379Z" transform="translate(-292.91 -260.865)" fill="#455a64"/><path d="M474.62,373.5c0-.068,8.564-1.252,19.147-2.644s19.172-2.465,19.181-2.416-8.564,1.252-19.147,2.644S474.63,373.566,474.62,373.5Z" transform="translate(-291.639 -258.314)" fill="#455a64"/><path d="M531.994,367.92c.068,0,1.015,4.146,2.107,9.293s1.933,9.332,1.865,9.347-1.015-4.147-2.112-9.293S531.912,367.959,531.994,367.92Z" transform="translate(-321.283 -258.047)" fill="#455a64"/><path d="M538.516,366.82c.068,0,1.01,4.147,2.107,9.293s1.933,9.337,1.861,9.351-1.01-4.147-2.107-9.3S538.448,366.835,538.516,366.82Z" transform="translate(-324.653 -257.479)" fill="#455a64"/><path d="M545.066,365.73c.068,0,.967,3.919,2,8.791s1.822,8.829,1.754,8.844-.967-3.919-2-8.791S545,365.745,545.066,365.73Z" transform="translate(-328.038 -256.916)" fill="#455a64"/><path d="M552.16,367.22a2.065,2.065,0,0,1,.16.512c.087.333.2.817.333,1.421.271,1.2.6,2.871.923,4.722s.623,3.465.851,4.736c.1.561.189,1.039.256,1.45a1.969,1.969,0,0,1,.063.532,2.232,2.232,0,0,1-.155-.512c-.087-.333-.2-.822-.338-1.421-.266-1.2-.6-2.875-.923-4.726s-.623-3.46-.85-4.731c-.1-.565-.184-1.044-.256-1.45A2.28,2.28,0,0,1,552.16,367.22Z" transform="translate(-331.706 -257.686)" fill="#455a64"/><path d="M524.406,369.27c.068,0,.966,4,2.039,8.965s1.861,9.008,1.788,9.023-.967-4-2.035-8.97S524.338,369.285,524.406,369.27Z" transform="translate(-317.362 -258.745)" fill="#455a64"/><path d="M516.876,370.79c.068,0,.967,4.011,2.044,8.994s1.865,9.028,1.8,9.042-.967-4.011-2.044-8.994S516.808,370.8,516.876,370.79Z" transform="translate(-313.471 -259.53)" fill="#455a64"/><path d="M509.117,371.2c.068,0,.967,3.977,2.025,8.912s1.846,8.95,1.778,8.965-.966-3.973-2.025-8.912S509.059,371.214,509.117,371.2Z" transform="translate(-309.463 -259.742)" fill="#455a64"/><path d="M501.476,372.2c.068,0,.967,3.958,2.015,8.863s1.836,8.9,1.769,8.916-.967-3.953-2.015-8.863S501.408,372.215,501.476,372.2Z" transform="translate(-305.514 -260.259)" fill="#455a64"/><path d="M493.991,373.7c.068,0,.913,3.692,1.89,8.288s1.716,8.327,1.648,8.341-.913-3.7-1.894-8.293S493.894,373.715,493.991,373.7Z" transform="translate(-301.644 -261.034)" fill="#455a64"/><path d="M486.225,374.33c.068,0,.865,3.455,1.778,7.732s1.6,7.781,1.532,7.8-.865-3.451-1.778-7.732S486.157,374.345,486.225,374.33Z" transform="translate(-297.633 -261.36)" fill="#455a64"/><path d="M478.64,375.57a86.015,86.015,0,0,1,1.952,9.173,89.314,89.314,0,0,1-1.952-9.173Z" transform="translate(-293.716 -262)" fill="#455a64"/><path d="M229.38,404.1c0-.068,24.014-.126,53.644-.126s53.644.058,53.644.126-24.009.126-53.644.126S229.38,404.168,229.38,404.1Z" transform="translate(-164.918 -276.675)" fill="#263238"/><path d="M233.73,399.076c0-.072,22.985-.126,51.329-.126s51.329.053,51.329.126-22.975.126-51.329.126S233.73,399.143,233.73,399.076Z" transform="translate(-167.166 -274.081)" fill="#263238"/><path d="M240.34,393.936c0-.073,21.747-.126,48.55-.126s48.55.053,48.55.126-21.747.126-48.55.126S240.34,394,240.34,393.936Z" transform="translate(-170.581 -271.425)" fill="#263238"/><path d="M244.75,388.8c0-.072,20.7-.126,46.24-.126s46.245.053,46.245.126-20.7.126-46.245.126S244.75,388.863,244.75,388.8Z" transform="translate(-172.86 -268.769)" fill="#263238"/><path d="M252.09,383.866c0-.068,19.2-.126,42.872-.126s42.872.058,42.872.126-19.191.126-42.872.126S252.09,383.953,252.09,383.866Z" transform="translate(-176.653 -266.222)" fill="#263238"/><path d="M260.41,379.006c0-.068,17.34-.126,38.73-.126s38.735.058,38.735.126-17.34.126-38.735.126S260.41,379.073,260.41,379.006Z" transform="translate(-180.952 -263.711)" fill="#263238"/><rect width="1.315" height="2.363" transform="translate(116.047 11.303)" fill="#263238"/><g transform="translate(43.309 53.029)" opacity="0.3"><path d="M185.61,252.881s2.373-.807,1.9-2.581a34.027,34.027,0,0,0,16.214,3.866c9.342-.14,43.577,1.933,43.577,1.933l3.924,5.422s-57.969-1.315-60.115.087Z" transform="translate(-185.61 -250.3)" fill="#fff"/></g><g transform="translate(21.55 47.786)" opacity="0.3"><path d="M140.6,251.585c-.483,0,14.769,5.244,16.746,6.892l3.117-.681-10.888-18.05-1.247-.295S144.585,251.609,140.6,251.585Z" transform="translate(-140.587 -239.45)" fill="#fff"/></g><g transform="translate(58.237 1.165)" opacity="0.3"><path d="M216.5,146.857c.29,0,59.709-2.542,59.612-3.325s-26.493-.681-38.087,0a121.744,121.744,0,0,0-21.525,3.325Z" transform="translate(-216.5 -142.982)" fill="#fff"/></g><g transform="translate(33.349 6.19)" opacity="0.2"><path d="M165,185.247l48.328-11.922,9.1-19.945L183.365,155a1.232,1.232,0,0,0-1.208.768Z" transform="translate(-165 -153.38)" fill="#fff"/></g></g></g></svg>