<svg xmlns="http://www.w3.org/2000/svg" width="478.26" height="429.997" viewBox="0 0 478.26 429.997"><g transform="translate(-10.87 -29.884)"><path d="M172,53.53l-5.89,3.4a6.814,6.814,0,0,0,0-.78V54.44c0-3-2.13-4.27-4.77-2.75a9.41,9.41,0,0,0-2.84,2.73c-.43-3.82-3.43-5.24-7.07-3.14a15.74,15.74,0,0,0-7.13,12.35v2.55a6.66,6.66,0,0,0,.61,3L140,72a5.83,5.83,0,0,0-2.64,4.58c0,1.69,1.18,2.37,2.64,1.53l32-18.48a5.84,5.84,0,0,0,2.65-4.58C174.62,53.37,173.43,52.69,172,53.53Z" fill="#ebebeb"/><path d="M209.91,50l-4.32,2.49a5.438,5.438,0,0,0,0-.57V50.66c0-2.23-1.56-3.13-3.49-2a6.8,6.8,0,0,0-2.08,2c-.32-2.8-2.52-3.84-5.19-2.3a11.55,11.55,0,0,0-5.22,9v1.87a5,5,0,0,0,.44,2.17l-3.59,2.08a4.27,4.27,0,0,0-1.94,3.35c0,1.24.87,1.74,1.94,1.12l23.42-13.52a4.28,4.28,0,0,0,1.93-3.36C211.84,49.87,211,49.37,209.91,50Z" fill="#ebebeb"/><circle cx="13.03" cy="13.03" r="13.03" transform="translate(402.67 55.84)" fill="#ffbda7"/><path d="M461.05,276.14,225.45,140.11V162.9l235.6,136.03Z" fill="#4da9e4"/><path d="M461.05,276.14,225.45,140.11V162.9l235.6,136.03Z" fill="#fff" opacity="0.5"/><path d="M461.05,307.03l28.08-16.21v-30.9l-28.08,16.22Z" fill="#4da9e4"/><path d="M461.05,307.03l28.08-16.21v-30.9l-28.08,16.22Z" fill="#fff" opacity="0.3"/><path d="M253.53,123.9l-28.08,16.21,235.6,136,28.08-16.21Zm-21.07,16.21L253.53,128,482.1,260l-21.05,12.16Z" fill="#4da9e4"/><path d="M253.53,123.9l-28.08,16.21,235.6,136,28.08-16.21Zm-21.07,16.21L253.53,128,482.1,260l-21.05,12.16Z" fill="#fff" opacity="0.7"/><path d="M253.53,127.95v16.21L468.06,268.03l14.05-8.11Z" fill="#4da9e4"/><path d="M253.53,127.95v16.21L468.06,268.03l14.05-8.11Z" fill="#fff" opacity="0.5"/><path d="M253.53,127.95l-21.07,12.16,14.05,8.11,7.02-4.06Z" fill="#4da9e4"/><path d="M253.53,127.95l-21.07,12.16,14.05,8.11,7.02-4.06Z" fill="#4da9e4"/><path d="M253.53,127.95l-21.07,12.16,14.05,8.11,7.02-4.06Z" fill="#fff" opacity="0.3"/><path d="M461.05,272.08l7.01-4.05L253.53,144.16l-7.02,4.06Z" fill="#455a64"/><path d="M430.63,201.63a5.75,5.75,0,0,1,3.12.56,31.6,31.6,0,0,1,5.1,3.61,10.29,10.29,0,0,0,5.65,2.44c2.09.07,4.34-1.23,4.72-3.28a3,3,0,0,1,.26-1,1.52,1.52,0,0,1,1.78-.46,9.232,9.232,0,0,1,1.72,1c2.11,1.24,4.75,1,7.18.61,2-.29,4.56-1.19,4.55-3.22,0-1.33-1.16-2.31-2.08-3.28s-1.66-2.51-.82-3.54a2.41,2.41,0,0,1,1.17-.72c2.52-.82,5.6.27,7.73-1.31a4.45,4.45,0,0,0,1.12-5.33,6.78,6.78,0,0,0-4.54-3.46c-1.69-.43-3.85-.63-4.48-2.26-.55-1.43.56-3,1.82-3.85s2.76-1.49,3.63-2.75a4.33,4.33,0,0,0,.12-4.51,5.49,5.49,0,0,0-3.8-2.61,8.161,8.161,0,0,1-2.3-.51,1.52,1.52,0,0,1-.85-1.94c.22-.41.71-.63,1-1a1.82,1.82,0,0,0-.68-2.39,9.2,9.2,0,0,0-2.57-1c-1.83-.61-3.61-2.38-3.06-4.23s3.19-2.55,4-4.4c.69-1.64-.41-3.54-1.87-4.54s-3.25-1.41-4.86-2.17-3.16-2.1-3.29-3.87,1.23-3.34,2.34-4.78,2.05-3.46,1.08-5-3-1.56-4.67-2.09a7.63,7.63,0,0,1-4.59-4.15c-.44-1-.66-2.14-1.19-3.12-1.65-3.06-5.81-4.39-9-4a3.67,3.67,0,0,0-3.07,2.08,5,5,0,0,0-1.13,2.12c-.24,1.47.54,3.35-.85,4.47-2.11,1.71-5.35-.59-5.24,3.24a16.351,16.351,0,0,0,.72,4.76c.57,1.61,1.73,2.3.77,4.1-1.24,2.34-2.06,2.32-4.55,2.32-1.8,0-3.3-.1-4.62,1.26-2.33,2.41-.94,4.58,1.12,6.43,2.34,2.11,1.1,3,.79,5.76-.14,1.31.16,1.71-1,2.59-2.22,1.64-3.46,1.09-2.83,4.31.57,2.95-.31,1.94-2.86,3-2.27,1-3.76,3.41-5.6,4.93-1.18,1-3,1.74-3.09,3.45-.21,3.29,3.88,2.57,5.82,3.35,3.17,1.29,2.23,5.45-.25,7s-6.45,2.26-6.66,6c-.16,2.88,1.48,3.52,3.72,4.49,1.78.77,1.56,1,1.56,3.12,0,4.31,1.44,5.53,5.68,4.83,1.17-.2,2.94-.69,4.1-.34,1.62.49,1.07.89,1.12,2.24.11,3.48,4.16,2.5,5.87,1C425.47,203.88,428,201.89,430.63,201.63Z" fill="#4da9e4"/><path d="M430.63,201.63a5.75,5.75,0,0,1,3.12.56,31.6,31.6,0,0,1,5.1,3.61,10.29,10.29,0,0,0,5.65,2.44c2.09.07,4.34-1.23,4.72-3.28a3,3,0,0,1,.26-1,1.52,1.52,0,0,1,1.78-.46,9.232,9.232,0,0,1,1.72,1c2.11,1.24,4.75,1,7.18.61,2-.29,4.56-1.19,4.55-3.22,0-1.33-1.16-2.31-2.08-3.28s-1.66-2.51-.82-3.54a2.41,2.41,0,0,1,1.17-.72c2.52-.82,5.6.27,7.73-1.31a4.45,4.45,0,0,0,1.12-5.33,6.78,6.78,0,0,0-4.54-3.46c-1.69-.43-3.85-.63-4.48-2.26-.55-1.43.56-3,1.82-3.85s2.76-1.49,3.63-2.75a4.33,4.33,0,0,0,.12-4.51,5.49,5.49,0,0,0-3.8-2.61,8.161,8.161,0,0,1-2.3-.51,1.52,1.52,0,0,1-.85-1.94c.22-.41.71-.63,1-1a1.82,1.82,0,0,0-.68-2.39,9.2,9.2,0,0,0-2.57-1c-1.83-.61-3.61-2.38-3.06-4.23s3.19-2.55,4-4.4c.69-1.64-.41-3.54-1.87-4.54s-3.25-1.41-4.86-2.17-3.16-2.1-3.29-3.87,1.23-3.34,2.34-4.78,2.05-3.46,1.08-5-3-1.56-4.67-2.09a7.63,7.63,0,0,1-4.59-4.15c-.44-1-.66-2.14-1.19-3.12-1.65-3.06-5.81-4.39-9-4a3.67,3.67,0,0,0-3.07,2.08,5,5,0,0,0-1.13,2.12c-.24,1.47.54,3.35-.85,4.47-2.11,1.71-5.35-.59-5.24,3.24a16.351,16.351,0,0,0,.72,4.76c.57,1.61,1.73,2.3.77,4.1-1.24,2.34-2.06,2.32-4.55,2.32-1.8,0-3.3-.1-4.62,1.26-2.33,2.41-.94,4.58,1.12,6.43,2.34,2.11,1.1,3,.79,5.76-.14,1.31.16,1.71-1,2.59-2.22,1.64-3.46,1.09-2.83,4.31.57,2.95-.31,1.94-2.86,3-2.27,1-3.76,3.41-5.6,4.93-1.18,1-3,1.74-3.09,3.45-.21,3.29,3.88,2.57,5.82,3.35,3.17,1.29,2.23,5.45-.25,7s-6.45,2.26-6.66,6c-.16,2.88,1.48,3.52,3.72,4.49,1.78.77,1.56,1,1.56,3.12,0,4.31,1.44,5.53,5.68,4.83,1.17-.2,2.94-.69,4.1-.34,1.62.49,1.07.89,1.12,2.24.11,3.48,4.16,2.5,5.87,1C425.47,203.88,428,201.89,430.63,201.63Z" fill="#fff" opacity="0.1"/><path d="M463,194.3c1.93-.63,4.2-.14,6.11-.58a23.067,23.067,0,0,0-3.43-.55,9.72,9.72,0,0,0-4.85,1.06,4.49,4.49,0,0,0-1.72,1.15,2.12,2.12,0,0,0,.07,2.15c.32.76.82,1.94,0,2.57a3.956,3.956,0,0,1-3.32.13,31.488,31.488,0,0,1-3.48-1.63,16.63,16.63,0,0,0-3.44-1.42c-.86-.21-2.37-.32-2.91.61a3.91,3.91,0,0,0-.58,1.87,3.941,3.941,0,0,1,0,1.49,2.91,2.91,0,0,1-2.05,2.18,3.68,3.68,0,0,1-3.5-1.68c-.82-1.09-1.33-2.39-2.16-3.48a7.37,7.37,0,0,0-9.77-1.42c-1.24.9-2.8,2.26-4,1.36s-.52-3.58-2-4.31c-1-.49-2.35.29-3.16-.44a2.13,2.13,0,0,1-.56-1.2c-.59-2.45-1.09-5.29.45-7.28,1.38-1.78,4.29-2.87,4-5.1-.27-1.9-2.69-2.47-4.59-2.7s-4.33-1.12-4.23-3,2.64-2.79,3-4.63c.16-.79-.11-1.67.25-2.39.55-1.08,2.1-1.13,3-1.93,1.63-1.44.36-4.14.82-6.27.33-1.51,1.55-2.69,1.95-4.18.81-3-1.89-5.8-4.72-7a16.83,16.83,0,0,1-3.22-1.49.39.39,0,0,1-.1-.08,5.85,5.85,0,0,0,2.32,3.72c2.34,2.11,1.1,3,.79,5.76-.14,1.31.16,1.71-1,2.59-2.22,1.64-3.46,1.09-2.83,4.31.57,2.95-.31,1.94-2.86,3-2.27,1-3.76,3.41-5.6,4.93-1.18,1-3,1.74-3.09,3.45-.21,3.29,3.88,2.57,5.82,3.35,3.17,1.29,2.23,5.45-.25,7s-6.45,2.26-6.66,6c-.16,2.88,1.48,3.52,3.72,4.49,1.78.77,1.56,1,1.56,3.12,0,4.31,1.44,5.53,5.68,4.83,1.17-.2,2.94-.69,4.1-.34,1.62.49,1.07.89,1.11,2.24.12,3.48,4.17,2.5,5.88,1,2-1.71,4.45-3.7,7.13-4a5.75,5.75,0,0,1,3.12.56,31.6,31.6,0,0,1,5.1,3.61,10.29,10.29,0,0,0,5.65,2.44c2.09.07,4.34-1.23,4.72-3.28a3,3,0,0,1,.26-1,1.52,1.52,0,0,1,1.78-.46,9.231,9.231,0,0,1,1.72,1c2.11,1.24,4.75,1,7.18.61,2-.29,4.56-1.19,4.55-3.22,0-1.33-1.16-2.31-2.08-3.28s-1.66-2.51-.82-3.54a2.41,2.41,0,0,1,1.14-.7Z" opacity="0.15"/><path d="M422.26,161.54l13.07,25.91V175.52l1.33-31,1.93,31v8L453,158.44l-14.36,30.82V254.4a.83.83,0,0,1-.48.67,2.52,2.52,0,0,1-2.3,0,.83.83,0,0,1-.48-.67V194.05Z" fill="#263238"/><path d="M353.45,157.07a5.75,5.75,0,0,1,3.12.56,31.6,31.6,0,0,1,5.1,3.61,10.29,10.29,0,0,0,5.66,2.44c2.08.07,4.33-1.23,4.71-3.28a3.06,3.06,0,0,1,.26-1,1.52,1.52,0,0,1,1.78-.46,9.229,9.229,0,0,1,1.72,1c2.11,1.24,4.75,1,7.18.61,2-.29,4.56-1.19,4.55-3.22,0-1.33-1.16-2.31-2.08-3.28s-1.66-2.51-.82-3.54a2.41,2.41,0,0,1,1.17-.72c2.52-.82,5.6.27,7.73-1.31a4.45,4.45,0,0,0,1.12-5.33,6.78,6.78,0,0,0-4.54-3.46c-1.69-.43-3.84-.63-4.47-2.26-.56-1.43.55-3,1.81-3.85s2.76-1.49,3.63-2.75a4.33,4.33,0,0,0,.12-4.51,5.47,5.47,0,0,0-3.79-2.61,8.16,8.16,0,0,1-2.31-.51,1.53,1.53,0,0,1-.85-1.94c.23-.41.71-.63,1-1a1.83,1.83,0,0,0-.68-2.4,9.2,9.2,0,0,0-2.57-1c-1.83-.61-3.6-2.38-3.06-4.23s3.19-2.55,4-4.4c.69-1.63-.41-3.54-1.87-4.54s-3.25-1.41-4.86-2.17-3.16-2.1-3.29-3.87,1.23-3.34,2.34-4.78,2.05-3.46,1.08-5-3-1.56-4.67-2.09a7.63,7.63,0,0,1-4.67-4.2c-.44-1-.66-2.14-1.19-3.12-1.65-3.06-5.81-4.39-9-4a3.67,3.67,0,0,0-3.07,2.08,4.86,4.86,0,0,0-1.12,2.12c-.25,1.47.53,3.35-.86,4.47-2.11,1.71-5.35-.59-5.24,3.24a16.349,16.349,0,0,0,.72,4.76c.57,1.61,1.73,2.3.77,4.1-1.24,2.34-2.06,2.32-4.54,2.32-1.81,0-3.31-.1-4.63,1.27-2.32,2.4-.94,4.57,1.12,6.42,2.34,2.11,1.1,3,.8,5.76-.15,1.31.15,1.71-1,2.59-2.22,1.64-3.46,1.09-2.83,4.32.57,2.94-.31,1.93-2.86,3-2.27,1-3.76,3.41-5.6,4.93-1.17,1-3,1.74-3.08,3.45-.22,3.29,3.87,2.57,5.81,3.35,3.17,1.29,2.23,5.45-.25,7s-6.45,2.26-6.66,6c-.16,2.88,1.48,3.52,3.72,4.49,1.79.77,1.56,1,1.56,3.13,0,4.3,1.44,5.52,5.68,4.82,1.17-.2,2.94-.69,4.1-.34,1.62.49,1.07.89,1.12,2.24.11,3.48,4.16,2.5,5.87,1C348.29,159.32,350.77,157.33,353.45,157.07Z" fill="#4da9e4"/><path d="M353.45,157.07a5.75,5.75,0,0,1,3.12.56,31.6,31.6,0,0,1,5.1,3.61,10.29,10.29,0,0,0,5.66,2.44c2.08.07,4.33-1.23,4.71-3.28a3.06,3.06,0,0,1,.26-1,1.52,1.52,0,0,1,1.78-.46,9.229,9.229,0,0,1,1.72,1c2.11,1.24,4.75,1,7.18.61,2-.29,4.56-1.19,4.55-3.22,0-1.33-1.16-2.31-2.08-3.28s-1.66-2.51-.82-3.54a2.41,2.41,0,0,1,1.17-.72c2.52-.82,5.6.27,7.73-1.31a4.45,4.45,0,0,0,1.12-5.33,6.78,6.78,0,0,0-4.54-3.46c-1.69-.43-3.84-.63-4.47-2.26-.56-1.43.55-3,1.81-3.85s2.76-1.49,3.63-2.75a4.33,4.33,0,0,0,.12-4.51,5.47,5.47,0,0,0-3.79-2.61,8.16,8.16,0,0,1-2.31-.51,1.53,1.53,0,0,1-.85-1.94c.23-.41.71-.63,1-1a1.83,1.83,0,0,0-.68-2.4,9.2,9.2,0,0,0-2.57-1c-1.83-.61-3.6-2.38-3.06-4.23s3.19-2.55,4-4.4c.69-1.63-.41-3.54-1.87-4.54s-3.25-1.41-4.86-2.17-3.16-2.1-3.29-3.87,1.23-3.34,2.34-4.78,2.05-3.46,1.08-5-3-1.56-4.67-2.09a7.63,7.63,0,0,1-4.67-4.2c-.44-1-.66-2.14-1.19-3.12-1.65-3.06-5.81-4.39-9-4a3.67,3.67,0,0,0-3.07,2.08,4.86,4.86,0,0,0-1.12,2.12c-.25,1.47.53,3.35-.86,4.47-2.11,1.71-5.35-.59-5.24,3.24a16.349,16.349,0,0,0,.72,4.76c.57,1.61,1.73,2.3.77,4.1-1.24,2.34-2.06,2.32-4.54,2.32-1.81,0-3.31-.1-4.63,1.27-2.32,2.4-.94,4.57,1.12,6.42,2.34,2.11,1.1,3,.8,5.76-.15,1.31.15,1.71-1,2.59-2.22,1.64-3.46,1.09-2.83,4.32.57,2.94-.31,1.93-2.86,3-2.27,1-3.76,3.41-5.6,4.93-1.17,1-3,1.74-3.08,3.45-.22,3.29,3.87,2.57,5.81,3.35,3.17,1.29,2.23,5.45-.25,7s-6.45,2.26-6.66,6c-.16,2.88,1.48,3.52,3.72,4.49,1.79.77,1.56,1,1.56,3.13,0,4.3,1.44,5.52,5.68,4.82,1.17-.2,2.94-.69,4.1-.34,1.62.49,1.07.89,1.12,2.24.11,3.48,4.16,2.5,5.87,1C348.29,159.32,350.77,157.33,353.45,157.07Z" fill="#fff" opacity="0.1"/><path d="M385.8,149.74c1.93-.63,4.2-.14,6.11-.58a21.678,21.678,0,0,0-3.42-.54,9.62,9.62,0,0,0-4.86,1,4.57,4.57,0,0,0-1.72,1.15A2.15,2.15,0,0,0,382,153c.32.76.82,1.94,0,2.57a3.979,3.979,0,0,1-3.33.13,29.769,29.769,0,0,1-3.48-1.63,16.629,16.629,0,0,0-3.44-1.42c-.86-.21-2.37-.32-2.91.61a3.91,3.91,0,0,0-.58,1.87,3.94,3.94,0,0,1,0,1.49,2.91,2.91,0,0,1-2.05,2.18,3.69,3.69,0,0,1-3.5-1.68c-.82-1.09-1.33-2.39-2.16-3.48a7.37,7.37,0,0,0-9.77-1.42c-1.24.9-2.8,2.26-4,1.36s-.52-3.58-2-4.31c-1-.49-2.35.29-3.16-.44a2.13,2.13,0,0,1-.56-1.19c-.59-2.46-1.09-5.3.45-7.29,1.38-1.78,4.29-2.87,4-5.1-.27-1.9-2.69-2.47-4.59-2.7s-4.32-1.12-4.23-3,2.64-2.79,3-4.63c.16-.79-.11-1.67.25-2.39.55-1.08,2.1-1.13,3-1.93,1.63-1.44.36-4.14.83-6.27.32-1.51,1.54-2.69,1.95-4.18.8-3-1.9-5.8-4.73-7a16.83,16.83,0,0,1-3.22-1.49.391.391,0,0,1-.1-.08,5.85,5.85,0,0,0,2.32,3.72c2.34,2.11,1.1,3,.8,5.76-.15,1.31.15,1.71-1,2.59-2.22,1.64-3.46,1.09-2.83,4.32.57,2.94-.31,1.93-2.86,3-2.27,1-3.76,3.41-5.6,4.93-1.18,1-3,1.74-3.08,3.45-.22,3.29,3.87,2.57,5.81,3.35,3.17,1.29,2.23,5.45-.25,7s-6.45,2.26-6.66,6c-.16,2.88,1.48,3.52,3.72,4.49,1.79.77,1.56,1,1.56,3.13,0,4.3,1.44,5.52,5.68,4.82,1.17-.2,2.94-.69,4.1-.34,1.62.49,1.07.89,1.12,2.24.11,3.48,4.16,2.5,5.87,1,2-1.71,4.45-3.7,7.13-4a5.75,5.75,0,0,1,3.12.56,31.6,31.6,0,0,1,5.1,3.61,10.29,10.29,0,0,0,5.66,2.44c2.08.07,4.33-1.23,4.71-3.28a3.061,3.061,0,0,1,.26-1,1.52,1.52,0,0,1,1.78-.46,9.23,9.23,0,0,1,1.72,1c2.11,1.24,4.75,1,7.18.61,2-.29,4.56-1.19,4.55-3.22,0-1.33-1.16-2.31-2.08-3.28s-1.66-2.51-.82-3.54A2.41,2.41,0,0,1,385.8,149.74Z" opacity="0.15"/><path d="M345.08,117l13.07,25.91V131l1.33-31,1.93,31v8l14.36-25.1-14.36,30.8v65.14a.83.83,0,0,1-.48.67,2.52,2.52,0,0,1-2.3,0,.83.83,0,0,1-.48-.67V149.49Z" fill="#263238"/><path d="M276.27,112.51a5.73,5.73,0,0,1,3.12.56,31.6,31.6,0,0,1,5.1,3.61,10.29,10.29,0,0,0,5.66,2.44c2.08.07,4.33-1.23,4.71-3.28a2.859,2.859,0,0,1,.27-1,1.52,1.52,0,0,1,1.78-.46,9.493,9.493,0,0,1,1.71,1c2.11,1.24,4.75,1,7.18.61,2-.29,4.56-1.18,4.55-3.22,0-1.33-1.16-2.31-2.08-3.28s-1.65-2.51-.82-3.54a2.41,2.41,0,0,1,1.17-.72c2.52-.82,5.6.27,7.74-1.3a4.45,4.45,0,0,0,1.11-5.34,6.78,6.78,0,0,0-4.54-3.46c-1.69-.43-3.84-.63-4.47-2.26-.56-1.43.55-3,1.81-3.85s2.76-1.49,3.63-2.75a4.35,4.35,0,0,0,.13-4.51,5.51,5.51,0,0,0-3.8-2.61,8.5,8.5,0,0,1-2.31-.5,1.55,1.55,0,0,1-.85-1.95c.23-.41.71-.63,1-1a1.83,1.83,0,0,0-.68-2.4,9.2,9.2,0,0,0-2.57-1c-1.83-.61-3.6-2.38-3.06-4.23s3.19-2.55,4-4.4c.69-1.63-.41-3.54-1.87-4.54s-3.25-1.41-4.86-2.17-3.16-2.1-3.29-3.87,1.23-3.34,2.34-4.78,2.05-3.46,1.08-5-3-1.56-4.66-2.09a7.62,7.62,0,0,1-4.6-4.15c-.44-1-.66-2.14-1.19-3.12-1.65-3.06-5.81-4.39-9-4A3.66,3.66,0,0,0,276.57,32a4.77,4.77,0,0,0-1.12,2.11c-.25,1.47.53,3.35-.86,4.47-2.11,1.71-5.35-.59-5.23,3.24a16,16,0,0,0,.71,4.76c.57,1.61,1.73,2.31.77,4.1C269.6,53,268.79,53,266.3,53c-1.8,0-3.31-.1-4.63,1.27-2.32,2.4-.94,4.57,1.12,6.42,2.35,2.11,1.1,3,.8,5.76-.15,1.31.15,1.72-1,2.59-2.22,1.64-3.46,1.09-2.83,4.32.57,2.94-.31,1.93-2.86,3-2.27,1-3.76,3.41-5.6,4.93-1.17,1-3,1.74-3.08,3.45C248,88,252.06,87.31,254,88.09c3.18,1.29,2.23,5.45-.25,7s-6.45,2.25-6.66,6c-.16,2.88,1.48,3.52,3.72,4.49,1.79.77,1.56,1,1.56,3.13,0,4.3,1.44,5.52,5.68,4.82,1.17-.2,2.94-.69,4.1-.34,1.62.49,1.07.89,1.12,2.24.11,3.48,4.16,2.5,5.87,1C271.11,114.76,273.59,112.77,276.27,112.51Z" fill="#4da9e4"/><path d="M276.27,112.51a5.73,5.73,0,0,1,3.12.56,31.6,31.6,0,0,1,5.1,3.61,10.29,10.29,0,0,0,5.66,2.44c2.08.07,4.33-1.23,4.71-3.28a2.859,2.859,0,0,1,.27-1,1.52,1.52,0,0,1,1.78-.46,9.493,9.493,0,0,1,1.71,1c2.11,1.24,4.75,1,7.18.61,2-.29,4.56-1.18,4.55-3.22,0-1.33-1.16-2.31-2.08-3.28s-1.65-2.51-.82-3.54a2.41,2.41,0,0,1,1.17-.72c2.52-.82,5.6.27,7.74-1.3a4.45,4.45,0,0,0,1.11-5.34,6.78,6.78,0,0,0-4.54-3.46c-1.69-.43-3.84-.63-4.47-2.26-.56-1.43.55-3,1.81-3.85s2.76-1.49,3.63-2.75a4.35,4.35,0,0,0,.13-4.51,5.51,5.51,0,0,0-3.8-2.61,8.5,8.5,0,0,1-2.31-.5,1.55,1.55,0,0,1-.85-1.95c.23-.41.71-.63,1-1a1.83,1.83,0,0,0-.68-2.4,9.2,9.2,0,0,0-2.57-1c-1.83-.61-3.6-2.38-3.06-4.23s3.19-2.55,4-4.4c.69-1.63-.41-3.54-1.87-4.54s-3.25-1.41-4.86-2.17-3.16-2.1-3.29-3.87,1.23-3.34,2.34-4.78,2.05-3.46,1.08-5-3-1.56-4.66-2.09a7.62,7.62,0,0,1-4.6-4.15c-.44-1-.66-2.14-1.19-3.12-1.65-3.06-5.81-4.39-9-4A3.66,3.66,0,0,0,276.57,32a4.77,4.77,0,0,0-1.12,2.11c-.25,1.47.53,3.35-.86,4.47-2.11,1.71-5.35-.59-5.23,3.24a16,16,0,0,0,.71,4.76c.57,1.61,1.73,2.31.77,4.1C269.6,53,268.79,53,266.3,53c-1.8,0-3.31-.1-4.63,1.27-2.32,2.4-.94,4.57,1.12,6.42,2.35,2.11,1.1,3,.8,5.76-.15,1.31.15,1.72-1,2.59-2.22,1.64-3.46,1.09-2.83,4.32.57,2.94-.31,1.93-2.86,3-2.27,1-3.76,3.41-5.6,4.93-1.17,1-3,1.74-3.08,3.45C248,88,252.06,87.31,254,88.09c3.18,1.29,2.23,5.45-.25,7s-6.45,2.25-6.66,6c-.16,2.88,1.48,3.52,3.72,4.49,1.79.77,1.56,1,1.56,3.13,0,4.3,1.44,5.52,5.68,4.82,1.17-.2,2.94-.69,4.1-.34,1.62.49,1.07.89,1.12,2.24.11,3.48,4.16,2.5,5.87,1C271.11,114.76,273.59,112.77,276.27,112.51Z" fill="#fff" opacity="0.1"/><path d="M308.62,105.18c1.93-.63,4.2-.13,6.11-.58a21.681,21.681,0,0,0-3.42-.54,9.62,9.62,0,0,0-4.86,1,4.46,4.46,0,0,0-1.71,1.15,2.12,2.12,0,0,0,.06,2.15c.32.76.82,1.94.05,2.57s-2.37.47-3.33.13a29.774,29.774,0,0,1-3.48-1.63,16.41,16.41,0,0,0-3.44-1.42c-.86-.21-2.37-.32-2.91.61a3.91,3.91,0,0,0-.58,1.87,3.74,3.74,0,0,1,0,1.49,2.91,2.91,0,0,1-2.05,2.18,3.67,3.67,0,0,1-3.49-1.68c-.83-1.09-1.34-2.39-2.17-3.47a7.36,7.36,0,0,0-9.77-1.43c-1.24.9-2.8,2.26-4,1.36s-.52-3.58-2-4.31c-1-.49-2.35.29-3.16-.43a2.2,2.2,0,0,1-.56-1.2c-.58-2.46-1.09-5.3.45-7.29,1.38-1.78,4.29-2.87,4-5.1-.27-1.9-2.69-2.47-4.59-2.7s-4.32-1.12-4.23-3,2.65-2.78,3-4.63c.16-.79-.11-1.67.25-2.39.55-1.08,2.1-1.13,3-1.93,1.63-1.44.36-4.14.83-6.27.32-1.51,1.54-2.69,1.95-4.18.8-3-1.9-5.8-4.73-7A16.83,16.83,0,0,1,260.57,57a.39.39,0,0,1-.1-.08,5.89,5.89,0,0,0,2.32,3.72c2.35,2.11,1.1,3,.8,5.76-.15,1.31.15,1.72-1,2.59-2.22,1.64-3.46,1.09-2.83,4.32.57,2.94-.31,1.93-2.86,3-2.27,1-3.76,3.41-5.6,4.93-1.17,1-3,1.74-3.08,3.45-.22,3.31,3.84,2.62,5.78,3.4,3.18,1.29,2.23,5.45-.25,7s-6.45,2.25-6.66,6c-.16,2.88,1.48,3.52,3.72,4.49,1.79.77,1.56,1,1.56,3.13,0,4.3,1.44,5.52,5.68,4.82,1.17-.2,2.94-.69,4.1-.34,1.62.49,1.07.89,1.12,2.24.11,3.48,4.16,2.5,5.87,1,2-1.71,4.45-3.7,7.13-4a5.73,5.73,0,0,1,3.12.56,31.6,31.6,0,0,1,5.1,3.61,10.29,10.29,0,0,0,5.66,2.44c2.08.07,4.33-1.23,4.71-3.28a2.859,2.859,0,0,1,.27-1,1.52,1.52,0,0,1,1.78-.46,9.492,9.492,0,0,1,1.71,1c2.11,1.24,4.75,1,7.18.61,2-.29,4.56-1.18,4.55-3.22,0-1.33-1.16-2.31-2.08-3.28s-1.65-2.51-.82-3.54a2.41,2.41,0,0,1,1.17-.69Z" opacity="0.15"/><path d="M267.9,72.42,281,98.33V86.41l1.33-31,1.93,31v8l14.36-25.1-14.36,30.82v65.14a.81.81,0,0,1-.48.67,2.52,2.52,0,0,1-2.3,0,.81.81,0,0,1-.48-.67V104.94Z" fill="#263238"/><path d="M169.29,195.32l235.6,136.03v8.1L169.29,203.43Z" fill="#ebebeb"/><path d="M404.89,331.35l56.16-32.42L225.45,162.9l-56.16,32.42Z" fill="#fafafa"/><path d="M404.89,339.45l56.16-32.42v-8.1l-56.16,32.42Z" fill="#e0e0e0"/><path d="M348.29,298.67l56.16-32.42-3.51-2.03-56.16,32.43Z" fill="#ebebeb"/><path d="M288.63,264.22l56.15-32.42-3.51-2.03L285.12,262.2Z" fill="#ebebeb"/><path d="M228.96,229.77l56.16-32.42-3.51-2.03-56.16,32.43Z" fill="#ebebeb"/><path d="M404.89,339.45,246.47,430.92,10.87,294.89l158.42-91.46Z" fill="#455a64"/><path d="M214.58,249.68l2.76-7.98,5.52-3.19,2.77,4.79Z" fill="#4da9e4"/><path d="M167.62,213l49.72,28.7,5.52-3.19-49.71-28.7Z" fill="#4da9e4"/><path d="M167.62,213l49.72,28.7,5.52-3.19-49.71-28.7Z" fill="#fff" opacity="0.5"/><path d="M167.62,213l-2.76,7.97,49.72,28.71,2.76-7.98Z" fill="#4da9e4"/><path d="M167.62,213l-2.76,7.97,49.72,28.71,2.76-7.98Z" fill="#fff" opacity="0.3"/><path d="M171.89,218.66l-.93,2.68,16.75,9.67.94-2.68Z" fill="#fafafa"/><path d="M193.81,231.31l-.93,2.69,16.75,9.67.93-2.69Z" fill="#fafafa"/><path d="M237.81,250.33,95.64,332.42l4.06,2.34,142.18-82.08Z" fill="#fafafa"/><path d="M291.76,294.24l2.76-7.98,5.52-3.19,2.77,4.79Z" fill="#4da9e4"/><path d="M244.8,257.56l49.72,28.7,5.52-3.19-49.72-28.7Z" fill="#4da9e4"/><path d="M244.8,257.56l49.72,28.7,5.52-3.19-49.72-28.7Z" fill="#fff" opacity="0.5"/><path d="M244.8,257.56l-2.76,7.97,49.72,28.71,2.76-7.98Z" fill="#4da9e4"/><path d="M244.8,257.56l-2.76,7.97,49.72,28.71,2.76-7.98Z" fill="#fff" opacity="0.3"/><path d="M249.07,263.21l-.93,2.69,16.75,9.67.93-2.68Z" fill="#fafafa"/><path d="M270.99,275.87l-.93,2.69,16.75,9.67.93-2.69Z" fill="#fafafa"/><path d="M314.99,294.89,172.82,376.98l4.06,2.34,142.17-82.08Z" fill="#fafafa"/><path d="M373,341.14l2.76-7.97,5.52-3.19,2.77,4.78Z" fill="#4da9e4"/><path d="M326.04,304.46l49.72,28.71,5.52-3.19-49.72-28.71Z" fill="#4da9e4"/><path d="M326.04,304.46l49.72,28.71,5.52-3.19-49.72-28.71Z" fill="#fff" opacity="0.5"/><path d="M326.04,304.46l-2.76,7.98L373,341.14l2.76-7.97Z" fill="#4da9e4"/><path d="M326.04,304.46l-2.76,7.98L373,341.14l2.76-7.97Z" fill="#fff" opacity="0.3"/><path d="M330.31,310.12l-.93,2.69,16.75,9.67.93-2.69Z" fill="#fafafa"/><path d="M352.23,322.77l-.93,2.69,16.75,9.67.93-2.69Z" fill="#fafafa"/><path d="M193.1,104.75V227.71l1.32-.76V103.98Z" fill="#263238"/><path d="M190.99,103.52V226.49l2.11,1.22V104.75Z" fill="#37474f"/><path d="M190.99,103.52l2.11,1.23,1.32-.77-2.11-1.22Z" fill="#455a64"/><path d="M202.93,114.25l-20.85-12a1,1,0,0,0-1-.09l-1.12.64a1,1,0,0,0-.41.91V133.8a3.11,3.11,0,0,0,1.4,2.43l20.85,12a1,1,0,0,0,1,.1l1.14-.66a1,1,0,0,0,.39-.89V116.67a3.09,3.09,0,0,0-1.4-2.42Z" fill="#4da9e4"/><path d="M202.93,114.25l-20.85-12a1,1,0,0,0-1-.09l-1.12.64a1,1,0,0,0-.41.91V133.8a3.11,3.11,0,0,0,1.4,2.43l20.85,12a1,1,0,0,0,1,.1l1.14-.66a1,1,0,0,0,.39-.89V116.67a3.09,3.09,0,0,0-1.4-2.42Z" fill="#fff" opacity="0.7"/><path d="M202.8,148.36l1.14-.66a1,1,0,0,0,.39-.89V116.67a2.76,2.76,0,0,0-.28-1.12l-2.24,1.3v31.41h0A1,1,0,0,0,202.8,148.36Z" fill="#4da9e4"/><path d="M202.8,148.36l1.14-.66a1,1,0,0,0,.39-.89V116.67a2.76,2.76,0,0,0-.28-1.12l-2.24,1.3v31.41h0A1,1,0,0,0,202.8,148.36Z" opacity="0.25"/><path d="M201.81,114.89l-20.85-12c-.77-.45-1.4-.09-1.4.81v30.1a3.11,3.11,0,0,0,1.4,2.43l20.85,12c.77.45,1.4.09,1.4-.81v-30.1a3.11,3.11,0,0,0-1.4-2.43Z" fill="#4da9e4"/><path d="M181.56,105.51l19.25,11.11a1.27,1.27,0,0,1,.4.7V145.6L182,134.5a1.27,1.27,0,0,1-.4-.7V105.51m-.5-.86V133.8a1.65,1.65,0,0,0,.65,1.13l20,11.54V117.32a1.65,1.65,0,0,0-.65-1.13Z" fill="#fff"/><path d="M195.09,119.93a12.22,12.22,0,0,1,1.3,5.66,9.441,9.441,0,0,1-.45,3.08,2.65,2.65,0,0,1-1.46,1.71,3,3,0,0,1-2.61-.51l-1.82-1.05v6.3l-2.55-1.47v-19.9l3.92,2.26a9.28,9.28,0,0,1,3.67,3.92ZM193,126.22a1.45,1.45,0,0,0,.63-.81,3.6,3.6,0,0,0,.19-1.18,7.21,7.21,0,0,0-.4-2.28,3.35,3.35,0,0,0-1.57-1.89l-1.8-1.06v6l1.81,1A1.15,1.15,0,0,0,193,126.22Z" fill="#fff"/><g transform="translate(78 45)"><path d="M193.1,104.75V227.71l1.32-.76V103.98Z" fill="#263238"/><path d="M190.99,103.52V226.49l2.11,1.22V104.75Z" fill="#37474f"/><path d="M190.99,103.52l2.11,1.23,1.32-.77-2.11-1.22Z" fill="#455a64"/><path d="M202.93,114.25l-20.85-12a1,1,0,0,0-1-.09l-1.12.64a1,1,0,0,0-.41.91V133.8a3.11,3.11,0,0,0,1.4,2.43l20.85,12a1,1,0,0,0,1,.1l1.14-.66a1,1,0,0,0,.39-.89V116.67a3.09,3.09,0,0,0-1.4-2.42Z" fill="#4da9e4"/><path d="M202.93,114.25l-20.85-12a1,1,0,0,0-1-.09l-1.12.64a1,1,0,0,0-.41.91V133.8a3.11,3.11,0,0,0,1.4,2.43l20.85,12a1,1,0,0,0,1,.1l1.14-.66a1,1,0,0,0,.39-.89V116.67a3.09,3.09,0,0,0-1.4-2.42Z" fill="#fff" opacity="0.7"/><path d="M202.8,148.36l1.14-.66a1,1,0,0,0,.39-.89V116.67a2.76,2.76,0,0,0-.28-1.12l-2.24,1.3v31.41h0A1,1,0,0,0,202.8,148.36Z" fill="#4da9e4"/><path d="M202.8,148.36l1.14-.66a1,1,0,0,0,.39-.89V116.67a2.76,2.76,0,0,0-.28-1.12l-2.24,1.3v31.41h0A1,1,0,0,0,202.8,148.36Z" opacity="0.25"/><path d="M201.81,114.89l-20.85-12c-.77-.45-1.4-.09-1.4.81v30.1a3.11,3.11,0,0,0,1.4,2.43l20.85,12c.77.45,1.4.09,1.4-.81v-30.1a3.11,3.11,0,0,0-1.4-2.43Z" fill="#4da9e4"/><path d="M181.56,105.51l19.25,11.11a1.27,1.27,0,0,1,.4.7V145.6L182,134.5a1.27,1.27,0,0,1-.4-.7V105.51m-.5-.86V133.8a1.65,1.65,0,0,0,.65,1.13l20,11.54V117.32a1.65,1.65,0,0,0-.65-1.13Z" fill="#fff"/><path d="M195.09,119.93a12.22,12.22,0,0,1,1.3,5.66,9.441,9.441,0,0,1-.45,3.08,2.65,2.65,0,0,1-1.46,1.71,3,3,0,0,1-2.61-.51l-1.82-1.05v6.3l-2.55-1.47v-19.9l3.92,2.26a9.28,9.28,0,0,1,3.67,3.92ZM193,126.22a1.45,1.45,0,0,0,.63-.81,3.6,3.6,0,0,0,.19-1.18,7.21,7.21,0,0,0-.4-2.28,3.35,3.35,0,0,0-1.57-1.89l-1.8-1.06v6l1.81,1A1.15,1.15,0,0,0,193,126.22Z" fill="#fff"/></g><g transform="translate(159 92)"><path d="M193.1,104.75V227.71l1.32-.76V103.98Z" fill="#263238"/><path d="M190.99,103.52V226.49l2.11,1.22V104.75Z" fill="#37474f"/><path d="M190.99,103.52l2.11,1.23,1.32-.77-2.11-1.22Z" fill="#455a64"/><path d="M202.93,114.25l-20.85-12a1,1,0,0,0-1-.09l-1.12.64a1,1,0,0,0-.41.91V133.8a3.11,3.11,0,0,0,1.4,2.43l20.85,12a1,1,0,0,0,1,.1l1.14-.66a1,1,0,0,0,.39-.89V116.67a3.09,3.09,0,0,0-1.4-2.42Z" fill="#4da9e4"/><path d="M202.93,114.25l-20.85-12a1,1,0,0,0-1-.09l-1.12.64a1,1,0,0,0-.41.91V133.8a3.11,3.11,0,0,0,1.4,2.43l20.85,12a1,1,0,0,0,1,.1l1.14-.66a1,1,0,0,0,.39-.89V116.67a3.09,3.09,0,0,0-1.4-2.42Z" fill="#fff" opacity="0.7"/><path d="M202.8,148.36l1.14-.66a1,1,0,0,0,.39-.89V116.67a2.76,2.76,0,0,0-.28-1.12l-2.24,1.3v31.41h0A1,1,0,0,0,202.8,148.36Z" fill="#4da9e4"/><path d="M202.8,148.36l1.14-.66a1,1,0,0,0,.39-.89V116.67a2.76,2.76,0,0,0-.28-1.12l-2.24,1.3v31.41h0A1,1,0,0,0,202.8,148.36Z" opacity="0.25"/><path d="M201.81,114.89l-20.85-12c-.77-.45-1.4-.09-1.4.81v30.1a3.11,3.11,0,0,0,1.4,2.43l20.85,12c.77.45,1.4.09,1.4-.81v-30.1a3.11,3.11,0,0,0-1.4-2.43Z" fill="#4da9e4"/><path d="M181.56,105.51l19.25,11.11a1.27,1.27,0,0,1,.4.7V145.6L182,134.5a1.27,1.27,0,0,1-.4-.7V105.51m-.5-.86V133.8a1.65,1.65,0,0,0,.65,1.13l20,11.54V117.32a1.65,1.65,0,0,0-.65-1.13Z" fill="#fff"/><path d="M195.09,119.93a12.22,12.22,0,0,1,1.3,5.66,9.441,9.441,0,0,1-.45,3.08,2.65,2.65,0,0,1-1.46,1.71,3,3,0,0,1-2.61-.51l-1.82-1.05v6.3l-2.55-1.47v-19.9l3.92,2.26a9.28,9.28,0,0,1,3.67,3.92ZM193,126.22a1.45,1.45,0,0,0,.63-.81,3.6,3.6,0,0,0,.19-1.18,7.21,7.21,0,0,0-.4-2.28,3.35,3.35,0,0,0-1.57-1.89l-1.8-1.06v6l1.81,1A1.15,1.15,0,0,0,193,126.22Z" fill="#fff"/></g><path d="M77.41,222.52l-3.61-2.09a.82.82,0,0,0-.84-.08l-.85.5a.82.82,0,0,0-.35.77v8.66a2.63,2.63,0,0,0,1.18,2.05l3.61,2.09a.83.83,0,0,0,.83.09l.86-.51a.83.83,0,0,0,.35-.77v-8.66a2.63,2.63,0,0,0-1.18-2.05Z" fill="#37474f"/><path d="M78.59,224.57v8.66a.83.83,0,0,1-.35.77l-.83.49a.85.85,0,0,0,.32-.75v-8.66a2.33,2.33,0,0,0-.35-1.16l.86-.51A2.33,2.33,0,0,1,78.59,224.57Z" fill="#263238"/><path d="M72.94,232.33l3.61,2.09c.65.38,1.18.07,1.18-.68v-8.66A2.63,2.63,0,0,0,76.55,223l-3.61-2.09c-.65-.38-1.18-.08-1.18.68v8.66a2.63,2.63,0,0,0,1.18,2.08Z" fill="#455a64"/><path d="M79.67,240.7a.28.28,0,0,1-.15,0L75,238a.92.92,0,0,1-.45-.78v-9.48a.3.3,0,0,1,.3-.3.29.29,0,0,1,.3.3v9.48a.3.3,0,0,0,.15.26l4.57,2.64a.29.29,0,0,1,.11.4A.3.3,0,0,1,79.67,240.7Z" fill="#263238"/><path d="M38.73,272.52a1.76,1.76,0,0,0,.57-1.12c.08-.6.19-1.2.32-1.79a1.21,1.21,0,0,0-.06-.88l-.18-.1c-.17-.1-.19-.5,0-.94l1.13-3.27c.17-.48.48-.84.7-.8s.57-.3.8-.77.56-1.12.87-1.66a1.52,1.52,0,0,0,.23-1.2,1.28,1.28,0,0,1,.3-1.11l2-2.64c.25-.33.53-.48.68-.39l.34.2a1,1,0,0,0,.55-.32,15.363,15.363,0,0,1,1.19-1.11,1.74,1.74,0,0,0,.6-1.12,1.27,1.27,0,0,1,.61-1l2.26-1.3a.47.47,0,0,1,.46-.06l1.11.64c.28-.07.56-.12.83-.16a1.1,1.1,0,0,0,.8-.73.77.77,0,0,1,.76-.57l2,.38.13.05,9.72,5.62a.52.52,0,0,1,.21.58l2.41,1.4a.41.41,0,0,1,.16.16l1.13,2a1,1,0,0,1-.09,1.05,1.51,1.51,0,0,0-.18,1.18,11.648,11.648,0,0,1,.32,1.41l.81.46a.66.66,0,0,1,.21.57v3a1.36,1.36,0,0,1-.45,1.07,1.71,1.71,0,0,0-.55,1.11c-.09.6-.19,1.2-.32,1.81a1.18,1.18,0,0,0,.06.87l.17.1c.16.1.18.49,0,.93l-1.13,3.27c-.17.49-.47.85-.68.81s-.55.31-.78.77-.57,1.15-.89,1.71a1.51,1.51,0,0,0-.24,1.17,1.21,1.21,0,0,1-.31,1.09l-2,2.64c-.25.33-.53.49-.68.4l-.29-.17a1,1,0,0,0-.56.34c-.4.4-.81.79-1.23,1.15a1.66,1.66,0,0,0-.6,1.06,1.22,1.22,0,0,1-.61.92L59,290.56a.46.46,0,0,1-.47.06,9.849,9.849,0,0,1-1-.58,6.653,6.653,0,0,1-.95.19,1.1,1.1,0,0,0-.79.68.72.72,0,0,1-.74.52l-2-.38A.239.239,0,0,1,53,291l-9.72-5.61a.53.53,0,0,1-.21-.59l-2.39-1.38a.49.49,0,0,1-.17-.18l-1.13-2a1,1,0,0,1,.07-1,1.43,1.43,0,0,0,.18-1.16c-.13-.46-.23-.93-.32-1.43h0l-.79-.45a.66.66,0,0,1-.21-.57v-3A1.36,1.36,0,0,1,38.73,272.52Z" fill="#37474f"/><path d="M48,282.23v-3a1.33,1.33,0,0,1,.45-1.07A1.75,1.75,0,0,0,49,277c.09-.59.2-1.19.33-1.79s0-.91-.19-1-.26-.47-.09-1L50.2,270c.17-.48.49-.84.71-.8s.57-.31.79-.77.57-1.12.88-1.67a1.5,1.5,0,0,0,.23-1.19,1.224,1.224,0,0,1,.3-1.11l2-2.64c.29-.4.63-.53.76-.31s.48.12.8-.2.79-.77,1.19-1.12a1.7,1.7,0,0,0,.6-1.11,1.27,1.27,0,0,1,.61-1l2.27-1.3c.33-.2.6-.08.6.26a.43.43,0,0,0,.6.42,9.479,9.479,0,0,1,1.19-.26,1.13,1.13,0,0,0,.81-.73.77.77,0,0,1,.76-.57l2,.38c.29.06.42.4.3.77a.78.78,0,0,0,.23.92,5.538,5.538,0,0,1,.87.66.54.54,0,0,0,.8-.15c.22-.29.53-.3.7,0l1.13,2a1,1,0,0,1-.09,1.05,1.51,1.51,0,0,0-.18,1.18,11.65,11.65,0,0,1,.32,1.41c.07.4.32.62.57.48s.45.1.45.55v3a1.36,1.36,0,0,1-.45,1.07,1.71,1.71,0,0,0-.55,1.11c-.09.6-.19,1.2-.32,1.81s0,.91.18.95.24.47.07.95l-1.13,3.27c-.17.49-.47.85-.68.81s-.55.31-.78.77-.57,1.15-.89,1.71a1.51,1.51,0,0,0-.24,1.17,1.21,1.21,0,0,1-.31,1.09l-2,2.64c-.29.39-.63.54-.74.34s-.47-.1-.79.23-.81.79-1.23,1.15a1.66,1.66,0,0,0-.6,1.06,1.22,1.22,0,0,1-.61.92L59,290.56c-.34.19-.61.1-.61-.22s-.27-.47-.6-.37a8.085,8.085,0,0,1-1.22.26,1.1,1.1,0,0,0-.79.68.72.72,0,0,1-.74.52l-2-.38c-.3-.05-.43-.38-.31-.72a.77.77,0,0,0-.25-.89,6.361,6.361,0,0,1-.89-.68.51.51,0,0,0-.77.12.39.39,0,0,1-.69,0l-1.13-2a1,1,0,0,1,.08-1,1.51,1.51,0,0,0,.18-1.16,12.171,12.171,0,0,1-.32-1.44c-.07-.4-.31-.62-.56-.48S48,282.68,48,282.23Z" fill="#263238"/><path d="M53.14,251.81l8.58,5h0a.37.37,0,0,1,.14.33.42.42,0,0,0,.6.41l.38-.1a7.736,7.736,0,0,1,.81-.16.91.91,0,0,0,.49-.26l-9.71-5.62a.93.93,0,0,1-.5.26A6.626,6.626,0,0,0,53.14,251.81Z" fill="#263238"/><path d="M48.46,254.19l9.72,5.62a1.37,1.37,0,0,0,.24-.69,1,1,0,0,1,.18-.53L48.87,253a1.06,1.06,0,0,0-.17.54A1.43,1.43,0,0,1,48.46,254.19Z"/><path d="M46.37,256l9.33,5.41h0a.3.3,0,0,1,.08.08.22.22,0,0,0,.26.11,1,1,0,0,0,.54-.31c.39-.4.79-.77,1.19-1.12a1.63,1.63,0,0,0,.36-.42l-9.72-5.62a2.14,2.14,0,0,1-.36.42,15.637,15.637,0,0,0-1.19,1.12,1,1,0,0,1-.49.33Z" fill="#263238"/><path d="M40.92,263.72l9.73,5.61a.35.35,0,0,1,.25-.09c.23,0,.57-.31.8-.77s.57-1.12.87-1.67a1.47,1.47,0,0,0,.24-1.19.45.45,0,0,1,0-.29L43,259.7a.44.44,0,0,0,.05.29,1.58,1.58,0,0,1-.24,1.2c-.31.54-.6,1.09-.87,1.66s-.58.82-.8.77a.37.37,0,0,0-.22.1Z" fill="#263238"/><path d="M50.65,269.33l-9.73-5.61a.37.37,0,0,1,.26-.1.25.25,0,0,0,.12,0l9.7,5.6a.21.21,0,0,1-.13,0,.35.35,0,0,0-.22.11Z"/><path d="M43.09,260a.44.44,0,0,1-.05-.29l9.73,5.62a.45.45,0,0,0,0,.29.7.7,0,0,1,0,.42l-9.72-5.63a.75.75,0,0,0,.04-.41Z"/><path d="M38.44,272.88l9.73,5.62a.78.78,0,0,1,.29-.36A1.75,1.75,0,0,0,49,277c.09-.6.2-1.2.33-1.79a1.14,1.14,0,0,0-.08-.9h0l-.1-.06-.09-.06-9.51-5.48a1.23,1.23,0,0,1,.07.87c-.14.6-.24,1.2-.33,1.79a1.73,1.73,0,0,1-.57,1.13,1,1,0,0,0-.28.38Z" fill="#263238"/><path d="M38.73,272.52a1,1,0,0,0,.34-.42l9.73,5.62a1.07,1.07,0,0,1-.34.42.78.78,0,0,0-.29.36l-9.73-5.62a1,1,0,0,1,.29-.36Z"/><path d="M39.26,280.64,49,286.26a1,1,0,0,1,.17-.4,1.34,1.34,0,0,0,.2-.55,1.38,1.38,0,0,0,0-.61,12.448,12.448,0,0,1-.32-1.43h0c-.08-.39-.31-.61-.55-.47a.26.26,0,0,1-.27,0l-8.91-5.15h0c.09.51.2,1,.32,1.43a1.44,1.44,0,0,1-.18,1.17.89.89,0,0,0-.2.39Z" fill="#263238"/><path d="M49.15,285.86a1,1,0,0,0-.17.4l-9.72-5.62a.89.89,0,0,1,.16-.4,1.12,1.12,0,0,0,.2-.5l9.72,5.61a1.35,1.35,0,0,1-.19.51Z"/><path d="M67.75,258a6.221,6.221,0,0,1,.87.66.53.53,0,0,0,.8-.15.41.41,0,0,1,.52-.18h0L67.55,257v.14A.78.78,0,0,0,67.75,258Z" fill="#263238"/><path d="M43.25,285.38h0l.15.09L52.89,291h.06a.56.56,0,0,1-.15-.67.76.76,0,0,0-.25-.88,5.679,5.679,0,0,1-.89-.68.5.5,0,0,0-.77.12.43.43,0,0,1-.45.19l-.09-.05L43,284.8a.52.52,0,0,0,.25.58Z"/><path d="M57.56,290l1,.58a.28.28,0,0,1-.14-.28c0-.32-.27-.47-.6-.38Z" fill="#263238"/><path d="M64.3,285.79l.23.13h0a.18.18,0,0,0-.23-.13Z" fill="#263238"/><path d="M71.31,264.15c.06.4.31.62.55.47a.33.33,0,0,1,.21,0H72l-.11-.07Z" fill="#263238"/><path d="M54.47,251.39,64.18,257a1.19,1.19,0,0,0,.32-.47.92.92,0,0,1,.34-.45l-9.73-5.61a.84.84,0,0,0-.34.45,1.26,1.26,0,0,1-.3.47Z"/><path d="M42.2,277.38c0,4.9,1.63,8.36,4.21,9.84l1.74,1c-2.54-1.51-4.14-4.94-4.14-9.81,0-9,5.44-19.36,12.16-23.24,2.9-1.68,5.56-1.86,7.65-.81l-1.49-.86c-2.14-1.24-4.92-1.13-8,.63C47.64,258,42.2,268.42,42.2,277.38Z" fill="#37474f"/><path d="M44,278.42c0,4.86,1.6,8.29,4.14,9.8l1.17.67c-2.53-1.5-4.14-4.94-4.14-9.79,0-9,5.45-19.37,12.17-23.25,3-1.73,5.75-1.87,7.87-.68l-1.4-.81c-2.09-1.05-4.75-.87-7.65.81C49.45,259.05,44,269.46,44,278.42Z"/><path d="M55.11,250.48l9.73,5.61a.56.56,0,0,1,.42-.12l.81.16,1.15.22h.08l-.13-.07-9-5.21L58,251l-.17-.1h-.06l-.09-.06H57.5l-2-.37a.49.49,0,0,0-.39.01Z" fill="#37474f"/><path d="M48.87,253l9.73,5.62a1.29,1.29,0,0,1,.43-.44l2.27-1.3a.49.49,0,0,1,.42-.08l-8.58-5-.72-.41-.26-.15-.14-.08a.47.47,0,0,0-.45.05l-2.26,1.32A1.21,1.21,0,0,0,48.87,253Z" fill="#37474f"/><path d="M43,259.7l9.73,5.62a1.74,1.74,0,0,1,.34-.82l2-2.64c.22-.3.47-.45.63-.41L46.37,256l-.34-.19c-.17-.09-.44.06-.69.39l-2,2.64a1.72,1.72,0,0,0-.34.86Z" fill="#37474f"/><path d="M39.36,268.61h.06l.14.08,9.51,5.48a1,1,0,0,1,0-.9L50.2,270a1.7,1.7,0,0,1,.45-.71l-9.73-5.61a1.7,1.7,0,0,0-.44.71l-1.14,3.26C39.2,268.11,39.21,268.5,39.36,268.61Z" fill="#37474f"/><path d="M38.28,273.59v3a.66.66,0,0,0,.21.57l.79.45,8.91,5.15a.69.69,0,0,1-.18-.55v-3a1.6,1.6,0,0,1,.16-.7h0l-9.73-5.62a1.71,1.71,0,0,0-.16.7Z" fill="#37474f"/><path d="M39.34,281.28l1.14,2a.33.33,0,0,0,.17.18l.53.31.2.11,1.66,1L50.35,289a.59.59,0,0,1-.15-.16l-1.13-2a1.05,1.05,0,0,1-.09-.64l-9.72-5.62a1,1,0,0,0,.08.7Z" fill="#37474f"/><path d="M53.52,277.54c0,4.89,3,7.14,6.64,5s6.65-7.8,6.65-12.69-3-7.15-6.65-5S53.52,272.65,53.52,277.54Zm1.15-.66c0-4.05,2.46-8.75,5.49-10.51s5.5.11,5.5,4.16-2.46,8.75-5.5,10.5-5.49-.11-5.49-4.15Z" fill="#4da9e4"/><path d="M54.66,276.88a6,6,0,0,0,1,3.59c1,1.35,2.65,1.65,4.53.56,3-1.75,5.5-6.45,5.5-10.5,0-2.83-1.2-4.59-3-4.79a4.13,4.13,0,0,0-2.54.63C57.12,268.13,54.66,272.83,54.66,276.88Z" fill="#4da9e4"/><path d="M54.66,276.88a6,6,0,0,0,1,3.59c1,1.35,2.65,1.65,4.53.56,3-1.75,5.5-6.45,5.5-10.5,0-2.83-1.2-4.59-3-4.79a4.13,4.13,0,0,0-2.54.63C57.12,268.13,54.66,272.83,54.66,276.88Z" opacity="0.4"/><path d="M54.66,276.88a6,6,0,0,0,1,3.59,4.16,4.16,0,0,0,2.55-.63c3-1.75,5.49-6.46,5.49-10.51a6,6,0,0,0-1-3.59,4.13,4.13,0,0,0-2.54.63C57.12,268.13,54.66,272.83,54.66,276.88Z" fill="#263238"/><path d="M60.91,271.17l.78,2.77,2-6.58A2.62,2.62,0,0,0,63.3,266Z" fill="#4da9e4"/><path d="M60.91,271.17l.78,2.77,2-6.58A2.62,2.62,0,0,0,63.3,266Z" opacity="0.2"/><path d="M61.89,273l-2,3.17,1.39,1.66a4.17,4.17,0,0,0,1.06-1.55Z" fill="#4da9e4"/><path d="M61.89,273l-2,3.17,1.39,1.66a4.17,4.17,0,0,0,1.06-1.55Z" opacity="0.2"/><path d="M55,279.21a4.21,4.21,0,0,0,.53,1.13l4.94-4.54-1.72-.68-.13.58-.5-.21h0Z" fill="#4da9e4"/><path d="M55,279.21a4.21,4.21,0,0,0,.53,1.13l4.94-4.54-1.72-.68-.13.58-.5-.21h0Z" opacity="0.2"/><path d="M54.87,274.76l3.26.73h0l.31-.49.32.12.53-2.5-.39.22v-.65H55.61a14.42,14.42,0,0,0-.74,2.57Z" fill="#4da9e4"/><path d="M54.87,274.76l3.26.73h0l.31-.49.32.12.53-2.5-.39.22v-.65H55.61a14.42,14.42,0,0,0-.74,2.57Z" opacity="0.2"/><path d="M58.92,272.19l.5-.16-.13.59,2.14-1.24-1.88-4.61A8.86,8.86,0,0,0,58,268.26Z" fill="#4da9e4"/><path d="M58.92,272.19l.5-.16-.13.59,2.14-1.24-1.88-4.61A8.86,8.86,0,0,0,58,268.26Z" opacity="0.2"/><ellipse cx="3.19" cy="1.81" rx="3.19" ry="1.81" transform="translate(57.117 275.515) rotate(-67.027)" fill="#4da9e4"/><path d="M52.88,268.48v11.24l38.9,22.46V290.95Z"/><path d="M38.28,259.84v3L48,268.47l4.25-7.38a5.28,5.28,0,0,1,1.63-1.63L63.34,254l4.56-2.63a1.08,1.08,0,0,1,1.55.48l7.23,15.53a1.62,1.62,0,0,0,.1.18v.06a1.119,1.119,0,0,0,.28.25h0a1,1,0,0,0,.21.08,1.1,1.1,0,0,0,.31,0h.27a1.07,1.07,0,0,0,.27-.12L112.62,248a3.44,3.44,0,0,0,1.39-1.75l7.56-24.93a3.49,3.49,0,0,1,1.38-1.74l10.17-5.88,3.88-2.2a1.2,1.2,0,0,1,1.63.44l4.27,7.39v-4.42a5.26,5.26,0,0,0-.6-2.23l-2.45-4.25a1.22,1.22,0,0,0-.2-.25l-.12-.11-.12-.07h0l-9.69-5.6a1.22,1.22,0,0,0-1.2,0l-16.16,9.33a3.49,3.49,0,0,0-1.39,1.75l-7.54,24.92a3.47,3.47,0,0,1-1.38,1.75L74,256.27l-3.6-7.77a1.1,1.1,0,0,0-.4-.5h0l-9.72-5.62a1.07,1.07,0,0,0-1.09,0l-17.39,10a4.32,4.32,0,0,0-1.51,1.69l-1.48,3.42a7,7,0,0,0-.53,2.35Z" fill="#4da9e4"/><path d="M38.28,259.84v3L48,268.47l4.25-7.38a5.28,5.28,0,0,1,1.63-1.63L63.34,254l4.56-2.63a1.08,1.08,0,0,1,1.55.48l7.23,15.53a1.62,1.62,0,0,0,.1.18v.06a1.32,1.32,0,0,0,.28.25h0a1,1,0,0,0,.21.08,1.1,1.1,0,0,0,.31,0,.861.861,0,0,0,.27,0,1.07,1.07,0,0,0,.27-.12L112.62,248a3.44,3.44,0,0,0,1.39-1.75l7.56-24.93a3.49,3.49,0,0,1,1.38-1.74l10.17-5.88,3.88-2.2a1.2,1.2,0,0,1,1.63.44l4.27,7.39v-4.42a5.26,5.26,0,0,0-.6-2.23l-2.45-4.25a1.22,1.22,0,0,0-.2-.25l-.12-.11-.12-.07h0l-9.69-5.6a1.22,1.22,0,0,0-1.2,0l-16.16,9.33a3.49,3.49,0,0,0-1.39,1.75l-7.54,24.92a3.47,3.47,0,0,1-1.38,1.75L74,256.27l-3.6-7.77a1.1,1.1,0,0,0-.4-.5h0l-9.72-5.62a1.07,1.07,0,0,0-1.09,0l-17.39,10a4.32,4.32,0,0,0-1.51,1.69l-1.48,3.42a7,7,0,0,0-.53,2.35Z" opacity="0.4"/><path d="M48,268.47l-9.73-5.62v-3a6,6,0,0,1,.13-1.12l11.42,6.59Z" opacity="0.2"/><path d="M38.76,257.54l1.48-3.41a3.85,3.85,0,0,1,.67-1l12.12,7a4.869,4.869,0,0,0-.77.95l-2.43,4.22-11.42-6.59a6.371,6.371,0,0,1,.35-1.17Z" opacity="0.1"/><path d="M102.59,239.61a3.46,3.46,0,0,0,.76-1.23l7.54-24.92a3.28,3.28,0,0,1,.57-1l11.93,6.89-.44.26a3.49,3.49,0,0,0-1.38,1.74L114,246.21Z" opacity="0.1"/><path d="M114,246.26l7.56-24.93a3.49,3.49,0,0,1,1.38-1.74l14-8.09a1.19,1.19,0,0,1,1.63.44l4.27,7.39v-4.42a5.26,5.26,0,0,0-.6-2.23l-2.45-4.25a1.2,1.2,0,0,0-1.64-.44L122,217.33a3.45,3.45,0,0,0-1.39,1.74L113.07,244a3.49,3.49,0,0,1-1.38,1.74L79.17,264.52a1.08,1.08,0,0,1-1.55-.49L70.4,248.5a1.08,1.08,0,0,0-1.55-.49L51.47,258a4.2,4.2,0,0,0-1.51,1.7l-1.48,3.42a6.94,6.94,0,0,0-.47,2.3v3l4.25-7.38a5.42,5.42,0,0,1,1.63-1.64l14-8.08a1.07,1.07,0,0,1,1.54.48l7.24,15.54a1.08,1.08,0,0,0,1.54.48L112.63,248a3.47,3.47,0,0,0,1.37-1.74Z" fill="#4da9e4"/><path d="M48,265.46v3l4.25-7.38a5.28,5.28,0,0,1,1.63-1.63L63.34,254l4.56-2.63a1.08,1.08,0,0,1,1.55.48l7.23,15.53a1.62,1.62,0,0,0,.1.18v.06a1.119,1.119,0,0,0,.28.25h0a1,1,0,0,0,.21.08,1.1,1.1,0,0,0,.31,0h.27a1.07,1.07,0,0,0,.27-.12L112.62,248a3.44,3.44,0,0,0,1.39-1.75l7.56-24.93a3.49,3.49,0,0,1,1.38-1.74l10.17-5.88,3.88-2.2a1.2,1.2,0,0,1,1.63.44l4.27,7.39v-4.42a5.26,5.26,0,0,0-.6-2.23l-2.45-4.25a1.22,1.22,0,0,0-.2-.25l-.12-.11-.13-.08h0a1.22,1.22,0,0,0-1.17,0L122,217.33a3.45,3.45,0,0,0-1.39,1.74L113.07,244a3.45,3.45,0,0,1-1.39,1.74L79.17,264.52a1.08,1.08,0,0,1-1.55-.49L74,256.27l-3.6-7.77a1.1,1.1,0,0,0-.4-.5,1.08,1.08,0,0,0-1.1,0L51.47,258a4.2,4.2,0,0,0-1.51,1.7l-1.48,3.42a7,7,0,0,0-.48,2.34Z" opacity="0.55"/><path d="M128.26,255.85l51.07-29.49-43.77-25.27L84.49,230.58Z" fill="#4da9e4"/><path d="M125.83,254.44l46.2-26.67-38.9-22.47L86.92,231.98Z" opacity="0.5"/><path d="M121.66,261.44v-9.88L80.31,227.74l-1.21,7.73-2.43,1.4,43.77,25.27Z" fill="#263238"/><path d="M80.88,232.66h0a2.7,2.7,0,0,1,2.74.27l33.45,19.32A8.61,8.61,0,0,1,121,259v9.51L92.5,292.35,50.33,251Z" fill="#4da9e4"/><path d="M80.88,232.66h0a2.7,2.7,0,0,1,2.74.27l33.45,19.32A8.61,8.61,0,0,1,121,259v9.51L92.5,292.35,50.33,251Z" fill="#fff" opacity="0.3"/><path d="M87.21,282.69l-1.41-7s9.71-6.57,16.53-11.44,11.34-8.42,9.65-11.13-9.28-8.19-22.9-17.06l28,16.17A8.61,8.61,0,0,1,121,259v7.56Z" fill="#fff" opacity="0.3"/><path d="M90,274.91a4.62,4.62,0,0,1,.64,2.16v9l1.81,6.26L121,268.48V259a7.86,7.86,0,0,0-1.06-3.67Z" fill="#4da9e4"/><path d="M91.86,287v-9.88a6.29,6.29,0,0,0-2.89-5L52.81,251.19a2.91,2.91,0,0,0-1.46-.43c-1.21,0-2,1-2,2.45V264l1.12,5.87,42.71,24.65Z" fill="#4da9e4"/><path d="M91.86,287v-9.88a6.29,6.29,0,0,0-2.89-5L52.81,251.19a2.91,2.91,0,0,0-1.46-.43c-1.21,0-2,1-2,2.45V264l1.12,5.87,42.71,24.65Z" opacity="0.1"/><path d="M49.92,264V253.21c0-1.66,1.16-2.33,2.59-1.5l36.16,20.88a5.71,5.71,0,0,1,2.59,4.49V287l1.21,7.12L51.13,270.28Z" fill="#263238"/><path d="M90.66,287.07v-10a5.17,5.17,0,0,0-2.29-4L52.21,252.23a1.78,1.78,0,0,0-.86-.27c-.75,0-.83.87-.83,1.25V263.9l1.28,6.77,40,23.07Z" fill="#4da9e4"/><path d="M90.66,287.07v-10a5.17,5.17,0,0,0-2.29-4L52.21,252.23a1.78,1.78,0,0,0-.86-.27c-.75,0-.83.87-.83,1.25V263.9l1.28,6.77,40,23.07Z" opacity="0.1"/><path d="M50.52,263.9l40.14,23.17,1.11,6.67L51.8,270.67Z" opacity="0.2"/><path d="M78.32,269.71a.59.59,0,0,0-.26-.45l-.57-.33c-.14-.09-.25,0-.25.14v10.16l1.31,6.86,1.15.67-1.38-6.89Z" fill="#37474f"/><path d="M75.89,268.31a.57.57,0,0,0-.26-.45l-.57-.34a.162.162,0,0,0-.26.15v10.16l1.31,6.86,1.15.66-1.38-6.88Z" fill="#37474f"/><path d="M73.46,266.9a.61.61,0,0,0-.26-.45l-.57-.33a.158.158,0,0,0-.26.14v10.17l1.31,6.85,1.14.67-1.37-6.88Z" fill="#37474f"/><path d="M71,265.5a.54.54,0,0,0-.25-.45l-.57-.34a.162.162,0,0,0-.26.15v10.16l1.3,6.86,1.15.66L71,275.66Z" fill="#37474f"/><path d="M68.59,264.1a.56.56,0,0,0-.25-.45l-.57-.34a.162.162,0,0,0-.26.15v10.16l1.31,6.86,1.15.66-1.37-6.88Z" fill="#37474f"/><path d="M66.16,262.69a.58.58,0,0,0-.26-.45l-.56-.33a.157.157,0,0,0-.26.14v10.17l1.31,6.85,1.15.67-1.37-6.88Z" fill="#37474f"/><path d="M63.73,261.29a.56.56,0,0,0-.26-.45l-.57-.33c-.14-.09-.25,0-.25.14v10.17l1.31,6.85,1.15.67-1.37-6.89Z" fill="#37474f"/><path d="M52.35,255.17v5.51A1.42,1.42,0,0,0,53,261.8l4.77,2.76a.4.4,0,0,0,.64-.38v-5.5a1.45,1.45,0,0,0-.64-1.13L53,254.8C52.64,254.59,52.35,254.76,52.35,255.17Z" fill="#f5f5f5"/><path d="M82.77,272.74v5.51a1.43,1.43,0,0,0,.65,1.12l4.76,2.75a.4.4,0,0,0,.65-.37v-5.51a1.43,1.43,0,0,0-.65-1.12l-4.76-2.75C83.06,272.16,82.77,272.33,82.77,272.74Z" fill="#f5f5f5"/><path d="M176.9,244.61l9.72,5.62-4.26-7.39a1.19,1.19,0,0,0-1.63-.43Z" fill="#4da9e4"/><path d="M176.9,244.61l9.72,5.62-4.26-7.39a1.19,1.19,0,0,0-1.63-.43Z" opacity="0.7"/><path d="M112,282.1l3.62,7.76a1.07,1.07,0,0,0,.46.5l9.72,5.62h0a.85.85,0,0,0,.22.09,1.09,1.09,0,0,1-.68-.6L118.09,280a1.08,1.08,0,0,0-1.55-.49Z" fill="#4da9e4"/><path d="M112,282.1l3.62,7.76a1.07,1.07,0,0,0,.46.5l9.72,5.62h0a.85.85,0,0,0,.22.09,1.09,1.09,0,0,1-.68-.6L118.09,280a1.08,1.08,0,0,0-1.55-.49Z" opacity="0.7"/><path d="M87.38,300.24a1.7,1.7,0,0,0,.56-1.12c.09-.6.2-1.19.32-1.79a1.16,1.16,0,0,0-.06-.88l-.18-.1c-.16-.1-.18-.49,0-.94l1.13-3.26c.17-.49.48-.85.7-.81s.57-.3.8-.76.57-1.13.87-1.67a1.58,1.58,0,0,0,.24-1.2A1.24,1.24,0,0,1,92,286.6l2-2.6c.25-.33.53-.48.69-.39l.34.2a1,1,0,0,0,.54-.32c.39-.39.78-.76,1.19-1.11a1.72,1.72,0,0,0,.6-1.11,1.26,1.26,0,0,1,.61-1l2.26-1.31a.44.44,0,0,1,.46-.05l1.11.64c.28-.07.56-.13.83-.17a1.12,1.12,0,0,0,.81-.72.75.75,0,0,1,.76-.57l2,.37.12.05,9.73,5.62a.54.54,0,0,1,.2.59l2.41,1.39a.44.44,0,0,1,.16.17l1.14,2a1.09,1.09,0,0,1-.09,1.06,1.45,1.45,0,0,0-.19,1.17q.19.68.33,1.41l.8.47a.64.64,0,0,1,.21.56v3a1.33,1.33,0,0,1-.45,1.07,1.74,1.74,0,0,0-.55,1.12c-.08.6-.19,1.2-.32,1.8a1.21,1.21,0,0,0,.06.88l.17.09c.16.1.18.49,0,.94l-1.14,3.27c-.17.48-.47.84-.68.8s-.55.31-.77.78-.58,1.15-.89,1.7a1.54,1.54,0,0,0-.25,1.17,1.2,1.2,0,0,1-.31,1.09l-2,2.64c-.25.34-.53.49-.68.41l-.29-.17a1,1,0,0,0-.56.33c-.4.41-.81.79-1.23,1.15a1.71,1.71,0,0,0-.59,1.06,1.27,1.27,0,0,1-.61.93l-2.27,1.3a.48.48,0,0,1-.46.07l-1-.58c-.33.08-.65.14-1,.19a1.06,1.06,0,0,0-.79.67.73.73,0,0,1-.74.53l-2-.38h-.14c-.19-.12-9.68-5.6-9.72-5.62a.52.52,0,0,1-.2-.58l-2.4-1.39a.43.43,0,0,1-.17-.18L88,309a1,1,0,0,1,.08-1,1.49,1.49,0,0,0,.18-1.16,14.3,14.3,0,0,1-.33-1.43h0l-.78-.45c-.13-.07-.21-.28-.21-.57v-3a1.33,1.33,0,0,1,.44-1.15Z" fill="#37474f"/><path d="M96.65,310v-3a1.33,1.33,0,0,1,.45-1.07,1.7,1.7,0,0,0,.56-1.12c.09-.6.2-1.2.33-1.79s0-.92-.19-1-.25-.47-.09-1l1.14-3.26c.16-.49.48-.85.7-.81s.57-.3.79-.77.57-1.12.88-1.66a1.52,1.52,0,0,0,.23-1.2,1.224,1.224,0,0,1,.3-1.11l2-2.64c.29-.39.63-.53.76-.31s.49.12.8-.2.79-.77,1.2-1.11a1.75,1.75,0,0,0,.59-1.11,1.27,1.27,0,0,1,.61-1l2.27-1.31c.33-.2.61-.08.61.27a.43.43,0,0,0,.6.42,7.519,7.519,0,0,1,1.19-.27,1.1,1.1,0,0,0,.8-.72.76.76,0,0,1,.76-.57l2,.37c.29.06.43.4.3.77a.8.8,0,0,0,.23.93,6.88,6.88,0,0,1,.88.65.53.53,0,0,0,.79-.14c.22-.3.54-.3.7,0l1.14,2a1.09,1.09,0,0,1-.09,1.06,1.45,1.45,0,0,0-.19,1.17q.19.68.33,1.41c.07.4.31.62.56.48s.45.1.45.55v3a1.33,1.33,0,0,1-.45,1.07,1.74,1.74,0,0,0-.55,1.12c-.08.6-.19,1.2-.32,1.8s0,.91.18,1,.24.46.08.95l-1.14,3.27c-.17.48-.47.84-.68.8s-.55.31-.77.78-.58,1.15-.89,1.7a1.54,1.54,0,0,0-.25,1.17,1.2,1.2,0,0,1-.31,1.09l-2,2.64c-.29.39-.62.54-.74.34s-.47-.09-.79.23-.81.79-1.23,1.15a1.71,1.71,0,0,0-.59,1.06,1.27,1.27,0,0,1-.61.93l-2.27,1.3c-.33.2-.61.1-.61-.22s-.27-.47-.6-.37a9.23,9.23,0,0,1-1.22.27,1.06,1.06,0,0,0-.79.67.73.73,0,0,1-.74.53l-2-.38a.52.52,0,0,1-.31-.73.77.77,0,0,0-.25-.89,5.681,5.681,0,0,1-.89-.68.51.51,0,0,0-.77.12c-.21.28-.52.28-.68,0l-1.14-2a1.05,1.05,0,0,1,.08-1,1.5,1.5,0,0,0,.18-1.16,12,12,0,0,1-.32-1.43c-.07-.4-.31-.63-.55-.48S96.65,310.4,96.65,310Z" fill="#455a64"/><path d="M101.79,279.53l8.57,5h0a.35.35,0,0,1,.14.32.43.43,0,0,0,.6.42l.38-.1a6.161,6.161,0,0,1,.81-.17.93.93,0,0,0,.5-.26l-9.72-5.62a.93.93,0,0,1-.5.26C102.34,279.41,102.07,279.47,101.79,279.53Z" fill="#263238"/><path d="M97.1,281.92l9.73,5.61a1.43,1.43,0,0,0,.24-.69,1.06,1.06,0,0,1,.17-.53l-9.73-5.61a1,1,0,0,0-.17.53,1.51,1.51,0,0,1-.24.69Z"/><path d="M95,283.77l9.33,5.4h0a.18.18,0,0,1,.08.07.22.22,0,0,0,.27.11,1,1,0,0,0,.54-.31c.39-.39.78-.76,1.19-1.11a2.159,2.159,0,0,0,.36-.43l-9.73-5.61a2.42,2.42,0,0,1-.36.42,15.368,15.368,0,0,0-1.19,1.11A1,1,0,0,1,95,283.77Z" fill="#263238"/><path d="M89.56,291.44l9.73,5.62a.33.33,0,0,1,.26-.1c.22,0,.57-.3.79-.76s.57-1.13.88-1.67a1.52,1.52,0,0,0,.23-1.2.53.53,0,0,1,0-.29l-9.72-5.61a.42.42,0,0,0,0,.28,1.53,1.53,0,0,1-.24,1.2c-.31.54-.59,1.1-.87,1.66s-.57.82-.8.78a.33.33,0,0,0-.26.09Z" fill="#263238"/><path d="M99.29,297.06l-9.73-5.62a.33.33,0,0,1,.26-.09.25.25,0,0,0,.12,0L99.67,297a.26.26,0,0,1-.12,0,.33.33,0,0,0-.26.06Z"/><path d="M91.73,287.71a.42.42,0,0,1,0-.28l9.72,5.61a.53.53,0,0,0,0,.29.7.7,0,0,1,0,.42l-9.73-5.62A.78.78,0,0,0,91.73,287.71Z"/><path d="M87.08,300.61l9.74,5.61a.76.76,0,0,1,.28-.36,1.68,1.68,0,0,0,.56-1.12c.09-.6.2-1.19.33-1.79a1.11,1.11,0,0,0-.08-.89h0L97.8,302l-.09-.05-9.51-5.49a1.2,1.2,0,0,1,.07.88c-.13.6-.24,1.19-.33,1.79a1.7,1.7,0,0,1-.56,1.12.89.89,0,0,0-.3.36Z" fill="#263238"/><path d="M87.38,300.24a1,1,0,0,0,.33-.41l9.73,5.61a1,1,0,0,1-.34.42.76.76,0,0,0-.28.36l-9.74-5.61A.89.89,0,0,1,87.38,300.24Z"/><path d="M87.9,308.36,97.62,314a1,1,0,0,1,.17-.4A1.29,1.29,0,0,0,98,313a1.38,1.38,0,0,0,0-.61,12.454,12.454,0,0,1-.32-1.43h0c-.07-.4-.31-.61-.55-.48a.22.22,0,0,1-.27,0l-8.91-5.14h0c.09.5.2,1,.32,1.43a1.42,1.42,0,0,1-.18,1.16A1,1,0,0,0,87.9,308.36Z" fill="#263238"/><path d="M97.79,313.58a1,1,0,0,0-.17.4l-9.72-5.62a1,1,0,0,1,.16-.4,1.12,1.12,0,0,0,.2-.5L98,313.07a1.24,1.24,0,0,1-.21.51Z"/><path d="M116.39,285.77a5.46,5.46,0,0,1,.88.66.54.54,0,0,0,.79-.15.42.42,0,0,1,.52-.19h0l-2.35-1.36a.65.65,0,0,0,0,.13.8.8,0,0,0,.16.91Z" fill="#263238"/><path d="M91.9,313.11h0l.14.08,9.46,5.47h.06a.55.55,0,0,1-.15-.66.77.77,0,0,0-.25-.89,5.679,5.679,0,0,1-.89-.68.51.51,0,0,0-.77.12.41.41,0,0,1-.44.2l-.09-.05-7.31-4.22a.51.51,0,0,0,.24.63Z"/><path d="M106.2,317.77l1,.58a.3.3,0,0,1-.13-.29c0-.31-.28-.47-.61-.37Z" fill="#263238"/><path d="M112.94,313.51l.23.13h0a.19.19,0,0,0-.23-.13Z" fill="#263238"/><path d="M120,291.87c.07.4.31.62.56.48a.21.21,0,0,1,.2,0h-.07l-.11-.07Z" fill="#263238"/><path d="M103.11,279.11l9.72,5.62a1.17,1.17,0,0,0,.31-.47.85.85,0,0,1,.34-.44l-9.73-5.62a1,1,0,0,0-.34.45A1.26,1.26,0,0,1,103.11,279.11Z"/><path d="M90.84,305.1c0,4.9,1.63,8.36,4.21,9.84l1.74,1c-2.54-1.51-4.14-4.94-4.14-9.8,0-9,5.44-19.37,12.17-23.25,2.89-1.68,5.56-1.86,7.65-.81l-1.5-.86c-2.13-1.24-4.92-1.12-8,.64C96.29,285.73,90.84,296.15,90.84,305.1Z" fill="#37474f"/><path d="M92.65,306.14c0,4.86,1.6,8.3,4.14,9.81l1.17.67c-2.53-1.51-4.14-4.94-4.14-9.8,0-8.95,5.45-19.37,12.17-23.24,3-1.74,5.75-1.87,7.88-.69l-1.4-.81c-2.09-1-4.76-.86-7.65.81C98.09,286.77,92.65,297.18,92.65,306.14Z"/><path d="M103.75,278.2l9.73,5.62a.5.5,0,0,1,.42-.12l.81.15,1.15.22h.08l-.13-.08-9-5.2-.17-.1-.17-.1h-.06l-.09-.06h-.18l-2-.38a.53.53,0,0,0-.39.05Z" fill="#37474f"/><path d="M97.51,280.7l9.73,5.61a1.39,1.39,0,0,1,.43-.44l2.27-1.3a.46.46,0,0,1,.42-.07l-8.57-5-.73-.41-.26-.15-.13-.08a.5.5,0,0,0-.46.06L98,280.26a1.24,1.24,0,0,0-.49.44Z" fill="#37474f"/><path d="M91.69,287.43l9.72,5.61a1.78,1.78,0,0,1,.34-.82l2-2.64c.22-.29.47-.45.63-.41L95,283.77l-.34-.19c-.16-.1-.44.05-.68.38l-2,2.64a1.6,1.6,0,0,0-.29.83Z" fill="#37474f"/><path d="M88,296.33h.06l.14.08,9.51,5.49a1.07,1.07,0,0,1,0-.91l1.14-3.27a1.56,1.56,0,0,1,.44-.7l-9.73-5.62a1.77,1.77,0,0,0-.44.71L88,295.42C87.84,295.84,87.85,296.22,88,296.33Z" fill="#37474f"/><path d="M86.93,301.31v3c0,.29.08.5.21.57l.78.46,8.91,5.14a.73.73,0,0,1-.17-.55v-3a1.6,1.6,0,0,1,.16-.7h0l-9.74-5.61a1.79,1.79,0,0,0-.15.69Z" fill="#37474f"/><path d="M88,309l1.13,2a.43.43,0,0,0,.17.18l.53.31.2.11,1.67,1,7.3,4.15a.46.46,0,0,1-.15-.16l-1.14-2a1.05,1.05,0,0,1-.09-.64l-9.72-5.62a.92.92,0,0,0,.1.67Z" fill="#37474f"/><path d="M102.16,305.26c0,4.89,3,7.14,6.64,5s6.65-7.81,6.65-12.7-3-7.14-6.65-5S102.16,300.37,102.16,305.26Zm1.15-.66c0-4.05,2.46-8.75,5.49-10.5s5.5.1,5.5,4.15-2.46,8.75-5.5,10.51-5.49-.11-5.49-4.16Z" fill="#4da9e4"/><path d="M103.31,304.6a6,6,0,0,0,1,3.59c1,1.35,2.64,1.65,4.52.57,3-1.76,5.5-6.46,5.5-10.5,0-2.84-1.2-4.6-3-4.8a4.2,4.2,0,0,0-2.54.63C105.77,295.85,103.31,300.55,103.31,304.6Z" fill="#4da9e4"/><path d="M103.31,304.6a6,6,0,0,0,1,3.59c1,1.35,2.64,1.65,4.52.57,3-1.76,5.5-6.46,5.5-10.5,0-2.84-1.2-4.6-3-4.8a4.2,4.2,0,0,0-2.54.63C105.77,295.85,103.31,300.55,103.31,304.6Z" opacity="0.4"/><path d="M103.31,304.6a6,6,0,0,0,1,3.59,4.06,4.06,0,0,0,2.54-.63c3-1.75,5.5-6.46,5.5-10.5a6,6,0,0,0-1-3.6,4.2,4.2,0,0,0-2.54.63C105.77,295.85,103.31,300.55,103.31,304.6Z" fill="#263238"/><path d="M109.55,298.9l.78,2.76,2-6.57a2.61,2.61,0,0,0-.38-1.33Z" fill="#4da9e4"/><path d="M109.55,298.9l.78,2.76,2-6.57a2.61,2.61,0,0,0-.38-1.33Z" opacity="0.2"/><path d="M110.53,300.72l-2,3.18,1.4,1.66a4.39,4.39,0,0,0,1.05-1.56Z" fill="#4da9e4"/><path d="M110.53,300.72l-2,3.18,1.4,1.66a4.39,4.39,0,0,0,1.05-1.56Z" opacity="0.2"/><path d="M103.65,306.93a4.08,4.08,0,0,0,.54,1.13l4.94-4.54-1.73-.67-.12.57-.5-.21h0Z" fill="#4da9e4"/><path d="M103.65,306.93a4.08,4.08,0,0,0,.54,1.13l4.94-4.54-1.73-.67-.12.57-.5-.21h0Z" opacity="0.2"/><path d="M103.52,302.48l3.26.73h0l.3-.49.32.13.53-2.51-.39.23v-.65h-3.29a13.311,13.311,0,0,0-.73,2.56Z" fill="#4da9e4"/><path d="M103.52,302.48l3.26.73h0l.3-.49.32.13.53-2.51-.39.23v-.65h-3.29a13.311,13.311,0,0,0-.73,2.56Z" opacity="0.2"/><path d="M107.56,299.92l.5-.16-.13.58,2.14-1.24-1.88-4.61A9.61,9.61,0,0,0,106.6,296Z" fill="#4da9e4"/><path d="M107.56,299.92l.5-.16-.13.58,2.14-1.24-1.88-4.61A9.61,9.61,0,0,0,106.6,296Z" opacity="0.2"/><path d="M106.73,302.63c0,1.53.93,2.23,2.07,1.57a5,5,0,0,0,2.08-4c0-1.54-.93-2.24-2.08-1.58A5,5,0,0,0,106.73,302.63Z" fill="#4da9e4"/><path d="M153,262.31a1.75,1.75,0,0,0,.56-1.13c.09-.59.2-1.19.33-1.79a1.17,1.17,0,0,0-.07-.87l-.18-.11c-.16-.1-.18-.49,0-.93l1.13-3.27c.17-.48.48-.84.7-.8s.57-.31.8-.77.57-1.12.87-1.67a1.51,1.51,0,0,0,.24-1.19,1.24,1.24,0,0,1,.29-1.11l2-2.64c.25-.33.53-.48.69-.39l.34.19a1,1,0,0,0,.54-.31c.39-.4.78-.77,1.19-1.12a1.72,1.72,0,0,0,.6-1.11,1.27,1.27,0,0,1,.61-1l2.26-1.31a.49.49,0,0,1,.46,0l1.11.64c.28-.07.56-.12.83-.16a1.15,1.15,0,0,0,.81-.73.76.76,0,0,1,.76-.57l2,.38a.26.26,0,0,1,.12,0l9.73,5.61a.54.54,0,0,1,.2.59l2.42,1.39a.5.5,0,0,1,.15.17l1.14,2a1.09,1.09,0,0,1-.09,1.06,1.45,1.45,0,0,0-.19,1.17,14.081,14.081,0,0,1,.33,1.42l.8.46a.66.66,0,0,1,.21.57v3a1.33,1.33,0,0,1-.45,1.07,1.74,1.74,0,0,0-.55,1.12c-.08.6-.19,1.2-.32,1.8a1.21,1.21,0,0,0,.06.88l.17.1c.16.09.18.49,0,.93l-1.14,3.27c-.16.49-.47.85-.68.81s-.55.31-.77.77-.58,1.15-.89,1.71a1.53,1.53,0,0,0-.25,1.17,1.187,1.187,0,0,1-.31,1.08l-2,2.65c-.25.33-.53.49-.68.4l-.29-.17a1,1,0,0,0-.56.34c-.4.4-.81.79-1.23,1.14a1.73,1.73,0,0,0-.59,1.07,1.25,1.25,0,0,1-.61.92l-2.27,1.31a.47.47,0,0,1-.46.06l-1-.58a9.009,9.009,0,0,1-1,.19,1.06,1.06,0,0,0-.79.68.72.72,0,0,1-.74.52l-2-.38a.34.34,0,0,1-.14,0l-9.72-5.61a.54.54,0,0,1-.2-.59l-2.4-1.38a.59.59,0,0,1-.17-.18l-1.13-2a1,1,0,0,1,.08-1,1.53,1.53,0,0,0,.18-1.17,14.3,14.3,0,0,1-.33-1.43h0l-.78-.46c-.13-.07-.21-.27-.21-.56v-3a1.33,1.33,0,0,1,.48-1.15Z" fill="#37474f"/><path d="M162.31,272v-3a1.37,1.37,0,0,1,.45-1.08,1.7,1.7,0,0,0,.56-1.12c.09-.59.2-1.19.33-1.79s0-.92-.19-1-.25-.47-.09-.95l1.14-3.27c.17-.49.48-.84.7-.8s.57-.31.79-.77.57-1.12.88-1.67a1.5,1.5,0,0,0,.23-1.19,1.224,1.224,0,0,1,.3-1.11l2-2.65c.29-.39.63-.53.76-.3s.49.12.81-.21.78-.76,1.19-1.11a1.75,1.75,0,0,0,.59-1.11,1.28,1.28,0,0,1,.61-1l2.27-1.31c.33-.19.61-.07.61.27a.43.43,0,0,0,.6.42,7.481,7.481,0,0,1,1.19-.26,1.14,1.14,0,0,0,.8-.73.76.76,0,0,1,.76-.57l2,.38c.29.05.43.4.3.77a.78.78,0,0,0,.23.92,6.122,6.122,0,0,1,.88.66.53.53,0,0,0,.79-.15c.22-.29.54-.3.7,0l1.14,2a1.09,1.09,0,0,1-.09,1.06,1.45,1.45,0,0,0-.19,1.17,14.091,14.091,0,0,1,.33,1.42c.07.4.31.62.56.47s.45.11.45.56v3a1.33,1.33,0,0,1-.45,1.07,1.74,1.74,0,0,0-.55,1.12c-.08.6-.19,1.2-.32,1.8s0,.92.18,1,.24.47.08.95l-1.14,3.27c-.16.49-.47.85-.68.81s-.55.31-.77.77-.58,1.15-.89,1.71a1.53,1.53,0,0,0-.25,1.17,1.187,1.187,0,0,1-.31,1.08l-2,2.65c-.29.39-.62.54-.74.33s-.47-.09-.79.24-.81.79-1.23,1.14a1.73,1.73,0,0,0-.59,1.07,1.25,1.25,0,0,1-.61.92l-2.27,1.31c-.33.19-.61.09-.61-.22s-.27-.47-.6-.38a6.861,6.861,0,0,1-1.22.27,1.06,1.06,0,0,0-.79.68.72.72,0,0,1-.74.52l-2-.38c-.29,0-.43-.38-.31-.73a.76.76,0,0,0-.25-.88,7.232,7.232,0,0,1-.89-.68.5.5,0,0,0-.77.11.37.37,0,0,1-.68,0l-1.14-2a1.05,1.05,0,0,1,.08-1,1.48,1.48,0,0,0,.18-1.17,12,12,0,0,1-.32-1.43c-.07-.4-.31-.62-.55-.48S162.31,272.46,162.31,272Z" fill="#455a64"/><path d="M167.45,241.6l8.57,5h0a.36.36,0,0,1,.14.32.43.43,0,0,0,.6.42l.38-.1a6.434,6.434,0,0,1,.81-.16,1,1,0,0,0,.5-.26l-9.72-5.63a1,1,0,0,1-.5.27A5.174,5.174,0,0,0,167.45,241.6Z" fill="#263238"/><path d="M162.76,244l9.73,5.62a1.51,1.51,0,0,0,.24-.69,1,1,0,0,1,.17-.53l-9.73-5.62a1,1,0,0,0-.17.53,1.43,1.43,0,0,1-.24.69Z"/><path d="M160.67,245.83l9.33,5.41h.05a.15.15,0,0,1,.08.08.23.23,0,0,0,.27.11,1,1,0,0,0,.54-.31c.39-.4.78-.77,1.19-1.12a1.851,1.851,0,0,0,.36-.42L162.76,244a1.85,1.85,0,0,1-.36.42c-.41.35-.8.72-1.19,1.11A1,1,0,0,1,160.67,245.83Z" fill="#263238"/><path d="M155.22,253.51l9.73,5.61a.29.29,0,0,1,.26-.09c.22,0,.57-.31.79-.77s.57-1.13.88-1.67a1.5,1.5,0,0,0,.23-1.19.53.53,0,0,1,0-.29l-9.72-5.62a.46.46,0,0,0,0,.29,1.51,1.51,0,0,1-.24,1.19c-.31.54-.59,1.1-.87,1.67s-.57.81-.8.77a.31.31,0,0,0-.26.1Z" fill="#263238"/><path d="M165,259.12l-9.73-5.61a.31.31,0,0,1,.26-.1.25.25,0,0,0,.12,0l9.73,5.61a.27.27,0,0,1-.12,0A.29.29,0,0,0,165,259.12Z"/><path d="M157.39,249.78a.46.46,0,0,1,0-.29l9.72,5.62a.53.53,0,0,0,0,.29.65.65,0,0,1,0,.41l-9.73-5.62A.75.75,0,0,0,157.39,249.78Z"/><path d="M152.74,262.67l9.74,5.62a.79.79,0,0,1,.28-.37,1.66,1.66,0,0,0,.56-1.12c.09-.6.2-1.19.33-1.79a1.11,1.11,0,0,0-.08-.89h0l-.11-.05-.09-.06-9.51-5.48a1.17,1.17,0,0,1,.07.87c-.13.6-.24,1.2-.33,1.79a1.75,1.75,0,0,1-.56,1.13.79.79,0,0,0-.3.35Z" fill="#263238"/><path d="M153,262.31a1.06,1.06,0,0,0,.33-.42l9.73,5.62a1,1,0,0,1-.34.41.79.79,0,0,0-.28.37l-9.74-5.62A.79.79,0,0,1,153,262.31Z"/><path d="M153.56,270.42l9.73,5.63a1,1,0,0,1,.16-.4,1.49,1.49,0,0,0,.18-1.17,11.569,11.569,0,0,1-.32-1.43h0c-.07-.39-.31-.61-.55-.47a.26.26,0,0,1-.27,0l-8.91-5.15h0c.09.5.2,1,.32,1.43a1.41,1.41,0,0,1-.18,1.16A1.161,1.161,0,0,0,153.56,270.42Z" fill="#263238"/><path d="M163.45,275.65a1,1,0,0,0-.16.4l-9.73-5.63a1.16,1.16,0,0,1,.16-.4,1.12,1.12,0,0,0,.2-.5l9.73,5.62A1.36,1.36,0,0,1,163.45,275.65Z"/><path d="M182.05,247.83a6.118,6.118,0,0,1,.88.66.53.53,0,0,0,.79-.15.43.43,0,0,1,.52-.19h0l-2.35-1.36a.569.569,0,0,0,0,.14.79.79,0,0,0,.16.9Z" fill="#263238"/><path d="M157.56,275.17h0l.14.08,9.46,5.47h.06a.56.56,0,0,1-.15-.67.75.75,0,0,0-.25-.88,6.362,6.362,0,0,1-.89-.68.5.5,0,0,0-.77.11.41.41,0,0,1-.44.2l-.09-.05-7.31-4.22A.51.51,0,0,0,157.56,275.17Z"/><path d="M171.86,279.83l1,.58a.29.29,0,0,1-.13-.28c0-.32-.28-.47-.61-.38Z" fill="#263238"/><path d="M178.6,275.57l.23.14h0a.19.19,0,0,0-.23-.14Z" fill="#263238"/><path d="M185.61,253.94c.07.4.31.61.56.47a.25.25,0,0,1,.2,0h-.07l-.11-.06Z" fill="#263238"/><path d="M168.77,241.17l9.72,5.63a1.17,1.17,0,0,0,.31-.47.92.92,0,0,1,.34-.45l-9.73-5.62a1,1,0,0,0-.34.45,1.12,1.12,0,0,1-.3.46Z"/><path d="M156.5,267.17c0,4.9,1.63,8.35,4.21,9.84l1.74,1c-2.54-1.51-4.14-4.95-4.14-9.81,0-8.95,5.44-19.37,12.17-23.24,2.89-1.68,5.56-1.86,7.65-.81l-1.5-.86c-2.13-1.24-4.92-1.13-8,.63C162,247.8,156.5,258.21,156.5,267.17Z" fill="#37474f"/><path d="M158.31,268.2c0,4.87,1.6,8.3,4.14,9.81l1.17.67c-2.53-1.5-4.14-4.94-4.14-9.79,0-9,5.45-19.37,12.17-23.25,3-1.74,5.75-1.87,7.88-.68l-1.4-.81c-2.09-1.05-4.76-.87-7.65.81C163.75,248.84,158.31,259.25,158.31,268.2Z"/><path d="M169.41,240.26l9.73,5.62a.57.57,0,0,1,.42-.12l.81.16,1.15.22h.08l-.13-.08-9-5.2-.17-.1-.17-.09h-.06l-.09-.05h-.18l-2-.38a.53.53,0,0,0-.39.02Z" fill="#37474f"/><path d="M163.17,242.76l9.73,5.62a1.29,1.29,0,0,1,.43-.44l2.27-1.31a.49.49,0,0,1,.42-.07l-8.57-5-.73-.41-.26-.15-.13-.08a.49.49,0,0,0-.46,0l-2.26,1.31A1.42,1.42,0,0,0,163.17,242.76Z" fill="#37474f"/><path d="M157.35,249.49l9.72,5.62a1.81,1.81,0,0,1,.34-.83l2-2.64c.22-.29.47-.44.63-.4l-9.33-5.41-.34-.19c-.16-.1-.44.05-.68.38l-2,2.65a1.54,1.54,0,0,0-.34.82Z" fill="#37474f"/><path d="M153.66,258.4h.06l.14.09,9.51,5.48a1,1,0,0,1,0-.9l1.14-3.27a1.55,1.55,0,0,1,.44-.71l-9.73-5.61a1.65,1.65,0,0,0-.44.7l-1.13,3.27C153.5,257.9,153.51,258.28,153.66,258.4Z" fill="#37474f"/><path d="M152.59,263.38v3c0,.29.08.49.21.56l.78.46,8.91,5.15a.75.75,0,0,1-.17-.55v-3a1.67,1.67,0,0,1,.16-.7h0l-9.74-5.62A1.84,1.84,0,0,0,152.59,263.38Z" fill="#37474f"/><path d="M153.65,271.07l1.13,2a.59.59,0,0,0,.17.18l.53.3.2.12,1.67,1,7.31,4.22a.39.39,0,0,1-.15-.16l-1.14-2a1,1,0,0,1-.08-.64l-9.73-5.63A1,1,0,0,0,153.65,271.07Z" fill="#37474f"/><path d="M167.82,267.33c0,4.89,3,7.14,6.65,5s6.64-7.8,6.64-12.7-3-7.14-6.64-5S167.82,262.43,167.82,267.33Zm1.15-.67c0-4,2.46-8.75,5.5-10.5s5.49.11,5.49,4.16-2.46,8.75-5.49,10.5-5.47-.11-5.47-4.16Z" fill="#4da9e4"/><path d="M169,266.67a6.06,6.06,0,0,0,1,3.59c1,1.34,2.64,1.64,4.52.56,3-1.75,5.5-6.45,5.5-10.5,0-2.83-1.2-4.59-3-4.8a4.14,4.14,0,0,0-2.54.64C171.43,257.91,169,262.62,169,266.67Z" fill="#4da9e4"/><path d="M169,266.67a6.06,6.06,0,0,0,1,3.59c1,1.34,2.64,1.64,4.52.56,3-1.75,5.5-6.45,5.5-10.5,0-2.83-1.2-4.59-3-4.8a4.14,4.14,0,0,0-2.54.64C171.43,257.91,169,262.62,169,266.67Z" opacity="0.4"/><path d="M169,266.67a6.06,6.06,0,0,0,1,3.59,4.14,4.14,0,0,0,2.54-.64c3-1.75,5.5-6.45,5.5-10.5a6,6,0,0,0-1-3.6,4.14,4.14,0,0,0-2.54.64C171.43,257.91,169,262.62,169,266.67Z" fill="#263238"/><path d="M175.21,261l.78,2.76,2-6.57a2.61,2.61,0,0,0-.38-1.33Z" fill="#4da9e4"/><path d="M175.21,261l.78,2.76,2-6.57a2.61,2.61,0,0,0-.38-1.33Z" opacity="0.2"/><path d="M176.19,262.79,174.14,266l1.4,1.66a4.35,4.35,0,0,0,1.05-1.55Z" fill="#4da9e4"/><path d="M176.19,262.79,174.14,266l1.4,1.66a4.35,4.35,0,0,0,1.05-1.55Z" opacity="0.2"/><path d="M169.31,269a4.15,4.15,0,0,0,.54,1.14l4.94-4.54-1.73-.68-.12.58-.5-.21h0Z" fill="#4da9e4"/><path d="M169.31,269a4.15,4.15,0,0,0,.54,1.14l4.94-4.54-1.73-.68-.12.58-.5-.21h0Z" opacity="0.2"/><path d="M169.18,264.55l3.26.73h0l.3-.49.32.12.53-2.51-.39.23v-.65h-3.3a14.149,14.149,0,0,0-.72,2.57Z" fill="#4da9e4"/><path d="M169.18,264.55l3.26.73h0l.3-.49.32.12.53-2.51-.39.23v-.65h-3.3a14.149,14.149,0,0,0-.72,2.57Z" opacity="0.2"/><path d="M173.23,262l.49-.16-.13.58,2.14-1.24-1.88-4.61a9.611,9.611,0,0,0-1.59,1.49Z" fill="#4da9e4"/><path d="M173.23,262l.49-.16-.13.58,2.14-1.24-1.88-4.61a9.611,9.611,0,0,0-1.59,1.49Z" opacity="0.2"/><path d="M172.39,264.69c0,1.53.93,2.24,2.08,1.57a5,5,0,0,0,2.07-4c0-1.53-.93-2.24-2.07-1.57a5,5,0,0,0-2.08,4Z" fill="#4da9e4"/><path d="M86.93,287.93v3l9.72,5.62,4.25-7.38a5.31,5.31,0,0,1,1.63-1.64L112,282.1l4.56-2.64a1.08,1.08,0,0,1,1.55.49l7.24,15.53a1,1,0,0,0,.1.17.23.23,0,0,0,0,.07.78.78,0,0,0,.27.24h0a.781.781,0,0,0,.21.09,1.1,1.1,0,0,0,.31,0h.27a1,1,0,0,0,.27-.11l29.54-17.06a3.44,3.44,0,0,0,1.39-1.75l7.56-24.93a3.49,3.49,0,0,1,1.38-1.74l10.17-5.88,3.83-2.2a1.19,1.19,0,0,1,1.63.43l4.26,7.39v-4.42a5.4,5.4,0,0,0-.59-2.23l-2.45-4.25a1.22,1.22,0,0,0-.2-.25l-.12-.1-.12-.08h0l-9.68-5.59a1.2,1.2,0,0,0-1.2,0l-16.16,9.34a3.37,3.37,0,0,0-1.39,1.74l-7.54,24.93a3.49,3.49,0,0,1-1.38,1.74l-23.09,13.33L119,276.59a1.11,1.11,0,0,0-.44-.49h0l-9.73-5.61a1.07,1.07,0,0,0-1.09,0l-17.39,10a4.28,4.28,0,0,0-1.51,1.7l-1.47,3.42a6.7,6.7,0,0,0-.44,2.32Z" fill="#4da9e4"/><path d="M86.93,287.93v3l9.72,5.62,4.25-7.38a5.31,5.31,0,0,1,1.63-1.64L112,282.1l4.56-2.64a1.08,1.08,0,0,1,1.55.49l7.24,15.53a1,1,0,0,0,.1.17.23.23,0,0,0,0,.07.88.88,0,0,0,.27.24h0a.781.781,0,0,0,.21.09,1.1,1.1,0,0,0,.31,0,.88.88,0,0,0,.27,0,1,1,0,0,0,.27-.11l29.54-17.06a3.44,3.44,0,0,0,1.39-1.75l7.56-24.93a3.49,3.49,0,0,1,1.38-1.74l10.17-5.88,3.83-2.2a1.19,1.19,0,0,1,1.63.43l4.26,7.39v-4.42a5.4,5.4,0,0,0-.59-2.23l-2.45-4.25a1.22,1.22,0,0,0-.2-.25l-.12-.1-.12-.08h0l-9.68-5.59a1.2,1.2,0,0,0-1.2,0l-16.16,9.34a3.37,3.37,0,0,0-1.39,1.74l-7.54,24.93a3.49,3.49,0,0,1-1.38,1.74l-23.09,13.33L119,276.59a1.11,1.11,0,0,0-.44-.49h0l-9.73-5.61a1.07,1.07,0,0,0-1.09,0l-17.39,10a4.28,4.28,0,0,0-1.51,1.7l-1.47,3.42a6.7,6.7,0,0,0-.44,2.32Z" opacity="0.4"/><path d="M96.65,296.56,86.93,291v-3a6.12,6.12,0,0,1,.13-1.12l11.41,6.59Z" opacity="0.2"/><path d="M87.4,285.64l1.48-3.42a3.89,3.89,0,0,1,.67-1l12.12,7a4.87,4.87,0,0,0-.77.95l-2.43,4.22L87.06,286.8a6.06,6.06,0,0,1,.34-1.16Z" opacity="0.1"/><path d="M146.37,270.51a3.3,3.3,0,0,0,.76-1.23l7.54-24.92a3.13,3.13,0,0,1,.57-1l11.93,6.88-.44.26a3.56,3.56,0,0,0-1.39,1.74l-7.53,24.89Z" opacity="0.1"/><path d="M157.79,277.17l7.55-24.94a3.56,3.56,0,0,1,1.39-1.74l14-8.08a1.2,1.2,0,0,1,1.64.43l4.27,7.39v-4.42a5.26,5.26,0,0,0-.6-2.23l-2.45-4.25a1.19,1.19,0,0,0-1.64-.43l-16.16,9.33a3.45,3.45,0,0,0-1.39,1.74l-7.54,24.93a3.51,3.51,0,0,1-1.38,1.75l-27.66,16a1.07,1.07,0,0,1-1.54-.48L119,276.59a1.08,1.08,0,0,0-1.54-.49l-17.38,10a4.27,4.27,0,0,0-1.52,1.69l-1.48,3.42a7,7,0,0,0-.47,2.3v3l4.25-7.38a5.21,5.21,0,0,1,1.64-1.63l14-8.09a1.08,1.08,0,0,1,1.55.49l7.23,15.53a1.08,1.08,0,0,0,1.55.49l29.54-17.06a3.49,3.49,0,0,0,1.42-1.69Z" fill="#4da9e4"/><path d="M96.65,293.55v3l4.25-7.38a5.31,5.31,0,0,1,1.63-1.64L112,282.1l4.56-2.64a1.08,1.08,0,0,1,1.55.49l7.24,15.53a1,1,0,0,0,.1.17.23.23,0,0,0,0,.07.78.78,0,0,0,.27.24h0a.781.781,0,0,0,.21.09,1.1,1.1,0,0,0,.31,0h.27a1,1,0,0,0,.27-.11l29.54-17.06a3.44,3.44,0,0,0,1.39-1.75l7.56-24.93a3.49,3.49,0,0,1,1.38-1.74l10.17-5.88,3.83-2.2a1.19,1.19,0,0,1,1.63.43l4.26,7.39v-4.42a5.4,5.4,0,0,0-.59-2.23l-2.45-4.25a1.22,1.22,0,0,0-.2-.25l-.12-.1-.13-.09h0a1.2,1.2,0,0,0-1.16,0l-16.16,9.33a3.45,3.45,0,0,0-1.39,1.74l-7.54,24.93a3.46,3.46,0,0,1-1.39,1.74l-27.65,16a1.08,1.08,0,0,1-1.54-.5l-3.61-7.76L119,276.59a1.11,1.11,0,0,0-.44-.49,1.08,1.08,0,0,0-1.11,0l-17.37,10a4.19,4.19,0,0,0-1.52,1.69l-1.48,3.42a7,7,0,0,0-.43,2.34Z" opacity="0.55"/><path d="M92.34,276.59v2.81l15.44-8.91a1.07,1.07,0,0,1,1.09,0l9.73,5.61h0a1.11,1.11,0,0,1,.44.49l5.67,12.19,25.47-14.69a3.49,3.49,0,0,0,1.38-1.74l7.54-24.93a3.44,3.44,0,0,1,1.39-1.75l16.6-9.59a1.18,1.18,0,0,1,1.19,0l1.05.61V226.36l-51.07,29.49-4.17-5.69v8.09Z" fill="#4da9e4"/><path d="M92.34,276.59v2.81l15.44-8.91a1.07,1.07,0,0,1,1.09,0l9.73,5.61h0a1.11,1.11,0,0,1,.44.49l5.67,12.19,25.47-14.69a3.49,3.49,0,0,0,1.38-1.74l7.54-24.93a3.44,3.44,0,0,1,1.39-1.75l16.6-9.59a1.18,1.18,0,0,1,1.19,0l1.05.61V226.36l-51.07,29.49-4.17-5.69v8.09Z" fill="#fff" opacity="0.15"/><path d="M150.15,245.95v26.67l-1.22-25.97Z" opacity="0.2"/><path d="M138.29,252.87a.61.61,0,0,0-.3.52v1.05c0,.78,1.16.74,2.59-.09l2.11-1.22c1.43-.82,2.59-2.12,2.59-2.9v-.89a.3.3,0,0,0-.45-.26Z" fill="#263238"/><path d="M55.18,276.59a5.74,5.74,0,0,1,2.58-4.47,1.84,1.84,0,0,1,1.81-.18h0l23.21,13.4-3.65,6.31L55.94,278.26h0a1.85,1.85,0,0,1-.76-1.67Z" fill="#4da9e4"/><path d="M55.18,276.59a5.74,5.74,0,0,1,2.58-4.47,1.84,1.84,0,0,1,1.81-.18h0l23.21,13.4-3.65,6.31L55.94,278.26h0a1.85,1.85,0,0,1-.76-1.67Z" fill="#fff" opacity="0.6"/><path d="M81,291.48c-1.42.82-2.58.15-2.58-1.49A5.71,5.71,0,0,1,81,285.52c1.43-.82,2.58-.16,2.58,1.49A5.71,5.71,0,0,1,81,291.48Z" fill="#4da9e4"/><path d="M81,291.48c-1.42.82-2.58.15-2.58-1.49A5.71,5.71,0,0,1,81,285.52c1.43-.82,2.58-.16,2.58,1.49A5.71,5.71,0,0,1,81,291.48Z" fill="#fff" opacity="0.3"/><path d="M43.15,272.6v5.62a2.85,2.85,0,0,0,1.29,2.24l36.32,21a6.67,6.67,0,0,0,2.79.75h8.23v-5.62l-4.86-2.8H83.55a6.67,6.67,0,0,1-2.79-.75L49.31,274.85A2.79,2.79,0,0,1,48,272.7v-1.41l-4.86-2.81v4.12ZM48,276.91Z" fill="#37474f"/><path d="M82.06,293.52a6.132,6.132,0,0,0,1.49.24h3.37l4.86,2.8v5.62H83.55a5.679,5.679,0,0,1-1.49-.24Z" fill="#263238"/><path d="M83.55,293.76a6.67,6.67,0,0,1-2.79-.75L49.31,274.85A2.79,2.79,0,0,1,48,272.7v-1.41l-4.86-2.81v4.12a2.89,2.89,0,0,0,1.29,2.25l36.32,21a6.66,6.66,0,0,0,2.79.74h8.23l-4.86-2.8Z" fill="#455a64"/><path d="M128.05,180.77a4.08,4.08,0,0,1,6.1,3.12l2,19.43h0a.59.59,0,0,1-.35.51,1.89,1.89,0,0,1-1.7,0,.59.59,0,0,1-.34-.46h0l-2-19.24a1.69,1.69,0,0,0-2.53-1.29l-20.45,11.8-1.2-2.07Z" fill="#455a64"/><path d="M108.43,194l20.68-11.94a2.33,2.33,0,0,1,3.49,1.77L134.77,204a1.72,1.72,0,0,1-.69-.18.59.59,0,0,1-.34-.46h0l-2-19.24a1.69,1.69,0,0,0-2.53-1.29l-20.45,11.8Z" fill="#37474f"/><path d="M167.17,216.54l-34-19.66h0a7.89,7.89,0,0,0-3.94,6.31l-.93,10.54,34.05,19.65,4.86-2.8Z" fill="#37474f"/><path d="M167.17,220.57l-36.78-21.06a7.94,7.94,0,0,1,2.74-2.63l34,19.66Z" fill="#455a64"/><path d="M167.17,230.58v-14h0a7.9,7.9,0,0,0-3.94,6.31l-.92,10.53Z" fill="#263238"/><path d="M163.23,222.84l-.92,10.54-8.07,4.66L127.48,222.6l1.71-19.41Z" fill="#37474f"/><path d="M127.48,222.6l-18.67,10.78,26.75,15.45,18.68-10.79Z" fill="#455a64"/><path d="M167.57,203.69a4.09,4.09,0,0,1,6.11,3.12l2,19.43h0a.57.57,0,0,1-.34.51,1.89,1.89,0,0,1-1.7,0,.61.61,0,0,1-.35-.46h0l-2-19.23a1.7,1.7,0,0,0-2.53-1.3L148.3,217.57l-1.2-2.08Z" fill="#455a64"/><path d="M167.57,203.69a4.09,4.09,0,0,1,6.11,3.12l2,19.43h0a.57.57,0,0,1-.34.51,1.89,1.89,0,0,1-1.7,0,.61.61,0,0,1-.35-.46h0l-2-19.23a1.7,1.7,0,0,0-2.53-1.3L148.3,217.57l-1.2-2.08Z" fill="#455a64"/><path d="M167.57,203.69a4.09,4.09,0,0,1,6.11,3.12l2,19.43h0a.57.57,0,0,1-.34.51,1.89,1.89,0,0,1-1.7,0,.61.61,0,0,1-.35-.46h0l-2-19.23a1.7,1.7,0,0,0-2.53-1.3L148.3,217.57l-1.2-2.08Z" fill="#455a64"/><path d="M107.59,193.37v-.79l1.36-.79,42,24.25-2.02,1.2Z" fill="#455a64"/><path d="M148.93,216.46v.78l-41.34-23.87v-.78Z"/><path d="M148.93,216.45,168.64,205a2.33,2.33,0,0,1,3.48,1.77l2.18,20.17a1.68,1.68,0,0,1-.69-.19.61.61,0,0,1-.35-.46h0l-2-19.23a1.7,1.7,0,0,0-2.53-1.3l-19.84,11.48Z" fill="#37474f"/><path d="M148.93,243.91l-1.22-.7V216.53l1.22.71Z" fill="#4da9e4"/><path d="M148.93,243.91l-1.22-.7V216.53l1.22.71Z" fill="#fff" opacity="0.3"/><path d="M148.93,217.24l1.22-.71v26.68l-1.22.7Z" fill="#4da9e4"/><path d="M148.93,217.24l1.22-.71v26.68l-1.22.7Z" fill="#fff" opacity="0.6"/><path d="M108.81,194.07l.06,23.9-1.22-.7-.06-23.9Z" fill="#4da9e4"/><path d="M108.81,194.07l.06,23.9-1.22-.7-.06-23.9Z" fill="#fff" opacity="0.3"/><path d="M108.87,217.97l1.21-.7-.06-22.5-1.21-.7Z" fill="#4da9e4"/><path d="M108.87,217.97l1.21-.7-.06-22.5-1.21-.7Z" fill="#fff" opacity="0.6"/><path d="M106,216.17h0a1.17,1.17,0,0,1,1.16.1l11,6.35a3.51,3.51,0,0,1,1.56,2.58l1,21.66,1.65.95h0l2.64-1.53a1,1,0,0,0,.4-1l-1-22.81a3.46,3.46,0,0,0-1.57-2.58l-11-6.35a1.18,1.18,0,0,0-1.18-.08h0Z" fill="#263238"/><path d="M102.58,236.41l18.13,10.45-1-21.66a3.46,3.46,0,0,0-1.57-2.58l-11-6.35a1.09,1.09,0,0,0-1.74.84Z" fill="#37474f"/><path d="M123.93,221.05l-4.66,2.69a3.25,3.25,0,0,0-1.09-1.12l-11-6.35a1.17,1.17,0,0,0-1.16-.1h0l4.64-2.67h0a1.15,1.15,0,0,1,1.18.08l11,6.35A3.17,3.17,0,0,1,123.93,221.05Z" fill="#455a64"/><path d="M105.58,236.54a4.07,4.07,0,0,0,.69,2l10.3,5.93a1.14,1.14,0,0,0,.86-1.16,156.457,156.457,0,0,0,0-16.75,4.21,4.21,0,0,0-1.5-2.76,34.23,34.23,0,0,0-6.4-3.7,1.47,1.47,0,0,0-2.06,1,56.7,56.7,0,0,0-1.89,15.44Z" fill="#4da9e4"/><path d="M117.31,243.83a1.59,1.59,0,0,0,.12-.52,159.139,159.139,0,0,0,0-16.75A3.89,3.89,0,0,0,117,225c-.61-.86-.83,6.44-.82,10.9s.06,8.86.79,8.34a.27.27,0,0,0,.08-.07A2,2,0,0,0,117.31,243.83Z" opacity="0.15"/><g opacity="0.15"><path d="M106.61,236.17l.35.23.92.59c.76.5,1.78,1.14,2.82,1.73s2.11,1.16,2.92,1.56l1,.5a3.785,3.785,0,0,1,.37.19l-.41-.09c-.26-.06-.63-.15-1.07-.29s-.94-.33-1.47-.56c-.25-.12-.53-.23-.8-.38s-.53-.28-.8-.43a17.075,17.075,0,0,1-1.51-1,14.29,14.29,0,0,1-1.23-1c-.34-.31-.6-.59-.79-.78Z"/><path d="M106.61,233.29s.13.07.35.22l.92.6c.76.5,1.78,1.14,2.82,1.73s2.11,1.15,2.92,1.56c.4.2.74.38,1,.49l.37.19-.41-.08c-.26-.07-.63-.15-1.07-.3a15.528,15.528,0,0,1-1.47-.55c-.25-.13-.53-.24-.8-.38l-.8-.43c-.53-.32-1-.64-1.51-1a14.263,14.263,0,0,1-1.23-1c-.34-.3-.6-.58-.79-.77Z"/><path d="M107.2,230.9a3.71,3.71,0,0,1,.33.21c.21.14.51.31.86.54.7.45,1.64,1,2.61,1.55s2,1,2.72,1.37l.91.45.34.18-.38-.07c-.24-.06-.58-.13-1-.25s-.87-.28-1.37-.47c-.24-.1-.5-.2-.75-.32l-.75-.38c-.25-.14-.5-.28-.73-.43s-.47-.31-.69-.46a11.518,11.518,0,0,1-1.12-.91,10.1,10.1,0,0,1-.73-.72Z"/><path d="M107.44,228.21l.32.2.83.52c.68.44,1.59,1,2.53,1.49s1.91.94,2.64,1.29l.88.43.33.18-.37-.07c-.23-.06-.56-.12-1-.23a12,12,0,0,1-1.32-.44,7.492,7.492,0,0,1-.73-.3c-.25-.11-.49-.23-.74-.36s-.48-.26-.71-.41-.45-.29-.66-.43a12.5,12.5,0,0,1-1.09-.89c-.3-.27-.54-.53-.7-.7Z"/><path d="M107.85,225.64l.31.19.78.49c.64.4,1.49.93,2.38,1.37s1.82.84,2.51,1.17,1.14.57,1.14.57a12.3,12.3,0,0,1-1.25-.26,13.46,13.46,0,0,1-2.66-1c-.22-.12-.45-.24-.67-.38a6.814,6.814,0,0,1-.63-.41,10.674,10.674,0,0,1-1-.83,9,9,0,0,1-.91-.91Z"/><path d="M108.81,223.17l1,.58c.56.35,1.31.8,2.08,1.19s1.56.78,2.15,1.08,1,.53,1,.53a8.548,8.548,0,0,1-1.1-.22,11.219,11.219,0,0,1-2.3-.88l-.58-.33c-.2-.12-.37-.25-.55-.37a9,9,0,0,1-.88-.74,6.43,6.43,0,0,1-.82-.84Z"/></g><path d="M129.05,229.47h0a1.17,1.17,0,0,1,1.16.1l11,6.35a3.51,3.51,0,0,1,1.56,2.58l.27,6,4.66-2.7-.27-6a3.46,3.46,0,0,0-1.57-2.58l-11-6.35a1.2,1.2,0,0,0-1.19-.08h0Z" fill="#263238"/><path d="M125.71,249l.2.08,2.72,3.72,14.42-8.32-.27-6a3.48,3.48,0,0,0-1.56-2.58l-11-6.35a1.09,1.09,0,0,0-1.74.84Z" fill="#37474f"/><path d="M147,234.35,142.3,237a3.32,3.32,0,0,0-1.08-1.12l-11-6.35a1.17,1.17,0,0,0-1.16-.1h0l4.64-2.67h0a1.17,1.17,0,0,1,1.19.08l11,6.35a3.25,3.25,0,0,1,1.11,1.16Z" fill="#455a64"/><path d="M128.62,249.85a4,4,0,0,0,1,2.4l9.6-5.54,1.48-.85c0-2.13-.07-4.14-.2-6v-.37a1.2,1.2,0,0,0-.1-.37h0c-.05-.13-.09-.26-.15-.39h0c0-.11-.1-.21-.15-.32v-.06h0a3.75,3.75,0,0,0-1-1.24,34.23,34.23,0,0,0-6.4-3.7,1.48,1.48,0,0,0-2.06,1,56.429,56.429,0,0,0-2.02,15.44Z" fill="#4da9e4"/><path d="M139.23,246.71l1.48-.85c0-2.13-.07-4.14-.2-6v-.37a1.2,1.2,0,0,0-.1-.37h0c-.05-.13-.09-.26-.15-.39h0c0-.11-.1-.21-.15-.32v-.06h0C139.53,237.67,139.29,242.5,139.23,246.71Z" opacity="0.15"/><g opacity="0.15"><path d="M129.64,249.48s.12.13.28.3.45.47.8.78.47.41.75.63l.45-.26c-.37-.22-.7-.44-1-.63s-.71-.45-.92-.6a2.291,2.291,0,0,0-.36-.22Z"/><path d="M129.64,246.59l.28.31c.19.19.45.47.8.77a14,14,0,0,0,1.22,1c.46.34,1,.66,1.51,1l.36.2.57-.33-.65-.37c-1-.59-2-1.23-2.81-1.73-.38-.25-.71-.45-.92-.6Z"/><path d="M130.24,244.2a3.326,3.326,0,0,0,.25.29c.17.18.42.44.73.72a12.874,12.874,0,0,0,1.12.91c.23.15.44.32.69.46s.48.29.72.43a7.6,7.6,0,0,0,.76.37c.25.11.51.23.75.33.5.2,1,.35,1.37.47h0L137,248l-.26-.13c-.75-.36-1.75-.84-2.72-1.37s-1.91-1.09-2.61-1.55c-.35-.23-.65-.4-.85-.54Z"/><path d="M130.48,241.51l.32.2.82.52c.68.44,1.59,1,2.53,1.49s1.91.94,2.64,1.29l.88.43.34.18-.37-.07c-.24-.06-.57-.12-1-.23a12.879,12.879,0,0,1-1.33-.44,7.487,7.487,0,0,1-.73-.3c-.25-.11-.49-.23-.74-.36s-.48-.26-.71-.41-.45-.29-.66-.43a12.5,12.5,0,0,1-1.09-.89c-.3-.27-.53-.53-.7-.7a3.241,3.241,0,0,1-.2-.28Z"/><path d="M130.89,238.94l.3.19.78.49a25.382,25.382,0,0,0,2.38,1.37c.89.45,1.82.84,2.51,1.17s1.15.57,1.15.57a12.115,12.115,0,0,1-1.26-.26,13.17,13.17,0,0,1-2.65-1c-.23-.12-.46-.24-.68-.37s-.43-.28-.63-.42a10.667,10.667,0,0,1-1-.83A8.173,8.173,0,0,1,130.89,238.94Z"/><path d="M131.84,236.47s.4.23.95.58,1.31.8,2.08,1.19,1.56.78,2.15,1.08,1,.53,1,.53a8.213,8.213,0,0,1-1.1-.22,11.5,11.5,0,0,1-2.31-.88l-.58-.33c-.19-.12-.37-.25-.54-.37a8.109,8.109,0,0,1-.89-.74,7.531,7.531,0,0,1-.76-.84Z"/></g><path d="M95.93,232.59v-.09a4.57,4.57,0,0,1,.18-1.34,2.3,2.3,0,0,1,.5-.93,2.169,2.169,0,0,1,.37-.31,1.82,1.82,0,0,1,.88-.21,3.72,3.72,0,0,1,1.87.59,10.26,10.26,0,0,1,3.82,4.43c.15.31.28.62.4.93a9.09,9.09,0,0,1,.48,1.82l2,1.17v-.06a12.59,12.59,0,0,0-5.76-10,5.77,5.77,0,0,0-2.85-.85,3.58,3.58,0,0,0-1.85.49,4.24,4.24,0,0,0-2,3.27Z" fill="#263238"/><path d="M98.42,234l3.22,1.84.38.23a2.207,2.207,0,0,0,0-.25,4.23,4.23,0,0,0-1.75-2.47,1.37,1.37,0,0,0-1.22-.17A1.07,1.07,0,0,0,98.42,234Z" fill="#263238"/><path d="M95.28,230.13l.83,1L98.39,234h0l3.22,1.84h.33l2-.19.88-.07-.08-1-1.2.11-2,.17-1.16.1L99,233.21l-2.39-3-.57-.71Z" fill="#263238"/><path d="M80.31,227.74l41.35,23.82,3.81-23.23L84.14,204.46Zm40.24,21.11-38.14-22,2.84-19.7,38.12,22Z" fill="#37474f"/><path d="M82.41,226.88l38.14,21.97,2.82-19.66L85.25,207.18Z" fill="#4da9e4" opacity="0.3"/><path d="M84.14,204.46l2.43-1.4,41.34,23.87-2.43,1.4Z" fill="#455a64"/><path d="M127.91,226.93l-3.82,23.23v8.09l-2.43,1.41v-8.1l3.82-23.23Z" fill="#263238"/><path d="M131.08,253l-3.61-2.1a.84.84,0,0,0-.84-.08l-.85.51a.82.82,0,0,0-.35.77v8.65a2.6,2.6,0,0,0,1.18,2.05l3.61,2.1a.82.82,0,0,0,.84.08l.85-.51a.83.83,0,0,0,.36-.77v-8.65a2.61,2.61,0,0,0-1.19-2.05Z" fill="#37474f"/><path d="M132.27,255.08v8.66a.82.82,0,0,1-.35.76l-.84.5a.86.86,0,0,0,.32-.76v-8.65a2.46,2.46,0,0,0-.34-1.17l.86-.51A2.47,2.47,0,0,1,132.27,255.08Z" fill="#263238"/><path d="M126.61,262.83l3.61,2.1c.66.38,1.19.07,1.19-.69v-8.65a2.59,2.59,0,0,0-1.19-2.05l-3.61-2.1c-.65-.38-1.18-.07-1.18.69v8.65a2.6,2.6,0,0,0,1.18,2.05Z" fill="#455a64"/><path d="M123.4,264.27a2.7,2.7,0,0,0-1.22,2.11c0,.77.55,1.09,1.22.7a2.69,2.69,0,0,0,1.21-2.11C124.61,264.2,124.07,263.88,123.4,264.27Z" fill="#37474f"/><path d="M127.66,268.35a.84.84,0,0,1-.45-.13l-4-2.29a.3.3,0,1,1,.3-.51l4,2.29a.33.33,0,0,0,.3,0,.3.3,0,0,0,.15-.26v-8.79a.3.3,0,0,1,.3-.3.29.29,0,0,1,.3.3v8.79a.88.88,0,0,1-.45.77.81.81,0,0,1-.45.13Z" fill="#263238"/><path d="M184.6,274.76a3.35,3.35,0,0,0,2.16-3,4.4,4.4,0,0,0-2.22-4.66,4.71,4.71,0,0,0-4.91-.6Z" fill="#455a64"/><path d="M183.66,274.94a2.44,2.44,0,0,1-1-.4l-2.4-1.54a3.84,3.84,0,0,1-1.64-3.31l.2-1.82a1.56,1.56,0,0,1,1.76-1.48,2.33,2.33,0,0,1,1,.4l2.36,1.57a3.81,3.81,0,0,1,1.64,3.3l-.2,1.82a1.55,1.55,0,0,1-1.72,1.46Z" fill="#263238"/><path d="M181.22,267.24l2.36,1.57a3.25,3.25,0,0,1,1.37,2.75l-.2,1.82c-.1.94-.88,1.25-1.74.67l-2.36-1.57a3.24,3.24,0,0,1-1.37-2.74l.2-1.82C179.59,267,180.37,266.67,181.22,267.24Z" fill="#455a64"/><g opacity="0.2"><path d="M181.93,267.71l-2.63,1.9.22-2.11.75-.54a1.41,1.41,0,0,1,1,.28Z" fill="#fff"/><path d="M184,269.13,180.06,272a3.891,3.891,0,0,1-.28-.39h0l3.79-2.73A1.9,1.9,0,0,1,184,269.13Z" fill="#fff"/><path d="M184.94,271.56v.31l-2.48,1.8-1.09-.73,3.45-2.49a2.43,2.43,0,0,1,.12,1.11Z" fill="#fff"/></g><path d="M191.88,342.9l-17.52-10.11,11.68-6.74,17.51,10.11Z" fill="#fafafa"/><path d="M191.88,342.9l-17.52-10.11,11.68-6.74,17.51,10.11Z" opacity="0.3"/><path d="M250.1,309.34l-17.51-10.11,2.84-3.55,17.51,10.12Z" fill="#fafafa"/><path d="M250.1,309.34l-17.51-10.11,2.84-3.55,17.51,10.12Z" opacity="0.3"/><path d="M185.88,343.8l2-4-4.77-2.76h0c-1.51-.87-3.53-.77-5.75.51-4.7,2.72-8.52,9.73-8.52,15.66,0,3.1,1,5.29,2.72,6.29h.07l4.88,2.82,2.11-4.19a20.37,20.37,0,0,0,7.26-14.33Z" fill="#37474f"/><path d="M185.88,343.8l2-4-4.77-2.76h0c-1.51-.87-3.53-.77-5.75.51-4.7,2.72-8.52,9.73-8.52,15.66,0,3.1,1,5.29,2.72,6.29h.07l4.88,2.82,2.11-4.19a20.37,20.37,0,0,0,7.26-14.33Z"/><path d="M190.84,346.25a20.41,20.41,0,0,1-6.63,14.3h0a12.171,12.171,0,0,1-1.87,1.34c-4.71,2.72-8.52.12-8.52-5.81a20.62,20.62,0,0,1,5.27-13h0a13.691,13.691,0,0,1,3.22-2.66C187,337.72,190.84,340.32,190.84,346.25Z" fill="#263238"/><path d="M182.32,344c3-1.73,5.43.07,5.43,4s-2.43,8.56-5.43,10.29-5.42-.08-5.42-4S179.33,345.74,182.32,344Z" fill="#37474f"/><path d="M184.77,350.07c-.2,2-1.47,4.05-2.82,4.66a1.32,1.32,0,0,1-1.48-.13,2.71,2.71,0,0,1-.6-2.34c.21-2,1.47-4.05,2.82-4.65a1.52,1.52,0,0,1,1-.13h0C184.47,347.67,184.92,348.64,184.77,350.07Z" fill="#455a64"/><path d="M190.84,346.25a20.41,20.41,0,0,1-6.63,14.3,24.13,24.13,0,0,0,5.4-10.46c.72-3.42.45-8.33-2.48-9.57s-6.81,1.38-8,2.57a13.69,13.69,0,0,1,3.22-2.66C187,337.72,190.84,340.32,190.84,346.25Z" fill="#455a64"/><path d="M244.1,310.24l2-4-4.77-2.76h0c-1.52-.87-3.53-.77-5.75.51-4.71,2.72-8.52,9.73-8.52,15.66,0,3.1,1,5.29,2.72,6.29h.06l4.89,2.82,2.11-4.19A20.32,20.32,0,0,0,244.1,310.24Z" fill="#37474f"/><path d="M244.1,310.24l2-4-4.77-2.76h0c-1.52-.87-3.53-.77-5.75.51-4.71,2.72-8.52,9.73-8.52,15.66,0,3.1,1,5.29,2.72,6.29h.06l4.89,2.82,2.11-4.19A20.32,20.32,0,0,0,244.1,310.24Z"/><path d="M249.07,312.69a20.44,20.44,0,0,1-6.64,14.3h0a12.171,12.171,0,0,1-1.87,1.34c-4.71,2.72-8.53.12-8.52-5.81a20.57,20.57,0,0,1,5.27-13h0a13.69,13.69,0,0,1,3.22-2.66C245.26,304.16,249.07,306.76,249.07,312.69Z" fill="#263238"/><path d="M240.55,310.45c3-1.73,5.42.07,5.42,4s-2.43,8.55-5.42,10.28-5.43-.07-5.43-4S237.55,312.18,240.55,310.45Z" fill="#37474f"/><path d="M243,316.51c-.21,2-1.47,4.05-2.82,4.66a1.33,1.33,0,0,1-1.48-.13,2.69,2.69,0,0,1-.6-2.34c.2-2,1.47-4.05,2.82-4.65a1.5,1.5,0,0,1,1-.13h0C242.69,314.11,243.15,315.08,243,316.51Z" fill="#455a64"/><path d="M249.07,312.69a20.44,20.44,0,0,1-6.64,14.3,24.14,24.14,0,0,0,5.41-10.46c.72-3.42.45-8.33-2.48-9.57s-6.81,1.38-8,2.57a13.69,13.69,0,0,1,3.22-2.66C245.26,304.16,249.07,306.76,249.07,312.69Z" fill="#455a64"/><path d="M258.06,293.38v5.68c0,3.15-2.79,7.3-6.22,9.28l-1.74,1c-1-4.92-4.89-6.77-9.56-4.08a15.589,15.589,0,0,0-3.71,3.05h0a24.38,24.38,0,0,0-5.82,12L191.87,342.9c-1-4.92-4.88-6.77-9.56-4.09a16.641,16.641,0,0,0-3.7,3.07h0a24.32,24.32,0,0,0-5.82,12l-3.86,2.22c-3.43,2-6.63,2.13-12.44,0S134.84,345.32,128,339.75c-4.45-3.59-6.22-6.61-6.22-10.34v-7.74a5,5,0,0,1,.06-.95,28.128,28.128,0,0,1,.5-4,16.461,16.461,0,0,1,.38-1.75,36.47,36.47,0,0,1,4.41-10.83c4.2-6.62,5.81-8.13,10-10.58L151,299.09l54.5-31.42c7.49-4.33,27.51-3,39.13,4.38S258.06,285.69,258.06,293.38Z" fill="#fff"/><path d="M258.06,293.38v5.68c0,3.15-2.79,7.3-6.22,9.28l-1.74,1c-1-4.92-4.89-6.77-9.56-4.08a15.589,15.589,0,0,0-3.71,3.05h0a24.38,24.38,0,0,0-5.82,12L191.87,342.9c-1-4.92-4.88-6.77-9.56-4.09a16.641,16.641,0,0,0-3.7,3.07h0a24.32,24.32,0,0,0-5.82,12l-3.86,2.22c-3.43,2-6.63,2.13-12.44,0S134.84,345.32,128,339.75c-4.45-3.59-6.22-6.61-6.22-10.34v-7.74a5,5,0,0,1,.06-.95,28.128,28.128,0,0,1,.5-4,16.461,16.461,0,0,1,.38-1.75,36.47,36.47,0,0,1,4.41-10.83c4.2-6.62,5.81-8.13,10-10.58L151,299.09l44.72-25.78c4.56-2.63,36,21.07,37.87,20.53,10.54-3.11,18.43-8.24,19.74-14.62C257.26,283.8,258.06,288.28,258.06,293.38Z" opacity="0.15"/><path d="M174.88,312.22,137,293.7c-4,2.36-5.69,3.94-9.8,10.43A36.471,36.471,0,0,0,122.77,315a16.46,16.46,0,0,0-.38,1.75,28.132,28.132,0,0,0-.5,4,5,5,0,0,1-.06.95,5.564,5.564,0,0,0,0,1v6.74c0,3.73,1.77,6.75,6.22,10.34,6.8,5.57,22.61,14.29,28.42,16.41,3.82,1.4,6.51,1.8,8.88,1.36-.94-2.46-.09-7.63,1.2-17.67C168.18,327.06,170.36,317.28,174.88,312.22Z" opacity="0.15"/><path d="M232.75,294.44c2.23-1.32,3.24-3.24,2.36-5.31l-23.75-4.59v6.75Z" fill="#263238"/><path d="M182.16,269.77h23.36c3.75,0,10.25,2.18,18.38,7.51s16.79,12.35,9.7,16.56Z" fill="#263238"/><path d="M183,270.52h23.3c3.65,0,10.89,3.89,16.73,7.26s14.77,11.7,11.68,13.48c-1.14.66-3.85.33-11.68-.65l-10-1.24Z" fill="#455a64"/><path d="M233.47,286.55A43,43,0,0,0,223,277.78c-5.84-3.37-13.08-7.26-16.73-7.26H183l10.82,6.77L196.6,276c-3.54-2.06,6.4-3.1,12.05-2.33S229.32,281.31,233.47,286.55Z" fill="#fff" opacity="0.2"/><path d="M176.87,315.43a39.791,39.791,0,0,0-.16,6.92c.08,2.3,1.83,3.33,3.9,2.14l52.14-30.05c2.06-1.19,1.82-2.39-.54-2.69l-13.57-1.69a15,15,0,0,0-8,1.62l-30,17.28C178.54,310.15,177.21,312.16,176.87,315.43Z" fill="#263238"/><path d="M178,315.11a28.669,28.669,0,0,0-.24,7c.16,1.33,1.35,1.83,2.73,1l48.4-27.9c1.38-.79,1.21-1.59-.36-1.79l-11.81-1.5a10,10,0,0,0-5.34,1.08l-30.9,17.8C179.09,311.59,178.41,312.47,178,315.11Z" fill="#37474f"/><path d="M199.49,298.35v14.94l.98-.56V297.78Z" fill="#263238"/><path d="M217.19,290.91v12.14l.99-.57V290.34Z" fill="#263238"/><path d="M164.79,313.78a8.26,8.26,0,0,0,7.47,0L211,291.49c3.44-2,3.44-5.21,0-7.19l-22.58-13a13.79,13.79,0,0,0-12.45,0l-38.71,22.3c-2.07,1.19-2.07,3.12,0,4.31Z" fill="#fff"/><path d="M167,310.28c-6.29-2.89-10.68-5.26-15.87-10.06s-2.15-11.14,10.39-20.71L137.2,293.56c-2.07,1.19-2.07,3.12,0,4.31l27.56,15.91a8.26,8.26,0,0,0,7.47,0l12.86-7.42C185,306.4,173.29,313.16,167,310.28Z" opacity="0.15"/><path d="M211,284.3l-22.58-13a13.67,13.67,0,0,0-8.47-1.3,10.74,10.74,0,0,1,5.16,1.08c2.92,1.26,11.37,6.26,20.9,11.52s5.79,7.19,3.17,8.7-32.75,20.13-36.89,22.52L211,291.49C214.41,289.5,214.41,286.28,211,284.3Z" fill="#fff" opacity="0.3"/><path d="M134.13,337.43v-5.11c0-.64.45-.9,1-.58l8.69,5a1.75,1.75,0,0,1,.79,1.36v5.05c0,.63-.45.89-1,.58l-8.69-5a1.71,1.71,0,0,1-.79-1.3Z" fill="#37474f"/><path d="M135.76,326.16v-.67c0-.79.56-1.11,1.25-.72l8,4.62a2.72,2.72,0,0,1,1.24,2.15v.61c0,.79-.56,1.12-1.24.72l-8-4.56a2.72,2.72,0,0,1-1.25-2.15Z" fill="#fafafa"/><path d="M135.76,326.16v-.67c0-.79.56-1.11,1.25-.72l8,4.62a2.72,2.72,0,0,1,1.24,2.15v.61c0,.79-.56,1.12-1.24.72l-8-4.56a2.72,2.72,0,0,1-1.25-2.15Z" fill="#fff" opacity="0.2"/><path d="M159.08,335.54a5.7,5.7,0,0,0-4.44,4c-.7,2.93.37,5.39,2.79,6,1,.27,3.59-.15,5.6-3.05,1.38-2,1.56-5.13.8-6.13S161,335,159.08,335.54Z" fill="#37474f"/><path d="M160,338.84a1.92,1.92,0,1,1-1.92-1.92,1.92,1.92,0,0,1,1.92,1.92Z" fill="#fafafa"/><path d="M158.47,342.74a1.14,1.14,0,1,1-1.14-1.14A1.14,1.14,0,0,1,158.47,342.74Z" fill="#fafafa"/><path d="M124.12,325.39c-.39.58-1.28.56-2.3-.68v-3a5,5,0,0,1,.06-.95,28.132,28.132,0,0,1,.5-4,16.461,16.461,0,0,1,.38-1.75,6,6,0,0,1,1.88,3.63C124.84,320.93,124.65,324.66,124.12,325.39Z" fill="#37474f"/><path d="M122.5,321.65a1,1,0,0,0-.67.26v1.53a1,1,0,0,0,.68.27,1.03,1.03,0,0,0,0-2.06Z" fill="#fafafa"/><path d="M123.87,318.68a2,2,0,0,1-2,2.05,28.13,28.13,0,0,1,.5-4,2.06,2.06,0,0,1,1.5,1.95Z" fill="#fafafa"/><path d="M249.86,275.82c4.45,5.66-8.63,14.82-14.52,18.16s-42.75,24.72-42.75,24.72,45.48-24.07,56.48-28.09c7.27-2.66,9,6.4,9,8.45h0v-5.67C258.07,287,256.82,281.64,249.86,275.82Z" fill="#fafafa"/><path d="M249.86,275.82c4.45,5.66-8.63,14.82-14.52,18.16s-42.75,24.72-42.75,24.72,45.48-24.07,56.48-28.09c7.27-2.66,9,6.4,9,8.45h0v-5.67C258.07,287,256.82,281.64,249.86,275.82Z" fill="#fff" opacity="0.1"/><path d="M177.65,339.46a19.3,19.3,0,0,1,3.8-3.47,12.59,12.59,0,0,1,4.75-2,8.221,8.221,0,0,1,2.62,0,6.349,6.349,0,0,1,2.39,1.06,7.9,7.9,0,0,1,2.79,4.26,8.4,8.4,0,0,0-2.95-4,6.609,6.609,0,0,0-2.29-1,8.06,8.06,0,0,0-2.5,0,12.77,12.77,0,0,0-4.66,1.89A23,23,0,0,0,177.65,339.46Z" fill="#fafafa"/><path d="M235.69,305.94a19.24,19.24,0,0,1,3.79-3.47,12.71,12.71,0,0,1,4.76-2,8.23,8.23,0,0,1,2.62,0,6.35,6.35,0,0,1,2.39,1.06,7.89,7.89,0,0,1,2.78,4.26,8.39,8.39,0,0,0-2.94-4,6.851,6.851,0,0,0-2.3-1,8,8,0,0,0-2.49,0,12.7,12.7,0,0,0-4.66,1.89A22.718,22.718,0,0,0,235.69,305.94Z" fill="#fafafa"/><path d="M195.42,338.43q8.09-5.18,16.38-10c2.76-1.62,5.52-3.24,8.31-4.79s5.56-3.16,8.38-4.67l-.19.3a20.149,20.149,0,0,1,1.46-5.37,14,14,0,0,1,3.05-4.57,15.42,15.42,0,0,0-2.62,4.74,21.311,21.311,0,0,0-1.13,5.26v.19l-.17.11c-2.72,1.68-5.5,3.27-8.25,4.89s-5.53,3.2-8.32,4.77Q204,334.06,195.42,338.43Z" opacity="0.2"/><path d="M254.76,281.06c.9,2.45-1.47,6.06-1.09,9.52s3.12,3.71,4.29,0C258.49,286.66,255.64,281.6,254.76,281.06Z" fill="#4da9e4"/><path d="M254.76,281.06c.9,2.45-1.47,6.06-1.09,9.52s3.12,3.71,4.29,0C258.49,286.66,255.64,281.6,254.76,281.06Z" fill="#fff" opacity="0.7"/><path d="M126,309.44a48.769,48.769,0,0,1,6.86-9.74,3.47,3.47,0,0,1,4.38-.34A184.061,184.061,0,0,0,166,315.93a2.75,2.75,0,0,1,1.29,3.75,59.32,59.32,0,0,0-3.89,11.5,2.4,2.4,0,0,1-3.31,1.76,123.94,123.94,0,0,1-33.22-19.09A3.68,3.68,0,0,1,126,309.44Z" fill="#263238"/><path d="M161,332.13a1.59,1.59,0,0,1-.59-.12,123.451,123.451,0,0,1-33-18.94,2.67,2.67,0,0,1-.61-3.14,47.429,47.429,0,0,1,6.71-9.55,2.22,2.22,0,0,1,1.62-.63,2.48,2.48,0,0,1,1.44.43,187.4,187.4,0,0,0,28.9,16.66,1.65,1.65,0,0,1,.9,1,1.82,1.82,0,0,1-.09,1.44,60.421,60.421,0,0,0-4,11.69,1.42,1.42,0,0,1-1.28,1.16Z" fill="#455a64"/><path d="M166.43,317.81a1.65,1.65,0,0,0-.9-1,188,188,0,0,1-25.05-14l-13.87,8a2.69,2.69,0,0,0,.86,2.25,123.45,123.45,0,0,0,33,18.94,1.59,1.59,0,0,0,.59.12,1.42,1.42,0,0,0,1.36-1.19,60.418,60.418,0,0,1,4-11.69,1.82,1.82,0,0,0,.01-1.43Z" fill="#37474f"/><path d="M121.1,329.41c.41,1.94,6.74,8.12,17.21,13.94s19.25,10.55,24.55,10.29,12-4.72,12-4.72a31.941,31.941,0,0,0-1.36,5.72s-5.52,3.48-10.08,3.83c-3,.22-6.94.81-25.27-9.77-12.16-7-15.87-10.87-17.25-13.95a12.65,12.65,0,0,1-.65-4.89c.07-3.47,1.55-3.81,1.55-3.81C121.15,326.69,120.68,327.48,121.1,329.41Z" fill="#fafafa"/><path d="M121.1,329.41c.41,1.94,6.74,8.12,17.21,13.94s19.25,10.55,24.55,10.29,12-4.72,12-4.72a31.941,31.941,0,0,0-1.36,5.72s-5.52,3.48-10.08,3.83c-3,.22-6.94.81-25.27-9.77-12.16-7-15.87-10.87-17.25-13.95a12.65,12.65,0,0,1-.65-4.89c.07-3.47,1.55-3.81,1.55-3.81C121.15,326.69,120.68,327.48,121.1,329.41Z" opacity="0.3"/><path d="M121.82,326.05c-.67.64-1.14,1.43-.72,3.36s6.74,8.12,17.21,13.94,19.25,10.55,24.55,10.29,12-4.72,12-4.72l-.6-.34s-6.82,4.33-11.44,4.27S152,350.47,139,342.9s-16.52-12.16-17.12-13.77Z" fill="#fafafa"/><path d="M232.31,302.33a3.35,3.35,0,0,0,2.16-3,4.4,4.4,0,0,0-2.22-4.66,4.71,4.71,0,0,0-4.91-.6Z" fill="#455a64"/><path d="M231.37,302.5a2.3,2.3,0,0,1-1-.39L228,300.53a3.81,3.81,0,0,1-1.64-3.3l.2-1.82a1.57,1.57,0,0,1,1.76-1.49,2.45,2.45,0,0,1,1,.4l2.36,1.57a3.84,3.84,0,0,1,1.64,3.31l-.2,1.82a1.55,1.55,0,0,1-1.75,1.48Z" fill="#263238"/><path d="M228.93,294.81l2.36,1.57a3.24,3.24,0,0,1,1.37,2.74l-.2,1.82c-.1.95-.88,1.25-1.74.68l-2.36-1.57A3.25,3.25,0,0,1,227,297.3l.2-1.82C227.3,294.54,228.08,294.24,228.93,294.81Z" fill="#455a64"/><g opacity="0.2"><path d="M229.64,295.28,227,297.17l.22-2.1.75-.54a1.41,1.41,0,0,1,1,.28Z" fill="#fff"/><path d="M231.68,296.7l-3.91,2.82c-.1-.12-.19-.26-.28-.39h0l3.79-2.74A2.37,2.37,0,0,1,231.68,296.7Z" fill="#fff"/><path d="M232.65,299.13v.31l-2.48,1.79-1.09-.72L232.5,298a2.43,2.43,0,0,1,.15,1.13Z" fill="#fff"/></g><g opacity="0.2"><path d="M175.46,319.61c.14,3,.16,6.05.37,9.06a13,13,0,0,0,.88,4.37,1.92,1.92,0,0,0,1.56,1.26,5.5,5.5,0,0,0,2.1-.57,32.686,32.686,0,0,1,4.35-1.35,10.74,10.74,0,0,1,4.55-.16,6.22,6.22,0,0,1,3.77,2.47,13,13,0,0,1,1.81,4.15,13,13,0,0,0-1.95-4,6.06,6.06,0,0,0-3.68-2.34,10.53,10.53,0,0,0-4.43.23,32,32,0,0,0-4.29,1.39c-.36.12-.69.28-1.08.38-.19.05-.38.12-.57.15h-.61a2.22,2.22,0,0,1-1.79-1.46,13.1,13.1,0,0,1-.86-4.48C175.39,325.66,175.46,322.64,175.46,319.61Z"/></g><g opacity="0.2"><path d="M200.65,313.38c.15,3.69.16,7.37.18,11.06v5.53c0,1.84-.07,3.69-.14,5.53-.07-1.84-.11-3.69-.14-5.53v-5.53C200.49,320.75,200.5,317.07,200.65,313.38Z"/></g><g opacity="0.2"><path d="M225.59,299.05c.15,3.67.16,7.35.18,11v5.51c0,1.84-.07,3.67-.14,5.51-.06-1.84-.11-3.67-.13-5.51l-.05-5.51C225.44,306.4,225.45,302.72,225.59,299.05Z"/></g><path d="M183.22,325.34l3.41-1.95c.69-.39,1.25-.33,1.25.13a2.36,2.36,0,0,1-1.25,1.56L183.22,327c-.69.4-1.25.34-1.25-.13A2.34,2.34,0,0,1,183.22,325.34Z" fill="#37474f"/><path d="M203.63,313.52l3.41-1.94c.69-.4,1.25-.34,1.25.13a2.34,2.34,0,0,1-1.25,1.55l-3.41,1.95c-.69.39-1.25.33-1.25-.13a2.36,2.36,0,0,1,1.25-1.56Z" fill="#37474f"/><path d="M353.85,447.42l14.82-8.56a2.18,2.18,0,0,1,2,0l14.82,8.56a.68.68,0,0,1,.41.57v1.08a.69.69,0,0,1-.41.58l-14.82,8.55a2.18,2.18,0,0,1-2,0l-14.82-8.55a.69.69,0,0,1-.41-.58V448A.68.68,0,0,1,353.85,447.42Z" fill="#4da9e4"/><path d="M353.44,448v1.08a.69.69,0,0,0,.41.58l14.82,8.55a2,2,0,0,0,1,.24V438.62a2,2,0,0,0-1,.24l-14.82,8.56a.68.68,0,0,0-.41.58Z" opacity="0.1"/><path d="M369.66,438.62v19.82a2,2,0,0,0,1-.24l14.82-8.55a.69.69,0,0,0,.41-.58V448a.68.68,0,0,0-.41-.57l-14.82-8.56A2,2,0,0,0,369.66,438.62Z" opacity="0.3"/><path d="M370.66,457.12l14.82-8.55a.61.61,0,0,0,0-1.15l-14.82-8.56a2.18,2.18,0,0,0-2,0l-14.82,8.56a.61.61,0,0,0,0,1.15l14.82,8.55a2.18,2.18,0,0,0,2,0Z" fill="#4da9e4"/><path d="M370.66,457.12l14.82-8.55a.61.61,0,0,0,0-1.15l-14.82-8.56a2.18,2.18,0,0,0-2,0l-14.82,8.56a.61.61,0,0,0,0,1.15l14.82,8.55a2.18,2.18,0,0,0,2,0Z" fill="#fff" opacity="0.5"/><path d="M369.66,438.62a2,2,0,0,1,1,.24l14.82,8.56a.61.61,0,0,1,0,1.15l-14.82,8.55a2,2,0,0,1-1,.24Z" opacity="0.05"/><path d="M360.52,446.91h0l6.56-19.7h0a1.57,1.57,0,0,1,.72-.76,4.09,4.09,0,0,1,3.73,0,1.57,1.57,0,0,1,.72.76h0l6.56,19.7h0c.61,1.72-.24,3.57-2.54,4.9a14.64,14.64,0,0,1-13.21,0C360.76,450.48,359.91,448.63,360.52,446.91Z" fill="#4da9e4"/><path d="M360.52,446.91h0l6.56-19.7h0a1.57,1.57,0,0,1,.72-.76,4.09,4.09,0,0,1,3.73,0,1.57,1.57,0,0,1,.72.76h0l6.56,19.7h0c.61,1.72-.24,3.57-2.54,4.9a14.64,14.64,0,0,1-13.21,0C360.76,450.48,359.91,448.63,360.52,446.91Z" opacity="0.1"/><path d="M365.19,432.86h0l.93-2.8a1.34,1.34,0,0,0,.41,1.41,2.542,2.542,0,0,0,.58.45,5.63,5.63,0,0,0,5.09,0,2.779,2.779,0,0,0,.58-.45,1.35,1.35,0,0,0,.41-1.41l.93,2.8h0a1.63,1.63,0,0,1-.21,1.41,2.92,2.92,0,0,1-1,.94,5.169,5.169,0,0,1-1.13.47,7.65,7.65,0,0,1-4.19,0,5.168,5.168,0,0,1-1.13-.47,2.92,2.92,0,0,1-1-.94,1.63,1.63,0,0,1-.27-1.41Z" fill="#fafafa"/><path d="M361.43,444.15h0l.93-2.8a2.51,2.51,0,0,0-.05,1.41,3.18,3.18,0,0,0,.79,1.41,5.55,5.55,0,0,0,1.3,1,11.65,11.65,0,0,0,10.51,0,5.549,5.549,0,0,0,1.3-1,3.18,3.18,0,0,0,.79-1.41,2.6,2.6,0,0,0-.05-1.41l.93,2.8h0a2.83,2.83,0,0,1,.1,1.41,4.48,4.48,0,0,1-2.41,2.93,13.09,13.09,0,0,1-11.85,0,4.48,4.48,0,0,1-2.41-2.93A2.83,2.83,0,0,1,361.43,444.15Z" fill="#fafafa"/><path d="M363.31,438.51h0l.93-2.81a1.92,1.92,0,0,0,.09,1.41,3.27,3.27,0,0,0,1.38,1.42h0a8.56,8.56,0,0,0,7.79,0h.05a3.27,3.27,0,0,0,1.38-1.42,1.92,1.92,0,0,0,.09-1.41l.93,2.81h0a2.27,2.27,0,0,1,0,1.41,3.19,3.19,0,0,1-1,1.41,5.494,5.494,0,0,1-.75.52,8.09,8.09,0,0,1-2.49.89,10.841,10.841,0,0,1-4.17,0,8.09,8.09,0,0,1-2.49-.89,5.484,5.484,0,0,1-.75-.52,3.19,3.19,0,0,1-1-1.41A2.27,2.27,0,0,1,363.31,438.51Z" fill="#fafafa"/><path d="M369.66,426a3.78,3.78,0,0,1,1.87.45,1.57,1.57,0,0,1,.72.76h0l6.56,19.7h0c.61,1.72-.24,3.57-2.54,4.9a13.52,13.52,0,0,1-6.61,1.58h.06a5.55,5.55,0,0,0,4.54-6.27l-2.73-19.61Z" opacity="0.1"/><path d="M371.53,428.58a1.14,1.14,0,0,0,0-2.16,4.09,4.09,0,0,0-3.73,0,1.14,1.14,0,0,0,0,2.16A4.15,4.15,0,0,0,371.53,428.58Z" fill="#4da9e4"/><path d="M394.69,441.44l14.82-8.56a2.2,2.2,0,0,1,2,0l14.81,8.56a.69.69,0,0,1,.41.57v1.08a.69.69,0,0,1-.41.58l-14.81,8.55a2.2,2.2,0,0,1-2,0l-14.82-8.55a.71.71,0,0,1-.41-.58V442a.71.71,0,0,1,.41-.56Z" fill="#4da9e4"/><path d="M394.28,442v1.08a.71.71,0,0,0,.41.58l14.82,8.55a2.05,2.05,0,0,0,1,.24V432.64a2.05,2.05,0,0,0-1,.24l-14.82,8.56A.71.71,0,0,0,394.28,442Z" opacity="0.1"/><path d="M410.51,432.64v19.82a2.05,2.05,0,0,0,1-.24l14.81-8.55a.69.69,0,0,0,.41-.58V442a.69.69,0,0,0-.41-.57l-14.81-8.56A2.05,2.05,0,0,0,410.51,432.64Z" opacity="0.3"/><path d="M411.5,451.15l14.83-8.56a.61.61,0,0,0,0-1.15l-14.83-8.56a2.18,2.18,0,0,0-2,0l-14.82,8.56a.61.61,0,0,0,0,1.15l14.82,8.56a2.25,2.25,0,0,0,2,0Z" fill="#4da9e4"/><path d="M411.5,451.15l14.83-8.56a.61.61,0,0,0,0-1.15l-14.83-8.56a2.18,2.18,0,0,0-2,0l-14.82,8.56a.61.61,0,0,0,0,1.15l14.82,8.56a2.25,2.25,0,0,0,2,0Z" fill="#fff" opacity="0.5"/><path d="M410.51,432.64a2,2,0,0,1,1,.24l14.83,8.56a.61.61,0,0,1,0,1.15l-14.83,8.56a2.1,2.1,0,0,1-1,.23Z" opacity="0.05"/><path d="M401.36,440.93h0l6.55-19.7h0a1.5,1.5,0,0,1,.71-.76,4.11,4.11,0,0,1,3.74,0,1.54,1.54,0,0,1,.71.76h0l6.56,19.7h0c.6,1.72-.24,3.57-2.55,4.9a14.64,14.64,0,0,1-13.21,0C401.6,444.5,400.76,442.65,401.36,440.93Z" fill="#4da9e4"/><path d="M401.36,440.93h0l6.55-19.7h0a1.5,1.5,0,0,1,.71-.76,4.11,4.11,0,0,1,3.74,0,1.54,1.54,0,0,1,.71.76h0l6.56,19.7h0c.6,1.72-.24,3.57-2.55,4.9a14.64,14.64,0,0,1-13.21,0C401.6,444.5,400.76,442.65,401.36,440.93Z" opacity="0.1"/><path d="M406,426.88h0l.93-2.8a1.38,1.38,0,0,0,.41,1.41,3.061,3.061,0,0,0,.58.45,5.63,5.63,0,0,0,5.09,0,2.851,2.851,0,0,0,.59-.45,1.36,1.36,0,0,0,.4-1.41l.94,2.8h0a1.59,1.59,0,0,1-.2,1.41,3,3,0,0,1-1,.94,5.17,5.17,0,0,1-1.13.47,7.61,7.61,0,0,1-4.18,0,5,5,0,0,1-1.13-.47,3,3,0,0,1-1.05-.94,1.63,1.63,0,0,1-.25-1.41Z" fill="#fafafa"/><path d="M402.28,438.17h0l.94-2.8a2.51,2.51,0,0,0-.06,1.41,3.18,3.18,0,0,0,.79,1.41,5.41,5.41,0,0,0,1.31,1,11.63,11.63,0,0,0,10.5,0,5.349,5.349,0,0,0,1.3-1,3,3,0,0,0,.79-1.41,2.42,2.42,0,0,0-.05-1.41l.93,2.8h0a2.83,2.83,0,0,1,.11,1.41,4.54,4.54,0,0,1-2.41,2.93,13.11,13.11,0,0,1-11.86,0,4.48,4.48,0,0,1-2.41-2.93,2.83,2.83,0,0,1,.12-1.41Z" fill="#fafafa"/><path d="M404.15,432.53h0l.93-2.81a1.92,1.92,0,0,0,.09,1.41,3.35,3.35,0,0,0,1.39,1.42h0a8.58,8.58,0,0,0,7.8,0h0a3.27,3.27,0,0,0,1.38-1.42,1.87,1.87,0,0,0,.09-1.41l.94,2.81h0a2.13,2.13,0,0,1,0,1.41,3.19,3.19,0,0,1-1,1.41,4.933,4.933,0,0,1-.75.52,8,8,0,0,1-2.48.89,10.889,10.889,0,0,1-4.18,0,8.18,8.18,0,0,1-2.49-.89,5.49,5.49,0,0,1-.75-.52,3.16,3.16,0,0,1-1-1.41,2.2,2.2,0,0,1,.03-1.41Z" fill="#fafafa"/><path d="M410.51,420a3.829,3.829,0,0,1,1.87.45,1.54,1.54,0,0,1,.71.76h0l6.56,19.7h0c.6,1.72-.24,3.57-2.55,4.9a13.509,13.509,0,0,1-6.6,1.58h.05a5.55,5.55,0,0,0,4.54-6.27l-2.72-19.61Z" opacity="0.1"/><path d="M412.38,422.6a1.14,1.14,0,0,0,0-2.16,4.11,4.11,0,0,0-3.74,0,1.14,1.14,0,0,0,0,2.16A4.17,4.17,0,0,0,412.38,422.6Z" fill="#4da9e4"/><path d="M169.28,448.86l14.82-8.56a2.05,2.05,0,0,1,1-.24,2,2,0,0,1,1,.24l14.82,8.56a.69.69,0,0,1,.41.57v1.08a.69.69,0,0,1-.41.58l-14.82,8.55a2,2,0,0,1-1,.24,2.05,2.05,0,0,1-1-.24l-14.82-8.55a.69.69,0,0,1-.41-.58v-1.08a.69.69,0,0,1,.41-.57Z" fill="#4da9e4"/><path d="M168.87,449.43v1.08a.69.69,0,0,0,.41.58l14.82,8.55a2.05,2.05,0,0,0,1,.24V440.06a2.05,2.05,0,0,0-1,.24l-14.82,8.56a.69.69,0,0,0-.41.57Z" opacity="0.1"/><path d="M185.1,440.06v19.82a2,2,0,0,0,1-.24l14.82-8.55a.69.69,0,0,0,.41-.58v-1.08a.69.69,0,0,0-.41-.57L186.1,440.3A2,2,0,0,0,185.1,440.06Z" opacity="0.3"/><path d="M186.09,458.57,200.92,450a.61.61,0,0,0,0-1.15l-14.83-8.56a2.18,2.18,0,0,0-2,0l-14.82,8.56a.61.61,0,0,0,0,1.15l14.82,8.56A2.25,2.25,0,0,0,186.09,458.57Z" fill="#4da9e4"/><path d="M186.09,458.57,200.92,450a.61.61,0,0,0,0-1.15l-14.83-8.56a2.18,2.18,0,0,0-2,0l-14.82,8.56a.61.61,0,0,0,0,1.15l14.82,8.56A2.25,2.25,0,0,0,186.09,458.57Z" fill="#fff" opacity="0.5"/><path d="M185.1,440.06a2,2,0,0,1,1,.24l14.83,8.56a.61.61,0,0,1,0,1.15l-14.83,8.56a2,2,0,0,1-1,.23Z" opacity="0.05"/><path d="M176,448.36h0l6.56-19.71h0a1.54,1.54,0,0,1,.71-.76,4.17,4.17,0,0,1,3.74,0,1.58,1.58,0,0,1,.71.76h0l6.56,19.71h0c.6,1.71-.25,3.56-2.55,4.89a14.64,14.64,0,0,1-13.21,0C176.19,451.92,175.34,450.07,176,448.36Z" fill="#4da9e4"/><path d="M176,448.36h0l6.56-19.71h0a1.54,1.54,0,0,1,.71-.76,4.17,4.17,0,0,1,3.74,0,1.58,1.58,0,0,1,.71.76h0l6.56,19.71h0c.6,1.71-.25,3.56-2.55,4.89a14.64,14.64,0,0,1-13.21,0C176.19,451.92,175.34,450.07,176,448.36Z" opacity="0.1"/><path d="M180.62,434.3h0l.93-2.8a1.36,1.36,0,0,0,.41,1.41,2.781,2.781,0,0,0,.58.45,5.63,5.63,0,0,0,5.09,0,2.848,2.848,0,0,0,.59-.45,1.36,1.36,0,0,0,.4-1.41l.94,2.81h0a1.59,1.59,0,0,1-.2,1.41,3.17,3.17,0,0,1-1.05,1,5.689,5.689,0,0,1-1.13.46,7.61,7.61,0,0,1-4.18,0,5.241,5.241,0,0,1-1.13-.46,3.07,3.07,0,0,1-1-1A1.63,1.63,0,0,1,180.62,434.3Z" fill="#fafafa"/><path d="M176.86,445.59h0l.93-2.8a2.6,2.6,0,0,0-.05,1.41,3.18,3.18,0,0,0,.79,1.41,5.41,5.41,0,0,0,1.31,1,11.57,11.57,0,0,0,10.5,0,5.35,5.35,0,0,0,1.3-1,3.18,3.18,0,0,0,.79-1.41,2.51,2.51,0,0,0-.05-1.41l.93,2.8h0a2.82,2.82,0,0,1,.1,1.41,4.5,4.5,0,0,1-2.4,2.92,13.11,13.11,0,0,1-11.86,0,4.49,4.49,0,0,1-2.41-2.92,3,3,0,0,1,.12-1.41Z" fill="#fafafa"/><path d="M178.74,440h0l.93-2.8a1.89,1.89,0,0,0,.09,1.4,3.35,3.35,0,0,0,1.39,1.42h0a8.58,8.58,0,0,0,7.8,0h0a3.27,3.27,0,0,0,1.38-1.42,1.87,1.87,0,0,0,.09-1.41l.93,2.81h0a2.13,2.13,0,0,1,0,1.41,3.19,3.19,0,0,1-1,1.41,4.932,4.932,0,0,1-.75.52,8.121,8.121,0,0,1-2.48.89,10.889,10.889,0,0,1-4.18,0,8.18,8.18,0,0,1-2.49-.89,5.49,5.49,0,0,1-.75-.52,3.159,3.159,0,0,1-1-1.41,2.2,2.2,0,0,1,.04-1.41Z" fill="#fafafa"/><path d="M185.1,427.41a3.83,3.83,0,0,1,1.87.45,1.58,1.58,0,0,1,.71.76h0l6.56,19.71h0c.6,1.71-.25,3.56-2.55,4.89a13.509,13.509,0,0,1-6.6,1.58h.05a5.55,5.55,0,0,0,4.54-6.27L187,428.94Z" opacity="0.1"/><path d="M187,430a1.14,1.14,0,0,0,0-2.16,4.17,4.17,0,0,0-3.74,0,1.14,1.14,0,0,0,0,2.16,4.17,4.17,0,0,0,3.74,0Z" fill="#4da9e4"/><path d="M433.21,402.86l21.99-12.7,18.85,10.89-21.99,12.69Z" fill="#455a64"/><path d="M433.21,402.86v3.63l18.85,10.88v-3.63Z" fill="#263238"/><path d="M474.05,401.05l-.01,3.62-21.98,12.7v-3.63Z" fill="#37474f"/><path d="M454.22,327.83a2.36,2.36,0,0,0-2.37.23l-9,5.2a7.41,7.41,0,0,0-3.35,5.8v63.8l12.57,7.25,15.7-9.07V337.25a2.36,2.36,0,0,0-1-2.16Z" fill="#4da9e4"/><path d="M453,343a6.79,6.79,0,0,0-1,3.3v63.79l-12.57-7.25v-63.8a6.731,6.731,0,0,1,1-3.3Z" opacity="0.2"/><path d="M452.06,346.32a7.41,7.41,0,0,1,3.34-5.8l9-5.2c1.85-1.07,3.35-.2,3.35,1.93V401l-15.7,9.07Z" fill="#4da9e4"/><path d="M466.74,335.06a2.36,2.36,0,0,0-2.32.26l-9,5.2A6.78,6.78,0,0,0,453,343l-12.56-7.25a6.86,6.86,0,0,1,2.36-2.5l9-5.19a2.34,2.34,0,0,1,2.37-.24Z" fill="#fff" opacity="0.4"/><path d="M455.2,347.89l9.42-5.44v7.26l-9.42,5.44Z" fill="#455a64"/><path d="M463.71,349.18l.91.53v-7.26l-.91.53Z" fill="#37474f"/><path d="M463.71,349.18v-6.2l-8.51,4.91v6.2Z" fill="#4da9e4"/><path d="M463.71,349.18v-6.2l-8.51,4.91v6.2Z" opacity="0.4"/><path d="M455.2,359.16a.39.39,0,0,1-.34-.19.4.4,0,0,1,.14-.53l9.43-5.44a.38.38,0,0,1,.53.14.39.39,0,0,1-.15.53l-9.42,5.44a.45.45,0,0,1-.19.05Z" fill="#455a64"/><path d="M455.2,362.79a.38.38,0,0,1-.34-.2.39.39,0,0,1,.14-.52l9.43-5.45a.39.39,0,0,1,.38.68l-9.42,5.44a.449.449,0,0,1-.19.05Z" fill="#455a64"/><path d="M455.2,366.41a.37.37,0,0,1-.34-.19.4.4,0,0,1,.14-.53l9.43-5.44a.4.4,0,0,1,.53.14.39.39,0,0,1-.15.53l-9.42,5.44a.34.34,0,0,1-.19.05Z" fill="#455a64"/><path d="M316.66,430.42l117.8-68v-9.81l-117.8,68.01Z" fill="#f5f5f5"/><path d="M313.52,418.8v9.81l3.14,1.81v-9.8Z" fill="#4da9e4"/><path d="M313.52,418.8v9.81l3.14,1.81v-9.8Z" opacity="0.2"/><path d="M434.46,352.61l-3.14-1.81-117.8,68,3.14,1.82Z" fill="#fafafa"/><path d="M327.66,410.64l3.14,1.82,9.42-5.44-3.14-1.82Z" fill="#4da9e4"/><path d="M316.66,420.62l4.71-2.72-3.14-1.82-4.71,2.72Z" fill="#4da9e4"/><path d="M346.5,399.76l3.14,1.81,9.43-5.44-3.14-1.81Z" fill="#4da9e4"/><path d="M365.35,388.88l3.14,1.81,9.43-5.44-3.15-1.81Z" fill="#4da9e4"/><path d="M384.2,378l3.14,1.81,9.42-5.44-3.14-1.81Z" fill="#4da9e4"/><path d="M403.05,367.12l3.14,1.81,9.42-5.44-3.14-1.81Z" fill="#4da9e4"/><path d="M421.89,356.24l3.14,1.81,9.43-5.44-3.14-1.81Z" fill="#4da9e4"/><g opacity="0.4"><path d="M327.66,410.64l3.14,1.82,9.42-5.44-3.14-1.82Z" fill="#fff"/><path d="M316.66,420.62l4.71-2.72-3.14-1.82-4.71,2.72Z" fill="#fff"/><path d="M346.5,399.76l3.14,1.81,9.43-5.44-3.14-1.81Z" fill="#fff"/><path d="M365.35,388.88l3.14,1.81,9.43-5.44-3.15-1.81Z" fill="#fff"/><path d="M384.2,378l3.14,1.81,9.42-5.44-3.14-1.81Z" fill="#fff"/><path d="M403.05,367.12l3.14,1.81,9.42-5.44-3.14-1.81Z" fill="#fff"/><path d="M421.89,356.24l3.14,1.81,9.43-5.44-3.14-1.81Z" fill="#fff"/></g><path d="M396.76,374.37l-8.28,4.78-1.14.66-6.28,13.44,9.42-5.44Z" fill="#4da9e4"/><path d="M359.07,396.13l-9.43,5.44-6.27,13.44,9.42-5.44Z" fill="#4da9e4"/><path d="M333.94,420.45l6.28-13.43-7.68,4.43-1.74,1.01-6.28,13.43Z" fill="#4da9e4"/><path d="M377.92,385.25l-9.17,5.3-.26.14-6.28,13.44,9.43-5.44Z" fill="#4da9e4"/><path d="M409.33,376.93l6.28-13.44-7.01,4.05-2.41,1.39-6.28,13.44Z" fill="#4da9e4"/><path d="M321.37,417.9l-4.71,2.72v5.73Z" fill="#4da9e4"/><path d="M432.9,353.51l-7.87,4.54-6.28,13.44,9.43-5.44,6.28-13.44Z" fill="#4da9e4"/><path d="M434.46,359.87l13.38-7.74v-7.25l-13.38,7.73Z" fill="#37474f"/><path d="M447.84,344.88l-3.14-1.82-13.38,7.74,3.14,1.81Z" fill="#455a64"/></g></svg>