<svg xmlns="http://www.w3.org/2000/svg" width="136.39" height="107.449" viewBox="0 0 136.39 107.449">
  <g id="Group_8175" data-name="Group 8175" transform="translate(642 -1001.331)">
    <path id="Path_23838" data-name="Path 23838" d="M-505.61,1012.788v84.551c-.056.066-.145.124-.163.2-1.923,7.613-6.561,11.234-14.4,11.234h-77.322c-10.336,0-20.673.023-31.009-.009a13.269,13.269,0,0,1-13.256-10.834,3.386,3.386,0,0,0-.242-.59v-84.551c.055-.067.142-.126.161-.2,1.923-7.608,6.57-11.231,14.415-11.231H-558.3a11.664,11.664,0,0,1,1.463.031,2.629,2.629,0,0,1,2.335,2.636,2.627,2.627,0,0,1-2.354,2.619,11.949,11.949,0,0,1-1.463.03q-34.962,0-69.923,0c-5.446,0-9.113,4.2-8.286,9.485h125.5c.549-5.6-2.914-9.477-8.409-9.486-5.328-.01-10.655.006-15.982-.007-1.876,0-3.01-1.007-3.031-2.617s1.116-2.686,2.953-2.69c5.638-.013,11.278-.073,16.914.027a12.131,12.131,0,0,1,10.223,5.32C-507.124,1008.513-506.509,1010.747-505.61,1012.788Zm-131.109,81.1a25.188,25.188,0,0,0,.186,2.951c.752,4.084,3.983,6.618,8.391,6.618q54.334.005,108.668,0c.355,0,.711,0,1.065-.018a8,8,0,0,0,7.292-9.553h-49.9a11.541,11.541,0,0,1-1.463-.032,2.587,2.587,0,0,1-2.32-2.631,2.588,2.588,0,0,1,2.33-2.623,10.635,10.635,0,0,1,1.33-.029q24.3,0,48.608,0H-511v-66.927H-636.583v66.927h52.008a12.048,12.048,0,0,1,1.33.025,2.67,2.67,0,0,1,2.416,2.575,2.67,2.67,0,0,1-2.435,2.692,12.3,12.3,0,0,1-1.331.024h-52.125Z" transform="translate(0 0)" fill="#33313c"/>
    <path id="Path_23839" data-name="Path 23839" d="M-377.9,1006.721a2.626,2.626,0,0,1-2.578-2.665,2.626,2.626,0,0,1,2.6-2.637,2.658,2.658,0,0,1,2.659,2.731A2.66,2.66,0,0,1-377.9,1006.721Z" transform="translate(-168.635 -0.057)" fill="#33313c"/>
    <path id="Path_23840" data-name="Path 23840" d="M-568.322,1095.119c0,4.475.01,8.95,0,13.425a7.911,7.911,0,0,1-8.259,8.306q-13.583.025-27.167,0a7.907,7.907,0,0,1-8.255-8.308q-.018-13.492,0-26.983a7.9,7.9,0,0,1,8.257-8.3q13.584-.023,27.167,0a7.906,7.906,0,0,1,8.257,8.306C-568.312,1086.08-568.322,1090.6-568.322,1095.119Zm-5.328,11.385v-1.28q0-11.7,0-23.4c0-2.369-.911-3.256-3.329-3.257q-13.186,0-26.371,0c-2.42,0-3.327.886-3.328,3.256q-.007,11.7,0,23.4c0,.317.042.634.089,1.3a18.415,18.415,0,0,1,8.913-9.4c-2.69-5.24-2.087-9.715,1.674-12.747a9.228,9.228,0,0,1,11.675,0c3.756,3.012,4.362,7.516,1.708,12.682C-577.185,1100.623-576.72,1101.106-573.65,1106.5Zm-4.335,4.988a12.217,12.217,0,0,0-12.9-10.651c-5.886.292-11.193,5.234-11.389,10.651Zm-12.208-16.033a4,4,0,0,0,3.974-3.832,4.009,4.009,0,0,0-3.923-4.015,4.009,4.009,0,0,0-3.975,3.962A4.009,4.009,0,0,0-590.192,1095.459Z" transform="translate(-19.335 -46.37)" fill="#33313c"/>
    <path id="Path_23841" data-name="Path 23841" d="M-420.81,1150.62c-1.524,0-2.987.013-4.449,0-1.948-.021-2.986-1.014-3-2.925-.022-3.5-.015-7,0-10.5a7.528,7.528,0,0,1,2.583-5.605c-1.478-2.059-1.662-3.156-.737-4.29.939-1.15,2.143-1.241,4.165-.261.475-1.889.935-3.762,1.418-5.628a7.632,7.632,0,0,1,7.579-6.072q8.452-.1,16.907,0a7.616,7.616,0,0,1,7.513,5.987c.491,1.88.944,3.77,1.415,5.661,2.28-.905,3.3-.815,4.216.351s.7,2.336-.81,4.255c2.4,2,2.756,4.721,2.651,7.653-.1,2.7-.015,5.4-.022,8.1-.007,2.349-.94,3.258-3.331,3.267-1.286.005-2.573.009-3.86.02a.812.812,0,0,0-.244.083c-.7,3.118-1.366,3.972-3,3.863-1.6-.107-2.231-1.03-2.627-3.9h-20.7c-.624,3.039-1.276,3.919-2.874,3.9C-419.641,1154.574-420.312,1153.65-420.81,1150.62Zm34.1-5.38c0-2.5,0-4.846,0-7.191,0-2.266-.633-2.891-2.933-2.891q-14.568,0-29.137,0c-4.016,0-4.159.144-4.159,4.191v5.892Zm-5.534-15.457c-.57-2.347-1.109-4.611-1.673-6.869a2.566,2.566,0,0,0-2.941-2.275q-7.977-.025-15.954,0a2.561,2.561,0,0,0-2.925,2.293q-.76,3.019-1.482,6.048a3.541,3.541,0,0,0-.008.8Z" transform="translate(-137.817 -73.479)" fill="#33313c"/>
    <path id="Path_23842" data-name="Path 23842" d="M-377.271,1079.248c2.969,0,5.937-.005,8.906,0,2.014.005,3.277,1.056,3.253,2.686-.023,1.59-1.255,2.624-3.181,2.627q-9.105.011-18.21,0c-1.93,0-3.155-1.028-3.181-2.62-.026-1.636,1.229-2.687,3.241-2.692C-383.385,1079.242-380.328,1079.248-377.271,1079.248Z" transform="translate(-162.699 -50.241)" fill="#33313c"/>
    <path id="Path_23843" data-name="Path 23843" d="M-461.733,1084.561c-3.057,0-6.115.011-9.173,0-1.844-.009-3.031-1.032-3.068-2.6-.038-1.609,1.186-2.71,3.081-2.714q9.239-.016,18.479,0c1.851,0,2.979,1.042,2.976,2.659s-1.132,2.638-2.989,2.648C-455.529,1084.574-458.631,1084.561-461.733,1084.561Z" transform="translate(-108.346 -50.237)" fill="#33313c"/>
    <path id="Path_23844" data-name="Path 23844" d="M-530.308,1216.48c-1.992,0-3.983.021-5.975-.006-1.774-.024-2.9-1.031-2.943-2.56a2.693,2.693,0,0,1,2.936-2.735q5.974-.056,11.949,0a2.7,2.7,0,0,1,2.945,2.728c-.038,1.528-1.169,2.543-2.937,2.568C-526.325,1216.5-528.317,1216.48-530.308,1216.48Z" transform="translate(-66.27 -135.295)" fill="#33313c"/>
    <path id="Path_23845" data-name="Path 23845" d="M-603.164,1216.479c-1.951,0-3.9.02-5.852-.006-1.786-.024-2.912-1.02-2.96-2.552a2.691,2.691,0,0,1,2.933-2.745q5.985-.057,11.97,0a2.708,2.708,0,0,1,2.9,2.65c.009,1.561-1.175,2.623-3.011,2.645C-599.174,1216.5-601.169,1216.479-603.164,1216.479Z" transform="translate(-19.359 -135.294)" fill="#33313c"/>
    <path id="Path_23846" data-name="Path 23846" d="M-467.88,1113.673c1.061,0,2.124-.034,3.184.009a2.659,2.659,0,0,1,2.691,2.689,2.629,2.629,0,0,1-2.645,2.6q-3.314.079-6.632,0a2.636,2.636,0,0,1-2.69-2.686,2.669,2.669,0,0,1,2.776-2.605C-470.092,1113.646-468.986,1113.673-467.88,1113.673Z" transform="translate(-108.347 -72.432)" fill="#33313c"/>
    <path id="Path_23847" data-name="Path 23847" d="M-468.069,1153.4c-1.061,0-2.124.032-3.183-.008a2.661,2.661,0,0,1-2.72-2.662,2.644,2.644,0,0,1,2.747-2.631q3.249-.06,6.5,0a2.644,2.644,0,0,1,2.72,2.657,2.669,2.669,0,0,1-2.748,2.635C-465.857,1153.434-466.964,1153.4-468.069,1153.4Z" transform="translate(-108.348 -94.622)" fill="#33313c"/>
    <path id="Path_23848" data-name="Path 23848" d="M-452.01,1246.958a2.693,2.693,0,0,1,2.651,2.623,2.693,2.693,0,0,1-2.73,2.678,2.616,2.616,0,0,1-2.55-2.69A2.616,2.616,0,0,1-452.01,1246.958Z" transform="translate(-120.813 -158.385)" fill="#33313c"/>
    <path id="Path_23849" data-name="Path 23849" d="M-399.406,1180.7a2.614,2.614,0,0,1-2.576,2.666,2.692,2.692,0,0,1-2.7-2.711A2.668,2.668,0,0,1-402,1178.07,2.6,2.6,0,0,1-399.406,1180.7Z" transform="translate(-153.03 -113.965)" fill="#33313c"/>
    <path id="Path_23850" data-name="Path 23850" d="M-332.075,1183.371a2.636,2.636,0,0,1-2.6-2.647,2.607,2.607,0,0,1,2.579-2.653,2.659,2.659,0,0,1,2.693,2.7A2.7,2.7,0,0,1-332.075,1183.371Z" transform="translate(-198.169 -113.965)" fill="#33313c"/>
  </g>
</svg>
