<svg xmlns="http://www.w3.org/2000/svg" width="24.568" height="24.922" viewBox="0 0 24.568 24.922">
  <g id="fi-sr-user-add" transform="translate(0 0.355)">
    <path id="Path_14390" data-name="Path 14390" d="M23.166,11.071H21.118V9.024a1.024,1.024,0,0,0-2.047,0v2.047H17.024a1.024,1.024,0,1,0,0,2.047h2.047v2.047a1.024,1.024,0,0,0,2.047,0V13.118h2.047a1.024,1.024,0,1,0,0-2.047Z" transform="translate(0.378 0.189)" fill="#fe9d58"/>
    <ellipse id="Ellipse_157" data-name="Ellipse 157" cx="6" cy="6.5" rx="6" ry="6.5" transform="translate(2.997 -0.355)" fill="#fe9d58"/>
    <path id="Path_14391" data-name="Path 14391" d="M9.213,14A9.223,9.223,0,0,0,0,23.213a1.024,1.024,0,0,0,1.024,1.024H17.4a1.024,1.024,0,0,0,1.024-1.024A9.223,9.223,0,0,0,9.213,14Z" transform="translate(0 0.331)" fill="#fe9d58"/>
  </g>
</svg>
