<svg xmlns="http://www.w3.org/2000/svg" xmlns:xlink="http://www.w3.org/1999/xlink" width="50" height="50" viewBox="0 0 50 50">
  <defs>
    <style>
      .cls-1 {
        fill: #6d7c94;
      }

      .cls-2 {
        clip-path: url(#clip-path);
      }
    </style>
    <clipPath id="clip-path">
      <rect id="Rectangle_3572" data-name="Rectangle 3572" class="cls-1" width="50" height="50" transform="translate(304 105)"/>
    </clipPath>
  </defs>
  <g id="Mask_Group_154" data-name="Mask Group 154" class="cls-2" transform="translate(-304 -105)">
    <g id="Layer_2" data-name="Layer 2" transform="translate(304.011 105)">
      <g id="Layer_1" data-name="Layer 1">
        <path id="Path_14468" data-name="Path 14468" class="cls-1" d="M38.381,41.892v-.642c0-6.154-.02-12.309.015-18.465a3.549,3.549,0,0,0-1.564-3.069,12.368,12.368,0,0,0-4.591-1.931,31.626,31.626,0,0,0-10.385-.667,21.456,21.456,0,0,0-7.174,1.719,10.082,10.082,0,0,0-2.045,1.334,2.929,2.929,0,0,0-1.046,2.4q.021,9.336.007,18.674v.7H4.227A1.823,1.823,0,0,1,2.207,40.1q-.6-7.175-1.187-14.372Q.526,19.784.013,13.845a1.84,1.84,0,0,1,2.016-2.232H47.953a1.842,1.842,0,0,1,2.013,2.232c-.352,4.1-.685,8.2-1.029,12.295L47.821,39.32c-.033.4-.047.8-.12,1.2a1.7,1.7,0,0,1-1.64,1.427c-2.511.018-5.022,0-7.533,0A.7.7,0,0,1,38.381,41.892Z"/>
        <path id="Path_14469" data-name="Path 14469" class="cls-1" d="M4.464,9.8H2.706c-.01-.192-.025-.363-.025-.531V2.053A1.812,1.812,0,0,1,4.743,0H16.711a1.81,1.81,0,0,1,2.021,2.035,6.487,6.487,0,0,0,.011.679.88.88,0,0,0,.891.847c.173.01.349,0,.523,0H45.2a1.9,1.9,0,0,1,1.674.664,1.71,1.71,0,0,1,.382.89c.038,1.547.018,3.1.018,4.677H45.515c0-.467-.029-.949,0-1.424a2.8,2.8,0,0,0-3-3.033Q25,5.377,7.48,5.351A2.713,2.713,0,0,0,4.464,8.346Z"/>
        <path id="Path_14470" data-name="Path 14470" class="cls-1" d="M13.381,25.148C17.053,27.2,21,27.668,25.014,27.665S32.94,27.2,36.6,25.155v1c0,1.272-.024,2.546.011,3.817a1.447,1.447,0,0,1-.7,1.426,17.246,17.246,0,0,1-2.938,1.428,27.55,27.55,0,0,1-10.445,1.009,20.234,20.234,0,0,1-6.613-1.395,12.607,12.607,0,0,1-1.979-1.14,1.332,1.332,0,0,1-.569-1.222C13.391,28.456,13.381,26.831,13.381,25.148Z"/>
        <path id="Path_14471" data-name="Path 14471" class="cls-1" d="M36.593,33.2c0,1.783.025,3.521-.024,5.256a1.232,1.232,0,0,1-.519.855A13.913,13.913,0,0,1,33.5,40.688a25.063,25.063,0,0,1-9.11,1.264,23.289,23.289,0,0,1-8.4-1.451,12.246,12.246,0,0,1-2.031-1.151,1.368,1.368,0,0,1-.584-1.268c.024-1.465.008-2.929.008-4.394v-.5c3.653,2.028,7.591,2.511,11.607,2.511S32.92,35.223,36.593,33.2Z"/>
        <path id="Path_14472" data-name="Path 14472" class="cls-1" d="M13.381,41.226c3.666,2.023,7.6,2.511,11.621,2.5s7.927-.476,11.56-2.482c.013.139.035.262.035.389,0,1.465-.02,2.929.013,4.393a1.674,1.674,0,0,1-.7,1.434,9.4,9.4,0,0,1-3.39,1.576,29.2,29.2,0,0,1-10.572.81,19.8,19.8,0,0,1-5.94-1.329,13.072,13.072,0,0,1-2.067-1.194,1.316,1.316,0,0,1-.558-1.226C13.391,44.5,13.381,42.892,13.381,41.226Z"/>
        <path id="Path_14473" data-name="Path 14473" class="cls-1" d="M24.6,25.887a23.781,23.781,0,0,1-8.529-1.428,9.516,9.516,0,0,1-2.157-1.241c-.731-.545-.7-1.19-.02-1.8a8.169,8.169,0,0,1,3.5-1.691,28.859,28.859,0,0,1,15.732.177,10.476,10.476,0,0,1,2.7,1.321c1.053.7,1.024,1.434.02,2.2A11.067,11.067,0,0,1,31.531,25.2,29.67,29.67,0,0,1,24.6,25.887Z"/>
        <path id="Path_14474" data-name="Path 14474" class="cls-1" d="M43.729,9.809H6.265A12.587,12.587,0,0,1,6.3,7.885c.042-.265.4-.523.665-.7a1.384,1.384,0,0,1,.667-.052H42.361c1.151,0,1.373.223,1.373,1.374Z"/>
      </g>
    </g>
  </g>
</svg>
