<svg xmlns="http://www.w3.org/2000/svg" xmlns:xlink="http://www.w3.org/1999/xlink" width="50" height="50" viewBox="0 0 50 50">
  <defs>
    <style>
      .cls-1 {
        fill: #6d7c94;
      }

      .cls-2 {
        clip-path: url(#clip-path);
      }
    </style>
    <clipPath id="clip-path">
      <rect id="Rectangle_3580" data-name="Rectangle 3580" class="cls-1" width="50" height="50" transform="translate(573 321)"/>
    </clipPath>
  </defs>
  <g id="Mask_Group_157" data-name="Mask Group 157" class="cls-2" transform="translate(-573 -321)">
    <g id="Layer_2" data-name="Layer 2" transform="translate(573 326.241)">
      <path id="Subtraction_3" data-name="Subtraction 3" class="cls-1" d="M-11401.9-286.721l-1.351,0-1.352,0h-31.923a4.41,4.41,0,0,1-3.149-1.065,4.455,4.455,0,0,1-1.324-2.475v-27.143a.954.954,0,0,0,.061-.175,4.148,4.148,0,0,1,4.312-3.449h.047c1.751.016,3.627.024,5.735.024,2.487,0,5.014-.011,7.456-.022l.574,0,.069,0a1.326,1.326,0,0,1,1.059.53c.46.561.928,1.116,1.447,1.73l.007.009c.512.606,1.04,1.232,1.55,1.856a.959.959,0,0,0,.765.387l.059,0c2.855-.007,5.746-.011,8.592-.011s5.735,0,8.591.011l.129,0a5.346,5.346,0,0,1,1.27.154,4.009,4.009,0,0,1,2.208,1.482,4.45,4.45,0,0,1,.789,2.632v21.233a4.035,4.035,0,0,1-4.27,4.3C-11401-286.721-11401.461-286.721-11401.9-286.721Zm-23.8-20.665a.775.775,0,0,0-.772.775.773.773,0,0,0,.772.772h.775v10.058a3.877,3.877,0,0,0,3.867,3.871h4.643a3.877,3.877,0,0,0,3.868-3.871v-10.058h.775a.773.773,0,0,0,.772-.772.775.775,0,0,0-.772-.775h-2.4a3.887,3.887,0,0,0-3.79-3.1h-1.548a3.891,3.891,0,0,0-3.79,3.1Zm31.162,15.373h0v-20.262a5.77,5.77,0,0,0-4.56-5.849,7.207,7.207,0,0,0-1.47-.153h-.078c-2.723-.006-5.481-.009-8.2-.009s-5.479,0-8.2.009l-.068,0a.948.948,0,0,1-.759-.379c-.394-.486-.806-.973-1.2-1.443l-.041-.048-.008-.009c-.424-.5-.862-1.019-1.281-1.538a2.8,2.8,0,0,0-2.337-1.074c-1.225,0-2.561.005-4.084.005l-4.085,0h-.034l-4.049,0h-.629a3.5,3.5,0,0,1,.894-2.064,4.048,4.048,0,0,1,3.2-1.41h14.2a1.107,1.107,0,0,1,.878.437c.476.576.962,1.154,1.461,1.744l.056.066c.511.607,1.04,1.235,1.553,1.859a.957.957,0,0,0,.768.387l.06,0c3.793-.008,7.637-.012,11.424-.012l5.709,0a4.353,4.353,0,0,1,2.8.818,4.1,4.1,0,0,1,1.628,3.483v16.108q0,.879,0,1.757v.272c0,1.063,0,2.163,0,3.243a4.018,4.018,0,0,1-3.129,4.017,2.233,2.233,0,0,1-.229.028c-.054,0-.11.01-.175.017Zm-21.877-1.444h-4.643a2.324,2.324,0,0,1-2.32-2.323v-10.058h9.286v10.058A2.326,2.326,0,0,1-11416.417-293.457Zm.641-13.929h-5.924a2.33,2.33,0,0,1,2.188-1.548h1.548a2.33,2.33,0,0,1,2.188,1.546Z" transform="translate(11441 326.24)"/>
    </g>
  </g>
</svg>
