<svg xmlns="http://www.w3.org/2000/svg" xmlns:xlink="http://www.w3.org/1999/xlink" width="45" height="45" viewBox="0 0 45 45">
  <defs>
    <clipPath id="clip-path">
      <rect id="Rectangle_3529" data-name="Rectangle 3529" width="45" height="45" transform="translate(232 669)" fill="#6ab4e3" stroke="#707070" stroke-width="1"/>
    </clipPath>
  </defs>
  <g id="Mask_Group_141" data-name="Mask Group 141" transform="translate(-232 -669)" clip-path="url(#clip-path)">
    <path id="fi-rr-time-quarter-to" d="M45,22.5a22.5,22.5,0,1,1-45,0,1.875,1.875,0,0,1,3.75,0A18.75,18.75,0,1,0,22.5,3.75,1.875,1.875,0,0,1,22.5,0,22.524,22.524,0,0,1,45,22.5ZM19.269,20.625H15a1.875,1.875,0,0,0,0,3.75h4.269a3.739,3.739,0,1,0,5.106-5.106V13.125a1.875,1.875,0,0,0-3.75,0v6.144A3.75,3.75,0,0,0,19.269,20.625ZM3.426,16.47A1.875,1.875,0,1,0,1.551,14.6,1.875,1.875,0,0,0,3.426,16.47ZM7.914,9.763A1.875,1.875,0,1,0,6.039,7.888,1.875,1.875,0,0,0,7.914,9.763Zm6.671-4.436a1.875,1.875,0,1,0-1.875-1.875A1.875,1.875,0,0,0,14.586,5.327Z" transform="translate(232 669)" fill="#6ab4e3"/>
  </g>
</svg>
