<svg xmlns="http://www.w3.org/2000/svg" width="24.002" height="24" viewBox="0 0 24.002 24">
  <path id="fi-rr-database" d="M24,12a4.747,4.747,0,0,0-1.706-3.652A4.8,4.8,0,0,0,23.75,3.134,4.5,4.5,0,0,0,19.5,0H4.5A4.5,4.5,0,0,0,.25,3.134,4.8,4.8,0,0,0,1.706,8.348a4.762,4.762,0,0,0,0,7.3A4.8,4.8,0,0,0,.25,20.866,4.5,4.5,0,0,0,4.5,24h15a4.5,4.5,0,0,0,4.25-3.134,4.8,4.8,0,0,0-1.456-5.214A4.747,4.747,0,0,0,24,12ZM2,4.7A2.556,2.556,0,0,1,4.5,2.087H5V3.13a1,1,0,1,0,2,0V2.087H9V3.13a1,1,0,1,0,2,0V2.087h8.5A2.556,2.556,0,0,1,22,4.7,2.556,2.556,0,0,1,19.5,7.3H4.5A2.556,2.556,0,0,1,2,4.7ZM22,19.3a2.556,2.556,0,0,1-2.5,2.609H4.5a2.611,2.611,0,0,1,0-5.217H5v1.043a1,1,0,1,0,2,0V16.7H9v1.043a1,1,0,1,0,2,0V16.7h8.5A2.556,2.556,0,0,1,22,19.3Zm-17.5-4.7a2.611,2.611,0,0,1,0-5.217H5v1.043a1,1,0,1,0,2,0V9.391H9v1.043a1,1,0,1,0,2,0V9.391h8.5a2.611,2.611,0,0,1,0,5.217Z" transform="translate(0.001 0)" fill="#fe9d58"/>
</svg>
