<svg xmlns="http://www.w3.org/2000/svg" width="20.473" height="24.567" viewBox="0 0 20.473 24.567">
  <path id="fi-sr-trash" d="M21.449,4.095H18.276A5.127,5.127,0,0,0,13.26,0H11.213A5.127,5.127,0,0,0,6.2,4.095H3.024a1.024,1.024,0,1,0,0,2.047H4.047V19.449a5.124,5.124,0,0,0,5.118,5.118h6.142a5.124,5.124,0,0,0,5.118-5.118V6.142h1.024a1.024,1.024,0,1,0,0-2.047ZM11.213,17.4a1.024,1.024,0,0,1-2.047,0V11.26a1.024,1.024,0,0,1,2.047,0Zm4.095,0a1.024,1.024,0,0,1-2.047,0V11.26a1.024,1.024,0,0,1,2.047,0ZM8.317,4.095a3.077,3.077,0,0,1,2.9-2.047H13.26a3.077,3.077,0,0,1,2.9,2.047Z" transform="translate(-2)" fill="#6d7c94"/>
</svg>
