<svg xmlns="http://www.w3.org/2000/svg" width="15.728" height="18.874" viewBox="0 0 15.728 18.874">
  <g id="fi-rr-trash" transform="translate(-2)">
    <path id="Path_14393" data-name="Path 14393" d="M16.942,3.146H14.5A3.939,3.939,0,0,0,10.651,0H9.078A3.939,3.939,0,0,0,5.224,3.146H2.786a.786.786,0,1,0,0,1.573h.786V14.942A3.937,3.937,0,0,0,7.5,18.874h4.719a3.937,3.937,0,0,0,3.932-3.932V4.719h.786a.786.786,0,1,0,0-1.573ZM9.078,1.573h1.573a2.364,2.364,0,0,1,2.225,1.573H6.853A2.364,2.364,0,0,1,9.078,1.573Zm5.5,13.369A2.359,2.359,0,0,1,12.223,17.3H7.5a2.359,2.359,0,0,1-2.359-2.359V4.719h9.437Z" fill="#6d7c94"/>
    <path id="Path_14394" data-name="Path 14394" d="M9.786,16.291a.786.786,0,0,0,.786-.786V10.786a.786.786,0,0,0-1.573,0V15.5A.786.786,0,0,0,9.786,16.291Z" transform="translate(-1.495 -2.136)" fill="#6d7c94"/>
    <path id="Path_14395" data-name="Path 14395" d="M13.786,16.291a.786.786,0,0,0,.786-.786V10.786a.786.786,0,1,0-1.573,0V15.5A.786.786,0,0,0,13.786,16.291Z" transform="translate(-2.349 -2.136)" fill="#6d7c94"/>
  </g>
</svg>
