<svg xmlns="http://www.w3.org/2000/svg" xmlns:xlink="http://www.w3.org/1999/xlink" width="45" height="45" viewBox="0 0 45 45">
  <defs>
    <clipPath id="clip-path">
      <rect id="Rectangle_3545" data-name="Rectangle 3545" width="45" height="45" transform="translate(232 960)" fill="#6ab4e3" stroke="#707070" stroke-width="1"/>
    </clipPath>
  </defs>
  <g id="Mask_Group_140" data-name="Mask Group 140" transform="translate(-232 -960)" clip-path="url(#clip-path)">
    <path id="fi-rr-cloud-download" d="M35.138,38.114a1.874,1.874,0,0,1-.152,2.649l-2.973,2.65a5.436,5.436,0,0,1-3.869,1.573,5.648,5.648,0,0,1-4-1.653l-2.894-2.575a1.875,1.875,0,1,1,2.493-2.8l2.5,2.238V26.242a1.874,1.874,0,0,1,3.749,0V40.2l2.5-2.234a1.874,1.874,0,0,1,2.645.152ZM34.407,13.8a2.039,2.039,0,0,1-1.353-1.378A15,15,0,0,0,4.021,14a14.352,14.352,0,0,0,1.5,9.709A10.212,10.212,0,0,0,.107,34.3a10.952,10.952,0,0,0,10.545,8.81H15a1.874,1.874,0,1,0,0-3.749H10.652a7.141,7.141,0,0,1-6.834-5.589,6.5,6.5,0,0,1,3.438-6.748,3.736,3.736,0,0,0,1.486-5.033,11.246,11.246,0,1,1,20.731-8.459,5.811,5.811,0,0,0,3.833,3.846A11.192,11.192,0,0,1,41.2,29.02a10.079,10.079,0,0,1-2.082,5.453,1.875,1.875,0,0,0,2.973,2.285,13.994,13.994,0,0,0,2.849-7.445A14.92,14.92,0,0,0,34.407,13.8Z" transform="translate(232.007 959.065)" fill="#6ab4e3"/>
  </g>
</svg>
