<svg id="fi-rr-download" xmlns="http://www.w3.org/2000/svg" width="17.915" height="17.915" viewBox="0 0 17.915 17.915">
  <path id="Path_14396" data-name="Path 14396" d="M17.169,16h0a.746.746,0,0,0-.746.746v2.986a.746.746,0,0,1-.746.746H2.239a.746.746,0,0,1-.746-.746V16.746A.746.746,0,0,0,.746,16h0A.746.746,0,0,0,0,16.746v2.986a2.239,2.239,0,0,0,2.239,2.239H15.676a2.239,2.239,0,0,0,2.239-2.239V16.746A.746.746,0,0,0,17.169,16Z" transform="translate(0 -4.057)" fill="#6d7c94"/>
  <path id="Path_14397" data-name="Path 14397" d="M5.219,10.106,8.642,13.53a2.245,2.245,0,0,0,3.166,0l3.423-3.423a.746.746,0,1,0-1.056-1.056l-3.2,3.2V.746a.746.746,0,0,0-1.493,0V12.255l-3.2-3.2a.746.746,0,1,0-1.056,1.056Z" transform="translate(-1.268)" fill="#6d7c94"/>
</svg>
