<svg xmlns="http://www.w3.org/2000/svg" xmlns:xlink="http://www.w3.org/1999/xlink" width="25" height="25" viewBox="0 0 25 25">
  <defs>
    <clipPath id="clip-path">
      <rect id="Rectangle_3077" data-name="Rectangle 3077" width="25" height="25" transform="translate(0 -0.043)" fill="#6d7c94" stroke="#707070" stroke-width="1"/>
    </clipPath>
  </defs>
  <g id="Mask_Group_42" data-name="Mask Group 42" transform="translate(0 0.043)" clip-path="url(#clip-path)">
    <g id="edit" transform="translate(0)">
      <path id="Path_14104" data-name="Path 14104" d="M12.445,2.047H11.319a2.821,2.821,0,0,0-5.425,0H4.768A.773.773,0,0,0,4,2.815V4.35A1.8,1.8,0,0,0,5.791,6.142h5.63A1.8,1.8,0,0,0,13.213,4.35V2.815A.773.773,0,0,0,12.445,2.047Z" transform="translate(0.095)" fill="#6d7c94"/>
      <path id="Path_14105" data-name="Path 14105" d="M14.587,3h-.256V4.28a2.813,2.813,0,0,1-2.815,2.815H5.886A2.813,2.813,0,0,1,3.071,4.28V3H2.815A2.813,2.813,0,0,0,0,5.815v12.8a2.813,2.813,0,0,0,2.815,2.815H10.37l.225-1.259a2.851,2.851,0,0,1,.778-1.5l.819-.819H3.839a.768.768,0,1,1,0-1.535h9.725a.348.348,0,0,1,.143.02h.01L17.4,12.643V5.815A2.813,2.813,0,0,0,14.587,3ZM13.563,14.516H3.839a.768.768,0,0,1,0-1.535h9.725a.768.768,0,0,1,0,1.535Zm0-3.327H3.839a.768.768,0,1,1,0-1.535h9.725a.768.768,0,1,1,0,1.535Z" transform="translate(0 0.071)" fill="#6d7c94"/>
      <path id="Path_14106" data-name="Path 14106" d="M12.545,24.291a.768.768,0,0,1-.755-.9l.543-3.076a.771.771,0,0,1,.213-.409l7.6-7.6a1.562,1.562,0,0,1,2.352-.181l1.266,1.266a1.792,1.792,0,0,1,0,2.534l-7.6,7.6a.756.756,0,0,1-.409.213l-3.076.543a.732.732,0,0,1-.133.012Zm3.076-1.31h.01Z" transform="translate(0.278 0.276)" fill="#6d7c94"/>
    </g>
  </g>
</svg>
