<svg xmlns="http://www.w3.org/2000/svg" xmlns:xlink="http://www.w3.org/1999/xlink" width="45" height="45" viewBox="0 0 45 45">
  <defs>
    <clipPath id="clip-path">
      <rect id="Rectangle_3526" data-name="Rectangle 3526" width="45" height="45" transform="translate(1080 545)" fill="#6ab4e3" stroke="#707070" stroke-width="1"/>
    </clipPath>
  </defs>
  <g id="Mask_Group_149" data-name="Mask Group 149" transform="translate(-1080 -545)" clip-path="url(#clip-path)">
    <g id="Layer_2" data-name="Layer 2" transform="translate(1080.008 545.005)">
      <g id="Layer_1" data-name="Layer 1">
        <path id="Path_14453" data-name="Path 14453" d="M44.992,22.847a2.079,2.079,0,0,1-2.348,1.526c-1.009-.045-2.022,0-3.031-.016-.293,0-.38.1-.415.368a16.454,16.454,0,0,1-4.675,9.565,16.391,16.391,0,0,1-9.258,4.82c-.9.147-.9.132-.9,1.052,0,1.027.016,2.054-.019,3.074a1.83,1.83,0,0,1-1.714,1.746A1.877,1.877,0,0,1,20.68,43.55a3.273,3.273,0,0,1-.05-.7c0-1.054-.013-2.108,0-3.162,0-.324-.081-.449-.42-.5a16.584,16.584,0,0,1-13.417-10.6,22.236,22.236,0,0,1-.98-3.765c-.082-.37-.2-.47-.559-.464-1.174.019-2.348.021-3.521-.01A1.786,1.786,0,0,1,.07,23.01,1.753,1.753,0,0,1,.775,21a2.692,2.692,0,0,1,1.231-.358c1.1-.048,2.2-.029,3.294-.009.335.007.44-.1.5-.43C7,13.175,11.016,8.557,17.77,6.321a17.326,17.326,0,0,1,2.443-.515c.3-.053.42-.147.412-.468-.022-1,.029-1.994-.018-2.987A2.078,2.078,0,0,1,22.135,0h.7a2.085,2.085,0,0,1,1.527,2.348c-.047,1.108-.01,2.22-.01,3.388a16.92,16.92,0,0,1,14.9,14.885c1.164,0,2.276.037,3.385-.01a2.084,2.084,0,0,1,2.348,1.527ZM22.5,35.612A13.112,13.112,0,1,0,9.379,22.482,13.131,13.131,0,0,0,22.5,35.612Z" fill="#6ab4e3"/>
        <path id="Path_14454" data-name="Path 14454" d="M22.493,29.052A6.563,6.563,0,1,1,29.068,22.5a6.595,6.595,0,0,1-6.575,6.551Zm2.81-6.543a2.785,2.785,0,1,0,0,.006Z" fill="#6ab4e3"/>
      </g>
    </g>
  </g>
</svg>
