<svg xmlns="http://www.w3.org/2000/svg" xmlns:xlink="http://www.w3.org/1999/xlink" width="24" height="24" viewBox="0 0 24 24">
  <defs>
    <clipPath id="clip-path">
      <rect id="Rectangle_3606" data-name="Rectangle 3606" width="24" height="24" transform="translate(1837 301)" fill="#413e4f" stroke="#707070" stroke-width="1"/>
    </clipPath>
  </defs>
  <g id="Mask_Group_17" data-name="Mask Group 17" transform="translate(-1837 -301)" clip-path="url(#clip-path)">
    <g id="fi-sr-mode-portrait" transform="translate(1837 301)">
      <path id="Path_14538" data-name="Path 14538" d="M23,16a1,1,0,0,0-1,1v2a3,3,0,0,1-3,3H17a1,1,0,0,0,0,2h2a5.006,5.006,0,0,0,5-5V17A1,1,0,0,0,23,16Z" fill="#413e4f"/>
      <path id="Path_14539" data-name="Path 14539" d="M1,8A1,1,0,0,0,2,7V5A3,3,0,0,1,5,2H7A1,1,0,1,0,7,0H5A5.006,5.006,0,0,0,0,5V7A1,1,0,0,0,1,8Z" fill="#413e4f"/>
      <path id="Path_14540" data-name="Path 14540" d="M7,22H5a3,3,0,0,1-3-3V17a1,1,0,0,0-2,0v2a5.006,5.006,0,0,0,5,5H7a1,1,0,0,0,0-2Z" fill="#413e4f"/>
      <path id="Path_14541" data-name="Path 14541" d="M19,0H17a1,1,0,0,0,0,2h2a3,3,0,0,1,3,3V7a1,1,0,0,0,2,0V5A5.006,5.006,0,0,0,19,0Z" fill="#413e4f"/>
      <circle id="Ellipse_185" data-name="Ellipse 185" cx="4" cy="4" r="4" transform="translate(8 3)" fill="#413e4f"/>
      <path id="Path_14542" data-name="Path 14542" d="M11,13a6.006,6.006,0,0,0-6,6,1,1,0,0,0,1,1H18a1,1,0,0,0,1-1,6.006,6.006,0,0,0-6-6Z" fill="#413e4f"/>
    </g>
  </g>
  
</svg>
