<svg id="fi-rr-exclamation" xmlns="http://www.w3.org/2000/svg" width="24" height="24" viewBox="0 0 24 24">
  <path id="Path_23017" data-name="Path 23017" d="M12,0A12,12,0,1,0,24,12,12,12,0,0,0,12,0Zm0,22A10,10,0,1,1,22,12,10,10,0,0,1,12,22Z" fill="#4da9e4"/>
  <path id="Path_23018" data-name="Path 23018" d="M12,5a1,1,0,0,0-1,1v8a1,1,0,0,0,2,0V6A1,1,0,0,0,12,5Z" fill="#4da9e4"/>
  <rect id="Rectangle_4092" data-name="Rectangle 4092" width="2" height="2" rx="1" transform="translate(11 17)" fill="#4da9e4"/>
</svg>
