<svg xmlns="http://www.w3.org/2000/svg" xmlns:xlink="http://www.w3.org/1999/xlink" width="45" height="45" viewBox="0 0 45 45">
  <defs>
    <clipPath id="clip-path">
      <rect id="Rectangle_3518" data-name="Rectangle 3518" width="45" height="45" transform="translate(232 545)" fill="#6ab4e3" stroke="#707070" stroke-width="1"/>
    </clipPath>
  </defs>
  <g id="Mask_Group_150" data-name="Mask Group 150" transform="translate(-232 -545)" clip-path="url(#clip-path)">
    <path id="fi-rr-database" d="M45,21.56A8.392,8.392,0,0,0,41.8,15,8.4,8.4,0,0,0,36.559,0H8.437A8.4,8.4,0,0,0,3.2,15a8.33,8.33,0,0,0,0,13.124,8.4,8.4,0,0,0,5.238,15H36.559a8.4,8.4,0,0,0,5.238-15A8.392,8.392,0,0,0,45,21.56ZM3.75,8.437A4.687,4.687,0,0,1,8.437,3.75h.937V5.624a1.875,1.875,0,1,0,3.75,0V3.75h3.75V5.624a1.875,1.875,0,1,0,3.75,0V3.75H36.559a4.687,4.687,0,1,1,0,9.374H8.437A4.687,4.687,0,0,1,3.75,8.437Zm37.5,26.247a4.687,4.687,0,0,1-4.687,4.687H8.437a4.687,4.687,0,1,1,0-9.374h.937v1.875a1.875,1.875,0,0,0,3.75,0V30h3.75v1.875a1.875,1.875,0,0,0,3.75,0V30H36.559A4.687,4.687,0,0,1,41.246,34.684ZM8.437,26.247a4.687,4.687,0,0,1,0-9.374h.937v1.875a1.875,1.875,0,0,0,3.75,0V16.873h3.75v1.875a1.875,1.875,0,0,0,3.75,0V16.873H36.559a4.687,4.687,0,1,1,0,9.374Z" transform="translate(232.002 545.94)" fill="#6ab4e3"/>
  </g>
</svg>
