<svg xmlns="http://www.w3.org/2000/svg" width="9.248" height="12.331" viewBox="0 0 9.248 12.331">
  <path id="padlock_1_" data-name="padlock (1)" d="M11.092,4.624h-.385V3.083a3.083,3.083,0,0,0-6.165,0V4.624H4.156A1.157,1.157,0,0,0,3,5.78v5.395a1.157,1.157,0,0,0,1.156,1.156h6.936a1.157,1.157,0,0,0,1.156-1.156V5.78A1.157,1.157,0,0,0,11.092,4.624ZM5.569,3.083a2.055,2.055,0,0,1,4.11,0V4.624H5.569ZM8.138,8.591v1.17a.514.514,0,0,1-1.028,0V8.591a1.028,1.028,0,1,1,1.028,0Z" transform="translate(-3)" fill="#000"/>
</svg>
