<svg xmlns="http://www.w3.org/2000/svg" xmlns:xlink="http://www.w3.org/1999/xlink" width="40" height="40" viewBox="0 0 40 40">
  <defs>
    <clipPath id="clip-path">
      <rect id="Rectangle_3088" data-name="Rectangle 3088" width="40" height="40" transform="translate(54 963)" fill="#fff" stroke="#707070" stroke-width="1"/>
    </clipPath>
    <clipPath id="clip-path-2">
      <rect id="Rectangle_406" data-name="Rectangle 406" width="40" height="40" fill="#000" stroke="#707070" stroke-width="2"/>
    </clipPath>
  </defs>
  <g id="Mask_Group_35" data-name="Mask Group 35" transform="translate(-54 -963)" clip-path="url(#clip-path)">
    <g id="Mask_Group_18" data-name="Mask Group 18" transform="translate(54 963)" clip-path="url(#clip-path-2)">
      <g id="fi-sr-power" transform="translate(1.673)">
        <path id="Path_3695" data-name="Path 3695" d="M25.405,7.6h0a1.7,1.7,0,0,0,1.048,1.542,15,15,0,1,1-12.091,0A1.7,1.7,0,0,0,15.41,7.6h0a1.666,1.666,0,0,0-2.29-1.549,18.325,18.325,0,1,0,14.578,0A1.666,1.666,0,0,0,25.4,7.6Z" transform="translate(-2.083 -1.185)" fill="#000"/>
        <rect id="Rectangle_409" data-name="Rectangle 409" width="3.331" height="13.326" rx="1.666" transform="translate(16.659)" fill="#000"/>
      </g>
    </g>
  </g>
</svg>
