<svg xmlns="http://www.w3.org/2000/svg" width="24" height="24" viewBox="0 0 24 24">
  <g id="Layer_2" data-name="Layer 2" transform="translate(-0.5 -0.5)">
    <g id="search" transform="translate(0.5 0.5)">
      <rect id="Rectangle_4" data-name="Rectangle 4" width="24" height="24" fill="#4a4a4a" opacity="0"/>
      <path id="Path_3" data-name="Path 3" d="M20.71,19.29l-3.4-3.39A7.92,7.92,0,0,0,19,11a8,8,0,1,0-8,8,7.92,7.92,0,0,0,4.9-1.69l3.39,3.4a1,1,0,1,0,1.42-1.42ZM5,11a6,6,0,1,1,6,6,6,6,0,0,1-6-6Z" transform="translate(-0.387 -0.387)" fill="#4a4a4a"/>
    </g>
  </g>
</svg>
