<svg xmlns="http://www.w3.org/2000/svg" width="72.336" height="72.451" viewBox="0 0 72.336 72.451">
  <g id="Untitled-1" transform="translate(-96.85 -171.2)">
    <path id="Path_14382" data-name="Path 14382" d="M169.187,194.69v1.415a4.781,4.781,0,0,1-1.741,2.038q-16.222,10.316-32.419,20.669a3.386,3.386,0,0,1-4.01-.012c-2.365-1.541-4.755-3.042-7.134-4.558Q111.3,206.22,98.732,198.18a4.533,4.533,0,0,1-1.539-1.58c-.787-1.5-.187-3,1.466-4.052q15.848-10.114,31.7-20.216c.669-.426,1.4-.757,2.1-1.132h1.13c.722.386,1.473.725,2.161,1.164q15.58,9.92,31.151,19.853A4.85,4.85,0,0,1,169.187,194.69Z" transform="translate(0)" fill="#fff"/>
    <path id="Path_14384" data-name="Path 14384" d="M132.509,429.339c-.7-.375-1.431-.706-2.1-1.132q-15.861-10.1-31.706-20.218c-1.652-1.054-2.232-2.551-1.468-4.059a3.774,3.774,0,0,1,1.251-1.383c2.889-1.9,5.823-3.729,8.722-5.611.416-.271.665-.117,1,.094q9.751,6.23,19.508,12.449a9.2,9.2,0,0,0,10.71.009q9.745-6.235,19.5-12.456a.915.915,0,0,1,1.178.012q3.754,2.446,7.551,4.824a5.66,5.66,0,0,1,2.574,2.567v1.415a4.688,4.688,0,0,1-2.22,2.434Q151.4,418.217,135.8,428.175c-.688.439-1.44.778-2.162,1.164Z" transform="translate(-0.042 -185.688)" fill="#fff"/>
  </g>
</svg>
