<svg xmlns="http://www.w3.org/2000/svg" xmlns:xlink="http://www.w3.org/1999/xlink" width="38" height="38" viewBox="0 0 38 38">
  <defs>
    <style>
      .cls-1, .cls-3 {
        fill: #6d7c94;
      }

      .cls-1 {
        stroke: #707070;
      }

      .cls-2 {
        clip-path: url(#clip-path);
      }
    </style>
    <clipPath id="clip-path">
      <rect id="Rectangle_3587" data-name="Rectangle 3587" class="cls-1" width="38" height="38" transform="translate(243 531)"/>
    </clipPath>
  </defs>
  <g id="Mask_Group_159" data-name="Mask Group 159" class="cls-2" transform="translate(-243 -531)">
    <g id="Layer_2" data-name="Layer 2" transform="translate(243.002 531.01)">
      <g id="Layer_1" data-name="Layer 1">
        <path id="Path_14492" data-name="Path 14492" class="cls-3" d="M21.718,29.8V23.957a2.066,2.066,0,0,1,2.276-2.26H35.75A2.06,2.06,0,0,1,38,23.942v11.8a2.059,2.059,0,0,1-2.253,2.24h-11.8a2.055,2.055,0,0,1-2.229-2.224Q21.715,32.773,21.718,29.8Zm8.146,4.14v-.018c.212,0,.425.007.637,0A1.356,1.356,0,0,0,31.889,32.5c0-.264.014-.531,0-.793a.9.9,0,0,1,.318-.788,3.383,3.383,0,0,0-4.564-4.989,3.3,3.3,0,0,0-.388,4.661,2.114,2.114,0,0,1,.583,1.762,1.779,1.779,0,0,0,0,.238,1.313,1.313,0,0,0,1.087,1.283,8.029,8.029,0,0,0,.939.058Z"/>
        <path id="Path_14493" data-name="Path 14493" class="cls-3" d="M.021,6.527C2.8,8.385,5.917,8.945,9.088,9.29a35.954,35.954,0,0,0,9.541-.241A19.136,19.136,0,0,0,24.5,7.3c.425-.212.816-.479,1.257-.743.011.106.029.2.03.3,0,1.168.01,2.335-.008,3.5a.781.781,0,0,1-.212.506,5.639,5.639,0,0,0-1.734,3.146.733.733,0,0,1-.388.425A18.239,18.239,0,0,1,18.691,15.8a35.613,35.613,0,0,1-11.114.082,17.791,17.791,0,0,1-5.4-1.524A9.355,9.355,0,0,1,.571,13.285a1.563,1.563,0,0,1-.556-1.3C.03,10.181.021,8.385.021,6.527Zm1.973,3.68c-.207.2-.466.338-.538.543a.714.714,0,0,0,.121.667,3.218,3.218,0,0,0,1.173.507.744.744,0,0,0,.588-.395.749.749,0,0,0-.124-.7A7.115,7.115,0,0,0,1.994,10.207Zm4.883,1.967c-.163-.183-.294-.431-.5-.531a2.638,2.638,0,0,0-.879-.2.637.637,0,0,0-.7.5.649.649,0,0,0,.435.785,4.3,4.3,0,0,0,.849.19c.385.042.712-.278.792-.747Z"/>
        <path id="Path_14494" data-name="Path 14494" class="cls-3" d="M12.35,8.127A30.581,30.581,0,0,1,3.944,6.984,9.6,9.6,0,0,1,1.137,5.718c-1.481-1.039-1.486-2.259-.005-3.3A11.485,11.485,0,0,1,5.278.8,35.254,35.254,0,0,1,14.707.045a29.945,29.945,0,0,1,7.046,1.061,9.881,9.881,0,0,1,2.89,1.274c1.524,1.061,1.532,2.293.007,3.348a11.387,11.387,0,0,1-3.927,1.559A34.558,34.558,0,0,1,12.35,8.127Z"/>
        <path id="Path_14495" data-name="Path 14495" class="cls-3" d="M.02,14.648a15.778,15.778,0,0,0,6.491,2.421,36.038,36.038,0,0,0,10,.393,24.378,24.378,0,0,0,6.98-1.561c.071-.03.146-.048.247-.08v4.489c-.175.029-.353.057-.531.088A3.331,3.331,0,0,0,20.43,23.22a.477.477,0,0,1-.447.477,35.033,35.033,0,0,1-10.424.558,23.26,23.26,0,0,1-6.309-1.3A13.614,13.614,0,0,1,1,21.8a2.031,2.031,0,0,1-1-1.939c.052-1.592.014-3.177.014-4.766Z"/>
        <path id="Path_14496" data-name="Path 14496" class="cls-3" d="M.02,22.8a18.831,18.831,0,0,0,8.551,2.709,36.232,36.232,0,0,0,8.916-.017c.943-.117,1.879-.3,2.849-.451v6.754c-1.131.179-2.271.4-3.421.531a35.037,35.037,0,0,1-9.224-.152,18.211,18.211,0,0,1-5.765-1.66,8.1,8.1,0,0,1-.782-.468A2.271,2.271,0,0,1,0,27.9C.068,26.217.02,24.537.02,22.8Z"/>
        <path id="Path_14497" data-name="Path 14497" class="cls-3" d="M34.578,20.322c-.081.007-.144.017-.207.018H33.244V15.051A2.684,2.684,0,0,0,30.4,12.213c-.436,0-.874-.01-1.31,0a2.667,2.667,0,0,0-2.615,2.654c-.016,1.655,0,3.31-.005,4.965V20.3H25.139c-.006-.12-.019-.247-.019-.375V15.077a4.041,4.041,0,0,1,4.213-4.229,11.059,11.059,0,0,1,1.978.085,3.958,3.958,0,0,1,3.278,3.887c.029,1.76.008,3.522.008,5.283A1.252,1.252,0,0,1,34.578,20.322Z"/>
        <path id="Path_14498" data-name="Path 14498" class="cls-3" d="M30.535,32.538H29.181c0-.5-.016-.988.005-1.472a.965.965,0,0,0-.479-.924,1.984,1.984,0,0,1-.754-2.35,2.029,2.029,0,0,1,2.085-1.334,2,2,0,0,1,1.8,1.638,1.891,1.891,0,0,1-.8,2.017,1.066,1.066,0,0,0-.513,1.032C30.554,31.6,30.535,32.042,30.535,32.538Z"/>
      </g>
    </g>
  </g>
</svg>
