<svg xmlns="http://www.w3.org/2000/svg" xmlns:xlink="http://www.w3.org/1999/xlink" width="24" height="24" viewBox="0 0 24 24">
  <defs>
    <clipPath id="clip-path">
      <rect id="Rectangle_3602" data-name="Rectangle 3602" width="24" height="24" transform="translate(1837 209)" fill="#413e4f" stroke="#707070" stroke-width="1"/>
    </clipPath>
  </defs>
  <g id="Mask_Group_11" data-name="Mask Group 11" transform="translate(-1837 -209)" clip-path="url(#clip-path)">
    <g id="fi-sr-video-camera" transform="translate(1837 208.504)">
      <path id="Path_14535" data-name="Path 14535" d="M14.021,6.106,9.793,1.879A2.976,2.976,0,0,0,7.672,1H1A1,1,0,0,0,1,3H7.672a1.006,1.006,0,0,1,.707.293L11.086,6H5a5.006,5.006,0,0,0-5,5v8a5.006,5.006,0,0,0,5,5h8a5.006,5.006,0,0,0,5-5V11a5.008,5.008,0,0,0-3.979-4.894Z" fill="#413e4f"/>
      <path id="Path_14536" data-name="Path 14536" d="M22.9,8.955a1.987,1.987,0,0,0-2.092.184l-.8.6V20.261l.8.6a2,2,0,0,0,3.2-1.6V10.743A1.988,1.988,0,0,0,22.9,8.955Z" fill="#413e4f"/>
    </g>
  </g>
</svg>
