<svg xmlns="http://www.w3.org/2000/svg" xmlns:xlink="http://www.w3.org/1999/xlink" width="50" height="50" viewBox="0 0 50 50">
  <defs>
    <style>
      .cls-1 {
        fill: #6d7c94;
      }

      .cls-2 {
        clip-path: url(#clip-path);
      }
    </style>
    <clipPath id="clip-path">
      <rect id="Rectangle_3581" data-name="Rectangle 3581" class="cls-1" width="50" height="50" transform="translate(304 321)"/>
    </clipPath>
  </defs>
  <g id="Mask_Group_158" data-name="Mask Group 158" class="cls-2" transform="translate(-304 -321)">
    <g id="Layer_2" data-name="Layer 2" transform="translate(303.997 320.997)">
      <g id="Layer_1" data-name="Layer 1">
        <path id="Path_14487" data-name="Path 14487" class="cls-1" d="M48.048,50a13.459,13.459,0,0,1-1.2-.956q-8.439-8.411-16.859-16.834a1.772,1.772,0,0,0-.822-.453A18.35,18.35,0,0,0,14.9,34.223c-.15.093-.3.183-.505.306l-3.324-5.27a24.905,24.905,0,0,1,11.8-4.1,3.371,3.371,0,0,0-.245-.317c-.711-.716-1.436-1.418-2.132-2.148a.707.707,0,0,0-.734-.223,27.967,27.967,0,0,0-9.973,3.891c-.109.07-.221.135-.389.236L6.086,21.34a34.147,34.147,0,0,1,8.869-4.159c-.813-.816-1.569-1.59-2.354-2.339-.092-.087-.367-.054-.519,0a36.906,36.906,0,0,0-7.034,3.447c-.192.122-.387.237-.612.377-.088-.122-.175-.231-.245-.349Q2.292,15.3.4,12.29A1.605,1.605,0,0,1,1.073,9.7c1.239-.671,2.5-1.316,3.749-1.973.142-.075.284-.147.468-.245L2.262,4.463.638,2.84A1.589,1.589,0,0,1,.456.467,1.6,1.6,0,0,1,2.862.649c.082.08.161.16.245.245Q26.1,23.889,49.085,46.883A12.643,12.643,0,0,1,50,48.05v.78A2.131,2.131,0,0,1,48.832,50Z"/>
        <path id="Path_14488" data-name="Path 14488" class="cls-1" d="M50,11.62c-1.458,2.34-2.916,4.681-4.4,7.057-.221-.122-.417-.227-.6-.345a37.207,37.207,0,0,0-25.051-5.489.816.816,0,0,1-.6-.153Q15.574,8.963,11.84,5.2a.909.909,0,0,1-.084-.149c.55-.155,1.084-.318,1.623-.455A46.656,46.656,0,0,1,49.134,9.838a4.326,4.326,0,0,1,.867,1Z"/>
        <path id="Path_14489" data-name="Path 14489" class="cls-1" d="M24.61,50a2.977,2.977,0,0,1-1.282-1.268q-3.464-5.541-6.955-11.057c-.087-.137-.17-.275-.254-.412a15.254,15.254,0,0,1,17.767-.032c-.086.144-.169.3-.262.442q-3.479,5.53-6.953,11.062A2.977,2.977,0,0,1,25.392,50Z"/>
        <path id="Path_14490" data-name="Path 14490" class="cls-1" d="M22.368,15.708a34.581,34.581,0,0,1,21.546,5.626c-1.113,1.769-2.2,3.5-3.3,5.259-.137-.075-.245-.122-.355-.194a28.074,28.074,0,0,0-10.993-4.159,1.536,1.536,0,0,1-.788-.4c-1.913-1.884-3.805-3.792-5.7-5.686C22.661,16.03,22.557,15.911,22.368,15.708Z"/>
        <path id="Path_14491" data-name="Path 14491" class="cls-1" d="M33.308,26.474a23.669,23.669,0,0,1,5.613,2.786c-.388.612-.757,1.2-1.092,1.734C36.29,29.457,34.76,27.927,33.308,26.474Z"/>
      </g>
    </g>
  </g>
</svg>
