<svg xmlns="http://www.w3.org/2000/svg" width="18" height="24" viewBox="0 0 18 24">
  <g id="fi-rr-pause" transform="translate(-3)">
    <path id="Path_14398" data-name="Path 14398" d="M6.5,0A3.5,3.5,0,0,0,3,3.5v17a3.5,3.5,0,0,0,7,0V3.5A3.5,3.5,0,0,0,6.5,0ZM8,20.5a1.5,1.5,0,0,1-3,0V3.5a1.5,1.5,0,0,1,3,0Z" fill="#4da9e4"/>
    <path id="Path_14399" data-name="Path 14399" d="M17.5,0A3.5,3.5,0,0,0,14,3.5v17a3.5,3.5,0,0,0,7,0V3.5A3.5,3.5,0,0,0,17.5,0ZM19,20.5a1.5,1.5,0,0,1-3,0V3.5a1.5,1.5,0,0,1,3,0Z" fill="#4da9e4"/>
  </g>
</svg>
