<svg xmlns="http://www.w3.org/2000/svg" xmlns:xlink="http://www.w3.org/1999/xlink" width="24" height="24" viewBox="0 0 24 24">
  <defs>
    <clipPath id="clip-path">
      <rect id="Rectangle_3603" data-name="Rectangle 3603" width="24" height="24" transform="translate(1837 240)" fill="#413e4f" stroke="#707070" stroke-width="1"/>
    </clipPath>
  </defs>
  <g id="Mask_Group_19" data-name="Mask Group 19" transform="translate(-1837 -240)" clip-path="url(#clip-path)">
    <path id="fi-sr-id-badge" d="M19,4H15V3A3,3,0,1,0,9,3V4H5A5.006,5.006,0,0,0,0,9V19a5.006,5.006,0,0,0,5,5H19a5.006,5.006,0,0,0,5-5V9a5.006,5.006,0,0,0-5-5ZM10,18a1,1,0,0,1-1,1H4a1,1,0,0,1-1-1V10A1,1,0,0,1,4,9H9a1,1,0,0,1,1,1ZM12,6a1,1,0,0,1-1-1V3a1,1,0,0,1,2,0V5A1,1,0,0,1,12,6Zm6,13H14a1,1,0,0,1,0-2h4a1,1,0,0,1,0,2Zm2-4H14a1,1,0,0,1,0-2h6a1,1,0,0,1,0,2Zm0-4H14a1,1,0,0,1,0-2h6a1,1,0,0,1,0,2ZM5,11H8v6H5Z" transform="translate(1837 240)" fill="#413e4f"/>
  </g>
</svg>