<svg id="Group_8149" data-name="Group 8149" xmlns="http://www.w3.org/2000/svg" width="67.415" height="53.53" viewBox="0 0 67.415 53.53">
  <path id="Path_5139" data-name="Path 5139" d="M129.056,76.082a9.794,9.794,0,1,0-9.795-9.794A9.794,9.794,0,0,0,129.056,76.082Zm0-16.7a6.9,6.9,0,1,1-6.9,6.9A6.9,6.9,0,0,1,129.056,59.385Zm0,0" transform="translate(-102.008 -48.389)" fill="#6f737a"/>
  <path id="Path_5140" data-name="Path 5140" d="M60.181.484H7.234A7.242,7.242,0,0,0,0,7.718V46.781a7.242,7.242,0,0,0,7.234,7.234H60.181a7.242,7.242,0,0,0,7.234-7.234V7.718A7.242,7.242,0,0,0,60.181.484ZM7.234,3.378H60.181a4.345,4.345,0,0,1,4.34,4.34V36.241L55.865,23.977a7.234,7.234,0,0,0-11.746-.1L34.266,37.326a4.331,4.331,0,0,1-5.915,1.042l-7.366-4.929a7.221,7.221,0,0,0-8.007-.027L2.894,40.127V7.718a4.345,4.345,0,0,1,4.34-4.34ZM60.181,51.121H7.234a4.345,4.345,0,0,1-4.34-4.34V43.6l11.682-7.779a4.331,4.331,0,0,1,4.8.018l7.366,4.93A7.218,7.218,0,0,0,36.6,39.036l9.853-13.452a4.34,4.34,0,0,1,7.047.062L64.52,41.259v5.521a4.346,4.346,0,0,1-4.339,4.34Zm0,0" transform="translate(0 -0.484)" fill="#6f737a"/>
</svg>
