<svg xmlns="http://www.w3.org/2000/svg" xmlns:xlink="http://www.w3.org/1999/xlink" width="45" height="45" viewBox="0 0 45 45">
  <defs>
    <clipPath id="clip-path">
      <rect id="Rectangle_3521" data-name="Rectangle 3521" width="45" height="45" transform="translate(656 545)" fill="#6ab4e3" stroke="#707070" stroke-width="1"/>
    </clipPath>
  </defs>
  <g id="Mask_Group_151" data-name="Mask Group 151" transform="translate(-656 -545)" clip-path="url(#clip-path)">
    <g id="Layer_2" data-name="Layer 2" transform="translate(656.006 545.004)">
      <g id="Layer_1" data-name="Layer 1">
        <path id="Path_14455" data-name="Path 14455" d="M18.893,0h.615a1.543,1.543,0,0,1,.936,1.658c-.036.715-.008,1.434-.008,2.152V5.218H24.43c0-1.221.026-2.407-.01-3.591A1.493,1.493,0,0,1,25.4,0h.615a1.55,1.55,0,0,1,.932,1.662c-.037.847-.009,1.7-.009,2.547v1h4c0-1.238.025-2.438-.008-3.637A1.458,1.458,0,0,1,31.9,0h.615a1.556,1.556,0,0,1,.923,1.665c-.044.935-.01,1.874-.01,2.811v.781h.531c.834.008,1.674-.02,2.5.032a3.394,3.394,0,0,1,2.393,1.228,3.687,3.687,0,0,1,.885,2.55c-.008.815,0,1.629,0,2.5h.528c1.128,0,2.255-.01,3.383,0a1.244,1.244,0,0,1,1.339,1.258,1.261,1.261,0,0,1-1.372,1.228h-3.85v3.945h.5c1.172,0,2.344-.012,3.514.009a1.228,1.228,0,0,1,1.2,1.3,1.249,1.249,0,0,1-1.157,1.166q-1.865-.027-3.731-.039a2.554,2.554,0,0,0-.335.041v3.951h3.888a1.251,1.251,0,1,1,0,2.5c-1.142.025-2.284.006-3.427.008-.154,0-.308.019-.469.029v3.967h3.794a1.278,1.278,0,0,1,1.427,1.264,1.256,1.256,0,0,1-1.416,1.228c-1.116.008-2.226,0-3.339,0-.156,0-.312.015-.517.025,0,1,.035,1.973-.008,2.935a3.482,3.482,0,0,1-2.465,3.146,6.54,6.54,0,0,1-1.5.205c-.753.031-1.509.008-2.3.008v.543c0,1.116.008,2.225,0,3.339A1.257,1.257,0,0,1,32.2,44.989a1.269,1.269,0,0,1-1.26-1.387c-.006-1.127,0-2.255,0-3.383,0-.154-.013-.307-.02-.454h-3.85V43.65a1.251,1.251,0,1,1-2.5.007c-.025-1.142-.006-2.284-.008-3.426,0-.154-.019-.309-.029-.466H20.561v.508c0,1.1.013,2.2-.009,3.294a1.943,1.943,0,0,1-.2.835,1.225,1.225,0,0,1-2.269-.574c-.035-1.185-.018-2.371-.027-3.558,0-.167-.021-.335-.031-.5h-3.96v.51c0,1.116.015,2.226-.01,3.339a1.827,1.827,0,0,1-.223.826,1.222,1.222,0,0,1-2.239-.619c-.027-1.186-.015-2.373-.02-3.559,0-.169-.015-.335-.023-.528-.86,0-1.674.045-2.469-.015a5.075,5.075,0,0,1-1.738-.363,3.474,3.474,0,0,1-2.078-3.38c-.006-.831,0-1.662,0-2.53-.2-.009-.358-.021-.514-.021-1.026,0-2.052-.033-3.076.009A1.563,1.563,0,0,1,0,32.514V31.9a1.457,1.457,0,0,1,1.577-.975c1.065.032,2.132.009,3.2.008.153,0,.306-.013.455-.02v-3.85H4.784c-1.051,0-2.1-.027-3.154.009A1.494,1.494,0,0,1,0,26.1v-.615a1.541,1.541,0,0,1,1.658-.936c.715.036,1.434.008,2.152.008h1.4V20.561c-1.221,0-2.407-.026-3.591.009A1.491,1.491,0,0,1,0,19.6v-.615a1.55,1.55,0,0,1,1.662-.932c.847.037,1.7.009,2.547.009h1v-4c-1.237,0-2.437-.023-3.636.009A1.463,1.463,0,0,1-.006,13.1V12.48a1.552,1.552,0,0,1,1.664-.923c.876.044,1.757.01,2.634.01H5.25v-.528c.007-.819,0-1.639.026-2.455A3.251,3.251,0,0,1,6,6.687a3.607,3.607,0,0,1,3.013-1.43h2.548v-.52c0-1.024.032-2.05-.011-3.073A1.569,1.569,0,0,1,12.478,0h.615a1.451,1.451,0,0,1,.975,1.576c-.033,1.066-.009,2.133-.008,3.2,0,.153.013.306.02.456h3.85V4.784c0-1.051.027-2.1-.009-3.154A1.494,1.494,0,0,1,18.893,0Zm3.625,7.743H9.249c-1.106,0-1.507.4-1.507,1.5V35.738c0,1.108.4,1.51,1.5,1.51H35.734c1.1,0,1.572-.465,1.572-1.571V9.227c0-1.08-.4-1.484-1.478-1.484Z" fill="#6ab4e3"/>
        <path id="Path_14456" data-name="Path 14456" d="M33.426,22.493v9.355c0,1.157-.424,1.577-1.594,1.578H13.169c-1.173,0-1.6-.42-1.6-1.572q0-9.357.013-18.711A2.384,2.384,0,0,1,11.9,12c.242-.412.723-.437,1.177-.436q4.9.007,9.794,0h8.96c1.189,0,1.6.416,1.6,1.616ZM14.076,30.9H30.9V14.084H14.084V18.74h4.8a1.315,1.315,0,0,1,1.279.687,1.249,1.249,0,0,1-1.191,1.82c-1.478.019-2.957.006-4.436.006h-.446v2.485c.721,0,1.411.029,2.1-.007,1.173-.06,1.614.643,1.613,1.267,0,.6-.406,1.316-1.62,1.259-.694-.032-1.393-.006-2.1-.006Z" fill="#6ab4e3"/>
      </g>
    </g>
  </g>
</svg>
