<svg xmlns="http://www.w3.org/2000/svg" xmlns:xlink="http://www.w3.org/1999/xlink" width="57" height="56" viewBox="0 0 57 56">
  <defs>
    <style>
      .cls-1, .cls-3 {
        fill: #fff;
      }

      .cls-1 {
        stroke: #707070;
      }

      .cls-2 {
        clip-path: url(#clip-path);
      }
    </style>
    <clipPath id="clip-path">
      <rect id="Rectangle_3367" data-name="Rectangle 3367" class="cls-1" width="57" height="56" transform="translate(-0.244 -0.145)"/>
    </clipPath>
  </defs>
  <g id="Mask_Group_120" data-name="Mask Group 120" class="cls-2" transform="translate(0.244 0.145)">
    <g id="layers" transform="translate(0.333 -0.146)">
      <path id="Path_14346" data-name="Path 14346" class="cls-3" d="M54.9,41.168l-1.051-.526L30.155,52.487a4.932,4.932,0,0,1-4.395,0L2.07,40.642l-1.051.526a1.638,1.638,0,0,0,0,2.93L27.225,57.2a1.637,1.637,0,0,0,1.465,0L54.9,44.1a1.638,1.638,0,0,0,0-2.93Z" transform="translate(-0.113 -1.467)"/>
      <path id="Path_14347" data-name="Path 14347" class="cls-3" d="M54.9,33.238l-1.051-.526L30.155,44.557a4.932,4.932,0,0,1-4.395,0L2.07,32.712l-1.051.526a1.638,1.638,0,0,0,0,2.93l26.206,13.1a1.637,1.637,0,0,0,1.465,0L54.9,36.168a1.638,1.638,0,0,0,0-2.93Z" transform="translate(-0.113 -1.181)"/>
      <path id="Path_14348" data-name="Path 14348" class="cls-3" d="M14.049,19.275l3.276,5.674a1.638,1.638,0,0,0,2.237.6l1.349-.779A12.386,12.386,0,0,0,23.539,26.3v1.546a1.638,1.638,0,0,0,1.638,1.638h6.552a1.638,1.638,0,0,0,1.638-1.638V26.3a12.386,12.386,0,0,0,2.628-1.529l1.349.779a1.638,1.638,0,0,0,2.237-.6l3.276-5.674a1.638,1.638,0,0,0-.6-2.237l-1.343-.775a12.115,12.115,0,0,0,0-3.041l1.343-.775a1.638,1.638,0,0,0,.6-2.237L39.581,4.534a1.638,1.638,0,0,0-2.237-.6l-1.349.779a12.385,12.385,0,0,0-2.628-1.529V1.638A1.638,1.638,0,0,0,31.728,0H25.177a1.638,1.638,0,0,0-1.638,1.638V3.184A12.385,12.385,0,0,0,20.91,4.713l-1.349-.779a1.638,1.638,0,0,0-2.237.6l-3.276,5.674a1.638,1.638,0,0,0,.6,2.237l1.343.775a12.117,12.117,0,0,0,0,3.042l-1.343.775a1.638,1.638,0,0,0-.6,2.237Zm14.4-9.447a4.914,4.914,0,1,1-4.914,4.914A4.919,4.919,0,0,1,28.452,9.827Z" transform="translate(-0.608 0)"/>
      <path id="Path_14349" data-name="Path 14349" class="cls-3" d="M1.019,28.085l26.206,13.1a1.637,1.637,0,0,0,1.465,0L54.9,28.085a1.638,1.638,0,0,0,0-2.93l-9.228-4.614a4.9,4.9,0,0,1-.47,1.112l-3.276,5.674a4.929,4.929,0,0,1-4.257,2.457h0a4.913,4.913,0,0,1-1.607-.271A4.922,4.922,0,0,1,31.233,33.5H24.682a4.922,4.922,0,0,1-4.826-3.985,4.912,4.912,0,0,1-5.864-2.186l-3.276-5.673a4.944,4.944,0,0,1-.473-1.111L1.019,25.155a1.638,1.638,0,0,0,0,2.93Z" transform="translate(-0.113 -0.741)"/>
    </g>
  </g>
</svg>
