<svg xmlns="http://www.w3.org/2000/svg" width="55.35" height="55.347" viewBox="0 0 55.35 55.347">
  <defs>
    <style>
      .cls-1 {
        fill: #fff;
      }
    </style>
  </defs>
  <g id="software" transform="translate(0 0)">
    <path id="Path_14336" data-name="Path 14336" class="cls-1" d="M55.35,11.871V4.007A3.994,3.994,0,0,0,51.356.012H3.994A3.994,3.994,0,0,0,0,4.007v7.864Zm-34-6.7a1.734,1.734,0,1,1-1.735,1.734,1.734,1.734,0,0,1,1.735-1.734Zm-7.373,0a1.734,1.734,0,1,1-1.735,1.734,1.734,1.734,0,0,1,1.735-1.734Zm-7.053,0A1.734,1.734,0,1,1,5.193,6.906,1.734,1.734,0,0,1,6.928,5.172Z" transform="translate(0 -0.012)"/>
    <path id="Path_14337" data-name="Path 14337" class="cls-1" d="M173.385,221.279a8.688,8.688,0,0,0-.107-3.528,1.723,1.723,0,0,1,.805-1.89l1.607-.94-1.263-2.159-1.6.939a1.722,1.722,0,0,1-2.045-.227,8.641,8.641,0,0,0-3.392-1.95,1.723,1.723,0,0,1-1.228-1.65V207.9h-2.5v1.969a1.723,1.723,0,0,1-1.228,1.65,8.619,8.619,0,0,0-3.775,2.331,1.722,1.722,0,0,1-2.026.354l-1.642-.827-1.125,2.234,1.645.829a1.723,1.723,0,0,1,.922,1.835,8.679,8.679,0,0,0,.113,3.528,1.723,1.723,0,0,1-.8,1.893l-1.576.922,1.263,2.159,1.582-.926a1.723,1.723,0,0,1,2.043.225,8.644,8.644,0,0,0,3.38,1.94,1.723,1.723,0,0,1,1.228,1.65v1.718h2.5V229.67a1.723,1.723,0,0,1,1.228-1.65,8.619,8.619,0,0,0,3.764-2.319,1.722,1.722,0,0,1,2.024-.352l1.655.834,1.125-2.234-1.648-.831a1.724,1.724,0,0,1-.922-1.838Zm-8.478,3.269a4.777,4.777,0,1,1,4.777-4.777A4.783,4.783,0,0,1,164.907,224.549Z" transform="translate(-137.228 -185.431)"/>
    <ellipse id="Ellipse_152" data-name="Ellipse 152" class="cls-1" cx="1.331" cy="1.331" rx="1.331" ry="1.331" transform="translate(26.349 33.009)"/>
    <path id="Path_14338" data-name="Path 14338" class="cls-1" d="M0,141.6v36.047a3.994,3.994,0,0,0,3.994,3.995H51.356a3.994,3.994,0,0,0,3.994-3.995V141.6Zm42.579,23.224L39.9,170.134a1.723,1.723,0,0,1-2.314.764l-2.116-1.066a12.082,12.082,0,0,1-3.1,1.908v2.234a1.723,1.723,0,0,1-1.723,1.723H24.706a1.723,1.723,0,0,1-1.723-1.723v-2.235a12.152,12.152,0,0,1-2.506-1.438l-2.028,1.187a1.723,1.723,0,0,1-2.357-.617l-3-5.134a1.723,1.723,0,0,1,.617-2.357l2.02-1.182a12.129,12.129,0,0,1-.1-1.564q0-.4.026-.792l-2.107-1.062a1.723,1.723,0,0,1-.763-2.314l2.676-5.312a1.723,1.723,0,0,1,2.314-.763l2.1,1.059a12.079,12.079,0,0,1,3.113-1.922v-2.484a1.723,1.723,0,0,1,1.723-1.723h5.947a1.723,1.723,0,0,1,1.723,1.723v2.485a12.147,12.147,0,0,1,2.522,1.45l2.048-1.2a1.723,1.723,0,0,1,2.357.617l3,5.134a1.723,1.723,0,0,1-.617,2.357l-2.054,1.2a12.138,12.138,0,0,1,.1,1.544q0,.406-.027.812l2.109,1.063a1.723,1.723,0,0,1,.763,2.314Z" transform="translate(0 -126.293)"/>
  </g>
</svg>
