<svg xmlns="http://www.w3.org/2000/svg" xmlns:xlink="http://www.w3.org/1999/xlink" width="55" height="56" viewBox="0 0 55 56">
  <defs>
    <style>
      .cls-1, .cls-3 {
        fill: #fff;
      }

      .cls-1 {
        stroke: #707070;
      }

      .cls-2 {
        clip-path: url(#clip-path);
      }
    </style>
    <clipPath id="clip-path">
      <rect id="Rectangle_3314" data-name="Rectangle 3314" class="cls-1" width="55" height="56" transform="translate(0.389 -0.146)"/>
    </clipPath>
  </defs>
  <g id="Group_4378" data-name="Group 4378" transform="translate(-0.389 0.146)">
    <g id="Mask_Group_119" data-name="Mask Group 119" class="cls-2" transform="translate(0 0)">
      <g id="Solid" transform="translate(1.904 -0.146)">
        <path id="Path_14339" data-name="Path 14339" class="cls-3" d="M47.909,60.563h-30.2a1.007,1.007,0,1,0,0,2.013h30.2a1.007,1.007,0,1,0,0-2.013Z" transform="translate(-8.655 -6.67)"/>
        <path id="Path_14340" data-name="Path 14340" class="cls-3" d="M26.713,53.254l-2.157,7.74H41.633l-2.157-7.74Z" transform="translate(-8.938 -7.1)"/>
        <path id="Path_14341" data-name="Path 14341" class="cls-3" d="M8.354,47.92a3.023,3.023,0,0,0,3.02,3.02H53.647a3.023,3.023,0,0,0,3.02-3.02V44.9H8.354ZM31.5,46.914h2.013v2.013H31.5Z" transform="translate(-8.354 -6.105)"/>
        <path id="Path_14342" data-name="Path 14342" class="cls-3" d="M55.883,28.141a1.007,1.007,0,0,1-.645.965l-3.131,1.2a1.007,1.007,0,0,1-1.125-.284L49.2,27.945,47.45,27.9l-1.888,1.987a1.007,1.007,0,0,1-1.138.226l-3.065-1.362a1.007,1.007,0,0,1-.595-1l.21-2.733-1.2-1.267-2.74.07a1.011,1.011,0,0,1-.965-.645l-1.2-3.131a1.007,1.007,0,0,1,.284-1.126l2.081-1.784.045-1.747L35.283,13.5A1,1,0,0,1,35,12.53H11.373a3.023,3.023,0,0,0-3.02,3.02V41.719H56.666V24.59l-.853.811ZM42.575,33.667h2.013V35.68H42.575Zm-2.013,0V35.68H15.4V33.667Zm-3.02-4.026v2.013H15.4V29.641Zm-3.02-2.013H15.4V25.615H34.523ZM22.739,17.268l1.423-1.423,3.02,3.02a1.007,1.007,0,0,1,0,1.423l-3.02,3.02-1.423-1.423,2.308-2.308Zm-3.284-1.963,1.953.488L19.4,23.846l-1.953-.488Zm-6.07,24.4H11.373V37.693h2.013Zm0-4.026H11.373V33.667h2.013Zm0-4.026H11.373V29.641h2.013Zm0-4.026H11.373V25.615h2.013Zm-1.718-7.34a1.007,1.007,0,0,1,0-1.423l3.02-3.02,1.423,1.423L13.8,19.576l2.308,2.308-1.423,1.423ZM45.594,39.706H15.4V37.693h30.2ZM46.6,33.667h2.013V35.68H46.6Zm3.02,6.039H47.607V37.693H49.62Zm4.026,0H51.633V37.693h2.013Z" transform="translate(-8.354 -4.936)"/>
        <path id="Path_14343" data-name="Path 14343" class="cls-3" d="M49.923,11.363a5.151,5.151,0,1,0,4.813,3.3,5.151,5.151,0,0,0-4.813-3.3Z" transform="translate(-9.668 -4.894)"/>
        <path id="Path_14344" data-name="Path 14344" class="cls-3" d="M59.007,17.832l.068-2.642a1.007,1.007,0,0,1,.351-.738l1.881-1.613-.694-1.8-2.477.063a1,1,0,0,1-.755-.313L55.56,8.868a1.007,1.007,0,0,1-.274-.77l.189-2.47-1.767-.785L52,6.639a.993.993,0,0,1-.755.313L48.6,6.884a1.007,1.007,0,0,1-.738-.351L46.253,4.652l-1.8.694.063,2.477a1.007,1.007,0,0,1-.313.755L42.283,10.4a1.009,1.009,0,0,1-.77.274l-2.47-.189-.785,1.767,1.8,1.707a1.007,1.007,0,0,1,.313.755L40.3,17.354a1.007,1.007,0,0,1-.351.738l-1.881,1.613.694,1.8,2.477-.063a1,1,0,0,1,.755.313l1.82,1.916a1.007,1.007,0,0,1,.274.77l-.189,2.47,1.767.785,1.707-1.8a1.006,1.006,0,0,1,.73-.313h.025l2.642.067a1.007,1.007,0,0,1,.738.351l1.613,1.881,1.8-.694-.063-2.477a1.007,1.007,0,0,1,.313-.755l1.916-1.82a1,1,0,0,1,.77-.274l2.47.189.785-1.767-1.8-1.707a1.007,1.007,0,0,1-.313-.755Zm-6.749,5.127a7.132,7.132,0,1,1,3.987-3.772,7.164,7.164,0,0,1-3.987,3.772Z" transform="translate(-9.426 -4.652)"/>
      </g>
    </g>
    <path id="Path_14345" data-name="Path 14345" class="cls-3" d="M7360.228,12276.091v-15.344h24.8l7.222,7.222h12.951v8.434Z" transform="translate(-7356.262 -12240.894)"/>
  </g>
</svg>
