<svg xmlns="http://www.w3.org/2000/svg" xmlns:xlink="http://www.w3.org/1999/xlink" width="50" height="50" viewBox="0 0 50 50">
  <defs>
    <style>
      .cls-1 {
        fill: #6d7c94;
      }

      .cls-2 {
        clip-path: url(#clip-path);
      }
    </style>
    <clipPath id="clip-path">
      <rect id="Rectangle_3573" data-name="Rectangle 3573" class="cls-1" width="50" height="50" transform="translate(573 105)"/>
    </clipPath>
  </defs>
  <g id="Mask_Group_153" data-name="Mask Group 153" class="cls-2" transform="translate(-573 -105)">
    <g id="Layer_2" data-name="Layer 2" transform="translate(573.004 105.019)">
      <g id="Layer_1" data-name="Layer 1">
        <path id="Path_14463" data-name="Path 14463" class="cls-1" d="M25.014,37.453A12.491,12.491,0,1,1,37.5,49.963a12.491,12.491,0,0,1-12.487-12.51Zm3.632,1.235c.047.182.087.3.109.419a8.893,8.893,0,0,0,12.51,6.446,8.728,8.728,0,0,0,3.615-3.073.843.843,0,0,0-.066-1.145.8.8,0,0,0-1.046-.165,1.816,1.816,0,0,0-.5.514,7.124,7.124,0,0,1-10.393,1.2,6.952,6.952,0,0,1-2.327-3.9c.7.362,1.15.318,1.45-.1.279-.4.19-.858-.286-1.338-.5-.507-1-1.017-1.517-1.513a.9.9,0,0,0-1.419-.01q-.825.8-1.626,1.626a.881.881,0,0,0-.089,1.3.914.914,0,0,0,1.344-.043c.064-.054.127-.113.249-.218Zm15.823-2.753c-.1-.038-.148-.05-.187-.068a.894.894,0,0,0-1.062,1.439c.535.548,1.08,1.087,1.623,1.627a.814.814,0,0,0,1.175.14,25.768,25.768,0,0,0,2-1.988.81.81,0,0,0-.095-1.136.9.9,0,0,0-1.15-.071c-.14.1-.256.217-.4.337a1.184,1.184,0,0,1-.08-.173c-.024-.084-.036-.17-.054-.256A8.585,8.585,0,0,0,39.5,28.8a8.558,8.558,0,0,0-9.124,3.3c-.574.714-.574,1.219-.087,1.591s.978.194,1.5-.514a7.142,7.142,0,0,1,12.679,2.752Z"/>
        <path id="Path_14464" data-name="Path 14464" class="cls-1" d="M.029,8.569C3.141,10.711,6.614,11.48,10.157,12a47.238,47.238,0,0,0,12.085.2,28.587,28.587,0,0,0,9.991-2.6c.559-.279,1.074-.63,1.666-.978.01.2.025.384.025.559,0,2.159-.021,4.319.014,6.478a2.453,2.453,0,0,1-.873,1.975,9.966,9.966,0,0,1-3.213,1.8,31.4,31.4,0,0,1-8.192,1.746A47.138,47.138,0,0,1,9.994,20.9a23.794,23.794,0,0,1-7.48-2.173,10.044,10.044,0,0,1-1.07-.648A2.954,2.954,0,0,1,0,15.321c.1-2.052.029-4.109.029-6.164ZM4.5,14.737c-.043-.095-.08-.376-.222-.45A7.3,7.3,0,0,0,2.629,13.6a.656.656,0,0,0-.754.637,1.2,1.2,0,0,0,.327.9,3.511,3.511,0,0,0,1.275.559c.524.13,1.008-.313,1.017-.957Zm2.83.3a.905.905,0,0,0-1.035.668.838.838,0,0,0,.567,1.031,6.576,6.576,0,0,0,1.117.254.884.884,0,0,0,.4-1.7,10.363,10.363,0,0,0-1.057-.249Z"/>
        <path id="Path_14465" data-name="Path 14465" class="cls-1" d="M18.194,10.7c-5.076,0-9.428-.317-13.62-1.729a13.623,13.623,0,0,1-3.09-1.483C-.471,6.2-.454,4.552,1.472,3.2A14.969,14.969,0,0,1,6.92,1.052,46.426,46.426,0,0,1,19.33.057a39.262,39.262,0,0,1,9.272,1.4,12.986,12.986,0,0,1,3.8,1.676c2.032,1.4,2.042,3.041,0,4.432A15.108,15.108,0,0,1,26.782,9.7q-2.3.469-4.637.732C20.59,10.6,19.058,10.642,18.194,10.7Z"/>
        <path id="Path_14466" data-name="Path 14466" class="cls-1" d="M33.925,19.341c0,1.384.011,2.736-.018,4.087,0,.126-.24.31-.4.358a14.222,14.222,0,0,0-5.04,2.668,13.494,13.494,0,0,0-3.59,4.433,1.2,1.2,0,0,1-1.048.744,45.779,45.779,0,0,1-17.576-.8,14.624,14.624,0,0,1-4.56-1.887A4.841,4.841,0,0,1,.529,27.916,2.263,2.263,0,0,1,.052,26.69C.007,24.3.029,21.917.031,19.53c0-.061.014-.124.029-.256A15.791,15.791,0,0,0,4.978,21.6a38.634,38.634,0,0,0,8.628,1.475A46.4,46.4,0,0,0,26.9,22.15,18.4,18.4,0,0,0,33.729,19.4a.87.87,0,0,1,.2-.061Z"/>
        <path id="Path_14467" data-name="Path 14467" class="cls-1" d="M23.632,33.449a36.98,36.98,0,0,0-.358,4.435,38.69,38.69,0,0,0,.626,4.439c-.735.091-1.6.223-2.475.3a43.851,43.851,0,0,1-14.573-.94,34.344,34.344,0,0,1-4.54-1.661A5.648,5.648,0,0,1,.9,39.051a2.375,2.375,0,0,1-.884-1.974c.031-2.333.011-4.667.011-7.012.061,0,.12-.02.151,0A20.35,20.35,0,0,0,8.421,33.13a48.534,48.534,0,0,0,13.626.514c.536-.05,1.07-.124,1.606-.184C23.685,33.457,23.717,33.486,23.632,33.449Z"/>
      </g>
    </g>
  </g>
</svg>
