<svg id="security-camera" xmlns="http://www.w3.org/2000/svg" width="71.382" height="60.717" viewBox="0 0 71.382 60.717">
  <path id="Path_14398" data-name="Path 14398" d="M.487,35.406l43.5-25.113a5.444,5.444,0,0,1,7.425,1.989l5.008,8.674,3.334,5.774a5.445,5.445,0,0,1-1.991,7.428l-14.914,8.61,2.319,3.955a3.5,3.5,0,0,0,3.007,1.723h8.708V41.809a.976.976,0,0,1,.976-.976h5.3V39.573a4.327,4.327,0,0,1,4.322-4.322h2.928a.975.975,0,0,1,.976.976v33.08a.975.975,0,0,1-.976.976H67.478a4.327,4.327,0,0,1-4.322-4.322v-3.1h-5.3a.976.976,0,0,1-.976-.976v-4.8H48.175A12.176,12.176,0,0,1,37.711,51.1L35.362,47.09l-8.175,4.72a5.409,5.409,0,0,1-2.709.731,5.465,5.465,0,0,1-1.417-.187A5.4,5.4,0,0,1,20.7,51.021a8.13,8.13,0,0,1-3.412.755,8.261,8.261,0,0,1-2.139-.283A8.15,8.15,0,0,1,10.7,48.481l-2,1.154a.975.975,0,0,1-1.333-.357L.132,36.74A.977.977,0,0,1,.487,35.406ZM65.108,65.961a2.372,2.372,0,0,0,2.37,2.37H69.43V37.2H67.478a2.372,2.372,0,0,0-2.37,2.37Zm-6.274-5.052h4.322V42.785H58.834ZM39.4,50.109a10.216,10.216,0,0,0,8.779,5.029h8.708V50.4H48.175a5.459,5.459,0,0,1-4.691-2.687l-2.328-3.966-4.106,2.37ZM26.21,50.12,56.786,32.467a3.489,3.489,0,0,0,1.276-4.761l-2.844-4.928L27.2,38.956l-8.591,4.96,2.845,4.93,0,.006a3.444,3.444,0,0,0,.246.362v0A3.489,3.489,0,0,0,26.21,50.12Zm-10.561-.513a6.221,6.221,0,0,0,3.869-.2L16.912,44.89,12.4,47.5a6.221,6.221,0,0,0,3.252,2.111Zm-7.08-2.153,6.311-3.644,1.9-1.1,21.547-12.44,15.909-9.185-4.52-7.829a3.489,3.489,0,0,0-4.761-1.275L2.308,36.609Z" transform="translate(0 -9.567)" fill="#4da9e4"/>
  <path id="Path_14399" data-name="Path 14399" d="M107.419,62.438a3.73,3.73,0,0,1-1.871.5,3.756,3.756,0,1,1,1.871-.5Zm-.317-4.151a1.791,1.791,0,0,0-1.094-.837,1.8,1.8,0,1,0,1.093.839Z" transform="translate(-94.68 -29.855)" fill="#4da9e4"/>
  <path id="Path_14400" data-name="Path 14400" d="M28.989,46.5l8-4.618a.976.976,0,1,1,.976,1.69l-8,4.618a.976.976,0,0,1-.974-1.69Z" transform="translate(17.018 -23.804)" fill="#4da9e4"/>
</svg>
