<svg xmlns="http://www.w3.org/2000/svg" width="18" height="18" viewBox="0 0 18 18"><path d="M17.25,16.5h-15a.75.75,0,0,1-.75-.75V.75A.75.75,0,1,0,0,.75v15A2.25,2.25,0,0,0,2.25,18h15a.75.75,0,0,0,0-1.5Z" fill="#4da9e4"/><path d="M14.75,17.75A.75.75,0,0,0,15.5,17V11.75a.75.75,0,0,0-1.5,0V17A.75.75,0,0,0,14.75,17.75Z" transform="translate(-3.5 -2.75)" fill="#4da9e4"/><path d="M6.75,17.75A.75.75,0,0,0,7.5,17V11.75a.75.75,0,0,0-1.5,0V17A.75.75,0,0,0,6.75,17.75Z" transform="translate(-1.5 -2.75)" fill="#4da9e4"/><path d="M18.75,16.5a.75.75,0,0,0,.75-.75v-9a.75.75,0,0,0-1.5,0v9A.75.75,0,0,0,18.75,16.5Z" transform="translate(-4.5 -1.5)" fill="#4da9e4"/><path d="M10.75,16.5a.75.75,0,0,0,.75-.75v-9a.75.75,0,0,0-1.5,0v9A.75.75,0,0,0,10.75,16.5Z" transform="translate(-2.5 -1.5)" fill="#4da9e4"/></svg>