<svg xmlns="http://www.w3.org/2000/svg" xmlns:xlink="http://www.w3.org/1999/xlink" width="44" height="44" viewBox="0 0 44 44">
  <defs>
    <clipPath id="clip-path">
      <rect id="Rectangle_3078" data-name="Rectangle 3078" width="44" height="44" transform="translate(1619 719)" fill="#4da9e4" stroke="#707070" stroke-width="1"/>
    </clipPath>
  </defs>
  <g id="Mask_Group_96" data-name="Mask Group 96" transform="translate(-1619 -719)" clip-path="url(#clip-path)">
    <g id="male-telemarketer" transform="translate(1619 719)">
      <path id="Path_14121" data-name="Path 14121" d="M13.53,19.6c2.015,4.447,6.329,6.382,8.47,6.382a9.6,9.6,0,0,0,5.77-2.675q-1.105.077-2.366.077c-.2,0-.4,0-.626-.005a2.455,2.455,0,0,1-1.5.511H21.49a2.451,2.451,0,1,1,0-4.9h1.793a2.442,2.442,0,0,1,1.7.688l.441,0a19.9,19.9,0,0,0,4.839-.468,2.677,2.677,0,0,1-.2-1.02V11.98a2.672,2.672,0,0,1,.655-1.745A10.066,10.066,0,0,0,29.5,6.226c-1.236-2-3.618-2.931-7.5-2.931-3.218,0-5.441.668-6.794,2.042a8,8,0,0,0-1.941,4.881,2.668,2.668,0,0,1,.669,1.762v6.214A2.645,2.645,0,0,1,13.53,19.6Z" fill="#4da9e4"/>
      <path id="Path_14122" data-name="Path 14122" d="M9.121,19.661h2.151a1.467,1.467,0,0,0,1.467-1.467V11.98a1.465,1.465,0,0,0-.73-1.267C12.489,5.625,14.453,2.1,22,2.1c4.334,0,7.04,1.112,8.514,3.5a12.082,12.082,0,0,1,1.464,5.123,1.464,1.464,0,0,0-.717,1.259v6.214a1.467,1.467,0,0,0,1.143,1.43c-.948.62-2.912,1.254-6.977,1.254q-.494,0-1.03-.013a1.255,1.255,0,0,0-1.114-.678H21.49a1.255,1.255,0,0,0,0,2.511h1.793a1.252,1.252,0,0,0,1.017-.521c.378.01.747.016,1.1.016,4.582,0,7.5-.782,8.675-2.334q.075-.1.138-.2h.663a1.467,1.467,0,0,0,1.467-1.467V11.98a1.467,1.467,0,0,0-1.467-1.467H34.07A13.747,13.747,0,0,0,32.3,4.494C30.432,1.47,27.062,0,22,0S13.568,1.47,11.7,4.494a13.749,13.749,0,0,0-1.77,6.019H9.121A1.467,1.467,0,0,0,7.654,11.98v6.214A1.467,1.467,0,0,0,9.121,19.661Z" fill="#4da9e4"/>
      <path id="Path_14123" data-name="Path 14123" d="M39.735,37.934c-.488-3.033-1.492-6.939-3.506-8.327-1.373-.947-6.167-3.508-8.214-4.6l-.043-.023a.67.67,0,0,0-.729.064,8.7,8.7,0,0,1-3.494,1.688.67.67,0,0,0-.481.416L22,30.492l-1.268-3.343a.669.669,0,0,0-.481-.416,8.706,8.706,0,0,1-3.495-1.688.669.669,0,0,0-.729-.064C14,26.063,9.147,28.678,7.776,29.6c-2.319,1.562-3.332,7.214-3.511,8.331a.67.67,0,0,0,.03.33C4.378,38.5,6.5,44,22,44s17.622-5.5,17.705-5.736A.67.67,0,0,0,39.735,37.934ZM32.52,34.451H26.383V33.159H32.52Z" fill="#4da9e4"/>
    </g>
  </g>
</svg>
