<svg xmlns="http://www.w3.org/2000/svg" xmlns:xlink="http://www.w3.org/1999/xlink" width="50" height="50" viewBox="0 0 50 50">
  <defs>
    <style>
      .cls-1 {
        fill: #6d7c94;
      }

      .cls-2 {
        clip-path: url(#clip-path);
      }
    </style>
    <clipPath id="clip-path">
      <rect id="Rectangle_3577" data-name="Rectangle 3577" class="cls-1" width="50" height="50" transform="translate(840 321)"/>
    </clipPath>
  </defs>
  <g id="Mask_Group_156" data-name="Mask Group 156" class="cls-2" transform="translate(-840 -321)">
    <g id="Layer_2" data-name="Layer 2" transform="translate(840.607 321)">
      <path id="Subtraction_1" data-name="Subtraction 1" class="cls-1" d="M-11685.85-278.515h-5.932a1.93,1.93,0,0,1-2.086-1.854c-.094-.68-.2-1.371-.293-2.039l-.018-.117-.014-.092c-.1-.688-.205-1.4-.3-2.1a.559.559,0,0,0-.326-.467c-.358-.2-.718-.407-1.065-.609l-.019-.01c-.376-.219-.763-.444-1.149-.656a.754.754,0,0,0-.333-.078.711.711,0,0,0-.22.034c-.94.362-1.891.743-2.811,1.111l-.031.012-.026.011-1.257.5a2.64,2.64,0,0,1-.964.207,1.887,1.887,0,0,1-1.651-1.091c-1.238-2.121-2.518-4.329-3.909-6.75a1.936,1.936,0,0,1,.544-2.742l.271-.211.712-.556.15-.117c.756-.59,1.537-1.2,2.309-1.793a.611.611,0,0,0,.271-.588c-.022-.792-.022-1.619,0-2.527a.584.584,0,0,0-.256-.552c-.68-.524-1.368-1.061-2.034-1.581l-.129-.1-.047-.037-1.2-.935a1.946,1.946,0,0,1-.569-2.833c1.307-2.255,2.531-4.362,3.852-6.629a1.953,1.953,0,0,1,1.7-1.136,2.65,2.65,0,0,1,.97.208l.771.306.007,0c1.086.431,2.209.876,3.3,1.328a.6.6,0,0,0,.262.061.6.6,0,0,0,.347-.111c.8-.492,1.515-.907,2.181-1.269a.6.6,0,0,0,.35-.5l.032-.238c.15-1.1.321-2.337.512-3.535a7.12,7.12,0,0,1,.364-1.475,1.843,1.843,0,0,1,1.12-.894l.09-.04h8.978a2.136,2.136,0,0,1,1.52,1.951c.1.881.232,1.774.364,2.637l0,.025.009.055c.075.5.153,1.007.223,1.511a.6.6,0,0,0,.35.5c.716.388,1.452.814,2.189,1.267a.592.592,0,0,0,.349.114.588.588,0,0,0,.259-.061c1.339-.55,2.708-1.094,4.032-1.621l.085-.033a2.581,2.581,0,0,1,.938-.2,1.911,1.911,0,0,1,1.671,1.106c1.383,2.373,2.69,4.631,3.888,6.712a1.941,1.941,0,0,1-.553,2.774l-.705.55-.126.1c-.885.691-1.75,1.367-2.612,2.028a.593.593,0,0,0-.256.552c.015.595.02,1.141.015,1.671a14.189,14.189,0,0,0-1.963-.137,14.066,14.066,0,0,0-3.174.362c.016-.236.023-.483.023-.735a11.029,11.029,0,0,0-11.017-11.017,11.029,11.029,0,0,0-11.017,11.017,11.029,11.029,0,0,0,11.017,11.017c.19,0,.385,0,.576-.015a14.091,14.091,0,0,0-.408,3.371,14,14,0,0,0,1.863,6.983Z" transform="translate(11708.607 321)"/>
      <path id="Subtraction_2" data-name="Subtraction 2" class="cls-1" d="M-11696.107-296a12.422,12.422,0,0,1-8.839-3.661,12.423,12.423,0,0,1-3.661-8.84,12.419,12.419,0,0,1,3.661-8.837,12.422,12.422,0,0,1,8.839-3.66,12.423,12.423,0,0,1,8.84,3.66,12.419,12.419,0,0,1,3.661,8.837,12.423,12.423,0,0,1-3.661,8.84A12.422,12.422,0,0,1-11696.107-296Zm-1.5-14a1,1,0,0,0-1,1,1,1,0,0,0,1,1h1v6a1,1,0,0,0,1,1,1,1,0,0,0,1-1v-6a2,2,0,0,0-2-2Zm1-5a1.5,1.5,0,0,0-1.5,1.5,1.5,1.5,0,0,0,1.5,1.5,1.5,1.5,0,0,0,1.5-1.5A1.5,1.5,0,0,0-11696.606-315Z" transform="translate(11731 344)"/>
    </g>
  </g>
</svg>
