<svg xmlns="http://www.w3.org/2000/svg" xmlns:xlink="http://www.w3.org/1999/xlink" width="45" height="45" viewBox="0 0 45 45">
  <defs>
    <clipPath id="clip-path">
      <rect id="Rectangle_3509" data-name="Rectangle 3509" width="45" height="45" transform="translate(232 197)" fill="#6ab4e3" stroke="#707070" stroke-width="1"/>
    </clipPath>
  </defs>
  <g id="Mask_Group_143" data-name="Mask Group 143" transform="translate(-232 -197)" clip-path="url(#clip-path)">
    <g id="Layer_2" data-name="Layer 2" transform="translate(241.231 197)">
      <g id="Layer_1" data-name="Layer 1">
        <path id="Path_14417" data-name="Path 14417" d="M9.668,45c-.849-.2-1.719-.341-2.544-.615A10.606,10.606,0,0,1,3.83,26.217a.781.781,0,0,0,.264-.693V6.774A6.507,6.507,0,0,1,7.207.98a6.064,6.064,0,0,1,2.4-.9A1.459,1.459,0,0,0,9.844,0h1.494c.327.074.657.136.979.224a6.513,6.513,0,0,1,4.845,6.4c.016,2.958,0,5.915,0,8.877q0,5.03-.006,10.059a.85.85,0,0,0,.325.7c3.35,3.032,4.58,6.782,3.3,11.112-1.248,4.251-4.261,6.721-8.629,7.521L11.6,45Zm4.86-28.606h-.011c0-3.355.051-6.71-.016-10.063A3.853,3.853,0,0,0,8.964,3.02,3.9,3.9,0,0,0,6.721,6.832c.009,6.489,0,12.978.012,19.467a1.828,1.828,0,0,1-.813,1.634A7.974,7.974,0,0,0,11.95,42.24,7.729,7.729,0,0,0,18.4,36.176a7.85,7.85,0,0,0-3.07-8.262,1.786,1.786,0,0,1-.806-1.593c.017-3.306.007-6.617.007-9.927Z" fill="#6ab4e3"/>
        <path id="Path_14418" data-name="Path 14418" d="M23.141,7.86c-.63,0-1.259.008-1.889,0a1.323,1.323,0,1,1,.021-2.634q1.912-.012,3.821,0a1.34,1.34,0,0,1,1.442,1.327,1.326,1.326,0,0,1-1.419,1.3C24.458,7.87,23.8,7.86,23.141,7.86Z" fill="#6ab4e3"/>
        <path id="Path_14419" data-name="Path 14419" d="M23.138,13.133c-.644,0-1.288.011-1.934,0a1.315,1.315,0,1,1-.018-2.627q1.977-.025,3.955,0a1.318,1.318,0,1,1-.026,2.629C24.456,13.142,23.8,13.133,23.138,13.133Z" fill="#6ab4e3"/>
        <path id="Path_14420" data-name="Path 14420" d="M23.14,18.407c-.644,0-1.288.01-1.934,0a1.316,1.316,0,1,1-.021-2.627q2-.027,4,0A1.313,1.313,0,1,1,25.16,18.4C24.487,18.418,23.818,18.406,23.14,18.407Z" fill="#6ab4e3"/>
        <path id="Path_14421" data-name="Path 14421" d="M23.161,23.68c-.644,0-1.288.008-1.934,0a1.317,1.317,0,1,1-.02-2.628q1.955-.026,3.91,0a1.32,1.32,0,1,1-.025,2.631H23.159Z" fill="#6ab4e3"/>
        <path id="Path_14422" data-name="Path 14422" d="M9.316,29.166V12.1a2.717,2.717,0,0,1,.04-.611,1.328,1.328,0,0,1,1.366-1.008,1.347,1.347,0,0,1,1.223,1.23c.014.16.006.322.006.483V29.143a5.376,5.376,0,0,1-1.218,10.582,5.361,5.361,0,0,1-5.324-4.186,5.159,5.159,0,0,1,.664-3.966A5.428,5.428,0,0,1,9.316,29.166Zm1.329,7.924A2.719,2.719,0,1,0,7.915,34.4,2.719,2.719,0,0,0,10.645,37.09Z" fill="#6ab4e3"/>
      </g>
    </g>
  </g>
</svg>
