<svg xmlns="http://www.w3.org/2000/svg" width="12.903" height="15.484" viewBox="0 0 12.903 15.484"><g transform="translate(0)"><path d="M14.258,2.581h-2A3.232,3.232,0,0,0,9.1,0H7.806A3.232,3.232,0,0,0,4.645,2.581h-2a.645.645,0,1,0,0,1.29H3.29v8.387a3.23,3.23,0,0,0,3.226,3.226h3.871a3.23,3.23,0,0,0,3.226-3.226V3.871h.645a.645.645,0,0,0,0-1.29ZM7.806,1.29H9.1a1.939,1.939,0,0,1,1.825,1.29H5.981A1.939,1.939,0,0,1,7.806,1.29Zm4.516,10.968a1.935,1.935,0,0,1-1.935,1.935H6.516a1.935,1.935,0,0,1-1.935-1.935V3.871h7.742Z" transform="translate(-2)" fill="#8a8a8a"/><path d="M9.645,15.161a.645.645,0,0,0,.645-.645V10.645a.645.645,0,1,0-1.29,0v3.871A.645.645,0,0,0,9.645,15.161Z" transform="translate(-4.484 -3.548)" fill="#8a8a8a"/><path d="M13.645,15.161a.645.645,0,0,0,.645-.645V10.645a.645.645,0,1,0-1.29,0v3.871A.645.645,0,0,0,13.645,15.161Z" transform="translate(-5.903 -3.548)" fill="#8a8a8a"/></g></svg>