<svg xmlns="http://www.w3.org/2000/svg" xmlns:xlink="http://www.w3.org/1999/xlink" width="50" height="50" viewBox="0 0 50 50">
  <defs>
    <style>
      .cls-1 {
        fill: #6d7c94;
      }

      .cls-2 {
        clip-path: url(#clip-path);
      }
    </style>
    <clipPath id="clip-path">
      <rect id="Rectangle_3574" data-name="Rectangle 3574" class="cls-1" width="50" height="50" transform="translate(840 105)"/>
    </clipPath>
  </defs>
  <g id="Mask_Group_155" data-name="Mask Group 155" class="cls-2" transform="translate(-840 -105)">
    <g id="Layer_2" data-name="Layer 2" transform="translate(840.004 105.021)">
      <g id="Layer_1" data-name="Layer 1">
        <path id="Path_14475" data-name="Path 14475" class="cls-1" d="M25.013,37.441A12.492,12.492,0,1,1,37.491,49.957,12.491,12.491,0,0,1,25.013,37.441Zm15.165-.575c1.387.743,2.128.633,3.188-.426.159-.161.323-.317.479-.482a2.074,2.074,0,0,0-.008-3.072q-2.169-2.194-4.361-4.36a2.685,2.685,0,0,0-3.924-.013c-1.479,1.451-2.951,2.906-4.389,4.4a2.452,2.452,0,0,0-.613,1.17c-.309,1.572,1.722,3.534,3.289,3.212a6.2,6.2,0,0,0,1-.4v8.52a1.736,1.736,0,0,0,1.815,1.854c.61.013,1.22.017,1.829-.007a1.732,1.732,0,0,0,1.656-1.41,3.63,3.63,0,0,0,.035-.676C40.178,42.419,40.178,39.668,40.178,36.865Z"/>
        <path id="Path_14476" data-name="Path 14476" class="cls-1" d="M33.933,8.658v.535c0,2.159-.022,4.319.013,6.478a2.451,2.451,0,0,1-.876,1.973,9.992,9.992,0,0,1-3.212,1.8,31.468,31.468,0,0,1-8.193,1.746A47.151,47.151,0,0,1,10,20.9a23.836,23.836,0,0,1-7.485-2.178,10.054,10.054,0,0,1-1.07-.649A2.951,2.951,0,0,1,0,15.316c.095-2.05.029-4.108.029-6.164v-.44c1.191.574,2.345,1.213,3.558,1.7a29.826,29.826,0,0,0,7.3,1.7,47.148,47.148,0,0,0,8.437.32A34.508,34.508,0,0,0,31.389,10.01C32.243,9.635,33.039,9.133,33.933,8.658Zm-31,4.911c-.6,0-.958.187-1.017.581a1.136,1.136,0,0,0,.219.92,3.573,3.573,0,0,0,1.462.612.986.986,0,0,0,.788-.5.99.99,0,0,0-.154-.923,6.608,6.608,0,0,0-1.311-.69Zm4.395,1.472a.9.9,0,0,0-1.028.676.838.838,0,0,0,.577,1.026,6.435,6.435,0,0,0,1.117.251.883.883,0,0,0,.391-1.706,10.631,10.631,0,0,0-1.07-.25Z"/>
        <path id="Path_14477" data-name="Path 14477" class="cls-1" d="M16.179,10.691a40.1,40.1,0,0,1-10.973-1.5,12.526,12.526,0,0,1-3.7-1.663C-.445,6.161-.469,4.561,1.479,3.2A14.9,14.9,0,0,1,6.932,1.05,46.383,46.383,0,0,1,19.338.059a39.263,39.263,0,0,1,9.271,1.4,12.938,12.938,0,0,1,3.805,1.676c2.026,1.4,2.032,3.043-.01,4.432A15.946,15.946,0,0,1,26.78,9.706,47.025,47.025,0,0,1,16.179,10.691Z"/>
        <path id="Path_14478" data-name="Path 14478" class="cls-1" d="M.036,19.28c3.058,2.095,6.47,2.871,9.963,3.4a46.287,46.287,0,0,0,10.109.408,33.475,33.475,0,0,0,11.328-2.4c.838-.367,1.62-.857,2.49-1.325V21.1c0,.732-.01,1.463,0,2.2a.414.414,0,0,1-.35.473,14.216,14.216,0,0,0-8.9,7.454.658.658,0,0,1-.419.318,46.886,46.886,0,0,1-10.1.487A33.6,33.6,0,0,1,5.52,30.6a30.039,30.039,0,0,1-3.811-1.659A3.855,3.855,0,0,1,.532,27.932a1.921,1.921,0,0,1-.473-1.064C.017,24.363.036,21.858.036,19.28Z"/>
        <path id="Path_14479" data-name="Path 14479" class="cls-1" d="M24.094,42.311c-1.363.14-2.653.314-3.949.394A43.7,43.7,0,0,1,6.062,41.479a14.3,14.3,0,0,1-4.357-1.831,5.12,5.12,0,0,1-1.2-1.065A2.134,2.134,0,0,1,.05,37.4C.008,35,.029,32.6.032,30.195a.662.662,0,0,1,.025-.14c.792.431,1.554.908,2.366,1.279a28.089,28.089,0,0,0,7.832,2.095,50.131,50.131,0,0,0,11.823.208c.55-.053,1.1-.14,1.727-.209A14.268,14.268,0,0,0,24.094,42.311Z"/>
        <path id="Path_14480" data-name="Path 14480" class="cls-1" d="M36.615,45.452V34.881a1.024,1.024,0,0,0-.448-.991.871.871,0,0,0-1.141.175c-.419.419-.85.824-1.257,1.257-.267.279-.471.264-.735-.01-1.008-1.049-1.007-.758-.008-1.764q1.825-1.835,3.661-3.657c.6-.6,1.018-.6,1.607-.018,1.385,1.375,2.757,2.764,4.147,4.132.3.293.344.507.022.816-1.028.989-.758.943-1.7.032-.25-.243-.494-.492-.743-.736a.9.9,0,0,0-1.084-.27.944.944,0,0,0-.559.977q.008,5.016,0,10.035v.6Z"/>
      </g>
    </g>
  </g>
</svg>
