<svg xmlns="http://www.w3.org/2000/svg" xmlns:xlink="http://www.w3.org/1999/xlink" width="45" height="45" viewBox="0 0 45 45">
  <defs>
    <clipPath id="clip-path">
      <rect id="Rectangle_3532" data-name="Rectangle 3532" width="45" height="45" transform="translate(232 841)" fill="#6ab4e3" stroke="#707070" stroke-width="1"/>
    </clipPath>
  </defs>
  <g id="Mask_Group_135" data-name="Mask Group 135" transform="translate(-232 -841)" clip-path="url(#clip-path)">
    <g id="fi-rr-cloud-upload" transform="translate(232.002 840.167)">
      <path id="Path_14411" data-name="Path 14411" d="M34.5,13.829a2.117,2.117,0,0,1-1.44-1.414h0A15,15,0,1,0,4.747,22.237a1.957,1.957,0,0,1-.581,2.325A10.312,10.312,0,0,0,.1,34.311a10.545,10.545,0,0,0,10.552,8.812h9.969A1.875,1.875,0,0,0,22.5,41.248h0a1.875,1.875,0,0,0-1.875-1.875H10.655a6.778,6.778,0,0,1-6.838-5.589A6.483,6.483,0,0,1,6.4,27.561,5.666,5.666,0,0,0,8.25,20.883a11.473,11.473,0,0,1-.139-7.736,11.178,11.178,0,0,1,9.167-7.436,11.839,11.839,0,0,1,1.447-.086,11.221,11.221,0,0,1,10.794,8.027,5.582,5.582,0,0,0,3.769,3.731,11.128,11.128,0,0,1,1.461,20.8,1.832,1.832,0,0,0-1,1.665h0a1.854,1.854,0,0,0,2.6,1.717c7.753-3.727,11.964-13.529,5.4-23A13.014,13.014,0,0,0,34.5,13.829Z" fill="#6ab4e3"/>
      <path id="Path_14412" data-name="Path 14412" d="M35.078,28.669l-5.625-5.625a1.875,1.875,0,0,0-2.651,0l-5.625,5.625a1.875,1.875,0,1,0,2.651,2.653L26.249,28.9V43.123a1.875,1.875,0,0,0,3.75,0V28.9l2.437,2.424a1.875,1.875,0,1,0,2.651-2.653Z" fill="#6ab4e3"/>
    </g>
  </g>
</svg>
