<svg xmlns="http://www.w3.org/2000/svg" xmlns:xlink="http://www.w3.org/1999/xlink" width="45" height="45" viewBox="0 0 45 45">
  <defs>
    <clipPath id="clip-path">
      <rect id="Rectangle_3530" data-name="Rectangle 3530" width="45" height="45" transform="translate(656 669)" fill="#6ab4e3" stroke="#707070" stroke-width="1"/>
    </clipPath>
  </defs>
  <g id="Mask_Group_142" data-name="Mask Group 142" transform="translate(-656 -669)" clip-path="url(#clip-path)">
    <path id="fi-rr-globe" d="M22.5,0A22.5,22.5,0,1,0,45,22.5,22.5,22.5,0,0,0,22.5,0ZM38.713,13.125H32.674a36.893,36.893,0,0,0-5.289-8.707,18.808,18.808,0,0,1,11.329,8.708ZM30.938,22.5a19.146,19.146,0,0,1-.892,5.625H14.955a19.146,19.146,0,0,1-.892-5.625,19.146,19.146,0,0,1,.892-5.625h15.09a19.146,19.146,0,0,1,.892,5.625ZM16.459,31.875H28.541a36.776,36.776,0,0,1-6.041,8.6,36.694,36.694,0,0,1-6.041-8.6Zm0-18.75a36.776,36.776,0,0,1,6.041-8.6,36.694,36.694,0,0,1,6.041,8.6Zm1.166-8.707a36.893,36.893,0,0,0-5.3,8.707H6.287A18.808,18.808,0,0,1,17.625,4.417ZM4.614,16.875h6.448a22.53,22.53,0,0,0-.75,5.625,22.53,22.53,0,0,0,.75,5.625H4.614a18.735,18.735,0,0,1,0-11.25Zm1.672,15h6.039a36.892,36.892,0,0,0,5.3,8.708A18.808,18.808,0,0,1,6.287,31.875Zm21.1,8.708a36.893,36.893,0,0,0,5.289-8.708h6.039a18.808,18.808,0,0,1-11.329,8.708Zm13-12.458H33.938a22.53,22.53,0,0,0,.75-5.625,22.53,22.53,0,0,0-.75-5.625h6.444a18.735,18.735,0,0,1,0,11.25Z" transform="translate(656 669)" fill="#6ab4e3"/>
  </g>
</svg>
