<svg xmlns="http://www.w3.org/2000/svg" xmlns:xlink="http://www.w3.org/1999/xlink" width="269" height="98" viewBox="0 0 269 98">
  <defs>
    <filter id="Path_23015">
      <feOffset dy="10" input="SourceAlpha"/>
      <feGaussianBlur stdDeviation="10" result="blur"/>
      <feFlood flood-opacity="0.161" result="color"/>
      <feComposite operator="out" in="SourceGraphic" in2="blur"/>
      <feComposite operator="in" in="color"/>
      <feComposite operator="in" in2="SourceGraphic"/>
    </filter>
    <filter id="Path_23016">
      <feOffset dy="10" input="SourceAlpha"/>
      <feGaussianBlur stdDeviation="10" result="blur-2"/>
      <feFlood flood-opacity="0.161" result="color-2"/>
      <feComposite operator="out" in="SourceGraphic" in2="blur-2"/>
      <feComposite operator="in" in="color-2"/>
      <feComposite operator="in" in2="SourceGraphic"/>
    </filter>
  </defs>
  <g id="Group_8145" data-name="Group 8145" transform="translate(-1618)">
    <rect id="Rectangle_4324" data-name="Rectangle 4324" width="269" height="98" transform="translate(1618)" fill="#fff"/>
    <g id="Component_6_1" data-name="Component 6 – 1" transform="translate(1641 25)">
      <path id="Path_23822" data-name="Path 23822" d="M-124.95,0a4,4,0,0,1-1.215-.2,1.988,1.988,0,0,1-1.035-.8V-.6a9.06,9.06,0,0,1-.51,3.075,7.531,7.531,0,0,1-1.455,2.49,6.716,6.716,0,0,1-2.325,1.68,7.51,7.51,0,0,1-3.09.615h-1.89a6.656,6.656,0,0,1-5.22-2.07,8.174,8.174,0,0,1-1.86-5.67V-5.85h3.03V-.6a6.878,6.878,0,0,0,.24,1.89,3.693,3.693,0,0,0,.765,1.44,3.438,3.438,0,0,0,1.38.93,5.809,5.809,0,0,0,2.085.33h1.32a5.491,5.491,0,0,0,2.145-.375,3.835,3.835,0,0,0,1.44-1.02,3.872,3.872,0,0,0,.795-1.5,6.687,6.687,0,0,0,.24-1.815V-8.79h3.03v3.57a1.714,1.714,0,0,0,.615,1.44,2.387,2.387,0,0,0,1.515.48h.33q.66,0,.66,1.59,0,1.71-.66,1.71Zm-9.18-9.24h-3.39V-12.3h3.39Zm11.61,5.94a1.751,1.751,0,0,0,2.01-1.95V-8.79h3.09v3.54a1.7,1.7,0,0,0,.645,1.5,2.581,2.581,0,0,0,1.515.45h.78q.69,0,.69,1.59,0,1.71-.69,1.71h-.87a5.489,5.489,0,0,1-2.07-.375,3.474,3.474,0,0,1-1.62-1.515,3.884,3.884,0,0,1-1.62,1.515A4.648,4.648,0,0,1-122.52,0h-2.1a.521.521,0,0,1-.525-.405,3.96,3.96,0,0,1-.135-1.185,4.539,4.539,0,0,1,.135-1.29.524.524,0,0,1,.525-.42Zm6.66,9.6h-3.09V3.36h3.09Zm-4.32,0h-3.09V3.36h3.09Zm7.8-9.6a1.751,1.751,0,0,0,2.01-1.95V-8.79h3.09v3.54a1.7,1.7,0,0,0,.645,1.5,2.581,2.581,0,0,0,1.515.45h.78q.69,0,.69,1.59,0,1.71-.69,1.71h-.87a5.489,5.489,0,0,1-2.07-.375A3.474,3.474,0,0,1-108.9-1.89a3.884,3.884,0,0,1-1.62,1.515A4.648,4.648,0,0,1-112.38,0h-2.1A.521.521,0,0,1-115-.405a3.96,3.96,0,0,1-.135-1.185A4.539,4.539,0,0,1-115-2.88a.524.524,0,0,1,.525-.42Zm4.47,9.72h-3.39V3.36h3.39Zm6-9.72V-5.34a11,11,0,0,1,.225-2.19,5.76,5.76,0,0,1,.795-1.995,4.5,4.5,0,0,1,1.545-1.455,4.848,4.848,0,0,1,2.475-.57,4.851,4.851,0,0,1,1.965.375A4.124,4.124,0,0,1-93.48-10.17a4.29,4.29,0,0,1,.87,1.5,5.667,5.667,0,0,1,.3,1.86,6.013,6.013,0,0,1-.555,2.61,6.578,6.578,0,0,1-1.5,2.04,7.569,7.569,0,0,1-2.175,1.4,8.432,8.432,0,0,1-2.58.645V1.86a2.289,2.289,0,0,0,.4,1.515,1.972,1.972,0,0,0,1.125.615L-95.04.78q1.2-1.47,1.995-2.28a7.68,7.68,0,0,1,1.47-1.215,3.533,3.533,0,0,1,1.365-.5,13.273,13.273,0,0,1,1.68-.09A.521.521,0,0,1-88-2.895,3.96,3.96,0,0,1-87.87-1.71,4.539,4.539,0,0,1-88-.42.524.524,0,0,1-88.53,0a12.768,12.768,0,0,0-1.32.06A2.987,2.987,0,0,0-91,.45,5.966,5.966,0,0,0-92.28,1.485,22.753,22.753,0,0,0-93.96,3.48l-2.88,3.78a6.227,6.227,0,0,1-2.01-.315,4.376,4.376,0,0,1-1.6-.945,4.381,4.381,0,0,1-1.065-1.605,6.161,6.161,0,0,1-.39-2.3V0h-2.43a.521.521,0,0,1-.525-.405A3.96,3.96,0,0,1-105-1.59a4.539,4.539,0,0,1,.135-1.29.524.524,0,0,1,.525-.42Zm2.79.12a6.384,6.384,0,0,0,1.83-.39,4.482,4.482,0,0,0,1.245-.72,2.6,2.6,0,0,0,.72-.93A2.576,2.576,0,0,0-95.1-6.27a2.325,2.325,0,0,0-.48-1.5,1.7,1.7,0,0,0-1.41-.6,1.872,1.872,0,0,0-1.575.72,3.508,3.508,0,0,0-.555,2.16Zm13.35-.12a1.751,1.751,0,0,0,2.01-1.95V-8.79h3.06v3.75a5.143,5.143,0,0,1-1.26,3.765A4.753,4.753,0,0,1-85.5,0h-3.03a.521.521,0,0,1-.525-.405A3.96,3.96,0,0,1-89.19-1.59a4.539,4.539,0,0,1,.135-1.29.524.524,0,0,1,.525-.42Zm1.56,9.72H-87.6V3.36h3.39ZM-68.34-4.23a2.726,2.726,0,0,0,1.77-.5,1.641,1.641,0,0,0,.6-1.335V-8.91h-2.1a2.086,2.086,0,0,0-1.8.735,3.138,3.138,0,0,0-.54,1.905,2.1,2.1,0,0,0,.5,1.56A2.2,2.2,0,0,0-68.34-4.23ZM-63-5.37a2.522,2.522,0,0,0,.405,1.515A1.507,1.507,0,0,0-61.29-3.3h.69a.521.521,0,0,1,.525.405A3.96,3.96,0,0,1-59.94-1.71a4.539,4.539,0,0,1-.135,1.29A.524.524,0,0,1-60.6,0h-.69a4.962,4.962,0,0,1-2.475-.54A3.34,3.34,0,0,1-65.19-2.37a3.288,3.288,0,0,1-1.785,1.065,9.387,9.387,0,0,1-1.995.225,4.162,4.162,0,0,1-3.255-1.245A5.366,5.366,0,0,1-73.35-6.03a7.629,7.629,0,0,1,.315-2.175,6.145,6.145,0,0,1,.93-1.9,4.63,4.63,0,0,1,1.56-1.35,4.573,4.573,0,0,1,2.205-.51h2.37v-2.01H-63Zm5.16,2.07a1.751,1.751,0,0,0,2.01-1.95V-8.79h3.06v3.75a5.143,5.143,0,0,1-1.26,3.765A4.753,4.753,0,0,1-57.57,0H-60.6a.521.521,0,0,1-.525-.405A3.961,3.961,0,0,1-61.26-1.59a4.539,4.539,0,0,1,.135-1.29A.524.524,0,0,1-60.6-3.3Zm4.14-9h-3.39v-3.06h3.39ZM-45.09,0a5.659,5.659,0,0,1-1.6-.225A3.243,3.243,0,0,1-48.03-.99a3.709,3.709,0,0,1-.9-1.425,6.364,6.364,0,0,1-.33-2.205V-18.6h3.06V-5.37a2.394,2.394,0,0,0,.435,1.515A1.556,1.556,0,0,0-44.46-3.3h.69q.66,0,.66,1.59,0,1.71-.66,1.71Zm1.59-3.3a2.709,2.709,0,0,0,1.59-.4,1.524,1.524,0,0,0,.57-1.335V-5.7a6.889,6.889,0,0,1,.345-2.22,4.825,4.825,0,0,1,1-1.74,4.609,4.609,0,0,1,1.605-1.125,5.318,5.318,0,0,1,2.115-.4,5.479,5.479,0,0,1,2.175.4,4.237,4.237,0,0,1,1.575,1.14,5.049,5.049,0,0,1,.96,1.755,7.176,7.176,0,0,1,.33,2.22,5.958,5.958,0,0,1-1.365,4.185A4.785,4.785,0,0,1-36.3,0a5.812,5.812,0,0,1-2.3-.465A3.354,3.354,0,0,1-40.26-1.95,3.043,3.043,0,0,1-41.73-.39,4.43,4.43,0,0,1-43.5,0h-.27a.521.521,0,0,1-.525-.405A3.961,3.961,0,0,1-44.43-1.59a4.539,4.539,0,0,1,.135-1.29.524.524,0,0,1,.525-.42Zm9.33-2.16a2.992,2.992,0,0,0-.465-1.71A1.862,1.862,0,0,0-36.3-7.86a1.892,1.892,0,0,0-1.635.675A2.9,2.9,0,0,0-38.43-5.43a2.088,2.088,0,0,0,.57,1.59,2.176,2.176,0,0,0,1.56.54A1.9,1.9,0,0,0-34.17-5.46ZM-23.55,0a5.659,5.659,0,0,1-1.6-.225A3.243,3.243,0,0,1-26.49-.99a3.709,3.709,0,0,1-.9-1.425,6.364,6.364,0,0,1-.33-2.205V-18.6h3.06V-5.37a2.394,2.394,0,0,0,.435,1.515A1.556,1.556,0,0,0-22.92-3.3h.69q.66,0,.66,1.59,0,1.71-.66,1.71Zm2.64-3.3q2.07,0,2.07-1.95V-8.79h3.03v3.54a1.7,1.7,0,0,0,.645,1.5,2.531,2.531,0,0,0,1.485.45q2.25,0,2.25-1.95V-8.79h3.06v3.54a1.825,1.825,0,0,0,.555,1.5A2.009,2.009,0,0,0-6.51-3.3a1.886,1.886,0,0,0,1.395-.5,1.972,1.972,0,0,0,.5-1.455V-8.79h3.06v3.75A5.106,5.106,0,0,1-2.835-1.275,4.805,4.805,0,0,1-6.39,0,5.166,5.166,0,0,1-8.34-.375,3.474,3.474,0,0,1-9.96-1.89,3.567,3.567,0,0,1-11.655-.375,5.594,5.594,0,0,1-13.68,0a5.605,5.605,0,0,1-2.085-.375A3.456,3.456,0,0,1-17.4-1.89,3.667,3.667,0,0,1-19.02-.375,4.942,4.942,0,0,1-20.94,0h-1.29a.521.521,0,0,1-.525-.405A3.96,3.96,0,0,1-22.89-1.59a4.539,4.539,0,0,1,.135-1.29.524.524,0,0,1,.525-.42Z" transform="translate(143.55 28)" fill="#033453"/>
      <g id="Group_8047" data-name="Group 8047" transform="translate(-1652.45 -27.182)">
        <g data-type="innerShadowGroup">
          <path id="Path_23015-2" data-name="Path 23015" d="M0,41.962H0a.66.66,0,0,1,.089-.33c.063-.155.129-.307.195-.462a16.624,16.624,0,0,1,1.455-2.289c2.576-4.137,5.06-8.356,7.627-12.512,3.144-5.09,6.307-10.226,10.289-14.683S28.518,3.386,34.2,1.509C40.684-.635,47.726-.252,54.3,1.133A117.159,117.159,0,0,1,67.169,4.92c1.039.33,2.477.729,2.157,2.174h0a78.25,78.25,0,0,1-9.174,23.392Q58.5,33.247,56.61,35.869a22.782,22.782,0,0,1-3.559,4.308,1.55,1.55,0,0,1-2.217-.244c-1.155-1.478-2.227-3.045-3.319-4.572a1.57,1.57,0,0,1,.053-1.893c1.768-2.2,6.01-7.709,6.446-8.461A26.458,26.458,0,0,0,57.728,13.5a.426.426,0,0,0-.165-.33,34.574,34.574,0,0,0-13.32-3.893c-5.034-.3-8.946,1.178-13.291,3.451-2.613,1.362-4.876,4.038-6.713,6.291a50.164,50.164,0,0,0-5.628,9.075c-.294.574-.551,1.168-.8,1.771-.854,2.062,1.729,2.131,2.969,2.309a53.2,53.2,0,0,0,6.631.607,18.257,18.257,0,0,0,7.663-1.224,57.311,57.311,0,0,0,6.677-3.879c.3-.188.452-.155.64.158,1.25,2.078,2.52,4.143,3.787,6.215.3.492.29.482-.191.851a27.112,27.112,0,0,1-15.573,5.746c-5.136.29-10.276-.35-15.418-.538a45.562,45.562,0,0,0-9.408.488c-1.6.277-3.078.884-4.641,1.23l-.521.125a1.365,1.365,0,0,1-.3.056A.111.111,0,0,1,0,41.962Z" transform="translate(1806.313 27.185)" fill="#1d6c9e"/>
          <g transform="matrix(1, 0, 0, 1, 1629.45, 2.18)" filter="url(#Path_23015)">
            <path id="Path_23015-3" data-name="Path 23015" d="M0,41.962H0a.66.66,0,0,1,.089-.33c.063-.155.129-.307.195-.462a16.624,16.624,0,0,1,1.455-2.289c2.576-4.137,5.06-8.356,7.627-12.512,3.144-5.09,6.307-10.226,10.289-14.683S28.518,3.386,34.2,1.509C40.684-.635,47.726-.252,54.3,1.133A117.159,117.159,0,0,1,67.169,4.92c1.039.33,2.477.729,2.157,2.174h0a78.25,78.25,0,0,1-9.174,23.392Q58.5,33.247,56.61,35.869a22.782,22.782,0,0,1-3.559,4.308,1.55,1.55,0,0,1-2.217-.244c-1.155-1.478-2.227-3.045-3.319-4.572a1.57,1.57,0,0,1,.053-1.893c1.768-2.2,6.01-7.709,6.446-8.461A26.458,26.458,0,0,0,57.728,13.5a.426.426,0,0,0-.165-.33,34.574,34.574,0,0,0-13.32-3.893c-5.034-.3-8.946,1.178-13.291,3.451-2.613,1.362-4.876,4.038-6.713,6.291a50.164,50.164,0,0,0-5.628,9.075c-.294.574-.551,1.168-.8,1.771-.854,2.062,1.729,2.131,2.969,2.309a53.2,53.2,0,0,0,6.631.607,18.257,18.257,0,0,0,7.663-1.224,57.311,57.311,0,0,0,6.677-3.879c.3-.188.452-.155.64.158,1.25,2.078,2.52,4.143,3.787,6.215.3.492.29.482-.191.851a27.112,27.112,0,0,1-15.573,5.746c-5.136.29-10.276-.35-15.418-.538a45.562,45.562,0,0,0-9.408.488c-1.6.277-3.078.884-4.641,1.23l-.521.125a1.365,1.365,0,0,1-.3.056A.111.111,0,0,1,0,41.962Z" transform="translate(176.86 25)" fill="#fff"/>
          </g>
        </g>
        <g data-type="innerShadowGroup">
          <path id="Path_23016-2" data-name="Path 23016" d="M132.068,117l-5.09,4.374a.808.808,0,0,1-1.184-.142l-3.747-5.169a.808.808,0,0,1,.132-1.092c.551-.472,1.1-.94,1.649-1.415.614-.541,1.207-1.108,1.818-1.649.518-.462,1.056-.9,1.574-1.366h0a.815.815,0,0,1,1.211.125c1.27,1.768,2.514,3.507,3.767,5.255A.812.812,0,0,1,132.068,117Z" transform="translate(1724.631 -46.748)" fill="#4da9e4"/>
          <g transform="matrix(1, 0, 0, 1, 1629.45, 2.18)" filter="url(#Path_23016)">
            <path id="Path_23016-3" data-name="Path 23016" d="M132.068,117l-5.09,4.374a.808.808,0,0,1-1.184-.142l-3.747-5.169a.808.808,0,0,1,.132-1.092c.551-.472,1.1-.94,1.649-1.415.614-.541,1.207-1.108,1.818-1.649.518-.462,1.056-.9,1.574-1.366h0a.815.815,0,0,1,1.211.125c1.27,1.768,2.514,3.507,3.767,5.255A.812.812,0,0,1,132.068,117Z" transform="translate(95.18 -48.93)" fill="#fff"/>
          </g>
        </g>
      </g>
    </g>
  </g>
</svg>
