<svg xmlns="http://www.w3.org/2000/svg" width="13.161" height="14.8" viewBox="0 0 13.161 14.8"><path d="M11.445,14.8a.617.617,0,0,1-.436-1.053l5.039-5.039a1.85,1.85,0,0,0,0-2.616L11.009,1.053a.617.617,0,1,1,.872-.872L16.92,5.22a3.083,3.083,0,0,1,0,4.36l-5.039,5.039A.617.617,0,0,1,11.445,14.8Z" transform="translate(-4.661 0)" fill="#fff"/><path d="M1.445,14.8a.617.617,0,0,1-.436-1.053L6.92,7.836a.617.617,0,0,0,0-.872L1.009,1.053A.617.617,0,1,1,1.881.181L7.792,6.092a1.85,1.85,0,0,1,0,2.616L1.881,14.619A.617.617,0,0,1,1.445,14.8Z" transform="translate(-0.828 0)" fill="#fff"/></svg>