<svg xmlns="http://www.w3.org/2000/svg" width="13.161" height="14.8" viewBox="0 0 13.161 14.8"><g transform="translate(0)"><path d="M17.206,14.8a.617.617,0,0,0,.436-1.053L12.6,8.708a1.85,1.85,0,0,1,0-2.616l5.039-5.039A.617.617,0,1,0,16.77.181L11.731,5.22a3.083,3.083,0,0,0,0,4.36l5.039,5.039A.617.617,0,0,0,17.206,14.8Z" transform="translate(-10.828 0)" fill="#fff"/><path d="M7.717,14.8a.617.617,0,0,0,.436-1.053L2.242,7.836a.617.617,0,0,1,0-.872L8.153,1.053A.617.617,0,1,0,7.281.181L1.37,6.092a1.85,1.85,0,0,0,0,2.616l5.911,5.911A.617.617,0,0,0,7.717,14.8Z" transform="translate(4.827 0)" fill="#fff"/></g></svg>